<svg xmlns="http://www.w3.org/2000/svg" viewBox="0 0 1000 1000"><defs><style>.cls-1{isolation:isolate;}.cls-2{fill:#637d43;}.cls-3{fill:#c8da94;}.cls-4{fill:#ddc26d;}.cls-5{fill:#f0e097;}.cls-6,.cls-7{fill:#603910;}.cls-7{opacity:0.4;mix-blend-mode:multiply;}</style></defs><g class="cls-1"><g id="Layer_1" data-name="Layer 1"><path class="cls-2" d="M518.64,618.34,952,863.12S807.81,920,676.44,845.8C550.66,774.79,518.64,618.34,518.64,618.34Z"/><path class="cls-3" d="M518.64,618.34,952,863.12s-25.76-152.84-157.1-227.07C669.16,565,518.64,618.34,518.64,618.34Z"/><path class="cls-2" d="M592.8,605.75,1000,609s-80.63,97.88-204,96.93C677.78,705,592.8,605.75,592.8,605.75Z"/><path class="cls-3" d="M592.8,605.75,1000,609s-79.07-99.14-202.49-100.15C679.34,507.86,592.8,605.75,592.8,605.75Z"/><path class="cls-4" d="M434.11,385l34.5-299.71S504.48,148.68,494,239.52C484,326.5,434.11,385,434.11,385Z"/><path class="cls-5" d="M434.11,385l34.5-299.71s-49.4,54.11-59.87,145C398.71,317.17,434.11,385,434.11,385Z"/><path class="cls-4" d="M521.33,511.26l300.81,23.08s-62,38.26-153.21,31.27C581.64,558.92,521.33,511.26,521.33,511.26Z"/><path class="cls-5" d="M521.33,511.26l300.81,23.08S766.19,487,675,480C587.73,473.31,521.33,511.26,521.33,511.26Z"/><path class="cls-4" d="M0,465.6l300.81,23.09S238.78,527,147.6,520C60.31,513.27,0,465.6,0,465.6Z"/><path class="cls-5" d="M0,465.6l300.81,23.09s-55.95-47.31-147.12-54.32C66.39,427.66,0,465.6,0,465.6Z"/><path class="cls-4" d="M405.55,619.11,382.46,919.92s-38.25-62-31.27-153.21C357.88,679.42,405.55,619.11,405.55,619.11Z"/><path class="cls-5" d="M405.55,619.11,382.46,919.92S429.77,864,436.78,772.8C443.49,685.5,405.55,619.11,405.55,619.11Z"/><path class="cls-4" d="M135.77,171.24,331.58,400.76s-70.87-17-130.23-86.55C144.52,247.62,135.77,171.24,135.77,171.24Z"/><path class="cls-5" d="M135.77,171.24,331.58,400.76s-5.93-73-65.27-142.61C209.5,191.54,135.77,171.24,135.77,171.24Z"/><path class="cls-4" d="M502.17,574.55,698,804.07s-70.87-17-130.23-86.55C510.92,650.93,502.17,574.55,502.17,574.55Z"/><path class="cls-5" d="M502.17,574.55,698,804.07s-5.93-73-65.27-142.61C575.9,594.85,502.17,574.55,502.17,574.55Z"/><path class="cls-4" d="M464.56,388.78,605.32,121.93s10.44,72.13-32.21,153C532.27,352.39,464.56,388.78,464.56,388.78Z"/><path class="cls-5" d="M464.56,388.78,605.32,121.93S539.67,154.47,497,235.34C456.13,312.77,464.56,388.78,464.56,388.78Z"/><path class="cls-4" d="M486.55,409.07,700.33,196.19s-11.48,72-76.27,136.5C562,394.48,486.55,409.07,486.55,409.07Z"/><path class="cls-5" d="M486.55,409.07,700.33,196.19s-72.35,11.53-137.16,76C501.12,334,486.55,409.07,486.55,409.07Z"/><path class="cls-4" d="M509.46,439.39,781.29,308.51s-34.48,64.2-116.87,103.88C585.54,450.38,509.46,439.39,509.46,439.39Z"/><path class="cls-5" d="M509.46,439.39,781.29,308.51s-72.13-12.88-154.53,26.78C547.87,373.26,509.46,439.39,509.46,439.39Z"/><path class="cls-4" d="M517.38,478.49,813,418.13s-49.15,53.81-138.74,72.11C588.45,507.77,517.38,478.49,517.38,478.49Z"/><path class="cls-5" d="M517.38,478.49,813,418.13S746.19,388,656.59,406.27C570.81,423.78,517.38,478.49,517.38,478.49Z"/><path class="cls-4" d="M513.7,543.81l275.44,123.1S717.85,682,634.36,644.72C554.42,609,513.7,543.81,513.7,543.81Z"/><path class="cls-5" d="M513.7,543.81l275.44,123.1s-36.73-63.4-120.21-100.72C589,530.45,513.7,543.81,513.7,543.81Z"/><path class="cls-4" d="M229.12,123.17,374.19,387.7s-65.94-31-109.92-111.22C222.16,199.73,229.12,123.17,229.12,123.17Z"/><path class="cls-5" d="M229.12,123.17,374.19,387.7s9-72.71-34.92-152.9C297.18,158,229.12,123.17,229.12,123.17Z"/><path class="cls-4" d="M339.9,80.08l59.66,295.74s-53.7-49.28-71.79-138.91C310.44,151.09,339.9,80.08,339.9,80.08Z"/><path class="cls-5" d="M339.9,80.08l59.66,295.74s30.29-66.71,12.22-156.36C394.48,133.64,339.9,80.08,339.9,80.08Z"/><path class="cls-4" d="M54.08,283.54l268.23,138.1S250.29,432.8,169,391C91.14,350.88,54.08,283.54,54.08,283.54Z"/><path class="cls-5" d="M54.08,283.54l268.23,138.1s-33.18-65.33-114.48-107.2C130,274.36,54.08,283.54,54.08,283.54Z"/><path class="cls-4" d="M8.21,385.48l294.84,64s-66.68,29.43-156,10.05C61.44,440.94,8.21,385.48,8.21,385.48Z"/><path class="cls-5" d="M8.21,385.48l294.84,64s-49-54.51-138.32-73.91C79.17,357,8.21,385.48,8.21,385.48Z"/><path class="cls-4" d="M462.71,599.68,612,861.83s-66.43-30-111.7-109.42C457,676.34,462.71,599.68,462.71,599.68Z"/><path class="cls-5" d="M462.71,599.68,612,861.83S619.9,789,574.65,709.52C531.33,633.44,462.71,599.68,462.71,599.68Z"/><path class="cls-4" d="M427.08,604.53l67,294.15s-54.91-47.92-75.23-137.07C399.41,676.25,427.08,604.53,427.08,604.53Z"/><path class="cls-5" d="M427.08,604.53l67,294.15s28.62-67.44,8.32-156.61C483,656.71,427.08,604.53,427.08,604.53Z"/><path class="cls-4" d="M14.6,593l292-76s-46.22,56.34-134.72,79.39C87.13,618.47,14.6,593,14.6,593Z"/><path class="cls-5" d="M14.6,593l292-76s-68.29-26.55-156.8-3.53C65,535.53,14.6,593,14.6,593Z"/><path class="cls-4" d="M70.51,726.08,315.65,550.22s-22.87,69.2-97.17,122.51C147.35,723.77,70.51,726.08,70.51,726.08Z"/><path class="cls-5" d="M70.51,726.08,315.65,550.22s-73.26-.22-147.58,53.07C96.93,654.31,70.51,726.08,70.51,726.08Z"/><path class="cls-4" d="M162.38,819l177-244.35s.18,72.88-53.45,147C234.55,792.52,162.38,819,162.38,819Z"/><path class="cls-5" d="M162.38,819l177-244.35s-69.58,23-123.23,97C164.76,742.57,162.38,819,162.38,819Z"/><path class="cls-4" d="M255.27,877.39,374.65,600.32s16.07,71.08-20.1,155.07C319.92,835.8,255.27,877.39,255.27,877.39Z"/><path class="cls-5" d="M255.27,877.39,374.65,600.32s-62.9,37.58-99.09,121.56C240.91,802.28,255.27,877.39,255.27,877.39Z"/><path class="cls-6" d="M553.86,508.41A139.44,139.44,0,1,1,428.09,356.53,139.44,139.44,0,0,1,553.86,508.41Z"/><path class="cls-7" d="M526.61,412a139.31,139.31,0,0,1-250.22,98.18A139.41,139.41,0,1,0,526.61,412Z"/></g></g></svg>