<svg id="Layer_1" data-name="Layer 1" xmlns="http://www.w3.org/2000/svg" viewBox="0 0 1000 1000"><defs><style>.cls-1,.cls-5{fill:none;}.cls-1{stroke:#ea8b88;stroke-miterlimit:10;stroke-width:59.17px;}.cls-2{fill:#8ac9de;}.cls-3{fill:#6ba2d5;}.cls-4{fill:#efead8;}.cls-5{stroke:#c4dd8c;stroke-linecap:round;stroke-linejoin:round;stroke-width:14.39px;}.cls-6{fill:#224994;}.cls-7{fill:#5b7f3a;}.cls-8{fill:#c4dd8c;}</style></defs><circle class="cls-1" cx="500" cy="499.87" r="469.68"/><path class="cls-2" d="M396.45,451.79H594a0,0,0,0,1,0,0v421.4a96.63,96.63,0,0,1-96.63,96.63h-4.24a96.63,96.63,0,0,1-96.63-96.63V451.79a0,0,0,0,1,0,0Z"/><path class="cls-3" d="M495.2,969.81h0A98.75,98.75,0,0,0,594,871.07V451.79H495.2Z"/><path class="cls-4" d="M496.75,939h-3.09a73.58,73.58,0,0,1-73.58-73.59V652.06q75.12,31.76,150.25,0V865.42A73.58,73.58,0,0,1,496.75,939Z"/><path class="cls-5" d="M485.68,302.49s9.52,15.49,9.52,82.39V817.6"/><rect class="cls-6" x="377.25" y="410.25" width="235.9" height="41.54" rx="1.92"/><path class="cls-7" d="M498,317.86,266.05,36.62s113.53-1,183.85,84.27C517.23,202.49,498,317.86,498,317.86Z"/><path class="cls-8" d="M498,317.86,266.05,36.62S243.5,147.88,313.78,233.15C381.07,314.77,498,317.86,498,317.86Z"/><path class="cls-7" d="M500.54,377.92l181.93-97.18s-12.17,63.07-67.31,92.54C562.38,401.49,500.54,377.92,500.54,377.92Z"/><path class="cls-8" d="M500.54,377.92l181.93-97.18s-59.19-25-114.34,4.49C515.33,313.42,500.54,377.92,500.54,377.92Z"/><line class="cls-1" x1="850.26" y1="216.8" x2="147.15" y2="781.73"/></svg>