<?xml version="1.0" encoding="utf-8"?>
<!-- Generator: Adobe Illustrator 25.2.1, SVG Export Plug-In . SVG Version: 6.00 Build 0)  -->
<svg version="1.1" id="Layer_1" xmlns="http://www.w3.org/2000/svg" xmlns:xlink="http://www.w3.org/1999/xlink" x="0px" y="0px"
	 viewBox="0 0 1000 1000" style="enable-background:new 0 0 1000 1000;" xml:space="preserve">
<style type="text/css">
	.st0{fill:none;stroke:#654B3D;stroke-width:9.63;stroke-linecap:round;stroke-linejoin:round;}
	.st1{fill:#C1AECD;}
	.st2{clip-path:url(#SVGID_2_);}
	.st3{fill:#A695B5;}
	.st4{fill:#F8DAAA;}
	.st5{fill:#637D43;}
	.st6{fill:#C8DA94;}
	.st7{fill:#A06534;}
	.st8{fill:#C18240;}
	.st9{clip-path:url(#SVGID_4_);}
	.st10{clip-path:url(#SVGID_6_);}
	.st11{clip-path:url(#SVGID_8_);}
	.st12{clip-path:url(#SVGID_10_);}
	.st13{clip-path:url(#SVGID_12_);}
</style>
<path class="st0" d="M343.6,144.7c28.6,16.7,344.9,287.7,344.9,536"/>
<path class="st0" d="M691.6,859.3c1.6-6.4,38.9-331.2,26.7-492.6"/>
<path class="st1" d="M577.3,434.4c23.4,2.4,47.4-2,68.9-11.7c-19.5,15.1-35.1,35.2-43.9,58.1c-5.8,15.2-9.5,35,3.3,47.9
	c8.1,8.2,18.3,10,27.7,6.3c1.6,8.3,7.1,15,16.1,18.6c19,7.7,36.2-7.8,46.6-22.2c13.6-18.9,21.8-41.7,24.3-65
	c3.6,27.1,14.8,53.2,33.5,72.5c16.2,16.7,55.6,22.4,57.9-5.3c25.8,10.5,38.2-27.3,30.8-49.3c-8.3-24.4-25.7-45.5-47.2-60.8
	c22.7,9.1,47.8,12.5,71.7,8.6c17.6-2.8,39-11.2,40.8-31.6c0.9-9.7-2.6-17.6-9.3-22.8c7.3-6.6,10.4-16.2,7.2-26.8
	c-5.5-17.8-25.1-23.6-41.6-25.2c-15.4-1.5-55.9,1.9-57.3,2.8l-1.5,0.3c14.8-13.8,26.4-30.7,33.7-49.6c5.8-15.2,9.5-35-3.3-47.9
	c-8.1-8.1-18.3-10-27.7-6.3c-1.6-8.3-7.1-15-16.1-18.6c-19-7.7-36.2,7.8-46.6,22.2c-13.6,18.9-21.8,41.7-24.3,65.1
	c-3.6-27.1-14.8-53.2-33.5-72.5c-16.2-16.7-55.7-22.4-57.9,5.3c-25.8-10.5-38.2,27.3-30.8,49.3c8.3,24.4,25.7,45.5,47.2,60.8
	c-22.7-9.1-47.8-12.5-71.7-8.6c-17.6,2.8-39,11.2-40.8,31.6c-0.9,9.7,2.6,17.6,9.3,22.8c-7.3,6.6-10.4,16.2-7.2,26.8
	C541.2,426.9,560.8,432.7,577.3,434.4z"/>
<g>
	<defs>
		<path id="SVGID_1_" d="M577.3,434.4c23.4,2.4,47.4-2,68.9-11.7c-19.5,15.1-35.1,35.2-43.9,58.1c-5.8,15.2-9.5,35,3.3,47.9
			c8.1,8.2,18.3,10,27.7,6.3c1.6,8.3,7.1,15,16.1,18.6c19,7.7,36.2-7.8,46.6-22.2c13.6-18.9,21.8-41.7,24.3-65
			c3.6,27.1,14.8,53.2,33.5,72.5c16.2,16.7,55.6,22.4,57.9-5.3c25.8,10.5,38.2-27.3,30.8-49.3c-8.3-24.4-25.7-45.5-47.2-60.8
			c22.7,9.1,47.8,12.5,71.7,8.6c17.6-2.8,39-11.2,40.8-31.6c0.9-9.7-2.6-17.6-9.3-22.8c7.3-6.6,10.4-16.2,7.2-26.8
			c-5.5-17.8-25.1-23.6-41.6-25.2c-15.4-1.5-55.9,1.9-57.3,2.8l-1.5,0.3c14.8-13.8,26.4-30.7,33.7-49.6c5.8-15.2,9.5-35-3.3-47.9
			c-8.1-8.1-18.3-10-27.7-6.3c-1.6-8.3-7.1-15-16.1-18.6c-19-7.7-36.2,7.8-46.6,22.2c-13.6,18.9-21.8,41.7-24.3,65.1
			c-3.6-27.1-14.8-53.2-33.5-72.5c-16.2-16.7-55.7-22.4-57.9,5.3c-25.8-10.5-38.2,27.3-30.8,49.3c8.3,24.4,25.7,45.5,47.2,60.8
			c-22.7-9.1-47.8-12.5-71.7-8.6c-17.6,2.8-39,11.2-40.8,31.6c-0.9,9.7,2.6,17.6,9.3,22.8c-7.3,6.6-10.4,16.2-7.2,26.8
			C541.2,426.9,560.8,432.7,577.3,434.4z"/>
	</defs>
	<clipPath id="SVGID_2_">
		<use xlink:href="#SVGID_1_"  style="overflow:visible;"/>
	</clipPath>
	<g class="st2">
		<path class="st3" d="M773.2,441.1c-42.6,33.8-99.1,49.7-153.1,43c-24-3-47.9-10.2-71.9-7.1s-48.6,21.2-48.1,45.4
			c0.4,15.2,10.8,28.8,23.7,36.8s28.1,11.4,43,14.3c49.7,9.4,100.2,14,150.8,13.8c46.5-0.2,93.7-4.7,137.3-20.9
			s83.7-45.2,106.5-85.7s26.3-93.2,2.5-133.2c-16.2-27.3-88-78.8-114.6-41.2c-11.9,16.9-12.4,51-23.2,71.1
			C813,402.1,795,423.7,773.2,441.1z"/>
	</g>
</g>
<circle class="st4" cx="717.8" cy="387.4" r="38.1"/>
<path class="st5" d="M394.1,179L67.9,151.6c0,0,57.3,84.3,156.2,92.6C318.8,252.2,394.1,179,394.1,179z"/>
<path class="st6" d="M394.1,179L67.9,151.6c0,0,70.6-73.5,169.5-65.2C332,94.3,394.1,179,394.1,179z"/>
<path class="st5" d="M518.7,323.8l-256.4-21.6c0,0,45.1,66.3,122.8,72.8C459.5,381.3,518.7,323.8,518.7,323.8z"/>
<path class="st6" d="M518.7,323.8l-256.4-21.6c0,0,55.5-57.8,133.2-51.3C470,257.2,518.7,323.8,518.7,323.8z"/>
<path class="st5" d="M539.5,0l-79.1,244.8c0,0,74.7-28.8,98.7-103.1C582.1,70.7,539.5,0,539.5,0z"/>
<path class="st6" d="M539.5,0l-79.1,244.8c0,0-43.7-67.1-19.8-141.4C463.6,32.4,539.5,0,539.5,0z"/>
<path class="st7" d="M36.7,944.9c-49.5-47.3-58.2-132.4,54.4-211.3c72.1-50.4,151.4-61.3,193.7-63.2c0,0,29-10,31.9-8.7
	s6.5,5,7.5,7.7s-9.1,31.9-9.1,31.9c-2.6,42.3-14.8,121.4-66.3,192.5C168.2,1005.3,83.1,995.2,36.7,944.9z"/>
<path class="st8" d="M417.7,994.4c-78.2-17.5-138.4-97.6-73.1-244.8c41.8-94.1,114.8-153,156.1-180.4c0,0,23.1-27.6,26.8-28
	s9.5,1,12.2,3.2s10.1,37.5,10.1,37.5c23,44,58.5,130.6,49.9,233.2C586,975.5,494.7,1016.7,417.7,994.4z"/>
<g>
	<defs>
		<path id="SVGID_3_" d="M417.7,994.4c-78.2-17.5-138.4-97.6-73.1-244.8c41.8-94.1,114.8-153,156.1-180.4c0,0,23.1-27.6,26.8-28
			s9.5,1,12.2,3.2s10.1,37.5,10.1,37.5c23,44,58.5,130.6,49.9,233.2C586,975.5,494.7,1016.7,417.7,994.4z"/>
	</defs>
	<clipPath id="SVGID_4_">
		<use xlink:href="#SVGID_3_"  style="overflow:visible;"/>
	</clipPath>
	<g class="st9">
		<path class="st7" d="M454,918.5c-82.7,25.7-171.7,22.7-252.5-8.5c13.8,45.4,48.9,82.4,90.2,105.9c41.3,23.4,88.6,34.4,135.7,40.1
			c52.6,6.3,109.7,5.3,153.8-24.3c37.8-25.4,60.4-68.8,70.2-113.2c6-27.2,15.2-70.2,6.8-97.5c-11.9-38.7-32.8-12.9-50.6,4.7
			C564.4,868.4,511.8,900.2,454,918.5z"/>
	</g>
</g>
<path class="st7" d="M838.7,939.6c-34.4,56.2-112.7,81.8-209.8-8.1c-62.2-57.5-88.5-129.9-98.9-169.4c0,0-15.3-25.3-14.7-28.3
	c0.9-3.4,2.9-6.5,5.7-8.7c2.3-1.5,31.9,2.1,31.9,2.1c40.3-6.2,117.2-10.9,194.6,23.1C868.7,803.6,876.5,885.6,838.7,939.6z"/>
<g>
	<defs>
		<path id="SVGID_5_" d="M838.7,939.6c-34.4,56.2-112.7,81.8-209.8-8.1c-62.2-57.5-88.5-129.9-98.9-169.4c0,0-15.3-25.3-14.7-28.3
			c0.9-3.4,2.9-6.5,5.7-8.7c2.3-1.5,31.9,2.1,31.9,2.1c40.3-6.2,117.2-10.9,194.6,23.1C868.7,803.6,876.5,885.6,838.7,939.6z"/>
	</defs>
	<clipPath id="SVGID_6_">
		<use xlink:href="#SVGID_5_"  style="overflow:visible;"/>
	</clipPath>
	<g class="st10">
		<path class="st7" d="M789.3,891.2c-2,71.2-27.9,139.6-73.7,194.2c39,1.3,77.1-16.1,106.3-42s50.3-59.8,67.3-95
			c18.9-39.3,33.2-84,21.9-126.1c-9.7-36.1-37.5-65.3-69.4-84.7c-19.6-11.9-50.6-30.4-74-31.2c-33.3-1-18.7,22.1-9.8,40.7
			C779.6,792,790.4,841.4,789.3,891.2z"/>
	</g>
</g>
<path class="st8" d="M856.6,997c-65-10.9-118-74-70.9-197.7c30.1-79.1,87.4-130.7,120.1-155c0,0,17.7-23.7,20.7-24.2
	c3.5-0.4,7.1,0.3,10.2,2c2.3,1.6,10,30.4,10,30.4c20.8,35.1,53.9,104.6,51.3,189.2C994,973.9,920.8,1011.9,856.6,997z"/>
<g>
	<defs>
		<path id="SVGID_7_" d="M856.6,997c-65-10.9-118-74-70.9-197.7c30.1-79.1,87.4-130.7,120.1-155c0,0,17.7-23.7,20.7-24.2
			c3.5-0.4,7.1,0.3,10.2,2c2.3,1.6,10,30.4,10,30.4c20.8,35.1,53.9,104.6,51.3,189.2C994,973.9,920.8,1011.9,856.6,997z"/>
	</defs>
	<clipPath id="SVGID_8_">
		<use xlink:href="#SVGID_7_"  style="overflow:visible;"/>
	</clipPath>
	<g class="st11">
		<path class="st7" d="M883,933.1c-66.8,24.8-139.9,26.3-207.7,4.2c13.4,36.7,43.8,65.5,78.7,82.9c34.9,17.4,74.2,24.4,113.2,26.9
			c43.5,2.9,90.3-0.5,125.1-26.8c29.9-22.5,46.6-59.2,52.6-96.1c3.7-22.6,9.3-58.3,1.2-80.3c-11.5-31.3-27.5-9.1-41.4,6.1
			C971.4,887,929.6,915.4,883,933.1z"/>
	</g>
</g>
<path class="st8" d="M433.3,891c11.2,50-18.6,106.5-121.4,108.9c-65.8,1.5-119.6-24.6-146.7-41c0,0-22.2-5.8-23.5-7.8
	c-1.3-2.4-1.9-5.2-1.5-7.9c0.4-2.1,18.9-16.1,18.9-16.1c19.1-25.3,59.5-69.4,121-92.3C376.5,799,425.2,840.5,433.3,891z"/>
<g>
	<defs>
		<path id="SVGID_9_" d="M433.3,891c11.2,50-18.6,106.5-121.4,108.9c-65.8,1.5-119.6-24.6-146.7-41c0,0-22.2-5.8-23.5-7.8
			c-1.3-2.4-1.9-5.2-1.5-7.9c0.4-2.1,18.9-16.1,18.9-16.1c19.1-25.3,59.5-69.4,121-92.3C376.5,799,425.2,840.5,433.3,891z"/>
	</defs>
	<clipPath id="SVGID_10_">
		<use xlink:href="#SVGID_9_"  style="overflow:visible;"/>
	</clipPath>
	<g class="st12">
		<path class="st7" d="M379.6,890.8c37.4,40.8,59.9,93,63.9,148.1c22.5-20.3,34.3-50.7,36.6-80.9s-4.2-60.5-13.8-89.3
			c-10.7-32.1-26.9-64.8-55.9-82.2c-25-14.9-56.2-16.2-84.5-9.7c-17.3,4-44.7,10.4-58.1,22.6c-19.1,17.4,1.5,22.5,16.5,28
			C320.5,840.7,353.3,862.4,379.6,890.8z"/>
	</g>
</g>
<path class="st8" d="M793.3,780.5c-23.9,34.6-74.8,48.1-133.6-12.7c-37.6-38.9-51.8-86.1-57-111.6c0,0-8.9-16.7-8.3-18.5
	c0.7-2.1,2.1-4,3.9-5.3c1.5-0.9,20.3,2.5,20.3,2.5c26-2.5,75.1-2.7,123.3,21.7C817.3,694.8,819.4,747.5,793.3,780.5z"/>
<g>
	<defs>
		<path id="SVGID_11_" d="M793.3,780.5c-23.9,34.6-74.8,48.1-133.6-12.7c-37.6-38.9-51.8-86.1-57-111.6c0,0-8.9-16.7-8.3-18.5
			c0.7-2.1,2.1-4,3.9-5.3c1.5-0.9,20.3,2.5,20.3,2.5c26-2.5,75.1-2.7,123.3,21.7C817.3,694.8,819.4,747.5,793.3,780.5z"/>
	</defs>
	<clipPath id="SVGID_12_">
		<use xlink:href="#SVGID_11_"  style="overflow:visible;"/>
	</clipPath>
	<g class="st13">
		<path class="st7" d="M763.6,747.9c-3.8,45.3-22.8,88.1-54,121.2c24.8,2.2,49.8-7.5,69.3-23s34.3-36.3,46.4-58.1
			c13.5-24.4,24.2-52.4,18.5-79.7c-4.9-23.4-21.6-43-41.3-56.5c-12.1-8.3-31.2-21.2-46.1-22.5c-21.2-1.9-12.8,13.4-7.7,25.6
			C760.9,684.3,766,716.1,763.6,747.9z"/>
	</g>
</g>
</svg>
