<?xml version="1.0" encoding="utf-8"?>
<!-- Generator: Adobe Illustrator 25.2.1, SVG Export Plug-In . SVG Version: 6.00 Build 0)  -->
<svg version="1.1" id="Layer_1" xmlns="http://www.w3.org/2000/svg" xmlns:xlink="http://www.w3.org/1999/xlink" x="0px" y="0px"
	 viewBox="0 0 1000 1000" style="enable-background:new 0 0 1000 1000;" xml:space="preserve">
<style type="text/css">
	.st0{fill:#C6ADD1;}
	.st1{fill:#FFFFFF;}
	.st2{fill:none;stroke:#6AA0D3;stroke-width:60.7;stroke-miterlimit:10;}
	.st3{fill:none;stroke:#224994;stroke-width:60.7;stroke-miterlimit:10;}
	.st4{fill:#E3C35D;}
	.st5{fill:#6AA0D3;}
	.st6{fill:none;stroke:#224994;stroke-width:60.7;stroke-linecap:round;stroke-miterlimit:10;}
	.st7{fill:none;stroke:#6BA2D5;stroke-width:60.7;stroke-linecap:round;stroke-miterlimit:10;}
	.st8{fill:#224994;}
	.st9{fill:#6BA2D5;}
</style>
<path class="st0" d="M485.9,299.4h26.1c0.7,0,1.3,0.6,1.3,1.3V469c0,0.7-0.6,1.3-1.3,1.3h-26.1c-0.7,0-1.3-0.6-1.3-1.3V300.7
	C484.6,300,485.2,299.4,485.9,299.4z"/>
<circle class="st1" cx="499.8" cy="652.9" r="268.1"/>
<circle class="st2" cx="499.8" cy="652.9" r="268.1"/>
<path class="st3" d="M499.8,384.9c148.1,0,268.1,120,268.1,268.1S647.8,921,499.8,921"/>
<path class="st4" d="M489.7,662.8l16.5-20.1c0.4-0.5,1.3-0.6,1.8-0.2l84.1,69.1c0.5,0.4,0.6,1.3,0.2,1.8l-16.5,20.1
	c-0.4,0.5-1.3,0.6-1.8,0.2l-84.1-69.1C489.3,664.2,489.2,663.4,489.7,662.8z"/>
<path class="st4" d="M485.9,509.3h26.1c0.7,0,1.3,0.6,1.3,1.3v141.1c0,0.7-0.6,1.3-1.3,1.3h-26.1c-0.7,0-1.3-0.6-1.3-1.3V510.6
	C484.6,509.9,485.2,509.3,485.9,509.3z"/>
<circle class="st5" cx="499.8" cy="652.9" r="27.2"/>
<line class="st6" x1="643.3" y1="886" x2="692.6" y2="969"/>
<line class="st7" x1="346.7" y1="886" x2="297.5" y2="969"/>
<path class="st0" d="M545.9,286.4v26.1c0,0.7-0.6,1.3-1.3,1.3h-91.3c-0.7,0-1.3-0.6-1.3-1.3v-26.1c0-0.7,0.6-1.3,1.3-1.3h91.3
	C545.3,285.1,545.9,285.7,545.9,286.4z"/>
<polygon class="st8" points="484.6,313.7 513.2,313.7 513.2,324.8 "/>
<path class="st8" d="M200.4,477c-46.3-55.3-38.6-138,17.1-184.7s138.4-39.7,184.8,15.6L200.4,477z"/>
<path class="st9" d="M228.3,453.7c-39.9-47.7-33.3-119,14.7-159.2s119.4-34.2,159.3,13.5L228.3,453.7z"/>
<path class="st8" d="M799.5,477c46.3-55.3,38.6-138-17.1-184.7S644,252.6,597.7,307.9L799.5,477z"/>
<path class="st9" d="M771.7,453.7c39.9-47.7,33.3-119-14.8-159.2s-119.4-34.2-159.3,13.5L771.7,453.7z"/>
<ellipse transform="matrix(0.1602 -0.9871 0.9871 0.1602 -20.0136 865.9768)" class="st9" cx="498.9" cy="444.8" rx="14.3" ry="14.3"/>
<circle class="st9" cx="705.9" cy="652.9" r="14.3"/>
<ellipse transform="matrix(0.1602 -0.9871 0.9871 0.1602 -431.5317 1217.5953)" class="st9" cx="499.8" cy="862.4" rx="14.3" ry="14.3"/>
<circle class="st9" cx="290" cy="652.9" r="14.3"/>
<path class="st0" d="M627,107.8l-44,113.2l59.3-8.3l4.6,32.7l-114.3,16l-0.8-5.5l43.8-113.1l-53.2,7.4l-4.6-32.7l108.4-15.2
	L627,107.8z"/>
<path class="st0" d="M722.6,44.6l-39.1,69.8H723v21.8h-76.1v-3.7l39-69.8h-35.5V40.9h72.2L722.6,44.6z"/>
<path class="st0" d="M633.3,11.8l-34.8,41.1l26.1,5.1l-2.8,14.4l-50.3-9.8l0.5-2.4L606.7,19l-23.4-4.6L586.2,0l47.7,9.3L633.3,11.8z
	"/>
</svg>
