<svg id="Layer_1" data-name="Layer 1" xmlns="http://www.w3.org/2000/svg" xmlns:xlink="http://www.w3.org/1999/xlink" viewBox="0 0 1000 1000"><defs><style>.cls-1,.cls-5{fill:none;}.cls-2{fill:#c18240;}.cls-3{clip-path:url(#clip-path);}.cls-4{fill:#a2694d;}.cls-5{stroke:#87523a;stroke-miterlimit:10;stroke-width:5.59px;}.cls-6{clip-path:url(#clip-path-2);}.cls-7{fill:#c8da94;stroke:#637d43;stroke-linecap:round;stroke-linejoin:round;stroke-width:30.13px;}.cls-8{fill:#654b3d;}.cls-9{fill:#321710;}.cls-10{fill:#744232;}.cls-11{clip-path:url(#clip-path-3);}.cls-12{fill:#321711;}.cls-13{fill:#fff;}.cls-14{fill:#fbeabf;}.cls-15{clip-path:url(#clip-path-4);}.cls-16{fill:#e1bf89;}.cls-17{clip-path:url(#clip-path-5);}.cls-18{clip-path:url(#clip-path-6);}</style><clipPath id="clip-path"><path class="cls-1" d="M470.54,614.15c-86.16,2.71-170.33-64.7-141.61-235.46C354.6,226.18,461.86,129.19,470.05,122a.73.73,0,0,1,1,0c8.19,7.18,115.45,104.17,141.12,256.68C640.87,549.45,556.7,616.86,470.54,614.15Z"/></clipPath><clipPath id="clip-path-2"><path class="cls-1" d="M629.63,622.52c-57.8-13.16-102.11-72.64-53.33-181.29,43.57-97,131.8-143,138.5-146.3a.49.49,0,0,1,.65.17c4.2,6.2,58.74,89.38,49.33,195.33C754.22,609.06,686.5,639.29,629.63,622.52Z"/></clipPath><clipPath id="clip-path-3"><path class="cls-1" d="M41.38,777.68c97.62,147.68,320.18,104.53,406.34,42s83.65-212.91-5.6-335.93S210.67,311.7,124.51,374.21-56.24,630,41.38,777.68Z"/></clipPath><clipPath id="clip-path-4"><ellipse class="cls-1" cx="293.8" cy="594.63" rx="118.44" ry="177.26" transform="translate(-283.32 267.78) rotate(-34.18)"/></clipPath><clipPath id="clip-path-5"><path class="cls-1" d="M630.47,815.81c-61,92.26-200,65.3-253.84,26.25s-52.26-133,3.5-209.86,144.59-107.49,198.41-68.44S691.45,723.55,630.47,815.81Z"/></clipPath><clipPath id="clip-path-6"><ellipse class="cls-1" cx="472.78" cy="701.46" rx="110.74" ry="73.99" transform="translate(-373.12 698.48) rotate(-55.82)"/></clipPath></defs><path class="cls-2" d="M470.54,614.15c-86.16,2.71-170.33-64.7-141.61-235.46C354.6,226.18,461.86,129.19,470.05,122a.73.73,0,0,1,1,0c8.19,7.18,115.45,104.17,141.12,256.68C640.87,549.45,556.7,616.86,470.54,614.15Z"/><g class="cls-3"><path class="cls-4" d="M489.68,485.75C423,547,334.55,584.1,244.11,588.87c51.38,34.68,104.53,68.65,164.13,85.7S535.61,689.78,587.61,656c60.31-39.13,89.15-115,87.81-186.92-.78-42.05-16.54-177.52-66.91-183.26C581.26,361.62,550.45,430,489.68,485.75Z"/><line class="cls-5" x1="470.54" y1="96.25" x2="470.54" y2="666.46"/><path class="cls-5" d="M396,133.44s-72.61,269.14,0,516.2"/><path class="cls-5" d="M551.56,133.44s72.6,269.14,0,516.2"/><path class="cls-5" d="M435.07,121.82s-44.45,318,0,516.21"/><path class="cls-5" d="M512.85,121.82s44.45,318,0,516.21"/></g><path class="cls-2" d="M629.63,622.52c-57.8-13.16-102.11-72.64-53.33-181.29,43.57-97,131.8-143,138.5-146.3a.49.49,0,0,1,.65.17c4.2,6.2,58.74,89.38,49.33,195.33C754.22,609.06,686.5,639.29,629.63,622.52Z"/><g class="cls-6"><path class="cls-4" d="M664.68,540.4a273.51,273.51,0,0,1-181.34,26c28.17,32,57.64,63.84,94.33,85.54s82.12,32.25,122.59,18.83c46.94-15.57,79.31-61.07,90.91-109.14C798,533.48,811,440.59,778.48,428,747.19,473.7,714.8,513.86,664.68,540.4Z"/><line class="cls-5" x1="719.6" y1="277.87" x2="620.54" y2="657.34"/><path class="cls-5" d="M663.52,289.66s-95.07,166.5-89.67,343.53"/><path class="cls-5" d="M767.06,316.69s1.56,191.72-89.68,343.53"/><path class="cls-5" d="M691.55,288.73s-84.82,203.9-89.67,343.53"/><path class="cls-5" d="M743.31,302.24s-25.66,219.34-89.67,343.53"/></g><path class="cls-7" d="M974.49,741.8C945.42,850.29,836.29,883.74,744.09,859S574.1,750.8,603.17,642.31,734.9,434.9,771.75,389.52s67.51-57,110.34-45.5,63.54,36.78,72.75,94.56S1003.57,633.26,974.49,741.8Z"/><circle class="cls-8" cx="797.38" cy="660.13" r="97.84" transform="translate(-233.23 757.18) rotate(-45)"/><path class="cls-9" d="M891.45,687a97.84,97.84,0,0,0-67.16-121L770.48,754.2A97.83,97.83,0,0,0,891.45,687Z"/><path class="cls-10" d="M41.38,777.68c97.62,147.68,320.18,104.53,406.34,42s83.65-212.91-5.6-335.93S210.67,311.7,124.51,374.21-56.24,630,41.38,777.68Z"/><g class="cls-11"><path class="cls-12" d="M-92.8,741.24c6.91,35.48,39.54,59.48,70.92,77.44a729.82,729.82,0,0,0,321.14,94.86c26.82,1.47,54.48,1.31,79.48-8.49s47-31.15,50.63-57.77c13.75-101.88-163.64-64.95-214.75-65.77A1361.18,1361.18,0,0,1,57,769.8C41.09,767.69-90.27,754.21-92.8,741.24Z"/></g><ellipse class="cls-13" cx="293.8" cy="594.63" rx="162.7" ry="243.5" transform="translate(-283.32 267.78) rotate(-34.18)"/><ellipse class="cls-14" cx="293.8" cy="594.63" rx="118.44" ry="177.26" transform="translate(-283.32 267.78) rotate(-34.18)"/><g class="cls-15"><path class="cls-16" d="M354.72,578.09c39,69.5,48.63,154.87,26.11,231.32,23.6,9.19,51.51-.94,69-19.3s26.06-43.4,31.1-68.21c25.23-124.24-35.83-261.29-145.08-325.61-31.29-18.42-67.53-31.43-103.53-26.67-94.1,12.42-52.39,59.67-1,89.22C282.3,488.22,325.58,526.14,354.72,578.09Z"/></g><path class="cls-10" d="M630.47,815.81c-61,92.26-200,65.3-253.84,26.25s-52.26-133,3.5-209.86,144.59-107.49,198.41-68.44S691.45,723.55,630.47,815.81Z"/><g class="cls-17"><path class="cls-12" d="M306.05,856a351.63,351.63,0,0,0,201.84,93.89c46.4,5.15,94.75.61,136.86-19.55s77.3-57.15,89.16-102.3c6.32-24,1.46-129.37-42.84-122.44-12.61,2-36.24,43.08-46,53a352.79,352.79,0,0,1-58.26,47.55C505.18,859.51,401.17,880.53,306.05,856Z"/></g><ellipse class="cls-13" cx="472.78" cy="701.46" rx="152.11" ry="101.64" transform="matrix(0.56, -0.83, 0.83, 0.56, -373.12, 698.48)"/><ellipse class="cls-14" cx="472.78" cy="701.46" rx="110.74" ry="73.99" transform="translate(-373.12 698.48) rotate(-55.82)"/><g class="cls-18"><path class="cls-16" d="M434.72,691.12a189.59,189.59,0,0,0-16.31,144.51c-14.74,5.75-32.18-.59-43.07-12.06s-16.28-27.1-19.43-42.61c-15.77-77.61,22.38-163.22,90.63-203.4,19.54-11.51,42.19-19.64,64.67-16.67,58.79,7.76,32.73,37.28.66,55.74C480,635,452.93,658.67,434.72,691.12Z"/></g></svg>