<svg id="Layer_1" data-name="Layer 1" xmlns="http://www.w3.org/2000/svg" viewBox="0 0 1000 1000"><defs><style>.cls-1{fill:#a7ce6d;}.cls-2{fill:#5a8039;}.cls-3{fill:none;stroke:#fff;stroke-linecap:round;stroke-linejoin:round;stroke-width:20.94px;}.cls-4{fill:#f7e58a;}</style></defs><path class="cls-1" d="M500.14,302V909.59S-10.16,637.93,139.57,362.32C263.62,133.91,500.14,302,500.14,302Z"/><path class="cls-2" d="M500.14,909.59V302s236.56-168.1,360.61,60.31C1010.44,637.93,500.14,909.59,500.14,909.59Z"/><polyline class="cls-3" points="146.43 601.19 409.54 601.19 451.35 425.33 515.82 752.66 562.87 519.3 595.98 601.19 853.86 601.19"/><polygon class="cls-4" points="735.2 193.53 697.49 181.55 712.18 90.41 775.78 110.61 735.2 193.53"/><polygon class="cls-4" points="842.55 264.83 813.2 238.31 864.34 161.45 913.85 206.19 842.55 264.83"/><polygon class="cls-4" points="910.79 374.44 895.1 338.13 973.53 289.44 1000 350.69 910.79 374.44"/><polygon class="cls-4" points="264.8 193.53 302.51 181.55 287.82 90.41 224.22 110.61 264.8 193.53"/><polygon class="cls-4" points="157.45 264.83 186.8 238.31 135.66 161.45 86.15 206.19 157.45 264.83"/><polygon class="cls-4" points="89.21 374.44 104.9 338.13 26.47 289.44 0 350.69 89.21 374.44"/></svg>