<?xml version="1.0" encoding="utf-8"?>
<!-- Generator: Adobe Illustrator 25.2.1, SVG Export Plug-In . SVG Version: 6.00 Build 0)  -->
<svg version="1.1" id="Layer_1" xmlns="http://www.w3.org/2000/svg" xmlns:xlink="http://www.w3.org/1999/xlink" x="0px" y="0px"
	 viewBox="0 0 1000 1000" style="enable-background:new 0 0 1000 1000;" xml:space="preserve">
<style type="text/css">
	.st0{fill:none;stroke:#EA8B88;stroke-width:59.19;stroke-miterlimit:10;}
	.st1{fill:#6BA2D5;}
	.st2{fill:#D6D7D8;}
	.st3{fill:#8AC9DE;}
	.st4{fill:#224994;}
	.st5{fill:#396099;}
	.st6{fill:#FFFFFF;}
	.st7{font-family:'Intro';}
	.st8{font-size:94.44px;}
	.st9{fill:#EFEAD8;}
</style>
<circle class="st0" cx="500" cy="500" r="469.8"/>
<polygon class="st1" points="588.3,263.6 588.3,958.6 283.6,921.3 280.6,262.8 "/>
<polygon class="st2" points="719.3,263.6 717.8,885.6 588.3,958.6 588.3,263.6 "/>
<polygon class="st3" points="588.3,263.6 654.3,117.2 372.9,117.2 280.6,262.8 "/>
<polygon class="st1" points="654.3,117.2 717.6,263.5 588.3,263.6 "/>
<path class="st1" d="M372.9,117.2V66.7c0-8.7,7.4-15.7,16.5-15.7h250.1c9.1,0,14.8,7,14.8,15.6v50.6L372.9,117.2z"/>
<polygon class="st4" points="719.3,263.6 618.4,196.7 654.3,117.2 "/>
<path class="st4" d="M588.3,958.6l-304.7-37.3L283,770.1c47.4-29,103.6-12.6,152.6,10.5c50.3,23.8,101.4,54.2,152.9,47.7
	c3.2-0.4-3.2,0.7,0,0C591.4,872.1,589.5,914.3,588.3,958.6z"/>
<polygon class="st5" points="719.3,263.6 717.8,885.6 588.3,958.6 588.3,263.6 "/>
<path class="st6" d="M564.4,464.1c0,52.9-20.8,99.9-52.9,129.1c-21.6,19.7-48.3,31.3-77.3,31.3c-48.4,0-90.6-32.5-113-80.8
	c-11.5-25-17.3-52.2-17.2-79.6c0-88.6,58.3-160.4,130.2-160.4S564.4,375.5,564.4,464.1z"/>
<text transform="matrix(0.81 0 0 1 336.0601 488.4302)" class="st4 st7 st8">MILK</text>
<path class="st9" d="M528.1,575.4c-25.9,33.2-60.3,49-94.6,49.2c-53.8,0.3-106.1-44.4-122.9-110.2c23.7-10,61-6.4,85.1,3.3
	c30.6,12.4,59.2,34,89.4,48.7C500.6,573.8,511.8,573.8,528.1,575.4z"/>
<path class="st4" d="M416.5,202.6c16.2,22.7,51.6,17.1,69.2,12.5c18-4.8,55.7-26,59.2-48.3c1.8-11.7-11.4-46.9-11.4-46.9l-128.3,46
	C405.2,165.8,412.9,197.5,416.5,202.6z"/>
<path class="st6" d="M404.1,155.9c-2.4,24.1,31.6,31.5,56.4,27.2c36.2-6.2,73.8-30.6,73.8-56.5s-34.8-28-55.3-25.9
	C453.1,103.4,407.1,125.8,404.1,155.9z"/>
<line class="st0" x1="851.2" y1="216.9" x2="147.9" y2="782"/>
</svg>
