<?xml version="1.0" encoding="utf-8"?>
<!-- Generator: Adobe Illustrator 25.2.1, SVG Export Plug-In . SVG Version: 6.00 Build 0)  -->
<svg version="1.1" id="Layer_1" xmlns="http://www.w3.org/2000/svg" xmlns:xlink="http://www.w3.org/1999/xlink" x="0px" y="0px"
	 viewBox="0 0 1000 1000" style="enable-background:new 0 0 1000 1000;" xml:space="preserve">
<style type="text/css">
	.st0{fill:#759FCE;}
	.st1{fill:#2A4A92;}
	.st2{fill:#637D43;}
	.st3{fill:#C8DA94;}
	.st4{clip-path:url(#SVGID_2_);}
	.st5{fill:none;stroke:#627E42;stroke-width:11.09;stroke-linecap:round;stroke-linejoin:round;}
	.st6{clip-path:url(#SVGID_4_);}
	.st7{fill:none;stroke:#627E42;stroke-width:10.7;stroke-linecap:round;stroke-linejoin:round;}
</style>
<path class="st0" d="M506.5,326.1c-6.5-0.3-13.1-0.5-19.7-0.5c-63.6,0-118,13.7-163.5,37.2c-22.2-37.6-35.5-79.8-38.9-123.4
	c-1.8-24.7,0.2-51.4,15.8-70.5c11.6-14.1,28.9-21.9,46-28.1c44.9-16.3,96.3-23.4,140.6-23.4c3.9,0,7.8,0,11.7,0.2
	c-2.6-52.2-5-93.3-6.5-117.6c-1.8,0-3.5,0-5.2,0c-69.5,0-139,13.5-185.3,33.1s-88.4,52-112.4,96.2c-27.5,50.7-28.8,112.4-15.4,168.6
	c11.6,48.5,36.4,91.5,60.2,135.3c-60.1,68.9-89.4,162.6-89.4,256.4c0,175.1,141.6,286.8,320.5,295.1
	c18.3-81.5,44.4-236.8,44.4-459.5C509.5,457.5,508.3,389.7,506.5,326.1z"/>
<path class="st1" d="M829,689.6c0,182.2-153.2,295.7-342.2,295.7c-7.3,0-14.6-0.2-21.7-0.5c18.3-81.5,44.4-236.8,44.4-459.5
	c0-67.8-1.2-135.5-2.9-199.2c54,2.7,101.7,16.6,142.7,38.7c22.9-38.1,36.6-81,40-125.3c1.9-24.7-0.2-51.4-15.8-70.5
	c-11.6-14.1-28.9-21.9-46-28.1c-41-14.9-87.4-22.1-128.9-23.2c-2.5-52.2-4.9-93.3-6.4-117.6c67.6,0.6,134.9,13.9,180,33
	c46.3,19.6,88.5,52,112.4,96.2c27.5,50.7,28.7,112.4,15.4,168.6c-11.8,49.7-37.6,93.5-61.9,138.4C797.7,504.8,829,597.2,829,689.6z"
	/>
<path class="st2" d="M80.5,588.6l467.8,400.2c0,0,5.1-191.6-136.7-313C275.9,559.7,80.5,588.6,80.5,588.6z"/>
<path class="st3" d="M80.5,588.6l467.8,400.2c0,0-188.5,34.7-330.4-86.5C82.2,786.1,80.5,588.6,80.5,588.6z"/>
<g>
	<defs>
		<path id="SVGID_1_" d="M80.5,588.6l467.8,400.2c0,0-188.5,34.7-330.4-86.5C82.2,786.1,80.5,588.6,80.5,588.6z"/>
	</defs>
	<clipPath id="SVGID_2_">
		<use xlink:href="#SVGID_1_"  style="overflow:visible;"/>
	</clipPath>
	<g class="st4">
		<line class="st5" x1="126.3" y1="607" x2="71.1" y2="862.3"/>
		<line class="st5" x1="179.7" y1="652.7" x2="124.5" y2="908"/>
		<line class="st5" x1="233.2" y1="698.5" x2="178" y2="953.8"/>
		<line class="st5" x1="286.6" y1="744.2" x2="231.4" y2="999.5"/>
		<line class="st5" x1="340.1" y1="789.9" x2="284.9" y2="1045.2"/>
		<line class="st5" x1="393.5" y1="835.6" x2="338.4" y2="1090.9"/>
		<line class="st5" x1="447" y1="881.4" x2="391.8" y2="1136.7"/>
		<line class="st5" x1="500.5" y1="927.1" x2="445.3" y2="1182.4"/>
	</g>
</g>
<path class="st2" d="M352.1,989.3l567.4-411.5c0,0-210.8-56.6-382.8,68.1C371.9,765.3,352.1,989.3,352.1,989.3z"/>
<path class="st3" d="M352.1,989.3l567.4-411.5c0,0-11.7,218-183.7,342.7C571.2,1040,352.1,989.3,352.1,989.3z"/>
<g>
	<defs>
		<path id="SVGID_3_" d="M352.1,989.3l567.4-411.5c0,0-11.7,218-183.7,342.7C571.2,1040,352.1,989.3,352.1,989.3z"/>
	</defs>
	<clipPath id="SVGID_4_">
		<use xlink:href="#SVGID_3_"  style="overflow:visible;"/>
	</clipPath>
	<g class="st6">
		<line class="st7" x1="384.6" y1="943.6" x2="652.5" y2="1072.6"/>
		<line class="st7" x1="449.4" y1="896.6" x2="717.4" y2="1025.6"/>
		<line class="st7" x1="514.2" y1="849.5" x2="782.2" y2="978.5"/>
		<line class="st7" x1="579.1" y1="802.5" x2="847" y2="931.5"/>
		<line class="st7" x1="643.9" y1="755.5" x2="911.9" y2="884.5"/>
		<line class="st7" x1="708.7" y1="708.5" x2="976.7" y2="837.5"/>
		<line class="st7" x1="773.6" y1="661.5" x2="1041.5" y2="790.5"/>
		<line class="st7" x1="838.4" y1="614.4" x2="1106.4" y2="743.4"/>
	</g>
</g>
</svg>
