<?xml version="1.0" encoding="utf-8"?>
<!-- Generator: Adobe Illustrator 25.2.1, SVG Export Plug-In . SVG Version: 6.00 Build 0)  -->
<svg version="1.1" id="Layer_1" xmlns="http://www.w3.org/2000/svg" xmlns:xlink="http://www.w3.org/1999/xlink" x="0px" y="0px"
	 viewBox="0 0 1000 1000" style="enable-background:new 0 0 1000 1000;" xml:space="preserve">
<style type="text/css">
	.st0{fill:#637D43;}
	.st1{fill:#C8DA94;}
	.st2{clip-path:url(#SVGID_2_);}
	.st3{fill:none;stroke:#627E42;stroke-width:6.99;stroke-linecap:round;stroke-linejoin:round;}
	.st4{clip-path:url(#SVGID_4_);}
	.st5{fill:#759FCE;}
	.st6{clip-path:url(#SVGID_6_);}
	.st7{fill:#27366E;}
	.st8{clip-path:url(#SVGID_8_);}
	.st9{clip-path:url(#SVGID_10_);}
</style>
<path class="st0" d="M523.4,497l49-393.9c0,0,85.7,89.1,70.9,208.5C629,425.9,523.4,497,523.4,497z"/>
<path class="st1" d="M523.4,497l49-393.9c0,0-104.9,65.4-119.8,184.8C438.4,402.1,523.4,497,523.4,497z"/>
<g>
	<defs>
		<path id="SVGID_1_" d="M523.4,497l49-393.9c0,0-104.9,65.4-119.8,184.8C438.4,402.1,523.4,497,523.4,497z"/>
	</defs>
	<clipPath id="SVGID_2_">
		<use xlink:href="#SVGID_1_"  style="overflow:visible;"/>
	</clipPath>
	<g class="st2">
		<line class="st3" x1="537.2" y1="468.3" x2="400" y2="370.7"/>
		<line class="st3" x1="542.8" y1="423.3" x2="405.5" y2="325.7"/>
		<line class="st3" x1="548.4" y1="378.3" x2="411.1" y2="280.7"/>
		<line class="st3" x1="554" y1="333.3" x2="416.7" y2="235.7"/>
		<line class="st3" x1="559.6" y1="288.3" x2="422.3" y2="190.7"/>
		<line class="st3" x1="565.2" y1="243.3" x2="427.9" y2="145.7"/>
		<line class="st3" x1="570.8" y1="198.3" x2="433.5" y2="100.7"/>
		<line class="st3" x1="576.3" y1="153.3" x2="439.1" y2="55.7"/>
	</g>
</g>
<path class="st0" d="M553.1,594.2l446.4-421.7c0,0,14.5,190.7-120.8,318.5C749.2,613.5,553.1,594.2,553.1,594.2z"/>
<path class="st1" d="M553.1,594.2l446.4-421.7c0,0-189.5-25.3-324.9,102.5C545.1,397.4,553.1,594.2,553.1,594.2z"/>
<g>
	<defs>
		<path id="SVGID_3_" d="M553.1,594.2l446.4-421.7c0,0-189.5-25.3-324.9,102.5C545.1,397.4,553.1,594.2,553.1,594.2z"/>
	</defs>
	<clipPath id="SVGID_4_">
		<use xlink:href="#SVGID_3_"  style="overflow:visible;"/>
	</clipPath>
	<g class="st4">
		<line class="st3" x1="597.8" y1="573.7" x2="530.2" y2="322"/>
		<line class="st3" x1="648.8" y1="525.5" x2="581.2" y2="273.9"/>
		<line class="st3" x1="699.8" y1="477.3" x2="632.2" y2="225.7"/>
		<line class="st3" x1="750.8" y1="429.1" x2="683.3" y2="177.5"/>
		<line class="st3" x1="801.8" y1="380.9" x2="734.3" y2="129.3"/>
		<line class="st3" x1="852.8" y1="332.8" x2="785.3" y2="81.1"/>
		<line class="st3" x1="903.8" y1="284.6" x2="836.3" y2="32.9"/>
		<line class="st3" x1="954.8" y1="236.4" x2="887.3" y2="-15.3"/>
	</g>
</g>
<path class="st5" d="M453,690.3c0.1,114.1-92.2,206.7-206.3,206.8c-87.7,0.1-166-55.2-195.1-138l-30.8,13.1c0,0-9-20,13.4-46.8
	c0,0-24.6-8.3-34.2-35.1c9.6-26.8,34.2-35,34.2-35c-22.4-26.8-13.4-46.9-13.4-46.9l30.8,13.2c29.2-82.6,107.2-137.8,194.8-137.8
	C360.4,483.7,453,576.2,453,690.3z"/>
<g>
	<defs>
		<path id="SVGID_5_" d="M453,690.3c0.1,114.1-92.2,206.7-206.3,206.8c-87.7,0.1-166-55.2-195.1-138l-30.8,13.1c0,0-9-20,13.4-46.8
			c0,0-24.6-8.3-34.2-35.1c9.6-26.8,34.2-35,34.2-35c-22.4-26.8-13.4-46.9-13.4-46.9l30.8,13.2c29.2-82.6,107.2-137.8,194.8-137.8
			C360.4,483.7,453,576.2,453,690.3z"/>
	</defs>
	<clipPath id="SVGID_6_">
		<use xlink:href="#SVGID_5_"  style="overflow:visible;"/>
	</clipPath>
	<g class="st6">
		<rect x="266.1" y="431.2" class="st7" width="246.9" height="561.4"/>
	</g>
</g>
<path class="st5" d="M486.4,371.4c105.9,0,191.7,85.8,191.7,191.7s-85.8,191.7-191.7,191.7S294.7,668.9,294.7,563
	S380.5,371.4,486.4,371.4z"/>
<g>
	<defs>
		<path id="SVGID_7_" d="M486.4,371.4c105.9,0,191.7,85.8,191.7,191.7s-85.8,191.7-191.7,191.7S294.7,668.9,294.7,563
			S380.5,371.4,486.4,371.4z"/>
	</defs>
	<clipPath id="SVGID_8_">
		<use xlink:href="#SVGID_7_"  style="overflow:visible;"/>
	</clipPath>
	<g class="st8">
		<path class="st7" d="M584.3,638.3c-44.8,62-113.7,106-188.8,120.4c48.6,55.4,136,69.1,202.7,37.6s110.6-102.6,116.7-176.1
			c3.1-37.4-2.9-75.2-15.8-110.3c-5.3-14.5-37.5-93.3-55.8-76.7c-7.3,6.6-1.8,41.3-2.7,51.4c-1.5,18.6-4.8,37.1-9.7,55.1
			C621.5,575.1,605.7,608.5,584.3,638.3z"/>
	</g>
</g>
<path class="st7" d="M500.7,520.5l-32.8-29.5c-2-1.8-5.2-1.7-7,0.4c-0.6,0.6-1,1.4-1.2,2.3l-9.2,43.1l-38.2,22
	c-2.4,1.4-3.1,4.5-1.7,6.9c0.4,0.7,1,1.3,1.7,1.7l38.2,22.1l9.1,43.1c0.6,2.7,3.2,4.4,5.9,3.8c0.9-0.2,1.6-0.6,2.3-1.2l32.8-29.5
	l43.9,4.6c2.7,0.3,5.1-1.7,5.4-4.4c0.1-0.9-0.1-1.7-0.4-2.5L531.6,563l17.9-40.3c1.1-2.5-0.1-5.5-2.7-6.6c-0.7-0.3-1.5-0.4-2.3-0.4
	L500.7,520.5z"/>
<path class="st5" d="M486.8,530.7c17.8,0,32.3,14.5,32.3,32.3c0,17.8-14.5,32.3-32.3,32.3c-17.8,0-32.3-14.5-32.3-32.3c0,0,0,0,0,0
	C454.6,545.2,469,530.7,486.8,530.7z"/>
<path class="st5" d="M282.9,135c77.1,45.9,102.4,145.6,56.5,222.7s-145.6,102.4-222.7,56.5S14.3,268.6,60.2,191.5c0,0,0,0,0,0
	C106.1,114.4,205.8,89.1,282.9,135z"/>
<g>
	<defs>
		<path id="SVGID_9_" d="M282.9,135c77.1,45.9,102.4,145.6,56.5,222.7s-145.6,102.4-222.7,56.5S14.3,268.6,60.2,191.5c0,0,0,0,0,0
			C106.1,114.4,205.8,89.1,282.9,135z"/>
	</defs>
	<clipPath id="SVGID_10_">
		<use xlink:href="#SVGID_9_"  style="overflow:visible;"/>
	</clipPath>
	<g class="st9">
		<path class="st7" d="M339.1,148.6c6.9,69.3-15.7,141-61,193.8s-112.7,86.1-182.2,89.9c58.8,21.7,123.5,28.8,181.6,5.1
			s105.7-74.6,119.8-135.7S389.9,185.4,339.1,148.6z"/>
	</g>
</g>
<path class="st7" d="M228.7,249.7l-11.2-36.1c-0.6-2.1-2.8-3.2-4.9-2.6c-0.7,0.2-1.3,0.6-1.7,1.1l-25.7,27.8l-37.8-0.5
	c-2.2,0-4,1.7-4,3.9c0,0.7,0.2,1.4,0.5,2l18.5,33L150.1,314c-0.7,2,0.4,4.3,2.4,5c0.7,0.2,1.4,0.3,2,0.1l37.1-7.4l30.3,22.6
	c1.7,1.3,4.2,0.9,5.5-0.8c0.4-0.5,0.7-1.2,0.8-1.9l4.4-37.6l30.9-21.8c1.8-1.2,2.2-3.7,1-5.5c-0.4-0.6-0.9-1-1.6-1.3L228.7,249.7z"
	/>
<path class="st5" d="M214.1,251.2c13,7.7,17.3,24.6,9.5,37.6c-7.7,13-24.6,17.3-37.6,9.5c-13-7.7-17.3-24.5-9.5-37.5
	C184.3,247.8,201.1,243.5,214.1,251.2z"/>
</svg>
