<svg id="Layer_1" data-name="Layer 1" xmlns="http://www.w3.org/2000/svg" xmlns:xlink="http://www.w3.org/1999/xlink" viewBox="0 0 1000 1000"><defs><style>.cls-1,.cls-7{fill:none;}.cls-2{fill:#637d43;}.cls-3{fill:#c8da94;}.cls-4{fill:#c18240;}.cls-5{clip-path:url(#clip-path);}.cls-6{fill:#a2694d;}.cls-7{stroke:#87523a;stroke-miterlimit:10;stroke-width:8.83px;}.cls-8{clip-path:url(#clip-path-2);}</style><clipPath id="clip-path"><path class="cls-1" d="M333.81,980c-136,4.28-268.82-102.11-223.5-371.62C150.82,367.72,320.11,214.65,333,203.32a1.16,1.16,0,0,1,1.56,0c12.92,11.33,182.21,164.4,222.72,405.09C602.63,877.92,469.79,984.31,333.81,980Z"/></clipPath><clipPath id="clip-path-2"><path class="cls-1" d="M584.9,993.25c-91.24-20.78-161.16-114.65-84.18-286.13,68.77-153.14,208-225.6,218.59-230.9a.82.82,0,0,1,1,.27C727,486.28,813,617.56,798.19,784.77,781.54,972,674.65,1019.72,584.9,993.25Z"/></clipPath></defs><path class="cls-2" d="M467.71,536.61,898.73,203S862,329.44,731.35,430.57C606.28,527.4,467.71,536.61,467.71,536.61Z"/><path class="cls-3" d="M467.71,536.61,898.73,203s-132.29,4.41-263,105.51C510.69,405.31,467.71,536.61,467.71,536.61Z"/><path class="cls-2" d="M387.52,551.82,745.19,0s8.6,158.62-99.79,325.89C541.62,486,387.52,551.82,387.52,551.82Z"/><path class="cls-3" d="M387.52,551.82,745.19,0S596.32,57.81,487.88,225.05C384.07,385.17,387.52,551.82,387.52,551.82Z"/><path class="cls-4" d="M333.81,980c-136,4.28-268.82-102.11-223.5-371.62C150.82,367.72,320.11,214.65,333,203.32a1.16,1.16,0,0,1,1.56,0c12.92,11.33,182.21,164.4,222.72,405.09C602.63,877.92,469.79,984.31,333.81,980Z"/><g class="cls-5"><path class="cls-6" d="M364,777.39C258.7,874,119.19,932.61-23.55,940.14c81.08,54.73,165,108.35,259,135.26s201,24,283.09-29.25c95.19-61.76,140.71-181.56,138.6-295-1.23-66.37-26.11-280.16-105.6-289.23C508.56,581.47,459.92,689.4,364,777.39Z"/><line class="cls-7" x1="333.81" y1="162.65" x2="333.81" y2="1062.6"/><path class="cls-7" d="M216.13,221.34s-114.59,424.78,0,814.72"/><path class="cls-7" d="M461.68,221.34s114.59,424.78,0,814.72"/><path class="cls-7" d="M277.83,203s-70.15,501.87,0,814.71"/><path class="cls-7" d="M400.59,203s70.15,501.87,0,814.71"/></g><path class="cls-4" d="M584.9,993.25c-91.24-20.78-161.16-114.65-84.18-286.13,68.77-153.14,208-225.6,218.59-230.9a.82.82,0,0,1,1,.27C727,486.28,813,617.56,798.19,784.77,781.54,972,674.65,1019.72,584.9,993.25Z"/><g class="cls-8"><path class="cls-6" d="M640.21,863.64c-86.88,46-189.9,60.77-286.2,41,44.45,50.51,91,100.77,148.89,135s129.6,50.89,193.47,29.71C770.45,1044.78,821.55,973,839.85,897.1c10.71-44.38,31.3-191-20-210.82C770.43,758.37,719.31,821.75,640.21,863.64Z"/><line class="cls-7" x1="726.89" y1="449.3" x2="570.56" y2="1048.2"/><path class="cls-7" d="M638.38,467.91s-150,262.78-141.53,542.18"/><path class="cls-7" d="M801.79,510.57s2.47,302.59-141.53,542.18"/><path class="cls-7" d="M682.62,466.43S548.75,788.24,541.09,1008.61"/><path class="cls-7" d="M764.32,487.76s-40.5,346.18-141.53,542.18"/></g></svg>