<?xml version="1.0" encoding="utf-8"?>
<!-- Generator: Adobe Illustrator 25.2.1, SVG Export Plug-In . SVG Version: 6.00 Build 0)  -->
<svg version="1.1" id="Layer_1" xmlns="http://www.w3.org/2000/svg" xmlns:xlink="http://www.w3.org/1999/xlink" x="0px" y="0px"
	 viewBox="0 0 1000 1000" style="enable-background:new 0 0 1000 1000;" xml:space="preserve">
<style type="text/css">
	.st0{fill:none;stroke:#654B3D;stroke-width:19.48;stroke-linecap:round;stroke-linejoin:round;}
	.st1{fill:none;stroke:#654B3D;stroke-width:12.17;stroke-linecap:round;stroke-linejoin:round;}
	.st2{fill:#637D43;}
	.st3{fill:#C8DA94;}
	.st4{clip-path:url(#SVGID_2_);}
	.st5{fill:none;stroke:#627E42;stroke-width:14.61;stroke-linecap:round;stroke-linejoin:round;}
	.st6{clip-path:url(#SVGID_4_);}
	.st7{fill:none;stroke:#627E42;stroke-width:9.74;stroke-linecap:round;stroke-linejoin:round;}
	.st8{clip-path:url(#SVGID_6_);}
	.st9{fill:none;stroke:#627E42;stroke-width:9.14;stroke-linecap:round;stroke-linejoin:round;}
</style>
<line class="st0" x1="419.9" y1="554.2" x2="88.3" y2="990.4"/>
<line class="st1" x1="366" y1="735" x2="236.2" y2="795.7"/>
<line class="st1" x1="204.5" y1="629.7" x2="300.4" y2="711.5"/>
<path class="st2" d="M398.1,566.9L999.6,13.1c0,0,16,254.1-166.3,422.1C658.8,595.9,398.1,566.9,398.1,566.9z"/>
<path class="st3" d="M398.1,566.9L999.6,13.1c0,0-252-36.9-434.3,130.9C390.7,304.6,398.1,566.9,398.1,566.9z"/>
<g>
	<defs>
		<path id="SVGID_1_" d="M398.1,566.9L999.6,13.1c0,0-252-36.9-434.3,130.9C390.7,304.6,398.1,566.9,398.1,566.9z"/>
	</defs>
	<clipPath id="SVGID_2_">
		<use xlink:href="#SVGID_1_"  style="overflow:visible;"/>
	</clipPath>
	<g class="st4">
		<line class="st5" x1="457.9" y1="540.3" x2="372.2" y2="204.1"/>
		<line class="st5" x1="526.6" y1="477" x2="441" y2="140.8"/>
		<line class="st5" x1="595.4" y1="413.7" x2="509.7" y2="77.5"/>
		<line class="st5" x1="664.1" y1="350.4" x2="578.4" y2="14.2"/>
		<line class="st5" x1="732.8" y1="287.1" x2="647.2" y2="-49"/>
		<line class="st5" x1="801.6" y1="223.9" x2="715.9" y2="-112.3"/>
		<line class="st5" x1="870.3" y1="160.6" x2="784.7" y2="-175.6"/>
		<line class="st5" x1="939" y1="97.3" x2="853.4" y2="-238.9"/>
	</g>
</g>
<path class="st2" d="M333.9,743.3l499.3,53.8c0,0-110.9,110.3-262.2,94C426,875.5,333.9,743.3,333.9,743.3z"/>
<path class="st3" d="M333.9,743.3l499.3,53.8c0,0-84.9-131.3-236.2-147.7C452.1,633.8,333.9,743.3,333.9,743.3z"/>
<g>
	<defs>
		<path id="SVGID_3_" d="M333.9,743.3l499.3,53.8c0,0-84.9-131.3-236.2-147.7C452.1,633.8,333.9,743.3,333.9,743.3z"/>
	</defs>
	<clipPath id="SVGID_4_">
		<use xlink:href="#SVGID_3_"  style="overflow:visible;"/>
	</clipPath>
	<g class="st6">
		<line class="st7" x1="370.4" y1="760.2" x2="491" y2="584.6"/>
		<line class="st7" x1="427.5" y1="766.3" x2="548.1" y2="590.7"/>
		<line class="st7" x1="484.5" y1="772.5" x2="605.2" y2="596.8"/>
		<line class="st7" x1="541.6" y1="778.6" x2="662.2" y2="603"/>
		<line class="st7" x1="598.6" y1="784.8" x2="719.3" y2="609.1"/>
		<line class="st7" x1="655.7" y1="790.9" x2="776.3" y2="615.3"/>
		<line class="st7" x1="712.7" y1="797" x2="833.4" y2="621.4"/>
		<line class="st7" x1="769.8" y1="803.2" x2="890.4" y2="627.6"/>
	</g>
</g>
<path class="st2" d="M259.6,688.9L53.3,131.3c0,0,175.3,59.4,237.9,228.4C351.1,521.5,259.6,688.9,259.6,688.9z"/>
<path class="st3" d="M259.6,688.9L53.3,131.3c0,0-94.4,159.2-32,328.3C81.2,621.4,259.6,688.9,259.6,688.9z"/>
<g>
	<defs>
		<path id="SVGID_5_" d="M259.6,688.9L53.3,131.3c0,0-94.4,159.2-32,328.3C81.2,621.4,259.6,688.9,259.6,688.9z"/>
	</defs>
	<clipPath id="SVGID_6_">
		<use xlink:href="#SVGID_5_"  style="overflow:visible;"/>
	</clipPath>
	<g class="st8">
		<line class="st9" x1="258.2" y1="641.3" x2="8.4" y2="606"/>
		<line class="st9" x1="234.6" y1="577.6" x2="-15.1" y2="542.3"/>
		<line class="st9" x1="211.1" y1="513.9" x2="-38.7" y2="478.6"/>
		<line class="st9" x1="187.5" y1="450.2" x2="-62.2" y2="414.9"/>
		<line class="st9" x1="163.9" y1="386.5" x2="-85.8" y2="351.2"/>
		<line class="st9" x1="140.4" y1="322.8" x2="-109.4" y2="287.5"/>
		<line class="st9" x1="116.8" y1="259" x2="-133" y2="223.8"/>
		<line class="st9" x1="93.2" y1="195.3" x2="-156.5" y2="160.1"/>
	</g>
</g>
</svg>
