<?xml version="1.0" encoding="utf-8"?>
<!-- Generator: Adobe Illustrator 25.2.1, SVG Export Plug-In . SVG Version: 6.00 Build 0)  -->
<svg version="1.1" id="Layer_1" xmlns="http://www.w3.org/2000/svg" xmlns:xlink="http://www.w3.org/1999/xlink" x="0px" y="0px"
	 viewBox="0 0 1000 1000" style="enable-background:new 0 0 1000 1000;" xml:space="preserve">
<style type="text/css">
	.st0{fill:#637D43;}
	.st1{fill:#C8DA94;}
	.st2{fill:#744232;}
	.st3{clip-path:url(#SVGID_2_);}
	.st4{fill:#321711;}
	.st5{fill:#FFFFFF;}
	.st6{fill:#FBEABF;}
	.st7{clip-path:url(#SVGID_4_);}
	.st8{fill:#E1BF89;}
	.st9{clip-path:url(#SVGID_6_);}
	.st10{clip-path:url(#SVGID_8_);}
</style>
<path class="st0" d="M632.7,483L817.3,24.2c0,0,74.8,134.6,18.9,273.7C782.6,431,632.7,483,632.7,483z"/>
<path class="st1" d="M632.7,483L817.3,24.2c0,0-147.2,45.3-203.1,184.4C560.5,341.7,632.7,483,632.7,483z"/>
<path class="st0" d="M686.8,449.6l246.8-131.8c0,0-16.5,85.5-91.3,125.5C770.7,481.5,686.8,449.6,686.8,449.6z"/>
<path class="st1" d="M686.8,449.6l246.8-131.8c0,0-80.3-33.9-155.1,6.1C706.9,362.1,686.8,449.6,686.8,449.6z"/>
<path class="st2" d="M63,822.7c148.7,225,487.8,159.2,619.1,64s127.5-324.4-8.5-511.8S321,112.7,189.7,207.9S-85.7,597.6,63,822.7z"
	/>
<g>
	<defs>
		<path id="SVGID_1_" d="M63,822.7c148.7,225,487.8,159.2,619.1,64s127.5-324.4-8.5-511.8S321,112.7,189.7,207.9
			S-85.7,597.6,63,822.7z"/>
	</defs>
	<clipPath id="SVGID_2_">
		<use xlink:href="#SVGID_1_"  style="overflow:visible;"/>
	</clipPath>
	<g class="st3">
		<path class="st4" d="M-141.4,767.1c10.5,54.1,60.2,90.6,108.1,118c149.7,85.5,317.2,134.9,489.3,144.5c40.9,2.2,83,2,121.1-12.9
			s71.7-47.5,77.1-88c21-155.2-249.3-99-327.2-100.2c-80.4-1.3-160.6-7.3-240.3-17.9C62.6,807.4-137.6,786.9-141.4,767.1z"/>
	</g>
</g>
<ellipse transform="matrix(0.8273 -0.5618 0.5618 0.8273 -228.1613 345.4014)" class="st5" cx="447.6" cy="543.8" rx="247.9" ry="371"/>
<ellipse transform="matrix(0.8273 -0.5618 0.5618 0.8273 -228.1613 345.4014)" class="st6" cx="447.6" cy="543.8" rx="180.5" ry="270.1"/>
<g>
	<defs>
		
			<ellipse id="SVGID_3_" transform="matrix(0.8273 -0.5618 0.5618 0.8273 -228.1613 345.4014)" cx="447.6" cy="543.8" rx="180.5" ry="270.1"/>
	</defs>
	<clipPath id="SVGID_4_">
		<use xlink:href="#SVGID_3_"  style="overflow:visible;"/>
	</clipPath>
	<g class="st7">
		<path class="st8" d="M540.5,518.5c59.4,105.9,74.1,236,39.8,352.5c36,14,78.5-1.4,105.1-29.4s39.7-66.1,47.4-103.9
			c38.5-189.3-54.6-398.1-221-496.1c-47.7-28.1-102.9-47.9-157.7-40.6c-143.4,18.9-79.8,90.9-1.6,135.9
			C430.1,381.6,496.1,439.4,540.5,518.5z"/>
	</g>
</g>
<path class="st2" d="M960.6,880.8c-92.9,140.6-304.8,99.5-386.8,40s-79.6-202.7,5.3-319.8s220.3-163.8,302.3-104.3
	S1053.5,740.2,960.6,880.8z"/>
<g>
	<defs>
		<path id="SVGID_5_" d="M960.6,880.8c-92.9,140.6-304.8,99.5-386.8,40s-79.6-202.7,5.3-319.8s220.3-163.8,302.3-104.3
			S1053.5,740.2,960.6,880.8z"/>
	</defs>
	<clipPath id="SVGID_6_">
		<use xlink:href="#SVGID_5_"  style="overflow:visible;"/>
	</clipPath>
	<g class="st9">
		<path class="st4" d="M466.3,941.9c83.4,79.3,193.2,130.4,307.5,143c70.7,7.8,144.4,0.9,208.5-29.8s117.8-87.1,135.8-155.9
			c9.6-36.6,2.2-197.1-65.3-186.5c-19.2,3-55.2,65.6-70,80.7c-26.9,27.2-56.7,51.5-88.8,72.4C769.7,947.3,611.2,979.4,466.3,941.9z"
			/>
	</g>
</g>
<ellipse transform="matrix(0.5618 -0.8273 0.8273 0.5618 -268.8024 905.5043)" class="st5" cx="720.3" cy="706.5" rx="231.8" ry="154.9"/>
<ellipse transform="matrix(0.5618 -0.8273 0.8273 0.5618 -268.8024 905.5043)" class="st6" cx="720.3" cy="706.5" rx="168.7" ry="112.7"/>
<g>
	<defs>
		
			<ellipse id="SVGID_7_" transform="matrix(0.5618 -0.8273 0.8273 0.5618 -268.8024 905.5043)" cx="720.3" cy="706.5" rx="168.7" ry="112.7"/>
	</defs>
	<clipPath id="SVGID_8_">
		<use xlink:href="#SVGID_7_"  style="overflow:visible;"/>
	</clipPath>
	<g class="st10">
		<path class="st8" d="M662.4,690.8c-37.1,66.2-46.3,147.4-24.8,220.2c-22.5,8.8-49-0.9-65.6-18.4s-24.8-41.3-29.6-64.9
			c-24-118.2,34.1-248.7,138.1-309.9c29.8-17.5,64.3-29.9,98.5-25.4c89.6,11.8,49.9,56.8,1,84.9
			C731.3,605.2,690.1,641.3,662.4,690.8z"/>
	</g>
</g>
</svg>
