<svg id="Layer_1" data-name="Layer 1" xmlns="http://www.w3.org/2000/svg" viewBox="0 0 1000 1000"><defs><style>.cls-1,.cls-4{fill:none;stroke:#ea8b88;stroke-miterlimit:10;}.cls-1{stroke-width:59.19px;}.cls-2{fill:#f7e58a;}.cls-3{fill:#e6c54e;}.cls-4{stroke-width:62.38px;}</style></defs><circle class="cls-1" cx="500" cy="500.08" r="469.81"/><path class="cls-2" d="M334.61,482.78c8.29,74.62-31.1,132.66,149.24,215.57C504.58,586.42,467.27,545,334.61,482.78Z"/><path class="cls-2" d="M334.61,329.73c8.29,74.62-31.1,132.67,149.24,215.58C504.58,433.37,467.27,391.92,334.61,329.73Z"/><path class="cls-2" d="M405.14,213.53l.18-176h-15V204.89c-12.43-6.95-26.18-14-41.25-21.29l.32.12L349.59,23h-15V178.1l.14.06c7.63,73.91-30.05,131.74,149.1,214.1C500.28,303.55,480.19,259.11,405.14,213.53Z"/><path class="cls-2" d="M334.61,637.08c8.29,74.63-31.1,132.66,149.24,215.58C504.58,740.72,467.27,699.27,334.61,637.08Z"/><path class="cls-2" d="M547.74,118.51c0,57.3-50.45,102.78-50.45,102.78s-50.43-46.76-50.43-102.78,50.43-102.8,50.43-102.8S547.74,61.19,547.74,118.51Z"/><path class="cls-2" d="M516,878.63v88.52c0,6.14-6.9,11.13-15.43,11.13a21.34,21.34,0,0,1-3.26-.25c-7-1.07-12.17-5.53-12.17-10.88V878.63c0-5.34,5.21-9.8,12.17-10.87a20.14,20.14,0,0,1,3.26-.25,18.67,18.67,0,0,1,10.92,3.26C514.26,872.79,516,875.57,516,878.63Z"/><path class="cls-3" d="M511.47,870.75c2.79,2,4.51,4.8,4.51,7.86v88.55c0,6.14-6.9,11.13-15.43,11.13a20.14,20.14,0,0,1-3.26-.25V867.74a20.14,20.14,0,0,1,3.26-.25A18.67,18.67,0,0,1,511.47,870.75Z"/><path class="cls-3" d="M497.29,221.29a570,570,0,0,0,0-205.58s50.45,45.48,50.45,102.8S497.29,221.29,497.29,221.29Z"/><path class="cls-3" d="M665.39,637.1c-8.3,74.62,31.1,132.64-149.24,215.56C495.42,740.71,532.75,699.26,665.39,637.1Z"/><path class="cls-3" d="M665.39,482.79c-8.3,74.62,31.1,132.65-149.24,215.56C495.42,586.41,532.75,545,665.39,482.79Z"/><path class="cls-3" d="M665.39,329.74c-8.3,74.62,31.1,132.64-149.24,215.56C495.42,433.38,532.75,391.93,665.39,329.74Z"/><path class="cls-3" d="M665.39,23V178.11l-.14.06c-7.63,73.89,30,131.71-149.1,214.1-16.42-88.71,3.67-133.16,78.73-178.73l-.21-176h15V204.89c12.43-6.95,26.17-14,41.22-21.28l-.29.12L650.43,23Z"/><line class="cls-4" x1="869.32" y1="228.66" x2="128.08" y2="824.24"/></svg>