<?xml version="1.0" encoding="utf-8"?>
<!-- Generator: Adobe Illustrator 25.2.1, SVG Export Plug-In . SVG Version: 6.00 Build 0)  -->
<svg version="1.1" id="Layer_1" xmlns="http://www.w3.org/2000/svg" xmlns:xlink="http://www.w3.org/1999/xlink" x="0px" y="0px"
	 viewBox="0 0 1000 1000" style="enable-background:new 0 0 1000 1000;" xml:space="preserve">
<style type="text/css">
	.st0{fill:#637D43;}
	.st1{fill:#C8DA94;}
	.st2{fill:#FBEABF;}
	.st3{fill:#654B3D;}
	.st4{fill:#C7C5C3;}
	.st5{fill:#C09174;}
	.st6{fill:#E1BF89;}
</style>
<path class="st0" d="M369.4,649.9l-297.4,94c0,0,81.1,53.5,171.2,25.1C329.5,741.7,369.4,649.9,369.4,649.9z"/>
<path class="st1" d="M369.4,649.9l-297.4,94c0,0,35.6-90.4,125.7-118.9C284,597.7,369.4,649.9,369.4,649.9z"/>
<path class="st0" d="M166.9,538l207.5,133.3c0,0-72.9,24.1-135.8-16.3C178.3,616.3,166.9,538,166.9,538z"/>
<path class="st1" d="M166.9,538l207.5,133.3c0,0-8.5-76.3-71.3-116.8C242.9,515.8,166.9,538,166.9,538z"/>
<path class="st2" d="M308.2,418.4l154.7,317.7l-30.2,14.7c-49.1,23.9-107.6-5-118.4-58.6l-27-134.8l-50.7-104.1L308.2,418.4z"/>
<path class="st2" d="M493.1,721.5l-30.2,14.7L308.2,418.4l71.6-34.8l50.7,104.1L520,592.1C555.6,633.6,542.3,697.5,493.1,721.5
	L493.1,721.5z"/>
<polygon class="st3" points="391.6,407.8 248.4,477.5 236.6,453.3 379.8,383.6 "/>
<path class="st4" d="M4.2,511.3l7.2,14.9c8,16.4,27.7,23.2,44.1,15.3c0,0,0,0,0.1,0l505.2-245.9c16.4-8,23.2-27.7,15.3-44.1
	c0,0,0,0,0-0.1l-7.2-14.9L4.2,511.3z"/>
<path class="st5" d="M4.2,511.3l7.2,14.9c8,16.4,27.7,23.2,44.1,15.3c0,0,0,0,0.1,0l505.2-245.9c16.4-8,23.2-27.7,15.3-44.1
	c0,0,0,0,0-0.1l-7.2-14.9L4.2,511.3z"/>
<path class="st6" d="M174.3,143.3l-0.1,0.1C-1.4,228.9-8.6,414.2,4,511.4l282.5-137.5L174.3,143.3z"/>
<path class="st2" d="M174.3,143.3l0.2-0.1C350,57.8,500.3,166.4,569,236.3L286.5,373.9L174.3,143.3z"/>
<path class="st2" d="M739,605L583.7,863.1l-24.6-14.8c-33.7-20.3-44.5-64-24.2-97.7c3.1-5.2,6.9-10,11.2-14.2l83.8-81.9l50.9-84.6
	L739,605z"/>
<path class="st2" d="M608.2,877.9l-24.5-14.8L739,605l58.1,35l-50.9,84.6L713.1,837c-11.1,37.7-50.6,59.2-88.3,48.1
	C619,883.5,613.4,881,608.2,877.9z"/>
<polygon class="st3" points="785.3,659.7 669,589.7 680.8,570 797.2,640 "/>
<path class="st4" d="M531.5,430.8l-7.3,12.1c-8,13.3-3.7,30.6,9.6,38.7l410.4,247c13.3,8,30.6,3.7,38.7-9.6l7.3-12.1L531.5,430.8z"
	/>
<path class="st5" d="M531.5,430.8l-7.3,12.1c-8,13.3-3.7,30.6,9.6,38.7l410.4,247c13.3,8,30.6,3.7,38.7-9.6l7.3-12.1L531.5,430.8z"
	/>
<path class="st2" d="M873.5,381.6l-0.1-0.1c-142.6-85.8-278.4-5-342,49.2l229.4,138.1L873.5,381.6z"/>
<path class="st2" d="M873.5,381.6l0.2,0.1c142.6,85.8,134.7,243.7,116.6,325.3L760.8,568.8L873.5,381.6z"/>
</svg>
