<?xml version="1.0" encoding="utf-8"?>
<!-- Generator: Adobe Illustrator 25.2.1, SVG Export Plug-In . SVG Version: 6.00 Build 0)  -->
<svg version="1.1" id="Layer_1" xmlns="http://www.w3.org/2000/svg" xmlns:xlink="http://www.w3.org/1999/xlink" x="0px" y="0px"
	 viewBox="0 0 1000 1000" style="enable-background:new 0 0 1000 1000;" xml:space="preserve">
<style type="text/css">
	.st0{fill:none;stroke:#EA8B88;stroke-width:59.19;stroke-miterlimit:10;}
	.st1{fill:none;stroke:#5A8039;stroke-width:28.13;stroke-miterlimit:10;}
	.st2{fill:#C4DD8C;}
	.st3{fill:#5B7F3A;}
	.st4{fill:#E6C54E;}
	.st5{fill:#5A8039;}
</style>
<circle class="st0" cx="500" cy="500" r="469.8"/>
<path class="st1" d="M556.1,280.8c1.6-24.7,29.6-45.1,46.6-52.6s35.6-10.8,52.4-18.7c40.8-19.1,66.4-66.5,60-111.1"/>
<path class="st2" d="M560.5,822.2c4.8-19.2,0.4-39.8-3.5-58c-2.7-12.5-5.2-24.4-3.4-31c0.9-3.4,6.8-7.7,13.7-12.7
	c16.8-12.1,42.2-30.5,54.5-76.2s-0.4-74.3-8.9-93.3c-3.5-7.7-6.4-14.4-5.5-17.8c1.8-6.6,9.9-15.5,18.5-25
	c12.5-13.8,26.7-29.4,32.2-48.4c7.3-25.3,7.1-52.2-0.6-79.8c-6.1-21.7-16.8-43.9-31.9-65.9C600.1,276.9,571.3,253,570,252
	c-1-0.8-2.1-1.4-3.4-1.7c-1.2-0.3-2.5-0.4-3.8-0.2c-0.5,0.1-3.9,0.6-9.5,1.9c-24.1,5.4-47.5,13.4-69.8,23.9
	c-24.1,11.5-44.6,25.3-60.8,41c-20.5,20-34.2,43.1-40.6,68.7c-4.8,19.1-0.4,39.8,3.5,58c2.6,12.5,5.2,24.4,3.4,30.9
	c-1,3.4-6.9,7.7-13.7,12.7c-16.8,12.1-42.2,30.5-54.6,76.2s0.5,74.4,8.9,93.3c3.5,7.7,6.4,14.4,5.5,17.9c-1.8,6.6-9.9,15.5-18.5,25
	c-12.5,13.8-26.7,29.4-32.2,48.4c-7.3,25.3-7.1,52.2,0.6,79.8c6.1,21.7,16.8,43.9,31.9,66c25.5,37.2,54.4,61.1,55.6,62.1
	c0.3,0.2,0.5,0.4,0.8,0.6c0.8,0.5,1.6,0.9,2.6,1.2c1.2,0.3,2.5,0.4,3.8,0.2c1.6-0.2,38.5-6.4,79.2-25.7c24.1-11.5,44.6-25.3,60.7-41
	C540.5,870.9,554.1,847.8,560.5,822.2z M466.1,390.6c8.7-32.3,41.9-51.4,74.2-42.7c3.7,1,7.4,2.4,10.9,4.1c30,14.7,42.5,51,27.8,81
	s-51,42.5-81,27.8C471.9,448.1,458.6,418.6,466.1,390.6L466.1,390.6z M412.6,589.4c8.7-32.3,41.9-51.4,74.2-42.6
	c32.3,8.7,51.4,41.9,42.6,74.2c-8.7,32.2-41.9,51.3-74.1,42.7C423,654.9,403.9,621.7,412.6,589.4z M401.8,862.4
	c-32.3-8.7-51.4-42-42.7-74.3c8.7-32.3,42-51.4,74.3-42.7c32.3,8.7,51.4,42,42.7,74.3c-6.8,25.2-29,43.2-55,44.7
	C414.6,864.7,408.1,864,401.8,862.4L401.8,862.4z"/>
<path class="st3" d="M562.9,250.1c1.3-0.2,2.6-0.1,3.8,0.2c1.2,0.3,2.4,0.9,3.3,1.7c1.2,1,30.1,24.9,55.6,62.1
	c15.1,22,25.8,44.2,31.9,65.9c7.7,27.6,7.9,54.5,0.6,79.8c-5.5,19-19.7,34.6-32.2,48.4c-8.6,9.5-16.7,18.5-18.5,25
	c-0.9,3.5,2,10.1,5.5,17.8c8.5,19,21.2,47.5,8.9,93.3s-37.7,64.1-54.5,76.2c-6.9,5-12.8,9.2-13.7,12.7c-1.8,6.6,0.8,18.4,3.4,31
	c3.9,18.2,8.3,38.8,3.5,58c-6.4,25.6-20,48.7-40.6,68.7c-16.2,15.7-36.6,29.5-60.7,41c-40.8,19.4-77.7,25.5-79.2,25.7
	c-1.3,0.2-2.6,0.1-3.8-0.2c-0.9-0.2-1.8-0.6-2.6-1.2c17-30,32.8-60.6,47.5-91.9c33.4-2,58.9-30.6,56.9-64
	c-0.8-13.3-5.9-25.9-14.6-36c13-34.6,24.7-69.6,35-105.1c29.8-15,41.9-51.4,26.8-81.2c-1.3-2.5-2.7-5-4.3-7.3
	c7.7-35,14.1-70.3,19.1-105.7c32.4-8.5,51.7-41.5,43.3-73.9c-4.5-17.1-16.1-31.3-32-39.1"/>
<path class="st4" d="M587.7,396.4c5.5,34.8-18.3,67.4-53.1,72.9c-34.8,5.5-67.4-18.3-72.9-53.1s18.3-67.4,53.1-72.9
	c7.9-1.2,15.9-1,23.7,0.7C564.1,349.8,583.6,370.5,587.7,396.4z"/>
<circle class="st4" cx="471.4" cy="603.8" r="63.8"/>
<circle class="st4" cx="417.9" cy="806.1" r="63.8"/>
<path class="st3" d="M562.9,250.9L270.7,43.1c0,0,107.6-29.9,196.1,33C551.6,136.4,562.9,250.9,562.9,250.9z"/>
<path class="st2" d="M562.9,250.9L270.7,43.1c0,0,7,111.4,95.5,174.4C451,277.9,562.9,250.9,562.9,250.9z"/>
<path class="st3" d="M562.8,251L511.6,54.7c0,0,57.5,26.1,73,85.6C599.5,197.3,562.8,251,562.8,251z"/>
<path class="st2" d="M562.8,251L511.6,54.7c0,0-37.5,50.9-22,110.4C504.5,222.1,562.8,251,562.8,251z"/>
<ellipse transform="matrix(0.9967 -8.106875e-02 8.106875e-02 0.9967 -5.6775 58.3083)" class="st5" cx="715.2" cy="99.1" rx="14" ry="12.7"/>
<line class="st0" x1="851.2" y1="216.9" x2="147.9" y2="782"/>
</svg>
