<?xml version="1.0" encoding="utf-8"?>
<!-- Generator: Adobe Illustrator 25.2.1, SVG Export Plug-In . SVG Version: 6.00 Build 0)  -->
<svg version="1.1" id="Layer_1" xmlns="http://www.w3.org/2000/svg" xmlns:xlink="http://www.w3.org/1999/xlink" x="0px" y="0px"
	 viewBox="0 0 1000 1000" style="enable-background:new 0 0 1000 1000;" xml:space="preserve">
<style type="text/css">
	.st0{fill:#A7CE6D;}
	.st1{fill:#C7DC9A;}
	.st2{fill:#DDE7C0;}
	.st3{fill:#E6ECD0;}
	.st4{fill:#AA6227;}
	.st5{fill:#E8BF82;}
	.st6{fill:#EEA957;}
	.st7{fill:#AE652F;}
	.st8{fill:#F7F2E2;}
	.st9{fill:#FFFFFF;}
	.st10{opacity:0.1;}
	.st11{fill:#FFCD69;}
	.st12{fill:#CC802E;}
	.st13{fill:#5B7F3A;}
	.st14{fill:#C4DD8C;}
	.st15{clip-path:url(#SVGID_2_);}
	.st16{fill:none;stroke:#5A8039;stroke-width:0.96;stroke-linecap:round;stroke-linejoin:round;}
	.st17{clip-path:url(#SVGID_4_);}
	.st18{fill:#6AA0D3;}
	.st19{clip-path:url(#SVGID_6_);}
	.st20{fill:#243572;}
	.st21{clip-path:url(#SVGID_8_);}
	.st22{clip-path:url(#SVGID_10_);}
	.st23{clip-path:url(#SVGID_12_);}
	.st24{fill:#AC6647;}
	.st25{fill:none;stroke:#904F34;stroke-width:1.41;stroke-miterlimit:10;}
	.st26{clip-path:url(#SVGID_14_);}
	.st27{fill:none;stroke:#904F34;stroke-width:1.04;stroke-miterlimit:10;}
	.st28{clip-path:url(#SVGID_16_);}
	.st29{fill:none;stroke:#904F34;stroke-width:1.01;stroke-miterlimit:10;}
	.st30{fill:#FF9F49;}
	.st31{clip-path:url(#SVGID_18_);}
	.st32{fill:none;stroke:#5A8039;stroke-width:0.68;stroke-linecap:round;stroke-linejoin:round;}
	.st33{fill:#5EC300;}
	.st34{opacity:0.1;enable-background:new    ;}
	.st35{fill:#F4D85B;}
	.st36{opacity:0.1;fill:#E6C54E;enable-background:new    ;}
	.st37{fill:#ECAB60;}
	.st38{fill:#F0B25A;}
	.st39{fill:none;}
	.st40{clip-path:url(#SVGID_20_);}
	.st41{fill:none;stroke:#B25F18;stroke-width:2.34;stroke-miterlimit:10;}
	.st42{fill:#B25E18;}
	.st43{clip-path:url(#SVGID_22_);}
	.st44{fill:none;stroke:#BF771F;stroke-width:2.34;stroke-miterlimit:10;}
	.st45{clip-path:url(#SVGID_24_);}
	.st46{clip-path:url(#SVGID_26_);}
	.st47{fill:#C4DD8C;stroke:#5B7F3A;stroke-width:5.91;stroke-linecap:round;stroke-linejoin:round;}
	.st48{fill:#694A3B;}
	.st49{fill:#36150E;}
	.st50{clip-path:url(#SVGID_28_);}
	.st51{fill:none;stroke:#5A8039;stroke-width:0.99;stroke-linecap:round;stroke-linejoin:round;}
	.st52{clip-path:url(#SVGID_30_);}
	.st53{fill:none;stroke:#5A8039;stroke-width:1.32;stroke-linecap:round;stroke-linejoin:round;}
	.st54{fill:#C8C6C4;}
	.st55{fill:#C9906F;}
	.st56{fill:#F7E58A;}
	.st57{clip-path:url(#SVGID_32_);}
	.st58{fill:#FADD51;}
	.st59{fill:#FFF2C5;}
	.st60{fill:#FFF2C7;}
	.st61{fill:#EDCB41;}
	.st62{fill:#FFEB8E;}
	.st63{fill:#FFF3E6;}
	.st64{fill:none;stroke:#FFF3E6;stroke-width:5.58;stroke-linecap:round;stroke-linejoin:round;}
</style>
<path class="st0" d="M968.1,985.2H31.9c-24.5,0-39.9-26.6-27.6-47.8l94-162.8c5.7-9.9,16.2-15.9,27.6-16h748.1
	c11.4,0,21.9,6.1,27.6,16l94,162.8C1008,958.6,992.6,985.2,968.1,985.2z"/>
<path class="st1" d="M842.7,732.5H157.3c-15.9,0-28.7-12.9-28.7-28.8c0-5,1.3-10,3.8-14.4L230,520.3c5.1-8.9,14.7-14.4,25-14.4
	h490.1c10.3,0,19.8,5.5,24.9,14.4l97.6,169.1c7.9,13.8,3.2,31.3-10.5,39.3C852.7,731.2,847.7,732.5,842.7,732.5z"/>
<path class="st2" d="M724.7,479.8H275.3c-11.8,0-21.3-9.5-21.3-21.3c0-3.8,1-7.4,2.9-10.7L363,263.9c3.8-6.6,10.9-10.7,18.5-10.7
	h237c7.6,0,14.7,4,18.5,10.7l106.2,184c5.9,10.2,2.3,23.2-7.9,29.1C732.1,478.9,728.4,479.8,724.7,479.8z"/>
<path class="st3" d="M598.5,222.7h-197c-10.3,0-18.7-8.4-18.7-18.7c0-3.3,0.9-6.5,2.5-9.3l98.5-170.6c5.2-8.9,16.6-12,25.5-6.8
	c2.8,1.6,5.2,4,6.8,6.8l98.5,170.6c5.2,8.9,2.1,20.3-6.8,25.5C605,221.9,601.8,222.7,598.5,222.7z"/>
<path class="st4" d="M786.9,853.1c-1.9,4.9-4.3,9.5-7.1,13.9l0,0c-19.7,30.5-59,46-93.5,32.5s-52.6-51.8-46.2-87.5l0,0
	c0.9-5.1,2.3-10.2,4.2-15L786.9,853.1z"/>
<path class="st5" d="M758.7,842c-1.9,4.8-4.1,9.5-6.6,14.1l0,0c-17,31.5-45,51.5-65.9,43.3s-27.7-42-18.6-76.7l0,0
	c1.3-5,2.9-9.9,4.8-14.8L758.7,842z"/>
<path class="st6" d="M786.9,853.1c-1.9,4.9-4.3,9.5-7.1,13.9l0,0c-9.4,4.3-40.2-1.8-74.6-15.4s-61.2-30.1-65.1-39.6l0,0
	c0.9-5.1,2.3-10.2,4.2-15L786.9,853.1z"/>
<path class="st7" d="M786.9,853.1c-0.7,1.7-2.6,2.8-5.7,3.4c-11.9,2.3-40.2-4-71.6-16.3s-56.3-27.2-63.5-36.9
	c-1.8-2.5-2.5-4.6-1.8-6.3c3.3-8.4,37.9-2.6,77.3,12.9S790.2,844.7,786.9,853.1z"/>
<path class="st8" d="M782.4,854c0.2-1.9,0.2-4-1-5.5c-0.8-1-1.3-1.7-2.5-1.5c-0.9,0.1-2.2,0.8-2.3,1.6c0-3.6-2-5.7-5.5-5.4
	c1.8-3.3-3.4-7.5-5.8-5.2c0.3-1.4-0.5-4-2.1-4.5c-1.3-0.5-3.2,0.3-4.3,1.1c-0.2-1.4-0.1-2.4-0.7-3.7s-1.5-3.2-3-3.9
	c-3-1.5-5.7,0.5-6.7,3.2c-0.5-4.4-5.8-4.1-7-2.4c0.2-4.6-6.2-6.4-8.5-4.5c1.6-3.8-2.4-6.9-5.8-5.6c0.3-2.2-2.3-4.3-4.2-4.7
	c-2.5-0.6-4.8,1-6.1,2.9c-0.3-1.1-0.3-1.8-1.4-2.2c-0.9-0.3-2.8-0.3-3.3,0.7c-0.9-3-4.3-4.1-7-2.9c-1.3-2.3-1.8-4.5-4.5-5.7
	c-2.3-1-5.1,0-7,1.3c-1.1-1.4-2.8-3.2-4.6-3.8c-2.1-0.6-4.4,0.5-5.8,2c-1.4-1.8-2.2-3.3-4.6-4.2c-1.8-0.7-4.9-0.7-6,1.1
	c-1-4.9-11.2-4.4-10.6-0.6c-3-2.7-6.5-2.5-9,0.7c-1.4-1-5.6-1.8-6.2,0.7c-0.2,0-0.1,0.7-0.1,0.7c0.2,1.2,2.3,2.8,3,3.5
	c3.1,2.8,6.4,5.4,9.9,7.8c15.4,10.4,32.6,18.3,49.9,25.1c30.5,12,58.2,18.2,70.6,16.5C781.2,856.5,782.3,854.8,782.4,854z"/>
<path class="st9" d="M696.8,815.4c0.1-0.7,0.5-1.2,1.1-1.5c1-0.5,2.1,0,2.6,0.9c0,0,0,0,0,0l1.6,3.4c0.4,1,0,2.1-1,2.6
	c-0.9,0.4-2,0-2.5-0.9l-1.6-3.4C696.9,816.1,696.8,815.8,696.8,815.4z"/>
<path class="st9" d="M720.6,829.6c-0.4-0.2-0.7-0.5-0.8-1c-0.1-0.7,0.3-1.4,1-1.6l2.5-0.5c0.7-0.2,1.5,0.2,1.7,0.9s-0.2,1.5-0.9,1.7
	c-0.1,0-0.1,0-0.2,0l-2.5,0.5C721.1,829.7,720.8,829.7,720.6,829.6z"/>
<path class="st9" d="M736.2,834.4c-0.3,0.9-1.2,1.5-2.1,1.2c-0.6-0.2-1-0.6-1.2-1.1l-1-3.1c-0.3-0.9,0.2-1.9,1.1-2.2
	c0.9-0.3,1.9,0.2,2.2,1.1l0,0l1,3.1C736.2,833.7,736.3,834.1,736.2,834.4z"/>
<path class="st9" d="M698.4,828.8c-0.3-0.5-0.3-1.2,0-1.8c0.5-0.9,1.6-1.3,2.5-0.8c0,0,0,0,0,0l3.1,1.6c0.9,0.5,1.3,1.6,0.8,2.5
	c-0.5,0.9-1.6,1.3-2.5,0.8l0,0l-3.1-1.6C698.8,829.3,698.6,829.1,698.4,828.8z"/>
<path class="st9" d="M712.5,826.1c-0.3,0.4-0.8,0.6-1.3,0.5c-0.8-0.1-1.4-0.8-1.3-1.6l0.3-2.8c0.1-0.8,0.8-1.4,1.6-1.3
	s1.4,0.8,1.3,1.6l0,0l-0.2,2.8C712.8,825.6,712.7,825.8,712.5,826.1z"/>
<path class="st9" d="M719.8,836.8c-0.3-0.5-0.3-1.1,0-1.7c0.4-0.8,1.5-1.2,2.3-0.8c0,0,0,0,0,0l2.9,1.5c0.9,0.4,1.3,1.4,0.9,2.3
	c-0.4,0.9-1.4,1.3-2.3,0.9c-0.1,0-0.1-0.1-0.2-0.1l-3-1.5C720.2,837.3,719.9,837.1,719.8,836.8z"/>
<path class="st9" d="M739,842.1c-1,0.1-1.9-0.7-1.9-1.7c0-0.6,0.2-1.2,0.7-1.6l2.7-2.1c0.8-0.6,1.9-0.4,2.5,0.4
	c0.6,0.8,0.4,1.8-0.3,2.5l-2.7,2.1C739.7,841.9,739.4,842,739,842.1z"/>
<path class="st9" d="M751.3,845c-0.4,0.7-1.3,0.8-2,0.4c-0.4-0.3-0.6-0.7-0.6-1.2l0.1-2.7c0-0.8,0.7-1.4,1.5-1.4
	c0.8,0,1.4,0.7,1.4,1.5l0,0l-0.1,2.7C751.5,844.6,751.5,844.8,751.3,845z"/>
<g class="st10">
	<path class="st9" d="M760.5,846.8c-0.1,1-1,1.7-2,1.6c-0.6-0.1-1.2-0.4-1.4-1l-1.6-3.1c-0.5-0.9-0.2-2,0.7-2.5
		c0.9-0.5,2-0.2,2.5,0.7c0,0,0,0.1,0.1,0.1l1.8,2.8C760.7,845.9,760.5,846.5,760.5,846.8z"/>
</g>
<path class="st9" d="M679.8,815.7c-1-0.1-1.7-0.9-1.6-1.9c0.1-0.6,0.4-1.1,0.9-1.4l3-1.5c0.9-0.4,1.9-0.1,2.4,0.7
	c0.4,0.9,0.1,1.9-0.7,2.4l-3,1.5C680.5,815.7,680.2,815.7,679.8,815.7z"/>
<path class="st9" d="M685.4,822.5c-1.1-0.4-1.6-1.5-1.3-2.6c0.2-0.7,0.8-1.2,1.5-1.3l3.8-0.9c1.1-0.3,2.2,0.4,2.5,1.5
	s-0.4,2.2-1.5,2.5l-3.8,0.9C686.2,822.7,685.8,822.7,685.4,822.5z"/>
<path class="st9" d="M669.5,811.7c-0.5-0.2-0.8-0.7-0.8-1.2c-0.1-0.9,0.5-1.6,1.4-1.7c0,0,0,0,0,0l3-0.3c0.9-0.1,1.6,0.5,1.7,1.4
	c0.1,0.9-0.5,1.6-1.4,1.7l-3,0.3C670,811.9,669.7,811.8,669.5,811.7z"/>
<path class="st11" d="M278.6,914c-6.2,8.2-21.4,1-21.4,1c-5.7,6.7-12,12.8-18.8,18.2c-33.4,26.3-61.1,17.9-61.1,17.9
	s-8.7,18.7-18.1,14s-3.6-24.1-3.6-24.1s-15.8-7.7-28.6-40.9s-2.8-60.1-2.8-60.1s-17.7-14.6-15.2-20.7s23.3-1.3,23.3-1.3
	s8.7-12.9,28-18.9c6.6-2,13.4-3.5,20.2-4.3c6.1-0.8,12.3-1.2,18.4-1.2l0,0c0.5-1,8.9-19.2,16.7-15.1c8.1,4.3,7.1,24.3,7.1,24.3
	c49.2,43.5,43.3,90.7,43.3,90.7S284.8,905.8,278.6,914z"/>
<path class="st12" d="M222.3,943.5c5.7-3,11-6.4,16.1-10.4c6.8-5.5,13.1-11.6,18.8-18.2c0,0,15.2,7.2,21.4-1S266,893.5,266,893.5
	s5.9-47.1-43.3-90.7c0,0,0.9-20-7.1-24.3c-7.9-4.1-16.2,14.1-16.7,15.1l0,0c-6.2,0-12.3,0.4-18.4,1.2c-5.4,0.7-10.7,1.8-15.9,3.2
	L222.3,943.5z"/>
<path class="st13" d="M273.6,674.3l28.9-46.2c0,0,5.5,16-3.2,30.1C290.9,671.6,273.6,674.3,273.6,674.3z"/>
<path class="st14" d="M273.6,674.3l28.9-46.2c0,0-16.9,2.1-25.6,16.1C268.5,657.6,273.6,674.3,273.6,674.3z"/>
<g>
	<defs>
		<path id="SVGID_1_" d="M273.6,674.3l28.9-46.2c0,0-16.9,2.1-25.6,16.1C268.5,657.6,273.6,674.3,273.6,674.3z"/>
	</defs>
	<clipPath id="SVGID_2_">
		<use xlink:href="#SVGID_1_"  style="overflow:visible;"/>
	</clipPath>
	<g class="st15">
		<line class="st16" x1="277" y1="671.6" x2="265.5" y2="651.5"/>
		<line class="st16" x1="280.3" y1="666.3" x2="268.9" y2="646.2"/>
		<line class="st16" x1="283.6" y1="661" x2="272.1" y2="640.9"/>
		<line class="st16" x1="286.9" y1="655.7" x2="275.5" y2="635.7"/>
		<line class="st16" x1="290.2" y1="650.5" x2="278.8" y2="630.4"/>
		<line class="st16" x1="293.5" y1="645.2" x2="282" y2="625.1"/>
		<line class="st16" x1="296.8" y1="639.9" x2="285.4" y2="619.8"/>
		<line class="st16" x1="300.1" y1="634.6" x2="288.6" y2="614.5"/>
	</g>
</g>
<path class="st13" d="M271.7,688.2l80-26.7c0,0-9.2,24.6-33.5,32.7C295,701.9,271.7,688.2,271.7,688.2z"/>
<path class="st14" d="M271.7,688.2l80-26.7c0,0-22.1-14.1-46.4-6C282.1,663.2,271.7,688.2,271.7,688.2z"/>
<g>
	<defs>
		<path id="SVGID_3_" d="M271.7,688.2l80-26.7c0,0-22.1-14.1-46.4-6C282.1,663.2,271.7,688.2,271.7,688.2z"/>
	</defs>
	<clipPath id="SVGID_4_">
		<use xlink:href="#SVGID_3_"  style="overflow:visible;"/>
	</clipPath>
	<g class="st17">
		<line class="st16" x1="278.5" y1="688.2" x2="284.6" y2="653"/>
		<line class="st16" x1="287.6" y1="685.2" x2="293.7" y2="649.9"/>
		<line class="st16" x1="296.7" y1="682.1" x2="302.9" y2="646.9"/>
		<line class="st16" x1="305.9" y1="679" x2="312" y2="643.8"/>
		<line class="st16" x1="315" y1="676" x2="321.1" y2="640.8"/>
		<line class="st16" x1="324.1" y1="673" x2="330.3" y2="637.7"/>
		<line class="st16" x1="333.3" y1="669.9" x2="339.4" y2="634.7"/>
		<line class="st16" x1="342.4" y1="666.8" x2="348.6" y2="631.6"/>
	</g>
</g>
<path class="st18" d="M253.7,694.3c-6.6,14.2-23.4,20.4-37.6,13.9c-11-5.1-17.5-16.5-16.4-28.5l-4.6-0.1c0,0,0-3,4.4-5.1
	c-1.6-1.7-2.4-4-2.2-6.3c1.7-1.7,3.9-2.5,6.3-2.4c-1.2-4.6,1-6.6,1-6.6l3.1,3.4c11-11.2,28.9-11.4,40.1-0.4
	C256.3,670.6,258.6,683.5,253.7,694.3L253.7,694.3z"/>
<g>
	<defs>
		<path id="SVGID_5_" d="M253.7,694.3c-6.6,14.2-23.4,20.4-37.6,13.9c-11-5.1-17.5-16.5-16.4-28.5l-4.6-0.1c0,0,0-3,4.4-5.1
			c-1.6-1.7-2.4-4-2.2-6.3c1.7-1.7,3.9-2.5,6.3-2.4c-1.2-4.6,1-6.6,1-6.6l3.1,3.4c11-11.2,28.9-11.4,40.1-0.4
			C256.3,670.6,258.6,683.5,253.7,694.3L253.7,694.3z"/>
	</defs>
	<clipPath id="SVGID_6_">
		<use xlink:href="#SVGID_5_"  style="overflow:visible;"/>
	</clipPath>
	<g class="st19">
		
			<rect x="205.9" y="676.4" transform="matrix(0.4212 -0.907 0.907 0.4212 -487.3688 623.0481)" class="st20" width="77.1" height="33.9"/>
	</g>
</g>
<path class="st18" d="M276.3,656.6c13.2,6.1,18.9,21.8,12.8,35c-6.1,13.2-21.8,18.9-35,12.8c-13.2-6.1-18.9-21.8-12.8-35
	c0,0,0,0,0,0C247.5,656.2,263.1,650.5,276.3,656.6z"/>
<g>
	<defs>
		<path id="SVGID_7_" d="M276.3,656.6c13.2,6.1,18.9,21.8,12.8,35c-6.1,13.2-21.8,18.9-35,12.8c-13.2-6.1-18.9-21.8-12.8-35
			c0,0,0,0,0,0C247.5,656.2,263.1,650.5,276.3,656.6z"/>
	</defs>
	<clipPath id="SVGID_8_">
		<use xlink:href="#SVGID_7_"  style="overflow:visible;"/>
	</clipPath>
	<g class="st21">
		<path class="st20" d="M273,695.5c-9.3,5.2-20.2,6.6-30.5,4.1c2.9,9.7,12.9,16.5,23.1,16.4s19.7-6.4,24.7-15.2
			c2.5-4.5,4-9.5,4.4-14.7c0.2-2.1,0.7-13.8-2.5-12.8c-1.3,0.4-2.6,5-3.3,6.2c-1.3,2.2-2.7,4.3-4.4,6.3
			C281.3,689.8,277.4,693,273,695.5z"/>
	</g>
</g>
<path class="st20" d="M269.4,676l-2.4-5.6c-0.1-0.3-0.5-0.5-0.9-0.4c-0.1,0-0.2,0.1-0.3,0.2l-3.6,4.8l-6,0.5c-0.4,0-0.6,0.4-0.6,0.7
	c0,0.1,0.1,0.2,0.1,0.3l3.5,5l-1.4,5.9c-0.1,0.4,0.1,0.7,0.5,0.8c0.1,0,0.2,0,0.3,0l5.8-1.8l5.2,3.1c0.3,0.2,0.7,0.1,0.9-0.3
	c0.1-0.1,0.1-0.2,0.1-0.3l0.1-6l4.6-4c0.3-0.2,0.3-0.7,0.1-1c-0.1-0.1-0.2-0.2-0.3-0.2L269.4,676z"/>
<path class="st18" d="M267.1,676.4c2.2,1,3.2,3.7,2.2,5.9c-1,2.2-3.7,3.2-5.9,2.2c-2.2-1-3.2-3.7-2.2-5.9c0,0,0,0,0,0
	C262.3,676.4,264.9,675.4,267.1,676.4z"/>
<path class="st18" d="M264.6,615.4c7,10.2,4.3,24.1-5.8,31c-10.2,7-24.1,4.3-31-5.8s-4.3-24.1,5.8-31c0,0,0,0,0,0
	C243.8,602.6,257.7,605.2,264.6,615.4z"/>
<g>
	<defs>
		<path id="SVGID_9_" d="M264.6,615.4c7,10.2,4.3,24.1-5.8,31c-10.2,7-24.1,4.3-31-5.8s-4.3-24.1,5.8-31c0,0,0,0,0,0
			C243.8,602.6,257.7,605.2,264.6,615.4z"/>
	</defs>
	<clipPath id="SVGID_10_">
		<use xlink:href="#SVGID_9_"  style="overflow:visible;"/>
	</clipPath>
	<g class="st22">
		<path class="st20" d="M270.8,620.3c-6.4,18.5-26.7,28.3-45.2,21.8c-0.5-0.2-1-0.4-1.5-0.6c6.1,6.1,13.7,10.7,22.3,11.1
			s17.5-3.2,22.8-10S275,627.8,270.8,620.3z"/>
	</g>
</g>
<path class="st20" d="M251.2,626.5l0.7-5.1c0-0.3-0.2-0.6-0.5-0.6c-0.1,0-0.2,0-0.3,0l-4.8,2l-4.7-2.2c-0.3-0.1-0.6,0-0.7,0.3
	c0,0.1-0.1,0.2-0.1,0.3l0.4,5.2l-3.6,3.7c-0.2,0.2-0.2,0.6,0,0.8c0.1,0.1,0.2,0.1,0.2,0.1l5.1,1.2l2.5,4.6c0.2,0.3,0.5,0.3,0.7,0.2
	c0.1,0,0.1-0.1,0.2-0.2l2.7-4.4l5.1-0.9c0.3-0.1,0.5-0.3,0.4-0.6c0-0.1-0.1-0.2-0.1-0.2L251.2,626.5z"/>
<path class="st18" d="M249.3,625.9c1.2,1.7,0.7,4.1-1,5.2s-4.1,0.7-5.2-1c-1.2-1.7-0.7-4,1-5.2C245.8,623.7,248.2,624.2,249.3,625.9
	z"/>
<path class="st12" d="M880.7,963.9c-14.6-3.3-25.8-18.4-13.5-45.9c11-24.5,33.3-36.2,35-37c0,0,0.1,0,0.2,0
	c1.1,1.6,14.9,22.6,12.5,49.4C912.3,960.5,895.1,968.1,880.7,963.9z"/>
<g>
	<defs>
		<path id="SVGID_11_" d="M880.7,963.9c-14.6-3.3-25.8-18.4-13.5-45.9c11-24.5,33.3-36.2,35-37c0,0,0.1,0,0.2,0
			c1.1,1.6,14.9,22.6,12.5,49.4C912.3,960.5,895.1,968.1,880.7,963.9z"/>
	</defs>
	<clipPath id="SVGID_12_">
		<use xlink:href="#SVGID_11_"  style="overflow:visible;"/>
	</clipPath>
	<g class="st23">
		<path class="st24" d="M889.6,943.1c-14.1,7.4-30.3,9.7-45.9,6.6c7.1,8.1,14.6,16.2,23.9,21.6s20.8,8.2,31,4.8
			c11.9-3.9,20.1-15.5,23-27.6c1.7-7.1,5-30.6-3.2-33.8C910.5,926.2,902.3,936.4,889.6,943.1z"/>
		<line class="st25" x1="903.5" y1="876.7" x2="878.4" y2="972.7"/>
		<path class="st25" d="M889.3,879.7c0,0-24,42.1-22.7,86.9"/>
		<path class="st25" d="M915.5,886.5c0,0,0.4,48.5-22.7,86.9"/>
		<path class="st25" d="M896.4,879.4c0,0-21.4,51.6-22.7,86.9"/>
		<path class="st25" d="M909.5,882.9c0,0-6.5,55.5-22.7,86.9"/>
	</g>
</g>
<path class="st12" d="M833,946.9c-9.9,4.8-23.2,1.3-28.8-20.1c-4.9-19.1,2.5-36,3.1-37.3c0,0,0.1,0,0.1,0
	c1.3,0.4,18.9,6.1,29.8,22.6C849.6,930.5,843.2,942.8,833,946.9z"/>
<g>
	<defs>
		<path id="SVGID_13_" d="M833,946.9c-9.9,4.8-23.2,1.3-28.8-20.1c-4.9-19.1,2.5-36,3.1-37.3c0,0,0.1,0,0.1,0
			c1.3,0.4,18.9,6.1,29.8,22.6C849.6,930.5,843.2,942.8,833,946.9z"/>
	</defs>
	<clipPath id="SVGID_14_">
		<use xlink:href="#SVGID_13_"  style="overflow:visible;"/>
	</clipPath>
	<g class="st26">
		<path class="st24" d="M828.6,930.9c-4.7,10.7-12.9,19.5-23.3,24.8c7.8,1.4,15.8,2.6,23.6,1.5s15.7-4.8,20-11.5
			c5-7.7,4.4-18.1,0.5-26.4c-2.3-4.9-11.2-19.8-17.3-17.9C832.8,911.7,832.8,921.3,828.6,930.9z"/>
		<line class="st27" x1="806.1" y1="886.5" x2="835.8" y2="953"/>
		<path class="st27" d="M799.3,894.7c0,0,5.5,35.2,26.9,60.2"/>
		<path class="st27" d="M817.5,886.6c0,0,22.5,27.6,26.8,60.2"/>
		<path class="st27" d="M803.3,891.3c0,0,11.4,39.4,26.9,60.2"/>
		<path class="st27" d="M812.4,887.3c0,0,21.7,34.8,26.8,60.2"/>
	</g>
</g>
<path class="st12" d="M849.2,879.6c-10-3.9-16.3-15.6-4.8-33.7c10.3-16.2,27.3-22,28.5-22.5c0,0,0.1,0,0.1,0
	c0.6,1.2,8.1,17.5,3.7,36.1C871.7,880.5,858.9,884.1,849.2,879.6z"/>
<g>
	<defs>
		<path id="SVGID_15_" d="M849.2,879.6c-10-3.9-16.3-15.6-4.8-33.7c10.3-16.2,27.3-22,28.5-22.5c0,0,0.1,0,0.1,0
			c0.6,1.2,8.1,17.5,3.7,36.1C871.7,880.5,858.9,884.1,849.2,879.6z"/>
	</defs>
	<clipPath id="SVGID_16_">
		<use xlink:href="#SVGID_15_"  style="overflow:visible;"/>
	</clipPath>
	<g class="st28">
		<path class="st24" d="M857.6,865.9c-10.7,3.7-22.3,3.7-33-0.1c4.2,6.5,8.6,12.9,14.6,17.7s13.8,7.9,21.4,6.6
			c8.8-1.5,15.8-8.8,19.1-17.1c2-4.8,6.7-21.1,1.2-24.2C874,856.1,867.2,862.5,857.6,865.9z"/>
		<line class="st29" x1="874.3" y1="820.5" x2="846.6" y2="885.6"/>
		<path class="st29" d="M864,821.1c0,0-21.3,27.2-25,58.9"/>
		<path class="st29" d="M881.7,828.7c0,0-4.8,34.2-25,58.9"/>
		<path class="st29" d="M869,821.7c0,0-20.5,34.1-25,58.9"/>
		<path class="st29" d="M877.8,825.5c0,0-10.3,38.5-25,58.9"/>
	</g>
</g>
<path class="st30" d="M731,564.8L731,564.8c18.6-7.4,39.6,1.7,47.1,20.2c1.1,2.9,1.9,5.8,2.3,8.9l14.3,113.9c0.4,3.5-2,6.7-5.5,7.2
	c-2.3,0.3-4.6-0.7-6-2.6l-67.9-92.5c-11.8-16.1-8.3-38.8,7.8-50.6C725.5,567.4,728.2,565.9,731,564.8z"/>
<path class="st12" d="M731,564.8l60.2,149.5c2.4-1.2,3.8-3.8,3.4-6.5l-14.2-113.9c-2.5-19.8-20.6-33.9-40.4-31.4
	C736.9,562.8,733.9,563.6,731,564.8L731,564.8"/>
<path class="st13" d="M733.5,570.2l-47.4-36.5c0,0,18.1-4.3,32.5,6.8C732.3,551,733.5,570.2,733.5,570.2z"/>
<path class="st14" d="M733.5,570.2l-47.4-36.5c0,0,0.5,18.6,14.8,29.7C714.7,574,733.5,570.2,733.5,570.2z"/>
<g>
	<defs>
		<path id="SVGID_17_" d="M733.5,570.2l-47.4-36.5c0,0,0.5,18.6,14.8,29.7C714.7,574,733.5,570.2,733.5,570.2z"/>
	</defs>
	<clipPath id="SVGID_18_">
		<use xlink:href="#SVGID_17_"  style="overflow:visible;"/>
	</clipPath>
	<g class="st31">
		<line class="st32" x1="730.8" y1="566.2" x2="707.6" y2="576.5"/>
		<line class="st32" x1="725.4" y1="562" x2="702.2" y2="572.4"/>
		<line class="st32" x1="720" y1="557.9" x2="696.8" y2="568.2"/>
		<line class="st32" x1="714.6" y1="553.7" x2="691.4" y2="564"/>
		<line class="st32" x1="709.2" y1="549.5" x2="686" y2="559.9"/>
		<line class="st32" x1="703.7" y1="545.3" x2="680.6" y2="555.7"/>
		<line class="st32" x1="698.3" y1="541.2" x2="675.2" y2="551.5"/>
		<line class="st32" x1="692.9" y1="537" x2="669.8" y2="547.3"/>
	</g>
</g>
<path class="st13" d="M739.9,529.7l-5,42c0,0-9.2-9.4-7.7-22.2C728.7,537.3,739.9,529.7,739.9,529.7z"/>
<path class="st14" d="M739.9,529.7l-5,42c0,0,11.1-7,12.7-19.8C749,539.7,739.9,529.7,739.9,529.7z"/>
<circle class="st33" cx="636.8" cy="660.1" r="11.1"/>
<path class="st34" d="M646.7,655c2.8,5.5,0.6,12.2-4.9,15c-3.2,1.6-7,1.6-10.1,0c6.1,0.9,11.7-3.4,12.6-9.5c0.7-4.7-1.8-9.4-6-11.5
	C641.9,649.5,645,651.7,646.7,655z"/>
<circle class="st33" cx="671.8" cy="663.8" r="11.1"/>
<path class="st34" d="M681.7,658.7c2.8,5.5,0.6,12.2-4.9,15c-3.2,1.6-6.9,1.6-10.1,0c6.1,0.8,11.7-3.4,12.6-9.5
	c0.6-4.7-1.8-9.3-6-11.5C676.9,653.2,680,655.4,681.7,658.7z"/>
<circle class="st33" cx="646.7" cy="689.5" r="11.1"/>
<path class="st34" d="M656.6,684.3c2.8,5.5,0.6,12.2-4.9,15c-3.2,1.6-7,1.6-10.1,0c6.1,0.8,11.7-3.5,12.5-9.6
	c0.3-2.3-0.1-4.5-1.1-6.6c-1.1-2-2.7-3.7-4.8-4.8C651.8,678.9,654.9,681.1,656.6,684.3z"/>
<circle class="st33" cx="609.8" cy="686.7" r="11.1"/>
<path class="st34" d="M619.7,681.6c2.8,5.5,0.6,12.2-4.9,15c-3.2,1.6-7,1.6-10.1,0c6.1,0.8,11.7-3.5,12.5-9.6
	c0.3-2.3-0.1-4.6-1.2-6.6c-1.1-2-2.7-3.7-4.8-4.8C614.9,676.1,618.1,678.4,619.7,681.6z"/>
<circle class="st33" cx="680.7" cy="700.5" r="11.1"/>
<path class="st34" d="M690.5,695.4c2.8,5.5,0.6,12.2-4.9,15c-3.2,1.6-7,1.6-10.1,0c6.1,0.8,11.7-3.5,12.5-9.6
	c0.3-2.3-0.1-4.6-1.2-6.6c-1.1-2-2.7-3.7-4.8-4.8C685.7,689.9,688.9,692.1,690.5,695.4z"/>
<path class="st9" d="M550.8,355.9c-14.9,8.2-36.3,32.8-22.7,48s25.6,3.8,31.8,18.8s20.2,22.4,32.5,15s6.5-26.2,20.4-33
	s30.5,2.2,37.2-10.8s-14.8-20.6-13.7-31.2s19-18.4,2.9-35s-60.7-15.2-71.7,0S561.8,349.9,550.8,355.9z"/>
<path class="st35" d="M565.2,362c-9.1,11.4-11,29.6,2.7,36.3s30.8-1.3,40.3-17.3C623.2,355.7,597,322.3,565.2,362z"/>
<path class="st36" d="M608.2,381c-9.5,16-26.6,24-40.3,17.3c-3.1-1.5-5.6-3.8-7.4-6.7c0.4,0.2,0.9,0.5,1.3,0.7
	c13.7,6.7,30.8-1.3,40.3-17.3c6-10,5.5-21.3,0.7-28.9C612.6,352.1,616.1,367.7,608.2,381z"/>
<path class="st37" d="M546.8,379.5c53.5,0,26-87-3.8-87C522.1,292.4,488.7,379.5,546.8,379.5z"/>
<path class="st12" d="M546.8,379.5c-13.3,0-21.8-4.6-26.8-11.6c5,3.5,11.8,5.6,20.7,5.6c41.5,0,34.2-52.5,15-75.9
	C579.1,316.1,592.4,379.5,546.8,379.5z"/>
<path class="st9" d="M504.3,428.7c2,8.7-9.1,6.3-14.4,9.8s-0.2,14.5-9.4,14.8s-5.6-17.2-11.8-23.5c-3.2-3.2-8.9-8-13.7-11.9
	c-4.6-3.7-8.3-6.5-8.3-6.5l8.2-9c0,0,3.6,2.8,8.3,6.3c5.5,4.2,12.7,9.6,17.3,12.9C489,427.8,502.2,420,504.3,428.7z"/>
<path class="st37" d="M437.2,408.3c0,0-0.2,6.3,4.1,9s7.5-1.4,12.8-7.1s10.4-11.1,7.5-15.5s-9.7-3.9-9.7-3.9s3.5-15.7-11.2-44
	s-41.2-44.1-68.6-19.4s-6.7,61.2,17.6,70.8C404.9,403.9,420.9,407.4,437.2,408.3z"/>
<path class="st12" d="M454.1,410.2c5.2-5.8,10.4-11.1,7.5-15.5s-9.7-3.9-9.7-3.9s3.5-15.7-11.2-44s-41.2-44.1-68.6-19.4L454.1,410.2
	z"/>
<path class="st38" d="M357.4,801.5c-1.4,3.4-3.5,6.5-6.4,8.9c-4,3.4-6.1,8.5-5.6,13.8c0.4,3.8-0.2,7.7-1.8,11.2
	c-4.2,10-14.5,15.5-23.4,12.5l-0.9-0.3l29.1-72.2C357.7,779.2,361.7,790.8,357.4,801.5"/>
<path class="st39" d="M346.1,804.3l-2,5.2"/>
<g>
	<defs>
		<path id="SVGID_19_" d="M357.4,801.5c-1.4,3.4-3.5,6.5-6.4,8.9c-4,3.4-6.1,8.5-5.6,13.8c0.4,3.8-0.2,7.7-1.8,11.2
			c-4.2,10-14.5,15.5-23.4,12.5l-0.9-0.3l29.1-72.2C357.7,779.2,361.7,790.8,357.4,801.5"/>
	</defs>
	<clipPath id="SVGID_20_">
		<use xlink:href="#SVGID_19_"  style="overflow:visible;"/>
	</clipPath>
	<g class="st40">
		<path class="st41" d="M361.3,805.8c1.5-3.8-7.7-11.1-20.7-16.4"/>
		<path class="st41" d="M349.2,835.8c-1.5,3.8-13.3,2.6-26.2-2.6"/>
		<line class="st41" x1="352.3" y1="818.9" x2="332" y2="810.8"/>
	</g>
</g>
<path class="st42" d="M348.5,775.6c4.2,2.5,5.1,10.5,2.7,19c2.5,1.4,4.8,3.1,6.9,5c3.1-10.1-0.9-20.6-9.6-24.1"/>
<path class="st42" d="M351.2,794.6c-0.4,1.3-0.8,2.6-1.3,3.9c-1.5,3.8-3.9,7.1-6.4,10.4c-1.2,1.7-2.2,3.4-3,5.3l6,2.4
	c1-2.4,2.5-4.5,4.5-6.2c2.8-2.4,5-5.5,6.4-8.9c0.2-0.6,0.5-1.2,0.7-1.9C355.9,797.7,353.6,796,351.2,794.6z"/>
<path class="st42" d="M340.1,815.4c-1.4,7.1-2.3,14.5-6,21.4c2.7,0.7,5.5,1.1,8.2,1.2c0.5-0.8,0.9-1.7,1.3-2.6
	c1.5-3.5,2.1-7.4,1.8-11.2c-0.2-2.6,0.1-5.1,1.1-7.5l-6-2.4C340.4,814.6,340.2,815,340.1,815.4z"/>
<path class="st42" d="M334.1,836.8c-0.9,2.4-2.3,4.6-4,6.5c-2,2.3-4.6,4.1-7.5,5.2c7.4,1.3,15.4-3,19.8-10.5
	C339.6,837.9,336.8,837.5,334.1,836.8z"/>
<g>
	<defs>
		<path id="SVGID_21_" d="M324.1,788c-1.4,3.4-2,7.1-1.6,10.8c0.5,5.2-1.6,10.4-5.5,13.8c-2.9,2.5-5.2,5.7-6.5,9.3
			c-3.9,10-0.3,21.2,8.1,25.3c0.3,0.1,0.6,0.3,0.9,0.4l29.1-72.2C339.3,771.8,328.4,777.4,324.1,788"/>
	</defs>
	<clipPath id="SVGID_22_">
		<use xlink:href="#SVGID_21_"  style="overflow:visible;"/>
	</clipPath>
	<g class="st43">
		<path class="st38" d="M324.1,788c-1.4,3.4-2,7.1-1.6,10.8c0.5,5.2-1.6,10.4-5.5,13.8c-2.9,2.5-5.2,5.7-6.5,9.3
			c-3.9,10-0.3,21.2,8.1,25.3c0.3,0.1,0.6,0.3,0.9,0.4l29.1-72.2C339.3,771.8,328.4,777.4,324.1,788"/>
		<path class="st44" d="M348.5,775.6c-5.4-1.3-12.9,5.6-16.9,15.5"/>
		<path class="st44" d="M331.5,791.1c-1.6,3.8-2.1,7.8-2.7,11.9c-0.4,2-0.8,4.7-2.1,7"/>
		<path class="st44" d="M318.2,788.4c1.5-3.8,13.3-2.7,26.2,2.6"/>
		<path class="st44" d="M306.1,818.4c-1.5,3.8,7.7,11.1,20.7,16.3"/>
		<line class="st44" x1="315.6" y1="804.1" x2="335.9" y2="812.3"/>
	</g>
</g>
<g>
	<defs>
		<path id="SVGID_23_" d="M324.1,788c-1.4,3.4-2,7.1-1.6,10.8c0.5,5.2-1.6,10.4-5.5,13.8c-2.9,2.5-5.2,5.7-6.5,9.3
			c-3.9,10-0.3,21.2,8.1,25.3c0.3,0.1,0.6,0.3,0.9,0.4l29.1-72.2C339.3,771.8,328.4,777.4,324.1,788"/>
	</defs>
	<clipPath id="SVGID_24_">
		<use xlink:href="#SVGID_23_"  style="overflow:visible;"/>
	</clipPath>
	<g class="st45">
		<path class="st38" d="M324.1,788c-1.4,3.4-2,7.1-1.6,10.8c0.5,5.2-1.6,10.4-5.5,13.8c-2.9,2.5-5.2,5.7-6.5,9.3
			c-3.9,10-0.3,21.2,8.1,25.3c0.3,0.1,0.6,0.3,0.9,0.4l29.1-72.2C339.3,771.8,328.4,777.4,324.1,788"/>
		<path class="st41" d="M348.8,774.5c-5.4-1.3-13.2,6.7-17.3,16.6"/>
		<path class="st41" d="M331.5,791.1c-1.6,3.8-2.1,7.8-2.7,11.9c-0.4,2-0.8,4.7-2.1,7"/>
		<path class="st41" d="M318.2,788.4c1.5-3.8,13.3-2.7,26.2,2.6"/>
		<path class="st41" d="M306.1,818.4c-1.5,3.8,7.7,11.1,20.7,16.3"/>
		<line class="st41" x1="315.6" y1="804.1" x2="335.9" y2="812.3"/>
	</g>
</g>
<g>
	<defs>
		<path id="SVGID_25_" d="M348.5,775.5L348.5,775.5c-9.2-3.7-20.2,1.9-24.5,12.5c-1.4,3.4-2,7.1-1.6,10.8c0.5,5.2-1.6,10.4-5.5,13.8
			c-2.9,2.5-5.2,5.7-6.5,9.3c-3.9,10-0.3,21.2,8.1,25.3l0.9,0.4l0,0l0.9,0.3c8.9,3,19.2-2.6,23.4-12.5c1.5-3.5,2.1-7.4,1.8-11.2
			c-0.5-5.2,1.6-10.3,5.6-13.8c2.8-2.4,5-5.5,6.4-8.9C361.7,790.8,357.7,779.2,348.5,775.5z"/>
	</defs>
	<clipPath id="SVGID_26_">
		<use xlink:href="#SVGID_25_"  style="overflow:visible;"/>
	</clipPath>
	<g class="st46">
		<path class="st41" d="M326.8,809.9c-4,6.2-8.7,12.4-10.7,20.2c-1.7,7.9-0.8,15.9,6.5,19.3"/>
	</g>
</g>
<path class="st47" d="M559.3,619.3c-5.7,21.3-27.1,27.9-45.2,23s-33.4-21.2-27.7-42.5s25.9-40.7,33.1-49.6s13.2-11.2,21.7-8.9
	s12.5,7.2,14.3,18.6S565,598,559.3,619.3z"/>
<ellipse transform="matrix(0.9239 -0.3827 0.3827 0.9239 -190.9515 246.6416)" class="st48" cx="524.5" cy="603.3" rx="19.2" ry="19.2"/>
<path class="st49" d="M543.7,603.3c0-10.6-8.6-19.2-19.2-19.2c0,0,0,0,0,0v38.4C535.1,622.5,543.7,613.9,543.7,603.3
	C543.7,603.3,543.7,603.3,543.7,603.3z"/>
<path class="st13" d="M540,537.3l-51-0.6c0,0,9.9,12.5,25.3,12.6C529.1,549.5,540,537.3,540,537.3z"/>
<path class="st14" d="M540,537.3l-51-0.6c0,0,10.1-12.2,25.6-12.1C529.4,524.8,540,537.3,540,537.3z"/>
<g>
	<defs>
		<path id="SVGID_27_" d="M540,537.3l-51-0.6c0,0,10.1-12.2,25.6-12.1C529.4,524.8,540,537.3,540,537.3z"/>
	</defs>
	<clipPath id="SVGID_28_">
		<use xlink:href="#SVGID_27_"  style="overflow:visible;"/>
	</clipPath>
	<g class="st50">
		<line class="st51" x1="536.1" y1="538.6" x2="526" y2="519.4"/>
		<line class="st51" x1="530.3" y1="538.5" x2="520.2" y2="519.3"/>
		<line class="st51" x1="524.5" y1="538.4" x2="514.4" y2="519.3"/>
		<line class="st51" x1="518.6" y1="538.4" x2="508.6" y2="519.2"/>
		<line class="st51" x1="512.8" y1="538.3" x2="502.8" y2="519.2"/>
		<line class="st51" x1="507" y1="538.2" x2="496.9" y2="519.1"/>
		<line class="st51" x1="501.1" y1="538.2" x2="491.1" y2="519"/>
		<line class="st51" x1="495.3" y1="538.1" x2="485.3" y2="519"/>
	</g>
</g>
<path class="st13" d="M540,537.3l-61.3,34.2c0,0,20.3,8.1,38.9-2.2C535.4,559.3,540,537.3,540,537.3z"/>
<path class="st14" d="M540,537.3l-61.3,34.2c0,0,3.8-21.5,22.3-31.9C518.8,529.7,540,537.3,540,537.3z"/>
<g>
	<defs>
		<path id="SVGID_29_" d="M540,537.3l-61.3,34.2c0,0,3.8-21.5,22.3-31.9C518.8,529.7,540,537.3,540,537.3z"/>
	</defs>
	<clipPath id="SVGID_30_">
		<use xlink:href="#SVGID_29_"  style="overflow:visible;"/>
	</clipPath>
	<g class="st52">
		<line class="st53" x1="536.2" y1="541.5" x2="511.1" y2="525.5"/>
		<line class="st53" x1="529.2" y1="545.4" x2="504.1" y2="529.3"/>
		<line class="st53" x1="522.2" y1="549.3" x2="497.1" y2="533.3"/>
		<line class="st53" x1="515.2" y1="553.2" x2="490.1" y2="537.2"/>
		<line class="st53" x1="508.2" y1="557.1" x2="483.1" y2="541.1"/>
		<line class="st53" x1="501.2" y1="561" x2="476.1" y2="545"/>
		<line class="st53" x1="494.2" y1="564.9" x2="469.1" y2="548.9"/>
		<line class="st53" x1="487.2" y1="568.8" x2="462.1" y2="552.8"/>
	</g>
</g>
<path class="st9" d="M341.9,563.4l-25.4,42.2l-4-2.4c-5.5-3.3-7.3-10.5-4-16c0.5-0.8,1.1-1.6,1.8-2.3l13.7-13.4l8.3-13.8
	L341.9,563.4z"/>
<path class="st8" d="M320.5,608l-4-2.4l25.4-42.2l9.5,5.7l-8.4,13.9l-5.4,18.4c-1.8,6.2-8.3,9.7-14.4,7.9
	C322.3,609,321.4,608.6,320.5,608L320.5,608z"/>
<rect x="339.1" y="553.9" transform="matrix(0.5156 -0.8568 0.8568 0.5156 -318.9556 565.7817)" class="st48" width="3.8" height="22.2"/>
<path class="st54" d="M308,534.9l-1.2,2c-1.3,2.2-0.6,5,1.6,6.3c0,0,0,0,0,0l67.1,40.4c2.2,1.3,5,0.5,6.3-1.6l1.2-2L308,534.9z"/>
<path class="st55" d="M308,534.9l-1.2,2c-1.3,2.2-0.6,5,1.6,6.3c0,0,0,0,0,0l67.1,40.4c2.2,1.3,5,0.5,6.3-1.6l1.2-2L308,534.9z"/>
<path class="st56" d="M363.9,526.8L363.9,526.8c-23.3-14-45.5-0.8-56,8l37.5,22.6L363.9,526.8z"/>
<path class="st35" d="M363.9,526.8L363.9,526.8c23.3,14,22,39.9,19.1,53.2l-37.5-22.6L363.9,526.8z"/>
<path class="st6" d="M337.7,856.2l246.5-36.7c4-0.6,7.7,2.1,8.2,6.1l0,0l13,87.4c0.2,1.5-0.8,2.8-2.2,3l-255.6,38
	c-1.5,0.2-2.8-0.8-3-2.2l-13-87.4C330.9,860.5,333.7,856.8,337.7,856.2C337.6,856.2,337.6,856.2,337.7,856.2L337.7,856.2z"/>
<g>
	<defs>
		<path id="SVGID_31_" d="M337.7,856.2l246.5-36.7c4-0.6,7.7,2.1,8.2,6.1l0,0l13,87.4c0.2,1.5-0.8,2.8-2.2,3l-255.6,38
			c-1.5,0.2-2.8-0.8-3-2.2l-13-87.4C330.9,860.5,333.7,856.8,337.7,856.2C337.6,856.2,337.6,856.2,337.7,856.2L337.7,856.2z"/>
	</defs>
	<clipPath id="SVGID_32_">
		<use xlink:href="#SVGID_31_"  style="overflow:visible;"/>
	</clipPath>
	<g class="st57">
		<path class="st8" d="M494.3,827.5l6.4,32c0.2,1.2,1.3,2,2.5,1.8c0.9-0.2,1.6-0.9,1.8-1.8l7-38L494.3,827.5z"/>
		<path class="st8" d="M452.4,833.1l6.4,32c0.2,1.2,1.4,2,2.6,1.7c0.9-0.2,1.6-0.9,1.7-1.7l7-38L452.4,833.1z"/>
		<path class="st8" d="M410.6,838.7l6.4,32c0.2,1.2,1.4,2,2.6,1.7c0.9-0.2,1.6-0.9,1.7-1.7l7-38L410.6,838.7z"/>
	</g>
</g>
<path class="st12" d="M601.5,886.3l0.7,4.5c2.1,13.8-7.5,26.6-21.3,28.7L370,950.9c-9.5,1.4-19-2.7-24.5-10.6
	C345.5,940.3,573.4,919.2,601.5,886.3z"/>
<polygon class="st4" points="545.1,101.2 523.4,93.6 515.8,115.3 515.8,115.3 545.1,101.2 "/>
<polygon class="st12" points="545.1,101.2 515.8,115.3 537.5,122.9 "/>
<polygon class="st4" points="523.4,93.6 501.7,86 494.1,107.7 494.1,107.7 523.4,93.6 "/>
<polygon class="st12" points="523.4,93.6 494.1,107.7 515.8,115.3 "/>
<polygon class="st4" points="501.9,86 480.1,78.4 472.5,100.1 472.5,100.1 501.8,86.1 "/>
<polygon class="st12" points="501.8,86.1 472.5,100.1 494.2,107.7 "/>
<polygon class="st4" points="537.5,122.9 515.8,115.3 508.2,137 508.2,137 537.5,122.9 "/>
<polygon class="st12" points="537.5,122.9 508.2,137 529.9,144.6 "/>
<polygon class="st4" points="515.8,115.3 494.1,107.7 486.5,129.4 486.5,129.4 515.8,115.3 "/>
<polygon class="st12" points="515.8,115.3 486.5,129.4 508.2,137 "/>
<polygon class="st4" points="494.2,107.7 472.5,100.1 464.9,121.8 464.9,121.8 494.2,107.7 "/>
<polygon class="st12" points="494.2,107.7 464.9,121.8 486.6,129.4 "/>
<polygon class="st4" points="529.9,144.6 508.2,137 500.6,158.7 500.6,158.7 529.9,144.7 "/>
<polygon class="st12" points="529.9,144.7 500.6,158.7 522.3,166.3 "/>
<polygon class="st4" points="508.2,137 486.5,129.4 478.9,151.1 478.9,151.1 508.2,137.1 "/>
<polygon class="st12" points="508.2,137.1 478.9,151.1 500.6,158.7 "/>
<polygon class="st4" points="486.6,129.4 464.9,121.8 457.3,143.5 457.3,143.5 486.6,129.5 "/>
<polygon class="st12" points="486.6,129.5 457.3,143.5 479,151.1 "/>
<polygon class="st4" points="522.3,166.3 500.6,158.7 492.9,180.4 493,180.4 522.3,166.3 "/>
<polygon class="st12" points="522.3,166.3 493,180.4 514.6,188 "/>
<polygon class="st4" points="500.6,158.7 478.9,151.1 471.3,172.8 471.3,172.8 500.6,158.7 "/>
<polygon class="st12" points="500.6,158.7 471.3,172.8 493,180.4 "/>
<polygon class="st4" points="479,151.1 457.3,143.5 449.7,165.2 449.7,165.2 479,151.1 "/>
<polygon class="st12" points="479,151.1 449.7,165.2 471.4,172.8 "/>
<polygon class="st4" points="514.7,187.9 493,180.3 485.4,202 485.4,202 514.7,188 "/>
<polygon class="st12" points="514.7,188 485.4,202 507,209.6 "/>
<polygon class="st4" points="493,180.3 471.3,172.7 463.7,194.4 463.7,194.4 493,180.4 "/>
<polygon class="st12" points="493,180.4 463.7,194.4 485.4,202 "/>
<polygon class="st4" points="471.4,172.8 449.7,165.1 442.1,186.8 442.1,186.8 471.4,172.8 "/>
<polygon class="st12" points="471.4,172.8 442.1,186.8 463.8,194.4 "/>
<path class="st58" d="M644.2,531.1l-1.9,3.2c23,13.8,30.4,43.5,16.7,66.5c-13.5,22.5-42.4,30.2-65.3,17.4l-1.9,3.2
	c24.9,14.5,56.9,6,71.3-19C677.6,577.5,669.1,545.5,644.2,531.1z"/>
<path class="st59" d="M659.9,600.5c13.4-23.1,5.6-52.8-17.6-66.2c0,0,0,0,0,0l-48.7,83.9C616.8,631.6,646.5,623.7,659.9,600.5
	C659.9,600.5,659.9,600.5,659.9,600.5z M632.9,618.9c-1,0.3-2.1-0.2-2.4-1.2c0,0,0-0.1,0-0.1l-9.5-35.9c-0.2-0.6,0.2-1.2,0.8-1.3
	c0.3-0.1,0.6,0,0.8,0.1l32.1,18.6c0.9,0.5,1.2,1.7,0.7,2.6c0,0,0,0.1-0.1,0.1C649.8,609.7,642,615.7,632.9,618.9L632.9,618.9z
	 M662.4,568c1.8,9.4,0.5,19.2-3.7,27.9c-0.5,0.9-1.6,1.3-2.5,0.9c0,0-0.1,0-0.1-0.1L623.9,578c-0.5-0.3-0.7-1-0.4-1.5
	c0.1-0.3,0.4-0.4,0.7-0.5l35.9-9.5c1-0.3,2.1,0.3,2.3,1.3C662.4,567.9,662.4,567.9,662.4,568z M640.8,539.6c0.5-0.9,1.7-1.2,2.6-0.7
	c0,0,0.1,0,0.1,0.1c7.9,5.4,13.9,13.3,17.1,22.3c0.3,1-0.2,2.1-1.2,2.4c0,0-0.1,0-0.1,0l-35.9,9.5c-0.6,0.2-1.2-0.2-1.3-0.8
	c-0.1-0.3,0-0.6,0.1-0.8L640.8,539.6z M616.2,582.1c0.3-0.5,1-0.7,1.5-0.4c0.3,0.1,0.4,0.4,0.5,0.7l9.5,35.9c0.3,1-0.3,2.1-1.3,2.3
	c0,0-0.1,0-0.1,0c-9.4,1.8-19.2,0.5-27.9-3.7c-0.9-0.5-1.3-1.6-0.9-2.5c0,0,0-0.1,0.1-0.1L616.2,582.1z"/>
<path class="st58" d="M623.4,573.3l35.9-9.5c1-0.3,1.6-1.3,1.3-2.3c0,0,0-0.1,0-0.1c-3.2-9.1-9.1-16.9-17.1-22.3
	c-0.9-0.6-2.1-0.4-2.7,0.5c0,0,0,0.1-0.1,0.1l-18.6,32.1c-0.3,0.5-0.1,1.2,0.4,1.5C622.9,573.3,623.1,573.4,623.4,573.3z
	 M635.5,559.7c0.7-1.3,2.4-1.8,3.7-1c0.3,0.2,0.6,0.4,0.8,0.6l0,0.1c0.9,1.2,0.6,2.9-0.6,3.8c-0.3,0.2-0.6,0.3-0.9,0.4l-6.1,1.6
	c0,0-0.1,0-0.1,0s0-0.1,0-0.1l0,0L635.5,559.7z"/>
<path class="st58" d="M623.9,578l32.1,18.6c0.9,0.5,2.1,0.2,2.6-0.7c0,0,0-0.1,0.1-0.1c4.2-8.6,5.5-18.4,3.7-27.8
	c-0.2-1-1.2-1.7-2.2-1.5c0,0-0.1,0-0.1,0l-35.9,9.5c-0.6,0.2-0.9,0.7-0.8,1.3C623.4,577.6,623.6,577.9,623.9,578z M635.7,578.6
	l6.1-1.6c1.4-0.4,2.9,0.5,3.3,1.9c0.1,0.3,0.1,0.7,0.1,1v0.1c-0.2,1.5-1.6,2.5-3.1,2.3c-0.3-0.1-0.7-0.2-0.9-0.3l-5.5-3.2
	C635.7,578.7,635.6,578.7,635.7,578.6C635.6,578.6,635.7,578.6,635.7,578.6L635.7,578.6z"/>
<path class="st58" d="M654.6,599l-32.1-18.6c-0.5-0.3-1.2-0.1-1.5,0.4c-0.1,0.2-0.2,0.5-0.1,0.8l9.5,35.9c0.3,1,1.3,1.6,2.3,1.4
	c0,0,0.1,0,0.1,0c9.1-3.2,16.9-9.1,22.3-17.1c0.6-0.9,0.4-2.1-0.5-2.7C654.7,599.1,654.6,599.1,654.6,599z M635.1,598L635.1,598
	c-1.3,0.9-3,0.6-3.8-0.6c-0.2-0.3-0.3-0.6-0.4-0.9l-1.6-6.1c0,0,0-0.1,0.1-0.1l5.5,3.2c1.3,0.7,1.8,2.4,1.1,3.7
	C635.6,597.5,635.3,597.8,635.1,598z"/>
<path class="st58" d="M598.3,616.9c8.7,4.2,18.4,5.5,27.9,3.7c1-0.2,1.7-1.2,1.5-2.2c0,0,0-0.1,0-0.1l-9.5-35.9
	c-0.2-0.6-0.7-0.9-1.3-0.8c-0.3,0.1-0.5,0.3-0.7,0.5l-18.6,32.1c-0.5,0.9-0.2,2.1,0.7,2.6C598.3,616.8,598.3,616.9,598.3,616.9z
	 M615.7,593.8C615.7,593.7,615.7,593.7,615.7,593.8C615.8,593.7,615.8,593.7,615.7,593.8l1.7,6.1c0.4,1.4-0.5,2.9-1.9,3.3
	c-0.3,0.1-0.7,0.1-1,0.1h-0.1c-1.5-0.2-2.5-1.6-2.2-3.1c0.1-0.3,0.2-0.6,0.3-0.9L615.7,593.8z"/>
<path class="st60" d="M632.3,565.2l6.1-1.6c1.5-0.4,2.3-1.8,2-3.3c-0.1-0.3-0.2-0.6-0.4-0.9l0-0.1c-0.9-1.2-2.6-1.3-3.8-0.4
	c-0.3,0.2-0.5,0.5-0.6,0.8L632.3,565.2C632.3,565.1,632.3,565.2,632.3,565.2C632.3,565.2,632.3,565.2,632.3,565.2z"/>
<path class="st60" d="M614.4,603.3L614.4,603.3c1.6,0.2,2.9-0.9,3.1-2.4c0-0.3,0-0.7-0.1-1l-1.6-6.1c0,0,0,0-0.1,0c0,0,0,0,0,0
	l-3.2,5.5c-0.8,1.3-0.3,3,1,3.7C613.8,603.1,614.1,603.2,614.4,603.3z"/>
<path class="st60" d="M634.7,593.5l-5.5-3.2c0,0-0.1,0-0.1,0.1l1.6,6.1c0.4,1.4,1.9,2.3,3.3,1.9c0.3-0.1,0.6-0.2,0.9-0.4h0.1
	c1.2-0.9,1.4-2.6,0.4-3.8C635.3,593.9,635,593.7,634.7,593.5z"/>
<path class="st60" d="M641.2,581.9c1.3,0.8,3,0.3,3.7-1c0.2-0.3,0.3-0.6,0.3-0.9v-0.1c0.2-1.5-0.9-2.8-2.4-3c-0.3,0-0.7,0-1,0.1
	l-6.1,1.6c0,0,0,0,0,0.1c0,0,0,0,0,0L641.2,581.9z"/>
<path class="st8" d="M421.2,564.5c-4,0.4-7.4,3-8.9,6.6c-11.5,25.5-15.3,53.9-11,81.6l30.8-4.5c-8.1-17.1-12.9-37.5-12.9-59.5
	C419.2,580.6,419.9,572.5,421.2,564.5z"/>
<path class="st9" d="M432.7,577c0.3-4.9-2.3-9.4-6.7-11.6c-1.5-0.7-3.2-1-4.8-0.9c-1.3,8-2,16.1-2,24.2c0,21.9,4.7,42.3,12.9,59.5
	l15.3-2.2C436.8,624.6,431.8,600.9,432.7,577z"/>
<path class="st61" d="M532.8,687.7c-28.8,15.7-64.8,9.5-88-18.5c-6.6-8.1-11.7-17.3-15.1-27.2h-27.4c1,19,7.6,37.6,19.9,52.5
	c29.2,35.2,78.3,36,108.4,2.3l0.2-0.2C532.9,694.1,533.7,690.8,532.8,687.7z"/>
<path class="st62" d="M444.8,669.2c23.3,28.1,59.2,34.3,88,18.5c-1-4.1-4.6-7.5-9.2-6.7c-22.7,3.7-46.7-4.2-64.2-23.8
	c-3.1-3.5-5.9-7.3-8.4-11.3c-1.4-2.4-4-3.9-6.8-4h-14.5C433.1,651.9,438.2,661.1,444.8,669.2z"/>
<path class="st62" d="M397.9,714.5H393v-60.9c0-6.4,4.6-11.6,10.3-11.6H431v26.1C431,688.6,416.2,714.5,397.9,714.5z"/>
<path class="st63" d="M184.3,835.9c2.4,6.2,2.6,12,0.3,12.9s-6.1-3.4-8.6-9.6s-0.3-12.9-0.3-12.9S181.9,829.7,184.3,835.9z"/>
<path class="st63" d="M189.3,844.9c-1.3,2.8-2,5.7-2.2,8.7l1.6,4.2c2.3,0.7,6.2-3.4,8.8-9.4s0.7-12.9,0.7-12.9
	S192,838.8,189.3,844.9z"/>
<path class="st63" d="M179.5,848.8c2.8,1.2,5.4,2.8,7.6,4.9l1.6,4.2c-1.2,2.1-6.8,1.7-12.8-0.9s-9.3-8.9-9.3-8.9
	S173.4,846.1,179.5,848.8z"/>
<path class="st63" d="M194.5,858c-1.3,2.8-2,5.7-2.2,8.7l1.6,4.2c2.3,0.7,6.1-3.4,8.8-9.4s0.8-12.9,0.8-12.9S197.1,851.9,194.5,858z
	"/>
<path class="st63" d="M184.7,861.9c2.8,1.2,5.4,2.8,7.6,4.9l1.6,4.2c-1.2,2.1-6.8,1.7-12.8-0.9s-9.3-8.9-9.3-8.9
	S178.5,859.2,184.7,861.9z"/>
<path class="st63" d="M199.6,871.1c-1.3,2.8-2,5.7-2.2,8.7l1.6,4.2c2.3,0.7,6.1-3.4,8.8-9.4s0.8-12.9,0.8-12.9
	S202.3,865,199.6,871.1z"/>
<path class="st63" d="M189.8,875c2.8,1.2,5.4,2.8,7.6,4.9l1.6,4.2c-1.2,2.1-6.8,1.7-12.8-0.9s-9.3-8.9-9.3-8.9
	S183.7,872.3,189.8,875z"/>
<line class="st64" x1="197.9" y1="882.7" x2="206.1" y2="903.7"/>
</svg>
