<?xml version="1.0" encoding="utf-8"?>
<!-- Generator: Adobe Illustrator 25.2.1, SVG Export Plug-In . SVG Version: 6.00 Build 0)  -->
<svg version="1.1" id="Layer_1" xmlns="http://www.w3.org/2000/svg" xmlns:xlink="http://www.w3.org/1999/xlink" x="0px" y="0px"
	 viewBox="0 0 1000 1000" style="enable-background:new 0 0 1000 1000;" xml:space="preserve">
<style type="text/css">
	.st0{fill:#F7E58A;}
	.st1{fill:#E6C54E;}
	.st2{fill:#C4DD8C;}
	.st3{fill:#5A8039;}
	.st4{fill:#A7CE6D;}
	.st5{fill:#8AC9DE;}
	.st6{fill:#6BA2D5;}
</style>
<path class="st0" d="M810.2,450.9c0,74.8-60.6,135.4-135.4,135.4s-135.4-60.6-135.4-135.4S600,315.5,674.8,315.5l0,0
	C749.6,315.5,810.2,376.1,810.2,450.9z"/>
<path class="st1" d="M674.8,586.3c74.8,0.6,135.9-59.4,136.5-134.2s-59.4-135.9-134.2-136.5c-0.8,0-1.6,0-2.3,0V586.3"/>
<polygon class="st1" points="652.5,289.6 674.8,195.7 697.1,289.6 "/>
<polygon class="st1" points="598.7,306.9 587.5,211.1 640.6,291.7 "/>
<polygon class="st1" points="554,341.6 510.8,255.4 588.2,313 "/>
<polygon class="st1" points="523.9,389.5 453.8,323.3 546.2,350.9 "/>
<polyline class="st1" points="423.5,406.6 519.8,400.9 512,444.8 423.5,406.6 "/>
<polyline class="st1" points="423.5,495.2 512,457 519.8,500.9 423.5,495.2 "/>
<polygon class="st1" points="546.2,550.9 453.8,578.5 523.9,512.3 "/>
<polygon class="st1" points="588.2,588.8 510.8,646.4 554,560.2 "/>
<polygon class="st1" points="640.6,610.1 587.5,690.8 598.7,594.9 "/>
<polygon class="st1" points="697.1,612.2 674.8,706.1 652.5,612.2 "/>
<polygon class="st1" points="750.9,594.9 762.1,690.7 709,610.2 "/>
<polygon class="st1" points="795.6,560.2 838.9,646.4 761.4,588.8 "/>
<polygon class="st1" points="825.7,512.3 895.8,578.5 803.4,550.9 "/>
<polygon class="st1" points="837.6,457 926.2,495.2 829.8,500.9 "/>
<polygon class="st1" points="829.8,400.9 926.2,406.6 837.6,444.9 "/>
<polygon class="st1" points="803.4,350.9 895.8,323.3 825.7,389.5 "/>
<polygon class="st1" points="761.4,313 838.9,255.4 795.6,341.6 "/>
<polygon class="st1" points="709,291.7 762.1,211.1 751,306.9 "/>
<path class="st2" d="M0,931.5c0-226.6,183.7-450.7,410.3-450.7s410.3,224.1,410.3,450.7H0z"/>
<path class="st3" d="M368.2,931.5h195.3l165.2-298.1C728.7,633.4,418,617.7,368.2,931.5z"/>
<path class="st4" d="M457.3,931.5c0-149.9,121.5-298.1,271.4-298.1S1000,781.6,1000,931.5H457.3z"/>
<path class="st5" d="M384,505.2c0-22.7-16.1-42.1-38.4-46.3c0.5-2.3,0.8-4.7,0.8-7.1c0-17.5-14.2-31.8-31.7-31.8
	c-5.7,0-11.3,1.5-16.3,4.5c-8.5-42.4-49.8-69.8-92.1-61.3c-36.5,7.4-62.8,39.4-62.8,76.7c0,2.3,0.1,4.6,0.3,6.9
	C118,426.9,81,431.7,61.2,457.5S46.1,520.2,71.9,540c8.7,6.7,19,10.8,29.9,11.9l-0.2,0.3h239.2l-0.1-0.2
	C365.1,550.2,384,529.8,384,505.2z"/>
<path class="st6" d="M220.9,552.2h119.9l-0.1-0.2c25.9-2,45.3-24.6,43.3-50.5c-1.6-21.2-17.3-38.7-38.3-42.6
	c0.5-2.3,0.8-4.7,0.8-7.1c0-17.5-14.2-31.8-31.7-31.8c-5.7,0-11.3,1.5-16.3,4.5c-7.4-36.5-39.4-62.8-76.7-62.8L220.9,552.2z"/>
<path class="st5" d="M474.8,143.7c1-4.4,1.5-8.9,1.5-13.4c0-34.1-28.9-61.8-64.6-61.8c-24.5,0-45.9,13.1-56.9,32.4
	c-6.8-3.6-14.4-5.4-22.1-5.4c-25.3,0-45.9,19.6-45.9,43.8c0,0.6,0,1.3,0,1.9h-0.1c-21.6,0-39.2,16.8-39.2,37.4s17.5,37.4,39.2,37.4
	h174c21.6,0,39.2-16.8,39.2-37.4C500,162.7,489.5,149.1,474.8,143.7z"/>
<path class="st6" d="M373.8,216.1h87c21.6,0,39.2-16.8,39.2-37.4c0-16-10.5-29.6-25.2-35c1-4.4,1.5-8.9,1.5-13.4
	c0-34.1-28.9-61.8-64.6-61.8c-14.3-0.1-28.3,4.5-39.8,13.1"/>
</svg>
