<svg xmlns="http://www.w3.org/2000/svg" xmlns:xlink="http://www.w3.org/1999/xlink" viewBox="0 0 995.26 688.35"><defs><style>.cls-1,.cls-11,.cls-23,.cls-27,.cls-47{fill:none;}.cls-2{clip-path:url(#clip-path);}.cls-3{fill:#91d6ee;}.cls-4{fill:#f8d300;}.cls-5{fill:#006ed5;}.cls-6{fill:#fefefe;}.cls-7{fill:#001a8d;}.cls-8{fill:#f59f00;}.cls-9{fill:#e59000;}.cls-10{clip-path:url(#clip-path-3);}.cls-11{stroke:#91d6ee;stroke-linecap:round;stroke-linejoin:round;stroke-width:4px;}.cls-12{clip-path:url(#clip-path-4);}.cls-13{clip-path:url(#clip-path-5);}.cls-14{clip-path:url(#clip-path-6);}.cls-15{fill:#fff;}.cls-16{fill:#8ecde1;}.cls-17,.cls-18,.cls-20,.cls-38,.cls-39,.cls-40,.cls-41,.cls-42,.cls-43,.cls-44,.cls-45,.cls-46,.cls-48,.cls-52{fill:#234a99;}.cls-18{font-size:1.39px;}.cls-18,.cls-20,.cls-32{font-family:Intro, Intro ;}.cls-19{letter-spacing:0.01em;}.cls-20{font-size:0.97px;}.cls-21{letter-spacing:-0.05em;}.cls-22{letter-spacing:-0.05em;}.cls-23,.cls-26{font-size:1.36px;}.cls-23,.cls-26,.cls-50,.cls-51,.cls-53,.cls-54,.cls-55{font-family:FuturaNewBook-Reg, Futura New;}.cls-24,.cls-27,.cls-29{letter-spacing:0em;}.cls-24,.cls-25{fill:#000;}.cls-28{letter-spacing:-0.04em;}.cls-30{letter-spacing:-0.05em;}.cls-31{letter-spacing:-0.03em;}.cls-32{font-size:3.44px;letter-spacing:0.02em;}.cls-32,.cls-56{fill:#f8dc5b;}.cls-33,.cls-43{letter-spacing:0.03em;}.cls-34{letter-spacing:0.03em;}.cls-35{letter-spacing:0.03em;}.cls-36,.cls-37{letter-spacing:0em;}.cls-37{fill:#694a3b;}.cls-38{letter-spacing:0.03em;}.cls-39{letter-spacing:0.02em;}.cls-40{letter-spacing:0.03em;}.cls-41{letter-spacing:0.03em;}.cls-42{letter-spacing:0.03em;}.cls-44{letter-spacing:0.03em;}.cls-45{letter-spacing:0.01em;}.cls-46{letter-spacing:0em;}.cls-47{stroke:#f8dc5b;stroke-miterlimit:10;stroke-width:0.2px;}.cls-48,.cls-52{font-size:2.32px;font-family:FuturaNewDemi-Reg, Futura New;}.cls-48{letter-spacing:-0.06em;}.cls-49,.cls-50,.cls-52{letter-spacing:0.05em;}.cls-51{letter-spacing:0.03em;}.cls-54{letter-spacing:0.03em;}.cls-55{letter-spacing:0.05em;}.cls-57{fill:#ffefbf;}.cls-58{fill:#fff0c0;}.cls-59{fill:#000803;}.cls-60{fill:#686e70;}.cls-61{fill:#224998;}.cls-62{fill:#6ba6d9;}</style><clipPath id="clip-path" transform="translate(-65.44 -210.5)"><polygon class="cls-1" points="103.05 886.02 1002.72 886.02 1133.51 886.02 1133.51 0 0 0 0 886.02 103.05 886.02"/></clipPath><clipPath id="clip-path-3" transform="translate(-65.44 -210.5)"><path class="cls-1" d="M676.29,542c-.33,13.43,0,17.59-2.86,30.94-4.29,20.25-18.82,58.35-20.81,64.51s0,17.73-3.19,52.29-9.69,77.4-11,120.94c-.21,6.9-2.09,6.88-7,7s-43,0-43,0-13,19.49-15.85,23.45-4.85,4.4-8.81,1.32-73.43-63.52-81-71.23c-2.75-2.42-4.18-4.18-5.61-5.61s-2.86-4-1-7.82,15.19-31.37,23.23-43.59S625,552.1,625,552.1l47.45-11.44Z"/></clipPath><clipPath id="clip-path-4" transform="translate(-65.44 -210.5)"><path class="cls-1" d="M629.78,319.82c4.1-.11,12.52,1.21,13.68,9.88,0,0,1.4,10.65-13.13,14.94.17,8.09,9.08,57,14.7,83.73s5.83,28.95,6.27,34.57c3.64,5.94,11.89,16.4,17.07,27.41S677,511.93,677,530c0,13-.44,16-1.1,18.17S661.54,573.8,628.07,575c-7.92,13.87-20.91,39.41-42.71,80.59s-57.26,84.33-118.68,49C443.39,691.27,432,667.49,418.46,644s-48.88-93.64-63.08-136.57l65.72-11.73s22.29,37.82,37.49,64.57,36.33,66.39,36.33,66.39c13.21-25.93,23.12-56,33.85-72.66s28.07-26.26,37.16-38.81,23.45-30.88,29.39-36.17c-1-14.69-11.39-92-12.22-98.09s-16.43-35.17-16.43-35.17,1.16-6,1.82-11.15a98.53,98.53,0,0,0,1-12c.08-4.13,46.48-12.55,46.48-12.55Z"/></clipPath><clipPath id="clip-path-5" transform="translate(-65.44 -210.5)"><path class="cls-1" d="M615.47,320.2c-.17,5.84-1.74,16.19-6.53,19.49s-19.15,5.86-29.88,6.11-12.39,0-12.39,0a14.35,14.35,0,0,0-2.56,6.38,63,63,0,0,0-1.1,9.53c-.17,3.57-.61,16.18-.66,19.81s.55,11.78,8.59,12.28S589.6,392,597.52,389s11.62-4.95,16.3-17.45,6.26-19.67,7.43-34.68c.71-9.19.66-13.21.66-13.21,1.92-1.05,6.55-3.25,7.87-3.85.77-3.75,2-10,1.05-16.08s-4.52-15.46-14.26-18.38-20.07.71-26.37,3.69c-9,4.23-19.76,14-22,14.86s-6.94,1.26-11.78,3.3c-4.05,1.7-12,6.88-12,12.55s7.1,6.66,11.89,6.66a100.83,100.83,0,0,0,14.54-1.48,115.14,115.14,0,0,0,16.56-5c3.53-1.21,5.07-1.48,7.55.11a19.45,19.45,0,0,0,10.18,2.75C608.59,322.68,612.66,322,615.47,320.2Z"/></clipPath><clipPath id="clip-path-6" transform="translate(-65.44 -210.5)"><path class="cls-1" d="M556.67,679.93a531.93,531.93,0,0,0,36.93,41.75l63-29.42-21.47-33.2-27.51-17.25Z"/></clipPath></defs><g id="Layer_2" data-name="Layer 2"><g id="BG"><g class="cls-2"><path class="cls-3" d="M337.32,598.28a1.5,1.5,0,0,0-1.5,1.5v23.5L203.63,657.51V645.14a1.5,1.5,0,0,0-3,0v42.79l-132.19,25V679.34a1.5,1.5,0,0,0-3,0v35.35h0V886a1.5,1.5,0,0,0,3,0V716l132.19-25V886a1.5,1.5,0,0,0,3,0V689.2h0V660.61l132.19-34.23V886a1.5,1.5,0,0,0,3,0V599.78A1.5,1.5,0,0,0,337.32,598.28Z" transform="translate(-65.44 -210.5)"/><path class="cls-3" d="M1059.19,625.69a1.5,1.5,0,0,0-1.5,1.5v40.48L893.57,637.83V573.36a1.5,1.5,0,0,0-3,0v25.81L727.78,558V524.81a1.5,1.5,0,0,0-3,0V886a1.5,1.5,0,0,0,3,0V561.08l162.79,41.19V886a1.5,1.5,0,0,0,3,0V640.88l164.12,29.84V886a1.5,1.5,0,0,0,3,0V627.19A1.5,1.5,0,0,0,1059.19,625.69Z" transform="translate(-65.44 -210.5)"/><path class="cls-3" d="M103.05,886h899.67V210.5c-21.14,0-43.6,29.5-56.37,47.56s-74.77,114.63-129,151.48C724,473,573.81,459.3,491.51,520.07c-97,71.62-87.69,117.58-170.92,179.23S163.38,764.49,125.5,807.2,103.05,886,103.05,886Z" transform="translate(-65.44 -210.5)"/><path class="cls-4" d="M121.48,812C88.77,852.56,103.05,886,103.05,886H359.11Z" transform="translate(-65.44 -210.5)"/><path class="cls-5" d="M1002.72,632.25V563.17L888,338.7c-21.88,27.33-47,54.77-70.69,70.84a239.59,239.59,0,0,1-41.81,22.35Z" transform="translate(-65.44 -210.5)"/><path class="cls-4" d="M946.35,258.06c-7.2,10.17-30.05,45.32-58.34,80.64l114.71,224.47V210.5C981.58,210.5,959.12,240,946.35,258.06Z" transform="translate(-65.44 -210.5)"/><path class="cls-6" d="M1002.72,657.67,893.57,637.83V573.36a1.5,1.5,0,0,0-3,0v25.81L727.78,558V524.81a1.5,1.5,0,0,0-3,0V886h3V561.08l162.79,41.19V886h3V640.88l109.15,19.84Z" transform="translate(-65.44 -210.5)"/><path class="cls-6" d="M203.63,761.35l-3,1.25V886h3Z" transform="translate(-65.44 -210.5)"/><path class="cls-6" d="M338.82,684.84q-1.47,1.26-3,2.52V886h3Z" transform="translate(-65.44 -210.5)"/><path class="cls-5" d="M732.56,886c-30,0-54.33-24-54.33-53.62s24.33-53.61,54.33-53.61h28.78V886Z" transform="translate(-65.44 -210.5)"/><ellipse class="cls-6" cx="695.91" cy="621.91" rx="54.33" ry="53.61"/><path class="cls-7" d="M697.75,607.43h43a0,0,0,0,1,0,0V632.7a0,0,0,0,1,0,0h-43a12.63,12.63,0,0,1-12.63-12.63v0a12.63,12.63,0,0,1,12.63-12.63Z"/><path class="cls-5" d="M847.27,886c-30,0-54.33-24-54.33-53.62s24.33-53.61,54.33-53.61h28.79V886Z" transform="translate(-65.44 -210.5)"/><ellipse class="cls-6" cx="810.62" cy="621.91" rx="54.33" ry="53.61"/><circle class="cls-3" cx="810.22" cy="620.66" r="18.19"/></g></g><g id="Char"><g class="cls-2"><polygon class="cls-8" points="571 603.47 561.76 685.38 465.81 682.73 505.61 617.34 524.11 599.84 571 603.47"/><path class="cls-9" d="M602.42,858.88c-1.23,9.73-2.56,25-3.48,36.21l28.25.78L636.44,814l-27.88-2.16C607.22,821.93,604.08,845.73,602.42,858.88Z" transform="translate(-65.44 -210.5)"/><path class="cls-8" d="M477.58,760.46c-5.78,12.22-10.57,22.13-17.67,34.68s-17.18,29.72-24.11,42.93-14.53,31.87-17.84,38-9.57,16.34-9.57,16.34l127.32-2.14L567.91,842Z" transform="translate(-65.44 -210.5)"/><path class="cls-9" d="M535.71,890.26,567.91,842l-25.75-23.26c-9.47,12.7-17.89,25.29-25.76,36.63-5.79,8.33-16.57,25.32-23,35.56Z" transform="translate(-65.44 -210.5)"/><path class="cls-7" d="M567.21,839.41l-29.54,43.75-8.36,12.39a2.06,2.06,0,0,0,.2,2.82,2,2,0,0,0,2.83-.21L562,854.23l8.4-12.43C571.85,839.67,568.65,837.27,567.21,839.41Z" transform="translate(-65.44 -210.5)"/><path class="cls-6" d="M676.29,542c-.33,13.43,0,17.59-2.86,30.94-4.29,20.25-18.82,58.35-20.81,64.51s0,17.73-3.19,52.29-9.69,77.4-11,120.94c-.21,6.9-2.09,6.88-7,7s-43,0-43,0-13,19.49-15.85,23.45-4.85,4.4-8.81,1.32-73.43-63.52-81-71.23c-2.75-2.42-4.18-4.18-5.61-5.61s-2.86-4-1-7.82,15.19-31.37,23.23-43.59S625,552.1,625,552.1l47.45-11.44Z" transform="translate(-65.44 -210.5)"/><g class="cls-10"><path class="cls-7" d="M609.91,604c-9.25,22.58-18.44,49.1-26.07,66.94s-13.34,28.18-13.34,28.18l-12.82-13.87Z" transform="translate(-65.44 -210.5)"/><path class="cls-3" d="M583.43,835.82q-22.75-14.51-44.44-30.6c-14.37-10.65-28.45-21.75-42-33.47C489.9,765.6,483,759,477.66,751.21a2.07,2.07,0,0,0-2.69-.89,2,2,0,0,0-.88,2.69,105.65,105.65,0,0,0,17.19,19c6.54,5.88,13.39,11.45,20.24,17q21.42,17.26,44,33,12.88,9,26.12,17.39a2,2,0,0,0,2.69-.89A2.05,2.05,0,0,0,583.43,835.82Z" transform="translate(-65.44 -210.5)"/><path class="cls-3" d="M593.6,721.68a531.93,531.93,0,0,1-36.93-41.75,2,2,0,0,0-2.83,0,2.05,2.05,0,0,0,0,2.83,521.46,521.46,0,0,0,37.27,42,2,2,0,0,0,2.81-.32A2.05,2.05,0,0,0,593.6,721.68Z" transform="translate(-65.44 -210.5)"/><path class="cls-3" d="M658,631q-28.63.09-57.27.25l-16.65.07c-2.57,0-2.78,4-.2,4q28.9-.15,57.82-.25l16.54-.07C660.78,635,660.52,631,658,631Z" transform="translate(-65.44 -210.5)"/><path class="cls-3" d="M654.6,659.2a650.43,650.43,0,0,1-21.91,67,656.21,656.21,0,0,1-28.36,63q-9,17.37-18.93,34.16a2.06,2.06,0,0,0,.41,2.8,2,2,0,0,0,1,.36s0,0,0,.06l.44.66a2.05,2.05,0,0,0,2.68.89,1.62,1.62,0,0,0,.45-.34,59.44,59.44,0,0,0,16-1.44,1.83,1.83,0,0,0,1.1,1.16,2,2,0,0,0,2.6-1.11q7.67-29.77,16.38-59.27T645,708.36q5.49-16.47,11.36-32.81a2,2,0,0,0-1.43-2.61c1.21-4.18,2.4-8.37,3.53-12.57C659.1,657.89,655.27,656.71,654.6,659.2ZM590.79,823.74l-1,0,.36-.61a1.69,1.69,0,0,0,.66.58Z" transform="translate(-65.44 -210.5)"/><path class="cls-11" d="M622.46,633.19c-.22,16.35-1.15,54.3-16.65,75.18s-76.62,92-76.62,92" transform="translate(-65.44 -210.5)"/></g><path class="cls-5" d="M307.79,530c3.58,29.13,36.45,51.94,76.46,51.94,36,0,66.18-18.44,74.51-43.32L455.52,483l-153.34,8.26Z" transform="translate(-65.44 -210.5)"/><ellipse class="cls-3" cx="313.54" cy="277.03" rx="76.79" ry="57.22"/><path class="cls-8" d="M629.78,319.82c4.1-.11,12.52,1.21,13.68,9.88,0,0,1.4,10.65-13.13,14.94.17,8.09,9.08,57,14.7,83.73s5.83,28.95,6.27,34.57c3.64,5.94,11.89,16.4,17.07,27.41S677,511.93,677,530c0,13-.44,16-1.1,18.17S661.54,573.8,628.07,575c-7.92,13.87-20.91,39.41-42.71,80.59s-57.26,84.33-118.68,49C443.39,691.27,432,667.49,418.46,644s-48.88-93.64-63.08-136.57l65.72-11.73s22.29,37.82,37.49,64.57,36.33,66.39,36.33,66.39c13.21-25.93,23.12-56,33.85-72.66s28.07-26.26,37.16-38.81,23.45-30.88,29.39-36.17c-1-14.69-11.39-92-12.22-98.09s-16.43-35.17-16.43-35.17,1.16-6,1.82-11.15a98.53,98.53,0,0,0,1-12c.08-4.13,46.48-12.55,46.48-12.55Z" transform="translate(-65.44 -210.5)"/><path class="cls-9" d="M677,530c0-18.05-3.41-28.62-8.58-39.63s-13.43-21.47-17.07-27.41c-.44-5.62-.66-7.82-6.27-34.57s-14.53-75.64-14.7-83.73c14.53-4.29,13.13-14.94,13.13-14.94-1.16-8.67-9.58-10-13.68-9.88l-4.43-3.11-5.59,1.68-1.87,27.91c2.2,34.34,4.68,67.87,7.49,85.87s7.43,34.84,1.81,60.27-17.5,64.07-29.72,91.82S555.85,669,541.82,680.53c-13.08,10.77-18.14,15.81-52.93,33.93,48,14.51,77.44-22.93,96.47-58.86,21.8-41.18,34.79-66.72,42.71-80.59,33.47-1.21,47.12-24.66,47.78-26.86S677,543,677,530Z" transform="translate(-65.44 -210.5)"/><path class="cls-9" d="M395.93,500.23c15.47,23.58,34.83,49,42.68,60.25,8.75,12.55,36,50.69,42.77,56.31,5.4,4.48,8.9,8.22,11.86,6.78-5.28-9.87-22-41-34.65-63.26-15.2-26.75-37.49-64.57-37.49-64.57Z" transform="translate(-65.44 -210.5)"/><g class="cls-12"><path class="cls-7" d="M642.06,457.06a65.09,65.09,0,0,0-50.4,20c-1.79,1.85,1.24,4.47,3,2.61a61.71,61.71,0,0,1,34.58-17.94,59.66,59.66,0,0,1,12.16-.69,2.07,2.07,0,0,0,2.3-1.65A2,2,0,0,0,642.06,457.06Z" transform="translate(-65.44 -210.5)"/><path class="cls-7" d="M492.54,614.59a108.83,108.83,0,0,1-5.92,22.89,2,2,0,0,0,1.4,2.46,2,2,0,0,0,2.46-1.39,112.37,112.37,0,0,0,6-23.18C496.84,612.83,492.92,612,492.54,614.59Z" transform="translate(-65.44 -210.5)"/><path class="cls-7" d="M521.86,691.24a19.44,19.44,0,0,0-35,5.33,2.06,2.06,0,0,0,1.11,2.6,2,2,0,0,0,2.6-1.12,15.46,15.46,0,0,1,28-4.43C520.05,695.77,523.28,693.38,521.86,691.24Z" transform="translate(-65.44 -210.5)"/><path class="cls-7" d="M653.66,568.78,656,529.27l-26.55,45.66A61.89,61.89,0,0,0,653.66,568.78Z" transform="translate(-65.44 -210.5)"/><path class="cls-7" d="M631.56,345.38c-1.66-.35-3.33-.71-5-1.09a1.63,1.63,0,0,0-1.13.09,1.54,1.54,0,0,0-.75.89,1.51,1.51,0,0,0,1,1.88c1.81.38,3.61.79,5.41,1.19a1.5,1.5,0,0,0,1.72-1.24A1.54,1.54,0,0,0,631.56,345.38Z" transform="translate(-65.44 -210.5)"/><path class="cls-7" d="M421.1,495.74l-65.72,11.73c.37,1.13.76,2.29,1.17,3.46,14.61,3.12,37.12,4.79,53.82.5a124.77,124.77,0,0,0,16.68-5.55C423.42,499.67,421.1,495.74,421.1,495.74Z" transform="translate(-65.44 -210.5)"/></g><path class="cls-5" d="M294.6,460.71c3.57,29.13,36.44,51.94,76.46,51.94,36,0,66.18-18.43,74.51-43.32l-3.24-55.67L289,421.93Z" transform="translate(-65.44 -210.5)"/><ellipse class="cls-3" cx="300.34" cy="207.72" rx="76.79" ry="57.22"/><ellipse class="cls-6" cx="302.66" cy="209.31" rx="35.01" ry="28.43"/><path class="cls-7" d="M615.47,320.2c-.17,5.84-1.74,16.19-6.53,19.49s-19.15,5.86-29.88,6.11-12.39,0-12.39,0a14.35,14.35,0,0,0-2.56,6.38,63,63,0,0,0-1.1,9.53c-.17,3.57-.61,16.18-.66,19.81s.55,11.78,8.59,12.28S589.6,392,597.52,389s11.62-4.95,16.3-17.45,6.26-19.67,7.43-34.68c.71-9.19.66-13.21.66-13.21,1.92-1.05,6.55-3.25,7.87-3.85.77-3.75,2-10,1.05-16.08s-4.52-15.46-14.26-18.38-20.07.71-26.37,3.69c-9,4.23-19.76,14-22,14.86s-6.94,1.26-11.78,3.3c-4.05,1.7-12,6.88-12,12.55s7.1,6.66,11.89,6.66a100.83,100.83,0,0,0,14.54-1.48,115.14,115.14,0,0,0,16.56-5c3.53-1.21,5.07-1.48,7.55.11a19.45,19.45,0,0,0,10.18,2.75C608.59,322.68,612.66,322,615.47,320.2Z" transform="translate(-65.44 -210.5)"/><g class="cls-13"><path class="cls-5" d="M581.15,369.86c-.65.63-1.28,1.28-1.91,1.94-.32.34-.63.92-1.15.6-.28-.18-.47-.52-.73-.72a1.3,1.3,0,0,0-1.62-.12l0,0-.63-.58a.65.65,0,0,0-1,.2l-.16.33-.19-.38a.72.72,0,0,0-1.31-.06c-.18.3-.37.59-.55.88a.7.7,0,0,0-.73-.38l-.63-1.06a.73.73,0,0,0-1.34,0c-.24.65-.47,1.29-.7,1.93-.3-.94-.59-1.89-.89-2.83a.75.75,0,0,0-1.21-.4c-.19-.73-1.34-.9-1.49,0-.08.47-.15.94-.23,1.41-.17-1-.38-2-.64-3.05a.79.79,0,0,0-1.51.11c-.49,2.79-1,5.59-1.48,8.38-.18,1,1.4,1.17,1.57.17l.72-4.08a31.65,31.65,0,0,1,.21,5.33c0,.88,1.39.94,1.53.08l.48-2.84a.72.72,0,0,0,.61.54.76.76,0,0,0,.84-.56l.18-1.43c.19.61.39,1.22.58,1.83s1.18.5,1.38-.06c.3-.84.59-1.69.89-2.53l.2.33a.61.61,0,0,0,.55.27l.27.74a.73.73,0,0,0,1.24.19l.74-1.22.35.68a.69.69,0,0,0,1.19-.09l.36-.83.65.58a.65.65,0,0,0,1.06-.52l.06,0,.31.3a3.23,3.23,0,0,0,.57.48,1.22,1.22,0,0,0,1.41,0,8.18,8.18,0,0,0,1.29-1.34c.5-.55,1-1.11,1.45-1.69C582,370,581.51,369.5,581.15,369.86Z" transform="translate(-65.44 -210.5)"/><path class="cls-5" d="M616.87,301.05c-1.81,1.55-3.51,3.21-5.27,4.82a1.81,1.81,0,0,1-1.21.65,9.33,9.33,0,0,1-1.39-.21,7.22,7.22,0,0,0-2.7-.09,3.2,3.2,0,0,0-1.21.53,12.54,12.54,0,0,0-1,1c-.54.5-1.43.27-2.11.26a2.66,2.66,0,0,0-2.13.78,2.92,2.92,0,0,0-.56,1.18,5.39,5.39,0,0,0-.22.64.34.34,0,0,1,0,.08l.11.12-.11-.11c-.07.12-.17-.09-.11-.09a.88.88,0,0,0-1.31.6,2.25,2.25,0,0,1,0,.22,5.1,5.1,0,0,0-3.44-1.25.89.89,0,0,0-.65,1.23c.5,1.34,1,2.67,1.53,4a6,6,0,0,1,.32.9.15.15,0,0,1,0,.06.47.47,0,0,1-.17,0,13.66,13.66,0,0,1-1.5-1,31.13,31.13,0,0,1-5.6-5.52c-.58-.74-1.91-.27-1.57.74a21.87,21.87,0,0,0,3.05,5.92.88.88,0,0,0-1.22.72,1.83,1.83,0,0,0-2.1-.29c-.79.52-.65,1.44-.34,2.18l.18.41-.35-.19c-.73-.4-1.7.49-1.18,1.23,0,.07,0,.16.12.11a.71.71,0,0,1-.41-.16.64.64,0,0,0-1.07.49,1.54,1.54,0,0,0,2.22,1.26,1.66,1.66,0,0,0,.72-.69l1.34.73c.83.46,1.52-.45,1.2-1.21-.26-.58-.51-1.17-.76-1.75-.05-.12-.1-.25-.16-.37h0l.73.57,1.47,1.13c.78.6,1.83-.68,1.11-1.35l2.36,1.3c.84.46,1.84-.73,1-1.38a20.68,20.68,0,0,1-3.71-4.06c.47.42.94.85,1.44,1.25a13.35,13.35,0,0,0,2,1.4c1.45.76,3.29-.1,2.88-1.9a19.9,19.9,0,0,0-.91-2.48c-.16-.41-.32-.82-.47-1.23a8.35,8.35,0,0,1,1.89,1.46.87.87,0,0,0,1.31-.38c.07-.3.15-.59.22-.89a1.83,1.83,0,0,0,1.26-.66,3.47,3.47,0,0,0,.58-1.3c.1-.34.18-.61.55-.7.84-.22,1.75.12,2.61-.1a2.58,2.58,0,0,0,1.22-.72c.33-.34.55-.77,1-1a5.72,5.72,0,0,1,2.85-.06,3.66,3.66,0,0,0,2.93-.64c1-.79,1.85-1.71,2.76-2.57s1.91-1.79,2.83-2.73C618.26,301.34,617.45,300.55,616.87,301.05Z" transform="translate(-65.44 -210.5)"/></g><path class="cls-7" d="M632.13,329.79a1.53,1.53,0,0,0-2-.57l-10.51,5.63a1.5,1.5,0,1,0,1.35,2.68l10.64-5.7A1.51,1.51,0,0,0,632.13,329.79Z" transform="translate(-65.44 -210.5)"/><path class="cls-7" d="M580.69,328.73a13.93,13.93,0,0,0-13.83,2.74,1.5,1.5,0,0,0,2.12,2.12,10.84,10.84,0,0,1,10.4-2.16,1.54,1.54,0,0,0,2-.7A1.5,1.5,0,0,0,580.69,328.73Z" transform="translate(-65.44 -210.5)"/><path class="cls-7" d="M590.44,345.31,587,342c-.6-.58-1.21-1.14-1.79-1.73-.36-.36-.79-.72-.77-1.27a4.73,4.73,0,0,1,.82-1.92l1.14-2.1,2.37-4.35a1.5,1.5,0,0,0-.84-1.95,1.53,1.53,0,0,0-1.94.84l-2.6,4.72c-.83,1.52-2,3.21-1.95,5s1.47,3,2.69,4.14l4,3.86a1.52,1.52,0,0,0,2.11.16A1.5,1.5,0,0,0,590.44,345.31Z" transform="translate(-65.44 -210.5)"/><path class="cls-7" d="M606.16,328.38A11.66,11.66,0,0,0,594,328a1.5,1.5,0,0,0,1.48,2.61,8.71,8.71,0,0,1,9.19.34,1.5,1.5,0,1,0,1.5-2.59Z" transform="translate(-65.44 -210.5)"/><path class="cls-3" d="M593.76,348.82a1.5,1.5,0,0,0-2.11-.16,15.47,15.47,0,0,1-4.1,3.28,8.24,8.24,0,0,1-2.23.95,2.85,2.85,0,0,1-.52.06l-.31-.05-.11,0-.12-.05-.18-.13-.05,0-.17-.23a1.5,1.5,0,1,0-2.36,1.85,4.1,4.1,0,0,0,3,1.67,7.68,7.68,0,0,0,3.9-1,17.75,17.75,0,0,0,5.24-3.94A1.55,1.55,0,0,0,593.76,348.82Z" transform="translate(-65.44 -210.5)"/></g></g><g id="IQ-Bar"><g class="cls-14"><path class="cls-7" d="M583.71,718.07c.66-.27,29.83-19.87,34.9-22.51s12.44-7.28,15-8.15,3.85-2.2,2.86-3.74a27.83,27.83,0,0,0-3.74-4l-16.78-5.05-33.15,40Z" transform="translate(-65.44 -210.5)"/><rect class="cls-15" x="546.56" y="681.8" width="76.62" height="29.63" transform="translate(-378.33 339.96) rotate(-40.74)"/><path class="cls-16" d="M632.4,683.54a2.37,2.37,0,0,0,1.4-3.93L608,651.8a2,2,0,0,0-3.69.26l-3.35,11.2-23.59,20.31,44.57.72Z" transform="translate(-65.44 -210.5)"/><rect class="cls-16" x="554.63" y="703.53" width="10.03" height="29.63" transform="translate(-398.62 328.76) rotate(-40.74)"/><path class="cls-17" d="M556,712.44a2.23,2.23,0,0,0-1.52-.51.42.42,0,0,0-.47-.15.1.1,0,0,0-.07.12c0,.05.07.07.14.06a.21.21,0,0,1,.15,0l.09.08h0a2.2,2.2,0,0,0,.27,1.58.91.91,0,0,0,1.44.29h0A.91.91,0,0,0,556,712.44Zm-.34,1h0a.39.39,0,0,1-.57-.09.5.5,0,0,1-.07-.66h0c.14-.13.44-.06.64.16A.4.4,0,0,1,555.64,713.44Zm.45,0h0v0a.08.08,0,0,1-.12-.1.43.43,0,0,0-.07-.51.08.08,0,1,1,.12-.1A.58.58,0,0,1,556.09,713.4Z" transform="translate(-65.44 -210.5)"/><text class="cls-18" transform="translate(490.13 505.76) rotate(-40.74)">KETO</text><path class="cls-17" d="M562.85,721.72a.1.1,0,0,0-.11.09h0c0,.05-.07,1.34.28,1.75a1,1,0,0,0,1.35.17l0,0h0l0,0-.19-.23h0l-.65,0-.06,0a.14.14,0,0,1,0-.06h0v0h.06l.51,0-.25-.29-.38,0a.05.05,0,0,1,0,0,.08.08,0,0,1,0-.05h0v0h.06l.21,0-.38-.45a.1.1,0,0,1,0-.07h0s0,0,0,0h0a.07.07,0,0,1,.11,0l.39.46v-.24h0l0,0,.06,0,0,0a.14.14,0,0,1,0,.06l0,.4.24.27,0-.5h0l0,0h0a.05.05,0,0,1,.05,0s0,0,0,.05l-.05.66.2.23v0h0l0,0a1,1,0,0,0,0-1.36C564.19,721.84,562.9,721.72,562.85,721.72Z" transform="translate(-65.44 -210.5)"/><text class="cls-18" transform="translate(498.12 515.88) rotate(-40.74)"><tspan class="cls-19">V</tspan><tspan x="0.99" y="0">EGAN</tspan></text><path class="cls-17" d="M560.18,717.14l-.19-.22-1.41,1.2,0,.4a0,0,0,0,1,0,0,.36.36,0,0,1,0,.09l-.17.14-.12-.62-.61-.2.17-.15a.11.11,0,0,1,.12,0l.39.11h0l1.41-1.21-.19-.21a.14.14,0,0,1,0-.12.12.12,0,0,1,.09-.09l.92-.22a.14.14,0,0,1,.13,0,.16.16,0,0,1,0,.09s0,0,0,0l-.35.89a.1.1,0,0,1-.09.07A.12.12,0,0,1,560.18,717.14Z" transform="translate(-65.44 -210.5)"/><polygon class="cls-17" points="492.58 507.92 491.97 507.72 492.14 507.57 492.75 507.77 492.87 508.4 492.7 508.54 492.58 507.92"/><path class="cls-17" d="M557.89,718.53l.12.62,0,0a.11.11,0,0,1-.12,0,.12.12,0,0,1-.09-.1l-.09-.39-.38-.14a.14.14,0,0,1-.08-.1.13.13,0,0,1,0-.12l0,0Z" transform="translate(-65.44 -210.5)"/><text class="cls-20" transform="translate(493.75 510.84) rotate(-40.74)">FRIEND<tspan class="cls-21" x="3.7" y="0">L</tspan><tspan x="4.19" y="0">Y</tspan></text><text class="cls-18" transform="translate(493.22 510.04) rotate(-40.74)"><tspan class="cls-22">P</tspan><tspan x="0.9" y="0">ALEO</tspan></text><text class="cls-23" transform="translate(526.04 492.9) rotate(-40.74)">NON<tspan class="cls-24" x="3.16" y="0">-</tspan><tspan x="3.59" y="0">GMO</tspan></text><text class="cls-23" transform="translate(518.28 499.59) rotate(-40.74)">GLUTEN<tspan class="cls-25" x="4.66" y="0">-</tspan><tspan x="5.1" y="0">FREE</tspan></text><text class="cls-26" transform="translate(526.13 493.01) rotate(-40.74)">NON<tspan class="cls-27" x="3.16" y="0">-</tspan><tspan x="3.59" y="0">GMO</tspan></text><text class="cls-26" transform="translate(518.37 499.69) rotate(-40.74)">GLUTEN<tspan class="cls-1" x="4.66" y="0">-</tspan><tspan x="5.1" y="0">FREE</tspan></text><text class="cls-26" transform="translate(507.08 509.41) rotate(-40.74)">NET W<tspan class="cls-28" x="3.89" y="0">T</tspan><tspan class="cls-29" x="4.41" y="0">. </tspan><tspan class="cls-30" x="5.04" y="0">1</tspan><tspan x="5.74" y="0">.6 OZ (45g)</tspan></text><circle class="cls-17" cx="517.07" cy="500.21" r="0.26"/><circle class="cls-17" cx="524.87" cy="493.49" r="0.26"/><circle class="cls-17" cx="532.03" cy="487.33" r="0.26"/><text class="cls-26" transform="translate(533.28 486.84) rotate(-40.74)">NO SUGAR A<tspan class="cls-31" x="7.73" y="0">L</tspan><tspan x="8.17" y="0">COHOLS</tspan></text><path d="M562.22,707.78l1.16-1,5.21,6.05-1.16,1Z" transform="translate(-65.44 -210.5)"/><path d="M572.29,709.64a4,4,0,1,1-2.31-7,4,4,0,0,1,3.67,3.48l2.19.48-1.46,1.25-.84-.18A3.83,3.83,0,0,1,572.29,709.64Zm-4.21-4.88a2.36,2.36,0,0,0-.84,1.68,2.33,2.33,0,0,0,.59,1.78,2.45,2.45,0,1,0,3.72-3.2,2.46,2.46,0,0,0-3.47-.26Z" transform="translate(-65.44 -210.5)"/><polygon points="499.21 491.57 500.5 490.46 501.49 492.13 500.79 492.73 499.21 491.57"/><polygon points="497.48 495.01 497.97 493.37 499.7 494.25 499.44 495.13 497.48 495.01"/><polygon points="504.16 489.26 502.47 489.5 503.07 491.34 503.99 491.21 504.16 489.26"/><path d="M579.56,709.93a.36.36,0,0,1-.5,0,.35.35,0,0,1,0-.49.35.35,0,1,1,.46.53Zm-.42-.49a.29.29,0,0,0,0,.41.28.28,0,0,0,.41,0,.29.29,0,0,0,0-.41A.3.3,0,0,0,579.14,709.44Zm.39.31-.18,0-.05,0,.1.12,0,0-.26-.3.12-.11a.13.13,0,0,1,.18,0,.1.1,0,0,1,0,.15l.19.06Zm-.28-.22-.07.07.09.1.07-.06a.07.07,0,1,0-.09-.11Z" transform="translate(-65.44 -210.5)"/><path d="M572.17,714.67a1.22,1.22,0,0,1-.12,1.73l-1.39,1.19-2.52-2.93,1.38-1.19a1,1,0,0,1,.78-.26,1,1,0,0,1,.74.37,1,1,0,0,1,.26.66A1.18,1.18,0,0,1,572.17,714.67Zm-2.54.57.81-.7a.35.35,0,0,0,.12-.23.31.31,0,0,0-.08-.24.35.35,0,0,0-.23-.12.31.31,0,0,0-.24.08l-.82.71Zm1.11,1.3.82-.7a.49.49,0,0,0,.17-.34.44.44,0,0,0-.12-.34.45.45,0,0,0-.33-.17.49.49,0,0,0-.35.11l-.82.71Z" transform="translate(-65.44 -210.5)"/><path d="M576.12,712.89l-.61.53-.45-.21-1.19,1,.14.47-.62.53L572.12,711Zm-2.48.57.69-.6-1-.47Z" transform="translate(-65.44 -210.5)"/><path d="M577.26,711.9l-.56.49-2.52-2.93,1.38-1.19a1.24,1.24,0,0,1,1.73.13,1.21,1.21,0,0,1,.3.77,1.25,1.25,0,0,1-.25.77l1.76.39-.71.61-1.72-.38-.33.27Zm-1.4-1.63.81-.7a.45.45,0,0,0,.17-.34.47.47,0,0,0-.12-.35.43.43,0,0,0-.32-.16.5.5,0,0,0-.36.11l-.81.71Z" transform="translate(-65.44 -210.5)"/><text class="cls-32" transform="translate(509.09 489.22) rotate(-40.74)">L<tspan class="cls-33" x="1.96" y="0">E</tspan><tspan class="cls-34" x="4.14" y="0">M</tspan><tspan class="cls-35" x="7.2" y="0">O</tspan><tspan class="cls-36" x="10.08" y="0">N</tspan><tspan class="cls-37" x="12.77" y="0"> </tspan><tspan class="cls-38" x="13.73" y="0">B</tspan><tspan class="cls-39" x="16.19" y="0">L</tspan><tspan class="cls-40" x="18.16" y="0">U</tspan><tspan class="cls-41" x="20.73" y="0">E</tspan><tspan class="cls-42" x="22.9" y="0">B</tspan><tspan class="cls-43" x="25.36" y="0">E</tspan><tspan class="cls-44" x="27.53" y="0">R</tspan><tspan class="cls-45" x="30.05" y="0">R</tspan><tspan class="cls-46" x="32.49" y="0">Y</tspan></text><line class="cls-47" x1="532.4" y1="479.08" x2="514.11" y2="494.84"/><line class="cls-47" x1="525" y1="481.04" x2="511.92" y2="492.3"/><text class="cls-48" transform="translate(513.58 494.49) rotate(-40.74)">1<tspan class="cls-49" x="1.18" y="0">2g</tspan><tspan class="cls-50" x="4.07" y="0" xml:space="preserve"> Plant-Based P</tspan><tspan class="cls-51" x="18.68" y="0">r</tspan><tspan class="cls-50" x="19.44" y="0">otein</tspan></text><text class="cls-52" transform="translate(511.57 491.8) rotate(-40.74)">6<tspan class="cls-53" x="1.44" y="0" xml:space="preserve"> B</tspan><tspan class="cls-54" x="3.47" y="0">r</tspan><tspan class="cls-55" x="4.24" y="0">ain Nutrients</tspan></text><line class="cls-47" x1="537.77" y1="478.88" x2="516.29" y2="497.38"/><text class="cls-52" transform="translate(515.76 497.03) rotate(-40.74)">1</text><text class="cls-52" transform="translate(516.61 496.31) rotate(-40.74)">g<tspan class="cls-53" x="1.44" y="0" xml:space="preserve"> Sugar and </tspan><tspan x="13.41" y="0">3g</tspan><tspan class="cls-53" x="16.3" y="0" xml:space="preserve"> Net Carbs</tspan></text><path class="cls-56" d="M604.8,662.71l-.06.85a11,11,0,1,1-1.64,22l-.06.84a11.85,11.85,0,0,0,1.76-23.64Z" transform="translate(-65.44 -210.5)"/><path class="cls-57" d="M614.9,675.35a11,11,0,0,0-10.16-11.79l-1.64,22A11,11,0,0,0,614.9,675.35Zm-3.72,6.42a.43.43,0,0,1-.63,0l-5.5-6.38a.25.25,0,0,1,.21-.41l8.4.62a.44.44,0,0,1,.4.5A10.15,10.15,0,0,1,611.18,681.77Zm1-13.32a10.26,10.26,0,0,1,2,6.06.44.44,0,0,1-.47.43l-8.41-.62a.25.25,0,0,1-.14-.44l6.39-5.5A.44.44,0,0,1,612.18,668.45ZM605,664.79a.43.43,0,0,1,.49-.4,10.22,10.22,0,0,1,5.7,2.88.43.43,0,0,1,0,.63l-6.39,5.5a.24.24,0,0,1-.41-.2Zm-.83,11.12a.24.24,0,0,1,.43-.14l5.5,6.39a.42.42,0,0,1-.07.63,10.16,10.16,0,0,1-6.06,2,.42.42,0,0,1-.43-.46Z" transform="translate(-65.44 -210.5)"/><path class="cls-56" d="M604.75,673.4l6.39-5.5a.43.43,0,0,0,0-.63,10.22,10.22,0,0,0-5.7-2.88.43.43,0,0,0-.49.4l-.63,8.41A.24.24,0,0,0,604.75,673.4Zm1.11-4a.61.61,0,0,1,.87-.51h0a.63.63,0,0,1,.11,1l-1.09.93s0,0,0,0Z" transform="translate(-65.44 -210.5)"/><path class="cls-56" d="M605.3,674.32l8.41.62a.44.44,0,0,0,.47-.43,10.26,10.26,0,0,0-2-6.06.44.44,0,0,0-.63-.07l-6.39,5.5A.25.25,0,0,0,605.3,674.32Zm2.48-1.06,1.09-.93a.6.6,0,0,1,1,.25v0a.62.62,0,0,1-.64.79l-1.43-.11S607.77,673.27,607.78,673.26Z" transform="translate(-65.44 -210.5)"/><path class="cls-56" d="M613.66,675.57l-8.4-.62a.25.25,0,0,0-.21.41l5.5,6.38a.43.43,0,0,0,.63,0,10.15,10.15,0,0,0,2.88-5.7A.44.44,0,0,0,613.66,675.57Zm-4.09,1.72h0a.61.61,0,0,1-1,.11l-.94-1.09s0,0,0,0l1.43.1A.62.62,0,0,1,609.57,677.29Z" transform="translate(-65.44 -210.5)"/><path class="cls-56" d="M603.94,684.78a10.16,10.16,0,0,0,6.06-2,.42.42,0,0,0,.07-.63l-5.5-6.39a.24.24,0,0,0-.43.14l-.63,8.41A.42.42,0,0,0,603.94,684.78Zm1.25-6.44h0l.94,1.08a.62.62,0,0,1-.26,1h0a.61.61,0,0,1-.79-.64Z" transform="translate(-65.44 -210.5)"/><path class="cls-58" d="M605.77,670.86l1.09-.93a.63.63,0,0,0-.11-1h0a.61.61,0,0,0-.87.51l-.11,1.43S605.76,670.87,605.77,670.86Z" transform="translate(-65.44 -210.5)"/><path class="cls-58" d="M605.88,680.41h0a.62.62,0,0,0,.26-1l-.94-1.08h0l-.1,1.43A.61.61,0,0,0,605.88,680.41Z" transform="translate(-65.44 -210.5)"/><path class="cls-58" d="M609.05,676.41l-1.43-.1s0,0,0,0l.94,1.09a.61.61,0,0,0,1-.11h0A.62.62,0,0,0,609.05,676.41Z" transform="translate(-65.44 -210.5)"/><path class="cls-58" d="M609.22,673.39a.62.62,0,0,0,.64-.79v0a.6.6,0,0,0-1-.25l-1.09.93s0,0,0,0Z" transform="translate(-65.44 -210.5)"/><path class="cls-59" d="M619.91,673.78a4.21,4.21,0,0,0-5.93-.45l5.49,6.38A4.2,4.2,0,0,0,619.91,673.78Z" transform="translate(-65.44 -210.5)"/><path class="cls-60" d="M619.47,679.71,614,673.33a4.21,4.21,0,0,0,5.49,6.38Z" transform="translate(-65.44 -210.5)"/><path class="cls-59" d="M614.39,674l.23.88-.6.69a.12.12,0,0,0,.08.19l.91.06.47.77a.12.12,0,0,0,.21,0l.33-.85-1.59-1.85A.11.11,0,0,0,614.39,674Z" transform="translate(-65.44 -210.5)"/><path class="cls-60" d="M616.15,673.7l-.77.49-.83-.36a.16.16,0,0,0-.12,0L616,675.7l.88-.2a.12.12,0,0,0,.05-.21l-.7-.57.08-.91A.12.12,0,0,0,616.15,673.7Z" transform="translate(-65.44 -210.5)"/><circle class="cls-60" cx="550.03" cy="464.56" r="0.62"/><path class="cls-61" d="M619.9,673.77a4.21,4.21,0,0,0-5.93-.45l5.49,6.38A4.2,4.2,0,0,0,619.9,673.77Z" transform="translate(-65.44 -210.5)"/><path class="cls-62" d="M619.46,679.7,614,673.32a4.21,4.21,0,0,0,5.49,6.38Z" transform="translate(-65.44 -210.5)"/><path class="cls-61" d="M614.38,674l.23.88-.6.69a.12.12,0,0,0,.09.19l.9.06.47.78a.12.12,0,0,0,.21,0l.33-.85-1.59-1.84A.11.11,0,0,0,614.38,674Z" transform="translate(-65.44 -210.5)"/><path class="cls-62" d="M616.14,673.69l-.76.49-.84-.35a.11.11,0,0,0-.12,0l1.59,1.84.89-.2a.12.12,0,0,0,0-.21l-.7-.57.08-.91A.12.12,0,0,0,616.14,673.69Z" transform="translate(-65.44 -210.5)"/><circle class="cls-61" cx="550.02" cy="464.55" r="0.62"/></g></g></g></svg>