<svg xmlns="http://www.w3.org/2000/svg" viewBox="0 0 1000 795.11"><defs><style>.cls-1{isolation:isolate;}.cls-2{fill:#5c7f3a;}.cls-3{fill:#c8df90;}.cls-4{fill:#e6c65d;}.cls-5{fill:#f8e591;}.cls-6,.cls-7{fill:#653a15;}.cls-7{opacity:0.4;mix-blend-mode:multiply;}</style></defs><g class="cls-1"><g id="Layer_1" data-name="Layer 1"><path class="cls-2" d="M517.58,509.14l408.63,230.8s-136,53.6-259.85-16.33C547.77,656.66,517.58,509.14,517.58,509.14Z"/><path class="cls-3" d="M517.58,509.14l408.63,230.8s-24.3-144.11-148.14-214.1C659.51,458.84,517.58,509.14,517.58,509.14Z"/><path class="cls-2" d="M587.51,497.27l384,3s-76,92.29-192.41,91.39C667.63,590.85,587.51,497.27,587.51,497.27Z"/><path class="cls-3" d="M587.51,497.27l384,3s-74.56-93.49-190.94-94.43C669.1,405,587.51,497.27,587.51,497.27Z"/><path class="cls-4" d="M437.87,289.08,470.4,6.47s33.82,59.82,24,145.48C484.94,234,437.87,289.08,437.87,289.08Z"/><path class="cls-5" d="M437.87,289.08,470.4,6.47s-46.58,51-56.45,136.68C404.49,225.16,437.87,289.08,437.87,289.08Z"/><path class="cls-4" d="M520.11,408.17l283.64,21.77S745.26,466,659.29,459.42C577,453.12,520.11,408.17,520.11,408.17Z"/><path class="cls-5" d="M520.11,408.17l283.64,21.77S751,385.33,665,378.72C582.72,372.39,520.11,408.17,520.11,408.17Z"/><path class="cls-4" d="M28.54,365.12l283.64,21.77S253.69,423,167.72,416.38C85.41,410.07,28.54,365.12,28.54,365.12Z"/><path class="cls-5" d="M28.54,365.12l283.64,21.77s-52.75-44.61-138.72-51.22C91.15,329.35,28.54,365.12,28.54,365.12Z"/><path class="cls-4" d="M410.94,509.87,389.17,793.5S353.1,735,359.69,649C366,566.73,410.94,509.87,410.94,509.87Z"/><path class="cls-5" d="M410.94,509.87,389.17,793.5s44.61-52.75,51.22-138.72C446.72,572.47,410.94,509.87,410.94,509.87Z"/><path class="cls-4" d="M156.56,87.57,341.19,304s-66.82-16-122.79-81.6C164.81,159.58,156.56,87.57,156.56,87.57Z"/><path class="cls-5" d="M156.56,87.57,341.19,304s-5.58-68.86-61.54-134.46C226.08,106.71,156.56,87.57,156.56,87.57Z"/><path class="cls-4" d="M502.05,467.85,686.68,684.26s-66.82-16-122.8-81.6C510.3,539.87,502.05,467.85,502.05,467.85Z"/><path class="cls-5" d="M502.05,467.85,686.68,684.26s-5.59-68.86-61.54-134.46C571.56,487,502.05,467.85,502.05,467.85Z"/><path class="cls-4" d="M466.58,292.69,599.31,41.07s9.85,68-30.37,144.28C530.43,258.37,466.58,292.69,466.58,292.69Z"/><path class="cls-5" d="M466.58,292.69,599.31,41.07S537.4,71.75,497.16,148C458.64,221,466.58,292.69,466.58,292.69Z"/><path class="cls-4" d="M487.32,311.82,688.9,111.09S678.06,179,617,239.8C558.49,298.06,487.32,311.82,487.32,311.82Z"/><path class="cls-5" d="M487.32,311.82,688.9,111.09S620.67,122,559.56,182.79C501.06,241,487.32,311.82,487.32,311.82Z"/><path class="cls-4" d="M508.92,340.4,765.23,217S732.72,277.53,655,315C580.66,350.77,508.92,340.4,508.92,340.4Z"/><path class="cls-5" d="M508.92,340.4,765.23,217s-68-12.14-145.71,25.25C545.14,278.05,508.92,340.4,508.92,340.4Z"/><path class="cls-4" d="M516.38,377.27,795.1,320.36s-46.34,50.73-130.82,68C583.4,404.88,516.38,377.27,516.38,377.27Z"/><path class="cls-5" d="M516.38,377.27,795.1,320.36s-63-28.42-147.45-11.18C566.76,325.68,516.38,377.27,516.38,377.27Z"/><path class="cls-4" d="M512.92,438.86,772.63,554.94S705.41,569.19,626.69,534C551.32,500.34,512.92,438.86,512.92,438.86Z"/><path class="cls-5" d="M512.92,438.86,772.63,554.94S738,495.16,659.28,460C583.92,426.27,512.92,438.86,512.92,438.86Z"/><path class="cls-4" d="M244.58,42.24,381.37,291.66S319.19,262.4,277.72,186.8C238,114.42,244.58,42.24,244.58,42.24Z"/><path class="cls-5" d="M244.58,42.24,381.37,291.66s8.52-68.55-32.93-144.16C308.76,75.11,244.58,42.24,244.58,42.24Z"/><path class="cls-4" d="M349,1.61l56.25,278.85s-50.63-46.46-67.69-131C321.27,68.56,349,1.61,349,1.61Z"/><path class="cls-5" d="M349,1.61l56.25,278.85s28.57-62.9,11.53-147.43C400.51,52.11,349,1.61,349,1.61Z"/><path class="cls-4" d="M79.54,193.45,332.45,323.67s-67.9,10.52-144.57-28.94C114.48,257,79.54,193.45,79.54,193.45Z"/><path class="cls-5" d="M79.54,193.45,332.45,323.67s-31.28-61.6-107.94-101.08C151.12,184.79,79.54,193.45,79.54,193.45Z"/><path class="cls-4" d="M36.29,289.57l278,60.32s-62.87,27.74-147.13,9.47C86.48,341.87,36.29,289.57,36.29,289.57Z"/><path class="cls-5" d="M36.29,289.57l278,60.32s-46.16-51.4-130.43-69.69C103.19,262.68,36.29,289.57,36.29,289.57Z"/><path class="cls-4" d="M464.84,491.54,605.63,738.73S543,710.47,500.31,635.56C459.45,563.83,464.84,491.54,464.84,491.54Z"/><path class="cls-5" d="M464.84,491.54,605.63,738.73s7.42-68.68-35.24-143.61C529.54,523.38,464.84,491.54,464.84,491.54Z"/><path class="cls-4" d="M431.24,496.12l63.19,277.36S442.66,728.3,423.5,644.23C405.15,563.74,431.24,496.12,431.24,496.12Z"/><path class="cls-5" d="M431.24,496.12l63.19,277.36s27-63.6,7.85-147.67C484,545.32,431.24,496.12,431.24,496.12Z"/><path class="cls-4" d="M42.31,485.25l275.3-71.65s-43.58,53.13-127,74.86C110.7,509.26,42.31,485.25,42.31,485.25Z"/><path class="cls-5" d="M42.31,485.25l275.3-71.65s-64.39-25-147.84-3.32C89.88,431.06,42.31,485.25,42.31,485.25Z"/><path class="cls-4" d="M95,610.73,326.18,444.91s-21.57,65.25-91.63,115.52C167.48,608.55,95,610.73,95,610.73Z"/><path class="cls-5" d="M95,610.73,326.18,444.91S257.09,444.7,187,495C119.94,543.06,95,610.73,95,610.73Z"/><path class="cls-4" d="M181.66,698.35,348.52,468s.17,68.72-50.4,138.56C249.7,673.38,181.66,698.35,181.66,698.35Z"/><path class="cls-5" d="M181.66,698.35,348.52,468s-65.61,21.64-116.19,91.47C183.89,626.28,181.66,698.35,181.66,698.35Z"/><path class="cls-4" d="M269.25,753.4,381.8,492.15s15.16,67-18.94,146.21C330.2,714.18,269.25,753.4,269.25,753.4Z"/><path class="cls-5" d="M269.25,753.4,381.8,492.15s-59.3,35.44-93.43,114.62C255.7,682.58,269.25,753.4,269.25,753.4Z"/><path class="cls-6" d="M550.79,405.49a131.48,131.48,0,1,1-118.6-143.21A131.49,131.49,0,0,1,550.79,405.49Z"/><path class="cls-7" d="M525.09,314.57a131.36,131.36,0,0,1-235.94,92.58,131.46,131.46,0,1,0,235.94-92.58Z"/></g></g></svg>