<svg id="Layer_1" data-name="Layer 1" xmlns="http://www.w3.org/2000/svg" xmlns:xlink="http://www.w3.org/1999/xlink" viewBox="0 0 1000 795.11"><defs><style>.cls-1,.cls-5{fill:none;}.cls-2{fill:#5c7f3a;}.cls-3{fill:#c8df90;}.cls-4{clip-path:url(#clip-path);}.cls-5{stroke:#5b813a;stroke-linecap:round;stroke-linejoin:round;stroke-width:6.98px;}.cls-6{clip-path:url(#clip-path-2);}.cls-7{fill:#6aa4d7;}.cls-8{clip-path:url(#clip-path-3);}.cls-9{fill:#253772;}.cls-10{clip-path:url(#clip-path-4);}.cls-11{clip-path:url(#clip-path-5);}</style><clipPath id="clip-path"><path class="cls-1" d="M523.33,393.19,572.24,0S467.52,65.27,452.67,184.45C438.46,298.54,523.33,393.19,523.33,393.19Z"/></clipPath><clipPath id="clip-path-2"><path class="cls-1" d="M553,490.3l445.62-421S809.43,44.08,674.34,171.65C545,293.78,553,490.3,553,490.3Z"/></clipPath><clipPath id="clip-path-3"><path class="cls-1" d="M453,586.15A206.19,206.19,0,0,1,52.39,654.83L21.67,667.9s-8.94-20,13.37-46.76c0,0-24.52-8.25-34.15-35C10.52,559.41,35,551.23,35,551.23,12.73,524.49,21.67,504.4,21.67,504.4l30.72,13.14a206.31,206.31,0,0,1,194.43-137.6C360.66,379.94,453,472.31,453,586.15Z"/></clipPath><clipPath id="clip-path-4"><path class="cls-1" d="M486.41,267.79c105.68,0,191.34,85.68,191.34,191.34S592.09,650.48,486.41,650.48,295.07,564.82,295.07,459.13,380.73,267.79,486.41,267.79Z"/></clipPath><clipPath id="clip-path-5"><path class="cls-1" d="M283.29,31.82A162.19,162.19,0,1,1,61,88.24,162.18,162.18,0,0,1,283.29,31.82Z"/></clipPath></defs><path class="cls-2" d="M523.33,393.19,572.24,0S657.77,88.93,643,208.12C628.81,322.22,523.33,393.19,523.33,393.19Z"/><path class="cls-3" d="M523.33,393.19,572.24,0S467.52,65.27,452.67,184.45C438.46,298.54,523.33,393.19,523.33,393.19Z"/><g class="cls-4"><line class="cls-5" x1="537.1" y1="364.61" x2="400.13" y2="267.15"/><line class="cls-5" x1="542.69" y1="319.68" x2="405.72" y2="222.22"/><line class="cls-5" x1="548.28" y1="274.75" x2="411.3" y2="177.3"/><line class="cls-5" x1="553.87" y1="229.83" x2="416.89" y2="132.37"/><line class="cls-5" x1="559.45" y1="184.9" x2="422.48" y2="87.44"/><line class="cls-5" x1="565.04" y1="139.97" x2="428.07" y2="42.52"/><line class="cls-5" x1="570.63" y1="95.05" x2="433.66" y2="-2.41"/><line class="cls-5" x1="576.22" y1="50.12" x2="439.24" y2="-47.34"/></g><path class="cls-2" d="M553,490.3l445.62-421s14.46,190.35-120.58,318C748.79,509.51,553,490.3,553,490.3Z"/><path class="cls-3" d="M553,490.3l445.62-421S809.43,44.08,674.34,171.65C545,293.78,553,490.3,553,490.3Z"/><g class="cls-6"><line class="cls-5" x1="597.62" y1="469.76" x2="530.18" y2="218.57"/><line class="cls-5" x1="648.54" y1="421.66" x2="581.1" y2="170.47"/><line class="cls-5" x1="699.46" y1="373.56" x2="632.02" y2="122.37"/><line class="cls-5" x1="750.37" y1="325.46" x2="682.93" y2="74.27"/><line class="cls-5" x1="801.29" y1="277.36" x2="733.85" y2="26.17"/><line class="cls-5" x1="852.21" y1="229.26" x2="784.77" y2="-21.93"/><line class="cls-5" x1="903.13" y1="181.16" x2="835.69" y2="-70.03"/><line class="cls-5" x1="954.04" y1="133.06" x2="886.6" y2="-118.13"/></g><path class="cls-7" d="M453,586.15A206.19,206.19,0,0,1,52.39,654.83L21.67,667.9s-8.94-20,13.37-46.76c0,0-24.52-8.25-34.15-35C10.52,559.41,35,551.23,35,551.23,12.73,524.49,21.67,504.4,21.67,504.4l30.72,13.14a206.31,206.31,0,0,1,194.43-137.6C360.66,379.94,453,472.31,453,586.15Z"/><g class="cls-8"><rect class="cls-9" x="266.54" y="327.54" width="246.44" height="560.39"/></g><path class="cls-7" d="M486.41,267.79c105.68,0,191.34,85.68,191.34,191.34S592.09,650.48,486.41,650.48,295.07,564.82,295.07,459.13,380.73,267.79,486.41,267.79Z"/><g class="cls-10"><path class="cls-9" d="M584.15,534.27c-44.68,61.87-113.53,105.79-188.46,120.22,48.53,55.34,135.77,69,202.31,37.49S708.36,589.55,714.52,516.2c3.14-37.32-2.86-75.05-15.75-110.13-5.33-14.49-37.44-93.17-55.69-76.52-7.27,6.64-1.84,41.26-2.67,51.34a307.86,307.86,0,0,1-9.65,55A303.41,303.41,0,0,1,584.15,534.27Z"/></g><path class="cls-9" d="M500.66,416.63,468,387.17a4.93,4.93,0,0,0-8.13,2.63l-9.14,43.06-38.13,22a4.94,4.94,0,0,0,0,8.55l38.14,22,9.13,43a4.93,4.93,0,0,0,8.13,2.64l32.72-29.46,43.77,4.62a4.93,4.93,0,0,0,5-6.91l-17.9-40.23,17.9-40.2a4.93,4.93,0,0,0-5-6.91Z"/><path class="cls-7" d="M486.86,426.88a32.26,32.26,0,1,1-32.25,32.25A32.27,32.27,0,0,1,486.86,426.88Z"/><path class="cls-7" d="M283.29,31.82A162.19,162.19,0,1,1,61,88.24,162.18,162.18,0,0,1,283.29,31.82Z"/><g class="cls-11"><path class="cls-9" d="M339.43,45.42c6.88,69.15-15.64,140.75-60.87,193.5S166,324.86,96.62,328.61c58.72,21.7,123.27,28.77,181.22,5.09s105.5-74.51,119.58-135.5S390.11,82.16,339.43,45.42Z"/></g><path class="cls-9" d="M229.15,146.39l-11.18-36a3.91,3.91,0,0,0-6.62-1.5l-25.64,27.71-37.76-.5a3.92,3.92,0,0,0-3.47,5.84l18.45,33L150.78,210.6a3.91,3.91,0,0,0,4.47,5.1l37.05-7.35L222.55,231a3.92,3.92,0,0,0,6.24-2.67l4.44-37.52L264.08,169a3.92,3.92,0,0,0-.62-6.76Z"/><path class="cls-7" d="M214.66,147.88a27.35,27.35,0,1,1-37.5,9.52A27.38,27.38,0,0,1,214.66,147.88Z"/></svg>