<?xml version="1.0" encoding="utf-8"?>
<!-- Generator: Adobe Illustrator 24.3.0, SVG Export Plug-In . SVG Version: 6.00 Build 0)  -->
<svg version="1.1" id="Layer_1" xmlns="http://www.w3.org/2000/svg" xmlns:xlink="http://www.w3.org/1999/xlink" x="0px" y="0px"
	 viewBox="0 0 998 774.8" style="enable-background:new 0 0 998 774.8;" xml:space="preserve">
<style type="text/css">
	.st0{fill:#5C7F3A;}
	.st1{fill:#C8DF90;}
	.st2{fill:#FFF0C0;}
	.st3{fill:#694B3C;}
	.st4{fill:#CCCAC8;}
	.st5{fill:#CD946F;}
	.st6{fill:#ECC386;}
</style>
<g id="Layer_2_1_">
	<g id="Layer_1-2">
		<path class="st0" d="M368.6,537L71.8,630.8c0,0,80.9,53.4,170.9,25C328.8,628.6,368.6,537,368.6,537z"/>
		<path class="st1" d="M368.6,537L71.8,630.8c0,0,35.5-90.2,125.5-118.7C283.4,484.9,368.6,537,368.6,537z"/>
		<path class="st0" d="M166.6,425.3l207.1,133c0,0-72.8,24-135.6-16.3C178,503.4,166.6,425.3,166.6,425.3z"/>
		<path class="st1" d="M166.6,425.3l207.1,133c0,0-8.4-76.2-71.2-116.5C242.4,403.2,166.6,425.3,166.6,425.3z"/>
		<path class="st2" d="M307.6,306L462,623.1l-30.2,14.7c-49,23.9-107.4-5-118.1-58.5l-27-134.5l-50.6-103.9L307.6,306z"/>
		<path class="st2" d="M492.1,608.4l-34.5,17.1L303.3,308.4l75.8-37.2l50.6,103.9l89.3,104.2C554.4,520.8,541.2,584.6,492.1,608.4
			L492.1,608.4z"/>
		<polygon class="st3" points="390.8,295.3 247.9,364.9 236.2,340.8 379.1,271.2 		"/>
		<path class="st4" d="M4.2,398.6l7.2,14.8c8,16.4,27.7,23.2,44.1,15.2l504.2-245.5c16.4-8,23.2-27.7,15.2-44.1l-7.2-14.8L4.2,398.6
			z"/>
		<path class="st5" d="M4.2,398.6l7.2,14.8c8,16.4,27.7,23.2,44.1,15.2l504.2-245.5c16.4-8,23.2-27.7,15.2-44.1l-7.2-14.8L4.2,398.6
			z"/>
		<path class="st6" d="M174,31.4l-0.1,0.1C-1.4,116.8-8.6,301.7,4,398.7l282-137.2L174,31.4z"/>
		<path class="st2" d="M174,31.4c0.1,0,0.1-0.1,0.2-0.1C349.3-54,499.3,54.5,567.9,124.2L286,261.5L174,31.4z"/>
		<path class="st2" d="M737.6,492.2l-155,257.6L558,735.1c-33.6-20.2-44.4-63.8-24.2-97.4c3.1-5.2,6.9-10,11.2-14.2l83.7-81.8
			l50.8-84.4L737.6,492.2z"/>
		<path class="st2" d="M607,764.6l-28.4-17.1l155-257.6l61.9,37.3l-50.8,84.4l-33.1,112.2c-11.1,37.6-50.5,59.1-88.2,48.1
			C617.7,770.1,612.2,767.7,607,764.6z"/>
		<polygon class="st3" points="783.8,546.8 667.7,476.9 679.5,457.3 795.6,527.2 		"/>
		<path class="st4" d="M530.4,318.3l-7.2,12c-8,13.3-3.7,30.6,9.6,38.6c0,0,0,0,0,0l409.6,246.5c13.3,8,30.6,3.7,38.6-9.6l7.3-12
			L530.4,318.3z"/>
		<path class="st5" d="M530.4,318.3l-7.2,12c-8,13.3-3.7,30.6,9.6,38.6c0,0,0,0,0,0l409.6,246.5c13.3,8,30.6,3.7,38.6-9.6l7.3-12
			L530.4,318.3z"/>
		<path class="st2" d="M871.8,269.2l-0.1-0.1c-142.3-85.7-277.9-4.9-341.4,49.1l229,137.9L871.8,269.2z"/>
		<path class="st2" d="M870.2,268.3l0.1,0.1c142.3,85.7,136,244.2,118,325.6l-230.9-139L870.2,268.3z"/>
	</g>
</g>
</svg>
