<svg id="Layer_1" data-name="Layer 1" xmlns="http://www.w3.org/2000/svg" xmlns:xlink="http://www.w3.org/1999/xlink" viewBox="0 0 1000 795.11"><defs><style>.cls-1{fill:none;}.cls-2{fill:#5c7f3a;}.cls-3{fill:#c8df90;}.cls-4{fill:#7d402f;}.cls-5{clip-path:url(#clip-path);}.cls-6{fill:#361712;}.cls-7{fill:#fff;}.cls-8{fill:#fff0c0;}.cls-9{clip-path:url(#clip-path-2);}.cls-10{fill:#ecc386;}.cls-11{clip-path:url(#clip-path-3);}.cls-12{clip-path:url(#clip-path-4);}</style><clipPath id="clip-path"><path class="cls-1" d="M136.36,666.08c123.78,187.26,406,132.53,515.24,53.27s106.07-270-7.1-426S351,75.21,241.77,154.47,12.58,478.82,136.36,666.08Z"/></clipPath><clipPath id="clip-path-2"><ellipse class="cls-1" cx="456.43" cy="433.96" rx="150.19" ry="224.77" transform="translate(-164.96 331.39) rotate(-34.18)"/></clipPath><clipPath id="clip-path-3"><path class="cls-1" d="M883.33,714.43c-77.33,117-253.62,82.79-321.87,33.28s-66.26-168.66,4.44-266.1,183.34-136.3,251.58-86.79S960.66,597.44,883.33,714.43Z"/></clipPath><clipPath id="clip-path-4"><ellipse class="cls-1" cx="683.38" cy="569.42" rx="140.41" ry="93.82" transform="translate(-171.61 814.84) rotate(-55.82)"/></clipPath></defs><path class="cls-2" d="M610.45,383.38,764,1.61s62.24,112,15.72,227.75C735.21,340.15,610.45,383.38,610.45,383.38Z"/><path class="cls-3" d="M610.45,383.38,764,1.61S641.55,39.32,595,155C550.38,265.81,610.45,383.38,610.45,383.38Z"/><path class="cls-2" d="M655.49,355.58l205.37-109.7s-13.74,71.2-76,104.46C725.3,382.19,655.49,355.58,655.49,355.58Z"/><path class="cls-3" d="M655.49,355.58l205.37-109.7S794.05,217.71,731.79,251C672.19,282.77,655.49,355.58,655.49,355.58Z"/><path class="cls-4" d="M136.36,666.08c123.78,187.26,406,132.53,515.24,53.27s106.07-270-7.1-426S351,75.21,241.77,154.47,12.58,478.82,136.36,666.08Z"/><g class="cls-5"><path class="cls-6" d="M-33.79,619.87c8.78,45,50.15,75.42,89.93,98.19A925.44,925.44,0,0,0,463.35,838.34c34,1.86,69.08,1.67,100.79-10.76s59.64-39.5,64.19-73.25C645.77,625.14,420.84,672,356,670.93a1727.54,1727.54,0,0,1-199.92-14.84C136,653.41-30.58,636.32-33.79,619.87Z"/></g><ellipse class="cls-7" cx="456.43" cy="433.96" rx="206.31" ry="308.76" transform="translate(-164.96 331.39) rotate(-34.18)"/><ellipse class="cls-8" cx="456.43" cy="433.96" rx="150.19" ry="224.77" transform="translate(-164.96 331.39) rotate(-34.18)"/><g class="cls-9"><path class="cls-10" d="M533.68,413c49.44,88.13,61.66,196.38,33.11,293.31,29.92,11.67,65.32-1.19,87.43-24.47s33-55,39.44-86.49c32-157.54-45.43-331.31-184-412.87-39.67-23.35-85.63-39.85-131.28-33.83C259.1,164.4,312,224.31,377.1,261.78,441.85,299,496.73,347.11,533.68,413Z"/></g><path class="cls-4" d="M883.33,714.43c-77.33,117-253.62,82.79-321.87,33.28s-66.26-168.66,4.44-266.1,183.34-136.3,251.58-86.79S960.66,597.44,883.33,714.43Z"/><g class="cls-11"><path class="cls-6" d="M472,765.34a445.93,445.93,0,0,0,255.93,119c58.84,6.53,120.14.76,173.54-24.79s98-72.46,113-129.72c8-30.48,1.86-164-54.32-155.25-16,2.5-45.95,54.62-58.3,67.16A447.83,447.83,0,0,1,828,702.08C724.46,769.84,592.58,796.49,472,765.34Z"/></g><ellipse class="cls-7" cx="683.38" cy="569.42" rx="192.88" ry="128.88" transform="translate(-171.61 814.84) rotate(-55.82)"/><ellipse class="cls-8" cx="683.38" cy="569.42" rx="140.41" ry="93.82" transform="translate(-171.61 814.84) rotate(-55.82)"/><g class="cls-12"><path class="cls-10" d="M635.12,556.32C604.24,611.38,596.6,679,614.44,739.56c-18.69,7.28-40.8-.75-54.62-15.29s-20.64-34.38-24.64-54c-20-98.42,28.38-207,114.92-257.92,24.79-14.6,53.5-24.9,82-21.14,74.54,9.84,41.5,47.27.83,70.68C692.49,485.14,658.21,515.17,635.12,556.32Z"/></g></svg>