<svg id="Layer_1" data-name="Layer 1" xmlns="http://www.w3.org/2000/svg" xmlns:xlink="http://www.w3.org/1999/xlink" viewBox="0 0 1000 795.11"><defs><style>.cls-1,.cls-2{fill:none;}.cls-2{stroke:#694b3c;stroke-linecap:round;stroke-linejoin:round;stroke-width:7.92px;}.cls-3{fill:#cab2d6;}.cls-4{clip-path:url(#clip-path);}.cls-5{fill:#af99bc;}.cls-6{fill:#ffdea7;}.cls-7{fill:#5c7f3a;}.cls-8{fill:#c8df90;}.cls-9{fill:#af6328;}.cls-10{fill:#d0802d;}.cls-11{clip-path:url(#clip-path-2);}.cls-12{clip-path:url(#clip-path-3);}.cls-13{clip-path:url(#clip-path-4);}.cls-14{clip-path:url(#clip-path-5);}.cls-15{clip-path:url(#clip-path-6);}</style><clipPath id="clip-path"><path class="cls-1" d="M560,358.2c19.26,2,39-1.63,56.71-9.65-16,12.4-28.86,29-36.08,47.82-4.8,12.55-7.82,28.83,2.73,39.4,6.69,6.71,15,8.21,22.79,5.19,1.29,6.85,5.85,12.31,13.25,15.29,15.64,6.31,29.81-6.41,38.34-18.27a111.86,111.86,0,0,0,20-53.51c2.95,22.28,12.17,43.8,27.55,59.67,13.33,13.76,45.78,18.41,47.62-4.36,21.21,8.67,31.47-22.49,25.33-40.56-6.82-20.09-21.13-37.43-38.8-50,18.67,7.52,39.31,10.29,59,7.11,14.47-2.33,32.07-9.2,33.57-26,.72-8-2.12-14.51-7.69-18.73a20.55,20.55,0,0,0,5.89-22.07c-4.49-14.6-20.63-19.45-34.23-20.77-12.66-1.24-46,1.59-47.12,2.31l-1.26.27a110.23,110.23,0,0,0,27.76-40.75c4.8-12.54,7.82-28.83-2.73-39.4-6.69-6.7-15-8.2-22.79-5.19-1.29-6.85-5.85-12.3-13.25-15.29-15.64-6.31-29.81,6.42-38.35,18.27a112,112,0,0,0-20,53.51c-3-22.28-12.18-43.8-27.55-59.67-13.33-13.76-45.78-18.41-47.62,4.36-21.21-8.66-31.47,22.49-25.33,40.57,6.82,20.09,21.13,37.42,38.79,50-18.66-7.52-39.31-10.28-59-7.11-14.47,2.33-32.07,9.21-33.58,26-.71,8,2.13,14.51,7.69,18.74a20.56,20.56,0,0,0-5.89,22.06C530.29,352,546.44,356.79,560,358.2Z"/></clipPath><clipPath id="clip-path-2"><path class="cls-1" d="M431.55,789.58c-65.07-14.52-115.14-81.19-60.82-203.6C405.5,507.67,466.2,458.73,500.57,435.9c0,0,19.2-22.95,22.26-23.29A16.7,16.7,0,0,1,533,415.23c2.24,1.72,8.43,31.23,8.43,31.23,19.11,36.6,48.7,108.65,41.49,193.94C571.58,773.85,495.56,808.17,431.55,789.58Z"/></clipPath><clipPath id="clip-path-3"><path class="cls-1" d="M781.74,744c-28.59,46.77-93.76,68-174.57-6.75-51.7-47.85-73.66-108.07-82.3-140.88,0,0-12.75-21-12.2-23.5a13.72,13.72,0,0,1,4.73-7.2c1.93-1.28,26.53,1.74,26.53,1.74,33.56-5.15,97.48-9,161.92,19.22C806.68,630.86,813.2,699.12,781.74,744Z"/></clipPath><clipPath id="clip-path-4"><path class="cls-1" d="M796.68,791.72c-54.06-9-98.13-61.54-59-164.44,25.07-65.84,72.72-108.71,99.92-129,0,0,14.74-19.69,17.24-20.11a13.73,13.73,0,0,1,8.44,1.7c1.91,1.31,8.31,25.26,8.31,25.26,17.31,29.2,44.81,87,42.68,157.37C910.93,772.57,850.06,804.13,796.68,791.72Z"/></clipPath><clipPath id="clip-path-5"><path class="cls-1" d="M444.5,703.6c9.34,41.53-15.51,88.62-101,90.6-54.7,1.26-99.5-20.46-122-34.08,0,0-18.48-4.84-19.51-6.51a10.62,10.62,0,0,1-1.25-6.58c.38-1.75,15.73-13.37,15.73-13.37,15.93-21,49.48-57.73,100.7-76.81C397.26,627,437.79,661.56,444.5,703.6Z"/></clipPath><clipPath id="clip-path-6"><path class="cls-1" d="M744,611.66c-19.91,28.82-62.25,40-111.13-10.56-31.26-32.38-43.11-71.59-47.45-92.83,0,0-7.38-13.87-6.94-15.43a8.71,8.71,0,0,1,3.28-4.42c1.27-.75,16.86,2.06,16.86,2.06,21.59-2.09,62.51-2.27,102.61,18.07C764,540.38,765.71,584.17,744,611.66Z"/></clipPath></defs><path class="cls-2" d="M367.74,119.9c23.51,13.78,283.73,236.65,283.73,441"/><path class="cls-2" d="M654,707.78c1.33-5.27,32-272.46,21.94-405.21"/><path class="cls-3" d="M560,358.2c19.26,2,39-1.63,56.71-9.65-16,12.4-28.86,29-36.08,47.82-4.8,12.55-7.82,28.83,2.73,39.4,6.69,6.71,15,8.21,22.79,5.19,1.29,6.85,5.85,12.31,13.25,15.29,15.64,6.31,29.81-6.41,38.34-18.27a111.86,111.86,0,0,0,20-53.51c2.95,22.28,12.17,43.8,27.55,59.67,13.33,13.76,45.78,18.41,47.62-4.36,21.21,8.67,31.47-22.49,25.33-40.56-6.82-20.09-21.13-37.43-38.8-50,18.67,7.52,39.31,10.29,59,7.11,14.47-2.33,32.07-9.2,33.57-26,.72-8-2.12-14.51-7.69-18.73a20.55,20.55,0,0,0,5.89-22.07c-4.49-14.6-20.63-19.45-34.23-20.77-12.66-1.24-46,1.59-47.12,2.31l-1.26.27a110.23,110.23,0,0,0,27.76-40.75c4.8-12.54,7.82-28.83-2.73-39.4-6.69-6.7-15-8.2-22.79-5.19-1.29-6.85-5.85-12.3-13.25-15.29-15.64-6.31-29.81,6.42-38.35,18.27a112,112,0,0,0-20,53.51c-3-22.28-12.18-43.8-27.55-59.67-13.33-13.76-45.78-18.41-47.62,4.36-21.21-8.66-31.47,22.49-25.33,40.57,6.82,20.09,21.13,37.42,38.79,50-18.66-7.52-39.31-10.28-59-7.11-14.47,2.33-32.07,9.21-33.58,26-.71,8,2.13,14.51,7.69,18.74a20.56,20.56,0,0,0-5.89,22.06C530.29,352,546.44,356.79,560,358.2Z"/><g class="cls-4"><path class="cls-5" d="M721.2,363.74a171.16,171.16,0,0,1-125.94,35.38c-19.73-2.45-39.42-8.38-59.13-5.82s-40,17.48-39.54,37.35c.29,12.51,8.85,23.68,19.47,30.28s23.12,9.4,35.41,11.74a650.18,650.18,0,0,0,124,11.36c38.27-.19,77-3.88,112.91-17.22s68.84-37.15,87.66-70.48,21.6-76.68,2.07-109.59c-13.32-22.46-72.43-64.84-94.28-33.87-9.8,13.9-10.17,42-19.08,58.52A169.71,169.71,0,0,1,721.2,363.74Z"/></g><circle class="cls-6" cx="675.58" cy="319.51" r="31.34"/><path class="cls-7" d="M409.3,148.15,141,125.57s47.16,69.35,128.49,76.21C347.32,208.34,409.3,148.15,409.3,148.15Z"/><path class="cls-8" d="M409.3,148.15,141,125.57s58.08-60.48,139.41-53.66C358.25,78.44,409.3,148.15,409.3,148.15Z"/><path class="cls-7" d="M511.82,267.24,300.9,249.49S338,304,401.9,309.39C463.1,314.55,511.82,267.24,511.82,267.24Z"/><path class="cls-8" d="M511.82,267.24,300.9,249.49S346.55,202,410.48,207.31C471.69,212.44,511.82,267.24,511.82,267.24Z"/><path class="cls-7" d="M528.91.86l-65,201.42s61.48-23.76,81.21-84.81C564,59,528.91.86,528.91.86Z"/><path class="cls-8" d="M528.91.86l-65,201.42S427.88,147,447.59,86C466.45,27.53,528.91.86,528.91.86Z"/><path class="cls-9" d="M114.58,748.43c-41.2-39.31-48.44-110.15,45.27-175.75,60-42,125.93-51,161.14-52.55,0,0,24.16-8.32,26.55-7.23a14.25,14.25,0,0,1,6.27,6.4c.88,2.24-7.6,26.55-7.6,26.55-2.16,35.2-12.28,101-55.15,160.17C224,798.65,153.21,790.25,114.58,748.43Z"/><path class="cls-10" d="M431.55,789.58c-65.07-14.52-115.14-81.19-60.82-203.6C405.5,507.67,466.2,458.73,500.57,435.9c0,0,19.2-22.95,22.26-23.29A16.7,16.7,0,0,1,533,415.23c2.24,1.72,8.43,31.23,8.43,31.23,19.11,36.6,48.7,108.65,41.49,193.94C571.58,773.85,495.56,808.17,431.55,789.58Z"/><g class="cls-11"><path class="cls-9" d="M461.7,726.48a319.47,319.47,0,0,1-210-7.07c11.48,37.8,40.64,68.58,75,88.07s73.68,28.66,112.91,33.37c43.8,5.27,91.29,4.4,127.9-20.22,31.42-21.12,50.28-57.21,58.44-94.19,5-22.62,12.62-58.39,5.66-81.07-9.88-32.2-27.3-10.72-42.12,3.92A319,319,0,0,1,461.7,726.48Z"/></g><path class="cls-9" d="M781.74,744c-28.59,46.77-93.76,68-174.57-6.75-51.7-47.85-73.66-108.07-82.3-140.88,0,0-12.75-21-12.2-23.5a13.72,13.72,0,0,1,4.73-7.2c1.93-1.28,26.53,1.74,26.53,1.74,33.56-5.15,97.48-9,161.92,19.22C806.68,630.86,813.2,699.12,781.74,744Z"/><g class="cls-12"><path class="cls-9" d="M740.65,703.77a262.66,262.66,0,0,1-61.28,161.54c32.46,1.11,64.15-13.41,88.44-35s41.87-49.72,56-79c15.73-32.68,27.66-69.86,18.24-104.89-8.1-30.06-31.17-54.31-57.77-70.48-16.28-9.89-42.08-25.33-61.58-25.93-27.68-.87-15.59,18.39-8.13,33.81A262.42,262.42,0,0,1,740.65,703.77Z"/></g><path class="cls-10" d="M796.68,791.72c-54.06-9-98.13-61.54-59-164.44,25.07-65.84,72.72-108.71,99.92-129,0,0,14.74-19.69,17.24-20.11a13.73,13.73,0,0,1,8.44,1.7c1.91,1.31,8.31,25.26,8.31,25.26,17.31,29.2,44.81,87,42.68,157.37C910.93,772.57,850.06,804.13,796.68,791.72Z"/><g class="cls-13"><path class="cls-9" d="M818.63,738.58a262.66,262.66,0,0,1-172.74,3.52c11.11,30.53,36.42,54.49,65.49,69s61.77,20.25,94.18,22.38c36.19,2.37,75.14-.45,104.1-22.29,24.86-18.73,38.73-49.2,43.79-79.92,3.09-18.79,7.76-48.49,1-66.8-9.54-26-22.89-7.59-34.41,5.09A262.31,262.31,0,0,1,818.63,738.58Z"/></g><path class="cls-10" d="M444.5,703.6c9.34,41.53-15.51,88.62-101,90.6-54.7,1.26-99.5-20.46-122-34.08,0,0-18.48-4.84-19.51-6.51a10.62,10.62,0,0,1-1.25-6.58c.38-1.75,15.73-13.37,15.73-13.37,15.93-21,49.48-57.73,100.7-76.81C397.26,627,437.79,661.56,444.5,703.6Z"/><g class="cls-14"><path class="cls-9" d="M399.85,703.38A204,204,0,0,1,453,826.6c18.7-16.93,28.53-42.16,30.42-67.32s-3.52-50.36-11.49-74.29c-8.9-26.73-22.34-53.92-46.53-68.36-20.76-12.39-46.74-13.45-70.32-8.08-14.42,3.28-37.16,8.62-48.36,18.82-15.91,14.48,1.25,18.69,13.74,23.26A203.77,203.77,0,0,1,399.85,703.38Z"/></g><path class="cls-10" d="M744,611.66c-19.91,28.82-62.25,40-111.13-10.56-31.26-32.38-43.11-71.59-47.45-92.83,0,0-7.38-13.87-6.94-15.43a8.71,8.71,0,0,1,3.28-4.42c1.27-.75,16.86,2.06,16.86,2.06,21.59-2.09,62.51-2.27,102.61,18.07C764,540.38,765.71,584.17,744,611.66Z"/><g class="cls-15"><path class="cls-9" d="M719.26,584.53a167.86,167.86,0,0,1-44.89,100.86c20.67,1.87,41.41-6.25,57.68-19.14s28.49-30.22,38.53-48.38c11.2-20.29,20.15-43.58,15.39-66.26-4.09-19.47-17.94-35.77-34.33-47-10-6.9-25.93-17.67-38.35-18.76-17.63-1.54-10.61,11.18-6.4,21.29A167.57,167.57,0,0,1,719.26,584.53Z"/></g></svg>