<svg id="Layer_1" data-name="Layer 1" xmlns="http://www.w3.org/2000/svg" xmlns:xlink="http://www.w3.org/1999/xlink" viewBox="0 0 1000 795.11"><defs><style>.cls-1,.cls-7{fill:none;}.cls-2{fill:#5c7f3a;}.cls-3{fill:#c8df90;}.cls-4{fill:#d0802d;}.cls-5{clip-path:url(#clip-path);}.cls-6{fill:#b16748;}.cls-7{stroke:#955035;stroke-miterlimit:10;stroke-width:6.99px;}.cls-8{clip-path:url(#clip-path-2);}</style><clipPath id="clip-path"><path class="cls-1" d="M368.31,778c-107.76,3.39-213-80.92-177.11-294.48,32.1-190.74,166.25-312,176.49-321a.91.91,0,0,1,1.23,0c10.24,9,144.39,130.27,176.49,321C581.33,697,476.06,781.34,368.31,778Z"/></clipPath><clipPath id="clip-path-2"><path class="cls-1" d="M567.28,788.42C495,772,439.57,697.57,500.57,561.68c54.5-121.35,164.85-178.77,173.22-183a.65.65,0,0,1,.82.22c5.25,7.75,73.46,111.78,61.68,244.29C723.1,771.58,638.4,809.4,567.28,788.42Z"/></clipPath></defs><path class="cls-2" d="M474.41,426.57,816,162.22S786.84,262.4,683.33,342.54C584.22,419.27,474.41,426.57,474.41,426.57Z"/><path class="cls-3" d="M474.41,426.57,816,162.22s-104.83,3.49-208.37,83.61C508.47,322.52,474.41,426.57,474.41,426.57Z"/><path class="cls-2" d="M410.87,438.62,694.3,1.34S701.11,127,615.22,259.59C533,386.49,410.87,438.62,410.87,438.62Z"/><path class="cls-3" d="M410.87,438.62,694.3,1.34s-118,45.81-203.9,178.34C408.13,306.56,410.87,438.62,410.87,438.62Z"/><path class="cls-4" d="M368.31,778c-107.76,3.39-213-80.92-177.11-294.48,32.1-190.74,166.25-312,176.49-321a.91.91,0,0,1,1.23,0c10.24,9,144.39,130.27,176.49,321C581.33,697,476.06,781.34,368.31,778Z"/><g class="cls-5"><path class="cls-6" d="M392.25,617.37c-83.46,76.57-194,123-307.13,129,64.26,43.38,130.73,85.86,205.27,107.19s159.29,19,224.33-23.18c75.43-48.94,111.5-143.87,109.83-233.78-1-52.58-20.7-222-83.69-229.19C506.78,462.12,468.24,547.64,392.25,617.37Z"/><line class="cls-7" x1="368.31" y1="130.23" x2="368.31" y2="843.38"/><path class="cls-7" d="M275.06,176.74s-90.81,336.61,0,645.6"/><path class="cls-7" d="M469.63,176.74s90.81,336.61,0,645.6"/><path class="cls-7" d="M323.94,162.22s-55.59,397.7,0,645.6"/><path class="cls-7" d="M421.22,162.22s55.59,397.7,0,645.6"/></g><path class="cls-4" d="M567.28,788.42C495,772,439.57,697.57,500.57,561.68c54.5-121.35,164.85-178.77,173.22-183a.65.65,0,0,1,.82.22c5.25,7.75,73.46,111.78,61.68,244.29C723.1,771.58,638.4,809.4,567.28,788.42Z"/><g class="cls-8"><path class="cls-6" d="M611.11,685.72a342.08,342.08,0,0,1-226.8,32.47c35.23,40,72.09,79.85,118,107S605,865.51,655.61,848.73c58.7-19.47,99.19-76.38,113.7-136.5,8.49-35.17,24.8-151.34-15.88-167.06C714.3,602.3,673.79,652.52,611.11,685.72Z"/><line class="cls-7" x1="679.8" y1="357.38" x2="555.91" y2="831.97"/><path class="cls-7" d="M609.66,372.13S490.76,580.36,497.51,801.77"/><path class="cls-7" d="M739.15,405.93s2,239.78-112.15,429.64"/><path class="cls-7" d="M644.72,371S538.63,626,532.56,800.6"/><path class="cls-7" d="M709.45,387.86S677.36,662.18,597.3,817.5"/></g></svg>