<?xml version="1.0" encoding="utf-8"?>
<!-- Generator: Adobe Illustrator 24.0.1, SVG Export Plug-In . SVG Version: 6.00 Build 0)  -->
<svg version="1.1" id="Layer_1" xmlns="http://www.w3.org/2000/svg" xmlns:xlink="http://www.w3.org/1999/xlink" x="0px" y="0px"
	 viewBox="0 0 80.4 14.9" style="enable-background:new 0 0 80.4 14.9;" xml:space="preserve">
<style type="text/css">
	.st0{fill:#FFD17B;}
</style>
<polygon class="st0" points="10,4.8 7.6,0 5.2,4.8 0,5.6 3.8,9.4 2.8,14.9 7.6,12.3 12.4,14.9 11.5,9.4 15.3,5.6 "/>
<polygon class="st0" points="26.3,4.8 23.9,0 21.5,4.8 16.2,5.6 20.1,9.4 19.1,14.9 23.9,12.3 28.7,14.9 27.7,9.4 31.6,5.6 "/>
<polygon class="st0" points="42.6,4.8 40.2,0 37.8,4.8 32.5,5.6 36.4,9.4 35.4,14.9 40.2,12.3 45,14.9 44,9.4 47.9,5.6 "/>
<polygon class="st0" points="58.9,4.8 56.5,0 54.1,4.8 48.8,5.6 52.7,9.4 51.7,14.9 56.5,12.3 61.3,14.9 60.3,9.4 64.2,5.6 "/>
<polygon class="st0" points="80.4,5.6 75.2,4.8 72.8,0 70.4,4.8 65.1,5.6 68.9,9.4 68,14.9 72.8,12.3 77.6,14.9 76.6,9.4 "/>
</svg>
