<svg xmlns="http://www.w3.org/2000/svg" xmlns:xlink="http://www.w3.org/1999/xlink" viewBox="0 0 1062.41 675.52"><defs><style>.cls-1,.cls-13,.cls-3,.cls-41,.cls-42,.cls-51,.cls-55,.cls-62{fill:none;}.cls-2{fill:#d8b9f6;}.cls-3{stroke:#d8b9f6;stroke-width:3px;}.cls-13,.cls-3{stroke-linecap:round;stroke-linejoin:round;}.cls-4{fill:#ef852a;}.cls-5{fill:#fefefe;}.cls-6{fill:#032088;}.cls-7{clip-path:url(#clip-path);}.cls-8{fill:#0f6bd4;}.cls-9{fill:#fece3a;}.cls-10{clip-path:url(#clip-path-2);}.cls-11{fill:#fde37b;}.cls-12{fill:#e1a782;}.cls-13{stroke:#032088;stroke-width:2.5px;}.cls-14{fill:#d1966e;}.cls-15{clip-path:url(#clip-path-3);}.cls-16{clip-path:url(#clip-path-4);}.cls-17{fill:#fff;}.cls-18{fill:#cab1d5;}.cls-19,.cls-20,.cls-22,.cls-38,.cls-39,.cls-40,.cls-43,.cls-48{fill:#7d402e;}.cls-20{font-size:2.21px;}.cls-20,.cls-22,.cls-25{font-family:Intro, Intro ;}.cls-21{letter-spacing:0.01em;}.cls-22{font-size:1.55px;}.cls-23{letter-spacing:-0.05em;}.cls-24{letter-spacing:-0.05em;}.cls-25{font-size:3.4px;fill:#d0802d;letter-spacing:-0.02em;}.cls-26{letter-spacing:-0.03em;}.cls-27{letter-spacing:-0.02em;}.cls-28{letter-spacing:-0.02em;}.cls-29{letter-spacing:-0.02em;}.cls-30,.cls-40{letter-spacing:-0.05em;}.cls-31{letter-spacing:-0.02em;}.cls-32{letter-spacing:-0.03em;}.cls-33{letter-spacing:0em;}.cls-34{letter-spacing:-0.03em;}.cls-35{letter-spacing:-0.02em;}.cls-36,.cls-37{letter-spacing:-0.05em;}.cls-37{fill:#694a3b;}.cls-38{letter-spacing:-0.03em;}.cls-39{letter-spacing:-0.01em;}.cls-41,.cls-42{stroke:#d0802d;}.cls-41,.cls-42,.cls-62{stroke-miterlimit:10;}.cls-41{stroke-width:0.3px;}.cls-42{stroke-width:0.3px;}.cls-43,.cls-48{font-size:2.53px;font-family:FuturaNewDemi-Reg, Futura New;}.cls-43{letter-spacing:-0.06em;}.cls-44,.cls-45,.cls-48{letter-spacing:0.05em;}.cls-45,.cls-46,.cls-47,.cls-49,.cls-50,.cls-51,.cls-54{font-family:FuturaNewBook-Reg, Futura New;}.cls-46{letter-spacing:0.03em;}.cls-47{letter-spacing:0.06em;}.cls-50{letter-spacing:0.03em;}.cls-51,.cls-54{font-size:1.48px;}.cls-52,.cls-55{letter-spacing:0em;}.cls-52,.cls-53{fill:#000;}.cls-56{letter-spacing:-0.04em;}.cls-57{letter-spacing:-0.05em;}.cls-58{letter-spacing:-0.03em;}.cls-59{clip-path:url(#clip-path-5);}.cls-60{fill:#d0802e;}.cls-61{fill:#9a6038;}.cls-62{stroke:#9a6039;stroke-width:0.76px;}.cls-63{fill:#7c3f2e;}.cls-64{fill:#b06647;}</style><clipPath id="clip-path"><path class="cls-1" d="M488,224.81s-.41-73.65-.58-90.58,12.1-38.81,37.26-38.81S564.1,116,564.1,133.07s2,94.3,2,94.3Z"/></clipPath><clipPath id="clip-path-2"><path class="cls-1" d="M553.2,222.91s39.47.33,44.58.33,19.74,1.65,31.63,17.17,37.48,63.22,37.48,63.22l-69,5.73-4.74-8.92-4.63,41.94a1.38,1.38,0,0,1-1.36,1.22H468.3a.87.87,0,0,1-.87-.77c-.47-3.85-2.56-21.13-3.05-26.59-.55-6.17-1.05-15.36-1.05-15.36l-5.61,8.53-68.37-6.05s25.87-44.59,30.28-52.57,17.34-27.63,39.63-28.24,42.66-.14,42.66-.14l11.51,7.52c-.17-.11,25.92.88,25.92.88Z"/></clipPath><clipPath id="clip-path-3"><path class="cls-1" d="M598.14,309.34s51.5,90.35,57.69,101.25,9.74,21.38,21.8,25,108.49,33.71,141.52,41,61.64,10.38,79.38,7.81c8.36-1.21,10.9-3.08,13.1-5.39,5.17-1.21,16.54-3.13,22.46-10.79,1.4-1.82-.91-4.62-3.72-4.71,3.55-2.39,6.36-4.7,6.61-7.26s-2.56-4.13-6.86-3.8-15.35.41-16.59.33c-2.48-6-7.76-18.66-10.41-22.46s-7.59-6.6-9.16,1.16,3,20.89,3,20.89c-6-.42-33.52-3.8-33.52-3.8s23.12-14,28.15-19.07,6.36-10.57-.82-10.9-29.81,4.62-41.78,6.77-15.61,3.88-21.22,1.9c-3.61-1.28-48-16.54-80.26-28.24-18-6.52-32.28-12.58-33.39-13-2.06-.72-3.37-3-5-5.79-1.87-3.2-41.75-77.28-42.6-76.61Z"/></clipPath><clipPath id="clip-path-4"><path class="cls-1" d="M457.45,309.27s-50.75,90.42-56.94,101.32-9.75,21.38-21.8,25-108.5,33.71-141.52,41S175.55,487,157.81,484.4c-8.37-1.21-10.9-3.08-13.1-5.39-5.18-1.21-16.54-3.13-22.46-10.79-1.4-1.82.91-4.62,3.72-4.71-3.55-2.39-6.36-4.7-6.61-7.26s2.56-4.13,6.85-3.8,15.36.41,16.6.33c2.48-6,7.76-18.66,10.4-22.46s7.6-6.6,9.17,1.16-3,20.89-3,20.89c6-.42,33.52-3.8,33.52-3.8s-23.12-14-28.16-19.07-6.35-10.57.83-10.9,29.81,4.62,41.78,6.77,15.6,3.88,21.22,1.9c3.61-1.28,48-16.54,80.26-28.24,18-6.52,32.28-12.58,33.38-13,2.07-.72,3.38-3,5-5.79.94-1.61,9.06-19.13,19.38-37.73,10.15-18.28,22.52-37.65,23.33-39.14Z"/></clipPath><clipPath id="clip-path-5"><path class="cls-1" d="M210.18,581.73a.88.88,0,0,0-.07-.33,1,1,0,0,0-.41-.48,1,1,0,0,0-.94-.06c-3,1.27-10.39,4.62-12.23,7.62a8.82,8.82,0,0,0-1.09,2.73,7.34,7.34,0,0,0,3.09,8c3.43,2.1,8.1.71,10.43-3.09C210.8,593.08,210.42,585,210.18,581.73Z"/></clipPath></defs><g id="Layer_2" data-name="Layer 2"><g id="BG"><path class="cls-2" d="M975.37,628.58h-940c-23.5,0-35.41-13.47-35.41-40,0-21.06,16.55-33.65,32.55-33.65,19.76,0,35.84,11.64,35.84,25.94,0,9.65-2.83,16.06-8.42,19.06-9.24,5-22.55-1.33-26.49-3.93a1.5,1.5,0,0,1,1.65-2.51c4.47,2.95,16.06,7.76,23.42,3.8,4.54-2.44,6.84-8,6.84-16.42,0-12.65-14.73-22.94-32.84-22.94C18.22,557.9,3,568.64,3,588.55c0,24.57,10.9,37,32.41,37h940c31.47,0,49.6-1.64,83.59-36.61L942.88,429.84l-3,1.55c-21.23,10.89-26.28,13.48-102.74,13.48h-679a1.5,1.5,0,0,1,0-3h679c75.74,0,80.66-2.52,101.37-13.15,1.32-.68,2.7-1.39,4.17-2.13a1.51,1.51,0,0,1,1.89.45l117.57,161.18a1.49,1.49,0,0,1-.13,1.92C1026.67,626.8,1007,628.58,975.37,628.58Z"/><path class="cls-3" d="M7,569.91,115.33,410.42c13.88-8.92,42.45-10.07,55.82,10.57C157,443.37,63.51,594.74,63.51,594.74"/><line class="cls-3" x1="34.31" y1="594.72" x2="55.16" y2="562.45"/><path class="cls-2" d="M46.64,675.52H918.56V0c-15,22-53.24,66.65-97.43,98.64-62.86,45.52-158.86,51.08-223,94.13C516.69,247.43,494.33,318,405.1,391.36c-99.16,81.57-204.07,50.82-310,167C54.12,603.3,46.64,675.52,46.64,675.52Z"/><path class="cls-4" d="M821.13,98.64c-22.58,16.36-49.45,27.55-77.57,37.18l175,229.54V0C903.59,22,865.32,66.65,821.13,98.64Z"/><path class="cls-4" d="M137.23,519.27a331.8,331.8,0,0,0-42.15,39.12c-41,44.91-48.44,117.13-48.44,117.13H463.05Z"/><path class="cls-5" d="M918.56,625.58H58.07c-.33,1-.66,2-1,3H918.56Z"/><path class="cls-5" d="M837.12,441.87H313.24q-4.22,1.54-8.43,3H837.12c48.25,0,68.06-1,81.44-4.53v-3.13C905.4,440.82,886,441.87,837.12,441.87Z"/></g><g id="Char"><path class="cls-6" d="M488,224.81s-.41-73.65-.58-90.58,12.1-38.81,37.26-38.81S564.1,116,564.1,133.07s2,94.3,2,94.3Z"/><g class="cls-7"><path class="cls-8" d="M499.41,217.42c-.35-.89-1.16-1.6-1.23-2.59a10.83,10.83,0,0,1,.67-3.05,5.75,5.75,0,0,0-.17-3.26,13.28,13.28,0,0,1-.74-3.57c-.07-1.29-.09-2.59-.11-3.88s0-2.89-.07-4.33a22.69,22.69,0,0,0-.32-4.36c0-.19-.32-.14-.36,0a41.27,41.27,0,0,0-.33,7.7c0,1.32,0,2.63-.07,3.94a13.36,13.36,0,0,0,.2,3.4c.28,1.19.88,2.28.68,3.53-.16,1-.6,2-.76,3a4.06,4.06,0,0,0,.61,2.8,6.21,6.21,0,0,1,.7,1.23c.16.47-.11.75-.49,1a7,7,0,0,0-2.4,2.3,4.58,4.58,0,0,0-.59,3.42.6.6,0,0,0,1.19,0,6.81,6.81,0,0,1,.89-2.81,10.4,10.4,0,0,1,2.13-2A2.17,2.17,0,0,0,499.41,217.42Z"/><path class="cls-8" d="M560.45,217.46c.53-1.62-.25-3.19-1.21-4.47a19.87,19.87,0,0,1-1.44-2,4.35,4.35,0,0,1-.51-2.58c.07-.93.28-1.85.38-2.78a12,12,0,0,0-.08-2.87c-.25-1.86-.71-3.69-1.07-5.53-.77-3.86-1.47-7.75-1.88-11.68-.22-2.15-.36-4.32-.42-6.48,0-1.07,0-2.13,0-3.19s0-2.4.08-3.58c0-.39-.58-.49-.61-.09-.09,1-.25,1.92-.31,2.89s-.07,2-.07,3c0,1.94.09,3.88.25,5.81.33,4,.88,8,1.57,11.94.35,2,.75,3.91,1.11,5.86a14.58,14.58,0,0,1,.29,3.16,23.29,23.29,0,0,1-.43,2.76,6,6,0,0,0,1.14,4.86c.89,1.24,2.47,2.73,2,4.41a8.38,8.38,0,0,1-1.36,2.13,4.76,4.76,0,0,0-.88,2.34,6.73,6.73,0,0,0,.45,2.84,8.66,8.66,0,0,0,.62,1.39,13.16,13.16,0,0,0,.89,1.19c.33.49,1.13,0,.89-.52s-.26-.82-.42-1.23-.37-.79-.53-1.2a5.2,5.2,0,0,1-.41-2.49C558.64,219.89,560,218.88,560.45,217.46Z"/><path class="cls-8" d="M512.41,106.13a3.86,3.86,0,0,0-1,2.85c0,.94.22,2.44-.66,3.1-.5.38-1.23.27-1.8.46a2.56,2.56,0,0,0-1.22.85,2.83,2.83,0,0,0-.63,1.65l-1.21-.45a.7.7,0,0,0-1,.68l0,.72a2.2,2.2,0,0,0-2.06.61,1.81,1.81,0,0,0-.42,1l-1.27-.16a.72.72,0,0,0-.81.93l.3.8a3.94,3.94,0,0,1-1.52-.65.74.74,0,0,0-1.19.48l-1.29-1a.73.73,0,0,0-1.13.84,11.34,11.34,0,0,0,3.82,5.33c.65.42,1.57-.38,1-1-.4-.47-.83-.9-1.25-1.35l1,.78a.72.72,0,0,0,.92-1.1,8.44,8.44,0,0,1-.78-.92,5.64,5.64,0,0,0,1.54.16.72.72,0,0,0,.62-1l-.28-.75,1.16.14c.66.08,1.19-.77.6-1.24-.19-.14.11-.39.25-.45a2.38,2.38,0,0,1,1.39.15.71.71,0,0,0,.83-.74l0-.58,1.35.48c.48.17,1.23-.25.94-.84a1.51,1.51,0,0,1,.74-2.09,8.52,8.52,0,0,0,1.66-.47,2.5,2.5,0,0,0,.89-1,5.1,5.1,0,0,0,.43-2.59c-.06-1.09-.37-2.42.44-3.31C512.94,106.21,512.61,106,512.41,106.13Z"/></g><path class="cls-9" d="M553.2,222.91s39.47.33,44.58.33,19.74,1.65,31.63,17.17,37.48,63.22,37.48,63.22l-69,5.73-4.74-8.92-4.63,41.94a1.38,1.38,0,0,1-1.36,1.22H468.3a.87.87,0,0,1-.87-.77c-.47-3.85-2.56-21.13-3.05-26.59-.55-6.17-1.05-15.36-1.05-15.36l-5.61,8.53-68.37-6.05s25.87-44.59,30.28-52.57,17.34-27.63,39.63-28.24,42.66-.14,42.66-.14l11.51,7.52c-.17-.11,25.92.88,25.92.88Z"/><g class="cls-10"><path class="cls-6" d="M469,287.33a36,36,0,0,0-2.27,5.34c-.69,1.74-1.46,3.45-2.13,5.21s-1.28,3.37-1.91,5.05a31.54,31.54,0,0,0-2,5.49c-.26,1.52,2,2.56,2.87,1.18a29,29,0,0,0,2.05-5l2.09-5.52c.67-1.77,1.23-3.58,1.87-5.36a35.35,35.35,0,0,0,1.83-5.55A1.3,1.3,0,0,0,469,287.33Z"/><path class="cls-6" d="M596.07,310.54l-1.2-3.1c-.8-2.08-1.62-4.14-2.44-6.2s-1.7-4.1-2.52-6.16-1.38-4.28-2.65-5.94a1.36,1.36,0,0,0-2.3.95c.19,2.15,1.4,4.4,2.16,6.4s1.47,4.08,2.24,6.11,1.54,4,2.32,6.06,1.37,4.59,2.92,6.11c.92.91,2.19,0,2.24-1.11A7.63,7.63,0,0,0,596.07,310.54Z"/><path class="cls-11" d="M576.29,266.51a1,1,0,0,0-.64-.48,42.48,42.48,0,0,0-24.45,1.35c-6.61,2.47-12.88,7.8-12.69,15.4a1,1,0,0,0,.54,1.69c8,.25,16.37-.14,23.83-3.46,6-2.67,11.25-7.17,13.94-13.25A.9.9,0,0,0,576.29,266.51Zm-35.78,16c-.08-7.22,6.62-11.78,12.84-13.77a40.94,40.94,0,0,1,21.21-.9C568.44,280.3,553.15,282.76,540.51,282.52Z"/><path class="cls-11" d="M624.21,226A50.6,50.6,0,0,1,598,256.6a77.28,77.28,0,0,1,3.9-35.8c.43-1.2-1.4-2-1.83-.81a79.57,79.57,0,0,0-4,37.56.92.92,0,0,0,.26.53,1.08,1.08,0,0,0,1.49.81,52.46,52.46,0,0,0,28.34-32.53C626.54,225.13,624.57,224.78,624.21,226Z"/><path class="cls-11" d="M649.94,286.76a.91.91,0,0,0-.24-.58,29.11,29.11,0,0,0-20-9.89,24.1,24.1,0,0,0-19.1,8,1.16,1.16,0,0,0-.07,2.28,33.25,33.25,0,0,0,39.1,1.5A1,1,0,0,0,649.94,286.76Zm-37.63-1.37a22.22,22.22,0,0,1,17.34-7.11,26.88,26.88,0,0,1,18,8.67A31.2,31.2,0,0,1,612.31,285.39Z"/><path class="cls-11" d="M563.29,314.93a1.08,1.08,0,0,0-1.78.19,32.34,32.34,0,0,0-13,30.86c.19,1.27,2.18,1.15,2-.12A30.52,30.52,0,0,1,562.34,317a25.25,25.25,0,0,1,.56,29.13c-.72,1.07,1,2.07,1.73,1A27.23,27.23,0,0,0,563.29,314.93Z"/><path class="cls-11" d="M525.66,313.86a1,1,0,0,0-.72-1.54A31.9,31.9,0,0,0,484.71,309a1.19,1.19,0,0,0-.42.28l-.2.14a1,1,0,0,0,.57,1.75,23.86,23.86,0,0,0,18,10.89c8.12.82,16.18-2.41,22.34-7.58A1.07,1.07,0,0,0,525.66,313.86Zm-22.34,6.31a21.88,21.88,0,0,1-16.89-9.89,29.91,29.91,0,0,1,36.75,3.13C517.6,317.9,510.56,320.68,503.32,320.17Z"/><path class="cls-11" d="M468.17,216.83a32.69,32.69,0,0,1-6.28,18,66.68,66.68,0,0,1-7.16-16c-.37-1.23-2.32-.79-2,.44a70.31,70.31,0,0,0,7.84,17.33.9.9,0,0,0,.95.42.88.88,0,0,0,1.31-.13,34.84,34.84,0,0,0,7.29-20A1,1,0,0,0,468.17,216.83Z"/><path class="cls-11" d="M504.84,252.12c-5-6.46-12.81-9.68-20.5-11.67l-.17,0-.2-.05a1,1,0,0,0-.85,1.77,68.57,68.57,0,0,0,2.27,12.47,31.4,31.4,0,0,0,5.24,10,32.52,32.52,0,0,0,17.55,11.48,1,1,0,0,0,.48,0,1,1,0,0,0,1.51-.91C510.21,267.13,510,258.75,504.84,252.12ZM491.93,263c-4.5-6-5.86-13-6.74-20.28,6.77,1.88,13.51,4.83,18,10.45,4.71,5.92,5,13.54,5,20.8A30.35,30.35,0,0,1,491.93,263Z"/><path class="cls-11" d="M440.83,259.19a.86.86,0,0,0-.53-.15,67.39,67.39,0,0,0-33.09,10,1,1,0,0,0-1.26.23,1.41,1.41,0,0,0-.22,1.66,1,1,0,0,0,1.54.41,65.16,65.16,0,0,1,32.34-10.27A36.39,36.39,0,0,1,393,284.41a1,1,0,0,0-.6,1.91,39.07,39.07,0,0,0,25,0,38.15,38.15,0,0,0,18.68-14,38.8,38.8,0,0,0,5.76-12A1,1,0,0,0,440.83,259.19Z"/></g><path class="cls-12" d="M501.92,222.41h7l.33-61.84,33.94.58,3,61.76h7c-1.74,8.09-13.71,16.35-25.64,16.35S504.48,229.6,501.92,222.41Z"/><path class="cls-6" d="M509.09,163.45l-.09,18c4.47-2,15.62-7,16.94-7.56,1.67-.72,1.69-1.71,1.91-3.58Z"/><path class="cls-12" d="M499.36,124.86c5.2,0,20.11-5.88,23.83-17.68.29-1,1.36-1,1.81-.12,1.28,3,6.94,13.55,24.4,17.1.66.16,3.8.53,3.8.53s-.83,8.47-1.16,13.46-.22,27-14.78,31.63c-13.65,4.33-27.74,1.19-33-8.63s-8.18-36.42-8.18-36.42Z"/><ellipse class="cls-12" cx="491.35" cy="129.1" rx="9.83" ry="8.88"/><path class="cls-13" d="M509.35,132.25c2-1.68,6.36-2.48,9.17-.75"/><path class="cls-13" d="M542.09,132c-2.15-1.46-6.58-1.79-9.19.24"/><path class="cls-13" d="M525.54,128.31v10.78c0,1.88,1,2.27,2,2"/><path class="cls-13" d="M527.24,147.15c1.6.06,5.66-.56,7.07-6"/><line class="cls-13" x1="486.84" y1="127.49" x2="494.27" y2="130.82"/><path class="cls-6" d="M538,172.1a.58.58,0,0,0,.22,0,16.17,16.17,0,0,0,5.48-2.94l-.33-3a16.56,16.56,0,0,1-5.74,3.5,1.26,1.26,0,0,0-.91,1.48A1.24,1.24,0,0,0,538,172.1Z"/><path class="cls-14" d="M553.2,222.91h-7l-3-61.76-4.05-.07c-2.69,7.72-4.8,8.72-4.63,15,0,0,1.62,20.8,2,30.71.25,7.41.83,23.17,1.11,30.66C545.52,234.53,552,228.68,553.2,222.91Z"/><path class="cls-14" d="M535.31,170.33c.65-.17,1.3-.35,2-.55,14.56-4.63,14.45-26.63,14.78-31.63s1.16-13.46,1.16-13.46-3.14-.37-3.8-.53a46,46,0,0,1-6.57-1.84c.19,8.27,1,22.18-2.16,33.79C538.45,164.4,536.38,167.22,535.31,170.33Z"/><ellipse class="cls-14" cx="557.85" cy="130.57" rx="10.27" ry="9.31"/><path class="cls-13" d="M554.6,131.54l8.59-2.44"/><polygon class="cls-12" points="468.3 343.6 471.59 380.59 584.22 380.59 587.14 343.6 468.3 343.6"/><path class="cls-14" d="M586.47,352.09c-24.73-3-66.87-5.76-110.91-8.49H587.14Z"/><polygon class="cls-14" points="584.22 380.59 584.53 376.62 531.35 380.59 584.22 380.59"/><path class="cls-5" d="M471.59,380.59v10a3.47,3.47,0,0,1-2,3.15c-10.52,5.08-60.5,28.92-87.19,37.36-29.95,9.47-109.87,30.6-131.23,37.43S228.07,509.92,232,525.34a64.69,64.69,0,0,0,19.38,32.16s0-17.39,9.25-32.25,27-33.47,64.07-40.85c13.92-2.76,49.14-.07,60.22,1,14.86,1.44,53.61,11,72.77,12.33a306.56,306.56,0,0,0,29.67-23.39C503.57,460,517.94,463.6,535.45,472s59.16,19.67,114.11,24.6c42.27,3.8,54.16-6.77,97.76-5.12s73.15,17.18,80.91,39.31c3.14-6.11,8.43-35-5.12-55.65s-133.61-42.39-160-50.7c-4.45-1.4-9.58-4-21.31-7.6s-47.39-17.67-55.32-22.95c-1.4-.83-2.25-13.32-2.25-13.32"/><path class="cls-6" d="M529.67,397a542.34,542.34,0,0,0,56.66-3.25,6.76,6.76,0,0,1-.83-2.42,539.31,539.31,0,0,1-55.83,3.17c-25.44,0-44.28-.59-58.77-1.84a3.45,3.45,0,0,1-1.29,1.07l-2.31,1.12C482.29,396.34,502.14,397,529.67,397Z"/><path class="cls-6" d="M396.55,488.12c-26.84-8.77-55.29-14.61-83.6-11a118,118,0,0,0-23.22,5.36c-1.21.41-.71,2.35.51,1.93,26.12-8.95,54.41-7.56,81-1.41,8.37,1.94,16.61,4.34,24.77,7C397.22,490.45,397.77,488.52,396.55,488.12Z"/><path class="cls-6" d="M767.71,480.59c-6.3-3.75-13.56-5.25-20.8-5.76a141.8,141.8,0,0,0-22.76.43,167.11,167.11,0,0,0-44.95,10.52,165.23,165.23,0,0,0-23.64,11.38c-1.1.64-.34,2.49.76,1.85a164.48,164.48,0,0,1,41.59-17.15,162.17,162.17,0,0,1,44.18-5.26c8.46.19,17.19,1.31,24.59,5.7A1,1,0,0,0,767.71,480.59Z"/><path class="cls-12" d="M598.14,309.34s51.5,90.35,57.69,101.25,9.74,21.38,21.8,25,108.49,33.71,141.52,41,61.64,10.38,79.38,7.81c8.36-1.21,10.9-3.08,13.1-5.39,5.17-1.21,16.54-3.13,22.46-10.79,1.4-1.82-.91-4.62-3.72-4.71,3.55-2.39,6.36-4.7,6.61-7.26s-2.56-4.13-6.86-3.8-15.35.41-16.59.33c-2.48-6-7.76-18.66-10.41-22.46s-7.59-6.6-9.16,1.16,3,20.89,3,20.89c-6-.42-33.52-3.8-33.52-3.8s23.12-14,28.15-19.07,6.36-10.57-.82-10.9-29.81,4.62-41.78,6.77-15.61,3.88-21.22,1.9c-3.61-1.28-48-16.54-80.26-28.24-18-6.52-32.28-12.58-33.39-13-2.06-.72-3.37-3-5-5.79-1.87-3.2-41.75-77.28-42.6-76.61Z"/><path class="cls-14" d="M911.63,479c5.17-1.21,16.54-3.13,22.46-10.79,1.21-1.56-.34-3.86-2.59-4.52l-2.53.92c-3.8,1.36-17,3.35-22.63,3.52s-29.23-1.65-35-1.9-17.72,1.21-39.4-4.07-91.27-27.09-101.62-30.39-25.76-10.35-40.08-11.67-15-9-26.2-24.44c-10.57-14.55-36.79-62.26-50.65-87.6l-15.24,1.27s51.5,90.35,57.69,101.25,9.74,21.38,21.8,25,108.49,33.71,141.52,41,61.64,10.38,79.38,7.81C906.89,483.19,909.43,481.32,911.63,479Z"/><g class="cls-15"><path class="cls-6" d="M713.08,381.84c-.42-1.22-2.25-.42-1.84.79q2.75,8.06,5.51,16.1a1,1,0,0,0,1.9-.63Z"/><path class="cls-6" d="M900.6,470.29c-8.7-.37-17.42-.52-26.12-.79l-15.19-.45a1,1,0,0,0-.1,2l31.09.93,7.68.23a37.5,37.5,0,0,1,6.86.55c4.32.95,7.42,4.56,6.9,9.1a1,1,0,0,0,2,.2,10.29,10.29,0,0,0-3.25-8.72C907.78,470.89,904.07,470.44,900.6,470.29Z"/><path class="cls-6" d="M936.53,460.27a73.17,73.17,0,0,1-26.45,6.79c-2,.13-4,.16-6,.15l3.59-2.78c1.54-1.2,3.15-2.34,4.56-3.68a1.79,1.79,0,0,0,.13-.14,12.33,12.33,0,0,0,5.17-10.79,1,1,0,0,0-2,.15c0,.09,0,.19,0,.29a.7.7,0,0,0-.25,0,1.2,1.2,0,0,0-.39.2,1,1,0,0,0-1.59,1.11,7.25,7.25,0,0,1-.26,4.73,10.47,10.47,0,0,1-3.17,3.86c-2.83,2.36-5.83,4.55-8.74,6.81a1,1,0,0,0-.17.19c-6.77-.19-13.57-.89-20.29-1.35l-6.36-.44c1.64-.74,3.28-1.51,4.89-2.32a1.38,1.38,0,0,0,.57-.22l.32-.23a140.36,140.36,0,0,0,16.2-9.69c1.06-.74-.17-2.31-1.23-1.58l-.2.14a.91.91,0,0,0-.18-.47,1.05,1.05,0,0,0-.39-.27.79.79,0,0,0-.21-.27,1,1,0,0,0-1.41.1l-.05.05c.19-1.08-1.56-1.49-2-.34-.86,2.46-2.86,4.28-4.88,5.82-2.19,1.65-4.45,3.2-6.69,4.78q-4.11,2.1-8.36,3.92a1,1,0,0,0-.39.31l-6.64-.46a1,1,0,0,0-.1,2L894,468.71c9.7.65,19.26.74,28.79-1.51a75.91,75.91,0,0,0,14.64-5.13A1,1,0,0,0,936.53,460.27Z"/></g><path class="cls-6" d="M683.92,407.35a9.07,9.07,0,0,0-10,2.28,1,1,0,0,0-.07,1.41,1,1,0,0,0,1.41.07,6.85,6.85,0,0,1,12.07,5.09c-.12,1.28,1.85,1.6,2,.32A9.07,9.07,0,0,0,683.92,407.35Z"/><path class="cls-6" d="M843,449.62c-2.91-.28-5.92-.53-8.72.49a7.94,7.94,0,0,0-5,4.84c-.4,1.22,1.53,1.75,1.93.53a6.11,6.11,0,0,1,4.06-3.62c2.32-.77,4.88-.5,7.27-.28a1,1,0,0,0,1.19-.77A1,1,0,0,0,843,449.62Z"/><path class="cls-12" d="M457.45,309.27s-50.75,90.42-56.94,101.32-9.75,21.38-21.8,25-108.5,33.71-141.52,41S175.55,487,157.81,484.4c-8.37-1.21-10.9-3.08-13.1-5.39-5.18-1.21-16.54-3.13-22.46-10.79-1.4-1.82.91-4.62,3.72-4.71-3.55-2.39-6.36-4.7-6.61-7.26s2.56-4.13,6.85-3.8,15.36.41,16.6.33c2.48-6,7.76-18.66,10.4-22.46s7.6-6.6,9.17,1.16-3,20.89-3,20.89c6-.42,33.52-3.8,33.52-3.8s-23.12-14-28.16-19.07-6.35-10.57.83-10.9,29.81,4.62,41.78,6.77,15.6,3.88,21.22,1.9c3.61-1.28,48-16.54,80.26-28.24,18-6.52,32.28-12.58,33.38-13,2.07-.72,3.38-3,5-5.79.94-1.61,9.06-19.13,19.38-37.73,10.15-18.28,22.52-37.65,23.33-39.14Z"/><path class="cls-14" d="M441.63,307.9c-12.88,24.52-33.83,62-40.28,72.69-6.82,11.34-20.63,32.72-23.12,34.9-3.73,3.27-7.26,1.82-10.9,2.92s-76.12,24.68-97.43,30.52-46.07,15-62.09,16.07-34.26,2-34.26,2l-23.37,1.57L132,465.91l-6.47-2.36c-2.61.34-4.62,2.95-3.29,4.67,5.92,7.66,17.28,9.58,22.46,10.79,2.2,2.31,4.73,4.18,13.1,5.39,17.74,2.57,46.35-.55,79.38-7.81s129.32-37.31,141.52-41,15.6-14.12,21.8-25,56.94-101.32,56.94-101.32Z"/><g class="cls-16"><path class="cls-6" d="M342.89,381.84c.42-1.22,2.25-.42,1.84.79q-2.75,8.06-5.51,16.1a1,1,0,0,1-1.9-.63Z"/><path class="cls-6" d="M155.37,470.29c8.7-.37,17.41-.52,26.12-.79l15.19-.45a1,1,0,0,1,.1,2q-15.56.45-31.09.93l-7.68.23a37.5,37.5,0,0,0-6.86.55c-4.32.95-7.42,4.56-6.9,9.1a1,1,0,0,1-2,.2,10.29,10.29,0,0,1,3.24-8.72C148.18,470.89,151.9,470.44,155.37,470.29Z"/><path class="cls-6" d="M119.44,460.27a73.12,73.12,0,0,0,26.45,6.79c2,.13,4,.16,6,.15l-3.6-2.78c-1.53-1.2-3.14-2.34-4.55-3.68a.86.86,0,0,1-.13-.14,12.33,12.33,0,0,1-5.17-10.79,1,1,0,0,1,2,.15v.29a.7.7,0,0,1,.25,0,1.2,1.2,0,0,1,.39.2,1,1,0,0,1,1.58,1.11,7.31,7.31,0,0,0,.27,4.73,10.47,10.47,0,0,0,3.17,3.86c2.83,2.36,5.83,4.55,8.74,6.81a.9.9,0,0,1,.16.19c6.78-.19,13.58-.89,20.3-1.35l6.35-.44q-2.46-1.11-4.88-2.32a1.33,1.33,0,0,1-.57-.22l-.32-.23a140.49,140.49,0,0,1-16.21-9.69c-1-.74.18-2.31,1.23-1.58l.2.14a.92.92,0,0,1,.19-.47,1.1,1.1,0,0,1,.38-.27,1,1,0,0,1,.22-.27,1,1,0,0,1,1.41.1l.05.05c-.19-1.08,1.55-1.49,2-.34.86,2.46,2.86,4.28,4.88,5.82,2.18,1.65,4.45,3.2,6.69,4.78q4.11,2.1,8.35,3.92a1.07,1.07,0,0,1,.4.31l6.64-.46a1,1,0,0,1,.1,2L162,468.71c-9.71.65-19.27.74-28.79-1.51a76,76,0,0,1-14.65-5.13A1,1,0,0,1,119.44,460.27Z"/></g><path class="cls-6" d="M372,407.35a9.08,9.08,0,0,1,10,2.28,1,1,0,0,1,.06,1.41,1,1,0,0,1-1.41.07,6.84,6.84,0,0,0-12.06,5.09c.12,1.28-1.85,1.6-2,.32A9.07,9.07,0,0,1,372,407.35Z"/><path class="cls-6" d="M213,449.62c2.9-.28,5.91-.53,8.71.49a7.94,7.94,0,0,1,5,4.84c.41,1.22-1.52,1.75-1.92.53a6.11,6.11,0,0,0-4.06-3.62c-2.33-.77-4.88-.5-7.27-.28a1,1,0,0,1-1.19-.77A1,1,0,0,1,213,449.62Z"/><path class="cls-12" d="M723.37,593.83c-7.92-9.57-25.43-33-32-42.38s-28.51-38.53-28.51-38.53c-7.26-7.27-18.16-9.8-31.71-10s-93.68.88-112.62.88-29.94-1.1-60.77-6.06c-19.16-1.32-57.91-10.89-72.77-12.33-11.08-1.06-46.3-3.75-60.22-1-37.1,7.38-54.83,26-64.07,40.85-7.68,12.33-9,26.41-9.21,30.84.1.14.19.29.29.42,8.42,12,37.48,19.88,56.81,19.88s165.68.38,183.85.27,123.85.55,137.06.66,33,3.63,42.94,7.16,29.61,12.66,39.85,19,19.6,9.58,22.68,10,2.75-3,.66-5.39S731.3,603.41,723.37,593.83Z"/><path class="cls-14" d="M717.76,599.78c-12.11-6.17-27.09-21.58-47.12-28.84s-82.13-11-108.55-11.89c-13.61-.46-53.48.49-88.74.22C440.14,559,411,557.5,411,557.5c-57.23-.85-135-5-159.07-6.85-.31,2.35-.46,4.25-.52,5.44.1.14.19.29.29.42,8.42,12,37.48,19.88,56.81,19.88s165.68.38,183.85.27,123.85.55,137.06.66,33,3.63,42.94,7.16,29.61,12.66,39.85,19,19.6,9.58,22.68,10a1.87,1.87,0,0,0,2-.63C733.76,607.05,728.94,605.47,717.76,599.78Z"/><path class="cls-12" d="M747.32,491.5c-43.6-1.65-55.49,8.92-97.76,5.12C594.61,491.69,553,480.44,535.45,472s-31.88-12.06-48.06,2.31a306.56,306.56,0,0,1-29.67,23.39c30.83,5,41.84,6.06,60.77,6.06s99.08-1.1,112.62-.88,24.45,2.75,31.71,10c0,0,21.91,29.17,28.51,38.53,4.73,6.69,15,20.58,23.4,31.45,18.61-1.6,53.45-5.16,77-16.51,29.31-14.11,33.27-27.16,36.49-35.58C820.47,508.68,790.91,493.16,747.32,491.5Z"/><path class="cls-6" d="M634,531.09a14.6,14.6,0,0,1-12.42,4.39,10.31,10.31,0,0,1-8.68-8.49c-.19-1.28-2.12-.76-1.93.5a12.25,12.25,0,0,0,9.85,9.88c5.46,1.11,10.82-1.18,14.7-5C636.46,531.5,634.94,530.19,634,531.09Z"/><path class="cls-14" d="M791.74,566.39c29.31-14.11,33.27-27.16,36.49-35.58-.16-.46-.34-.92-.52-1.37-8.75,5.85-20.51,11.82-36.3,17.06-54.83,18.16-68.37,18.82-86.86,13.21L702,566c4.13,5.57,8.68,11.6,12.78,16.91C733.34,581.3,768.18,577.74,791.74,566.39Z"/><path class="cls-14" d="M535.45,472c-17.51-8.42-31.88-12.06-48.06,2.31a306.56,306.56,0,0,1-29.67,23.39c30.83,5,41.84,6.06,60.77,6.06,13.32,0,56.89-.54,86.3-.79,0,0,23-1.71,37.17-7.1C590.78,490.64,552.13,480.05,535.45,472Z"/><path class="cls-6" d="M714.73,582.9c5.6-.48,12.69-1.14,20.48-2.14-11.76-11.11-31.89-27.34-38.84-33.37-12.14-10.56-31.7-34.38-31.7-34.38-6.58-7.58-16.55-10.88-33.56-11.11-13.54-.18-93.68.88-112.62.88-17.77,0-42.15-2.88-57.8-7.12-1.9,1.35-3,2.06-3,2.06,30.83,5,41.84,6.06,60.77,6.06s99.08-1.1,112.62-.88,24.45,2.75,31.71,10c0,0,21.91,29.17,28.51,38.53C696.06,558.14,706.35,572,714.73,582.9Z"/></g><g id="IQ-Bar"><polygon class="cls-6" points="207.52 608.72 118.31 596.78 125.1 575.99 208.09 602.81 207.52 608.72"/><rect class="cls-17" x="153.66" y="542.96" width="32.27" height="83.45" transform="translate(-434.97 654.97) rotate(-80.44)"/><polygon class="cls-18" points="208.26 607.52 213.62 575.7 175.47 569.27 205.88 607.12 208.26 607.52"/><rect class="cls-18" x="117.9" y="573.19" width="32.27" height="10.92" transform="translate(-458.84 614.69) rotate(-80.44)"/><path class="cls-18" d="M214,615.44a2.59,2.59,0,0,0,4.27-1.57l5.31-41.07a2.23,2.23,0,0,0-2.79-2.92l-11.73,5-33.48-5.62L206,607.15Z"/><path class="cls-18" d="M115.77,598.9a2.58,2.58,0,0,1-3.51-2.88l8.43-40.55a2.23,2.23,0,0,1,3.6-1.84l9.44,8.57,4.26.73-12,30.73Z"/><path class="cls-19" d="M136,567.47a3.6,3.6,0,0,0-.92-2.37.7.7,0,0,0-.29-.73.16.16,0,0,0-.22,0c-.05.07,0,.16.06.24a.26.26,0,0,1,.14.19,1.49,1.49,0,0,1,0,.19s0,0,0,0c-.52.1-1.21,1-1.66,1.94a1.45,1.45,0,0,0,1.11,2h0A1.45,1.45,0,0,0,136,567.47Zm-1.58.61h0a.62.62,0,0,1-.48-.79c.08-.47.43-.8.74-.75h0c.3.05.53.48.45,1A.63.63,0,0,1,134.43,568.08Zm.51.52h0a.13.13,0,0,1-.11-.11.13.13,0,0,1,.11-.14.67.67,0,0,0,.55-.6.12.12,0,0,1,.15-.1.12.12,0,0,1,.1.14A.94.94,0,0,1,134.94,568.6Z"/><text class="cls-20" transform="translate(130.88 570.87) rotate(9.56)">KETO</text><path class="cls-19" d="M131.63,585.32a.15.15,0,0,0-.21,0h0c-.07.05-1.72,1.27-1.86,2.12a1.6,1.6,0,0,0,1.16,1.82h0l.08-.48,0,0-.61-.84a.1.1,0,0,1,0-.09.08.08,0,0,1,0-.08h.1a.1.1,0,0,1,.07,0l.48.67.11-.6-.34-.5a.12.12,0,0,1,0-.1.1.1,0,0,1,.05-.08h.1s.05,0,.07,0l.2.28.15-.93a.16.16,0,0,1,.07-.09h.08a.12.12,0,0,1,.1.14l-.16,1,.3-.22h.1a.12.12,0,0,1,.07.05.09.09,0,0,1,0,.09.1.1,0,0,1-.05.08l-.5.38-.1.57.66-.46h0l0,0h.08a.12.12,0,0,1,.07,0,.1.1,0,0,1,0,.09.1.1,0,0,1,0,.08l-.86.6-.08.49h0a1.61,1.61,0,0,0,1.69-1.34C132.84,587.08,131.68,585.39,131.63,585.32Z"/><text class="cls-20" transform="translate(126.61 590.93) rotate(9.56)"><tspan class="cls-21">V</tspan><tspan x="1.57" y="0">EGAN</tspan></text><path class="cls-19" d="M134.53,577.39l.07-.45-2.91-.5-.43.47,0,0a.16.16,0,0,1-.15,0l-.34-.05.64-.78-.37-.95.35,0a.18.18,0,0,1,.15.13l.26.58h0l2.91.5.07-.45a.22.22,0,0,1,.12-.16.17.17,0,0,1,.18,0l1.22.9a.19.19,0,0,1,.07.2.2.2,0,0,1-.08.14l0,0-1.44.47a.17.17,0,0,1-.18,0A.22.22,0,0,1,134.53,577.39Z"/><polygon class="cls-19" points="130.76 576.04 130.39 575.1 130.74 575.15 131.11 576.1 130.47 576.88 130.12 576.83 130.76 576.04"/><path class="cls-19" d="M130.5,576l-.64.78h-.11a.18.18,0,0,1-.14-.13.23.23,0,0,1,0-.21l.4-.5-.22-.61a.26.26,0,0,1,0-.21A.22.22,0,0,1,130,575h.1Z"/><text class="cls-22" transform="translate(128.35 580.47) rotate(9.56)">FRIEND<tspan class="cls-23" x="5.89" y="0">L</tspan><tspan x="6.66" y="0">Y</tspan></text><text class="cls-20" transform="translate(128.78 579.01) rotate(9.56)"><tspan class="cls-24">P</tspan><tspan x="1.43" y="0">ALEO</tspan></text><path d="M144.68,573.46l1.65.28-1.45,8.57-1.65-.28Z"/><path d="M150.12,583.2a4.35,4.35,0,1,1,5-3.57,4.29,4.29,0,0,1-1.11,2.24l1.12,2.17-2.06-.34-.43-.84A4.34,4.34,0,0,1,150.12,583.2Zm1.17-6.93a2.67,2.67,0,0,0-2.62,4.19,2.63,2.63,0,0,0,1.73,1.09,2.69,2.69,0,0,0,3.09-2.19,2.7,2.7,0,0,0-2.2-3.09Z"/><polygon points="151.15 571.52 152.99 571.83 152.27 573.82 151.28 573.65 151.15 571.52"/><polygon points="147.07 572.46 148.78 571.73 149.26 573.79 148.33 574.18 147.07 572.46"/><polygon points="156.53 574.05 155.16 572.8 154.03 574.59 154.78 575.27 156.53 574.05"/><path d="M154.94,589.48a.37.37,0,0,1-.31-.44.38.38,0,1,1,.75.13A.37.37,0,0,1,154.94,589.48Zm.12-.69a.32.32,0,1,0,.26.37A.32.32,0,0,0,155.06,588.79Zm0,.55-.08-.19h-.07l0,.17h-.07l.08-.43.17,0a.13.13,0,0,1,.12.15.11.11,0,0,1-.13.11l.09.19Zm0-.39-.11,0,0,.15.11,0a.07.07,0,0,0,.09-.06A.09.09,0,0,0,155.06,589Z"/><path d="M145.83,586.59a1.29,1.29,0,0,1-.54.87,1.31,1.31,0,0,1-1,.23l-1.95-.33.7-4.16,2,.33a1.18,1.18,0,0,1,1,1.36,1.17,1.17,0,0,1-.38.68A1.25,1.25,0,0,1,145.83,586.59Zm-2.25-1.73,1.16.19A.32.32,0,0,0,145,585a.38.38,0,0,0,.15-.24.42.42,0,0,0-.06-.27.38.38,0,0,0-.24-.15l-1.16-.19Zm-.31,1.83,1.16.2a.54.54,0,0,0,.39-.09.5.5,0,0,0,.21-.34.45.45,0,0,0-.09-.39.47.47,0,0,0-.34-.22l-1.16-.19Z"/><path d="M150.07,588.66l-.87-.14-.14-.52-1.69-.29-.29.45-.88-.15,2.67-4ZM147.86,587l1,.16-.3-1.18Z"/><path d="M151.69,588.94l-.8-.14.7-4.15,2,.33a1.31,1.31,0,0,1,.87.54,1.35,1.35,0,0,1-.22,1.78,1.23,1.23,0,0,1-.82.33l.9,1.74-1-.17-.89-1.71-.45-.07Zm.39-2.32,1.16.19a.46.46,0,0,0,.39-.09.48.48,0,0,0,.21-.34.49.49,0,0,0-.08-.39.55.55,0,0,0-.35-.22l-1.15-.19Z"/><text class="cls-25" transform="translate(160.2 578.43) rotate(9.56)">A<tspan class="cls-26" x="2.35" y="0">L</tspan><tspan class="cls-27" x="4.13" y="0">M</tspan><tspan class="cls-28" x="6.98" y="0">O</tspan><tspan class="cls-29" x="9.66" y="0">N</tspan><tspan class="cls-30" x="12.22" y="0">D </tspan><tspan class="cls-31" x="15.36" y="0">B</tspan><tspan class="cls-32" x="17.61" y="0">U</tspan><tspan class="cls-33" x="19.98" y="0">T</tspan><tspan class="cls-34" x="21.89" y="0">T</tspan><tspan class="cls-35" x="23.7" y="0">E</tspan><tspan class="cls-36" x="25.68" y="0">R</tspan><tspan class="cls-37" x="27.89" y="0"> </tspan><tspan class="cls-38" x="28.67" y="0">C</tspan><tspan class="cls-39" x="31.25" y="0">HI</tspan><tspan class="cls-40" x="35.19" y="0">P</tspan></text><line class="cls-41" x1="184.71" y1="590.64" x2="158.78" y2="586.27"/><line class="cls-41" x1="177.92" y1="585.8" x2="159.39" y2="582.67"/><line class="cls-42" x1="190.25" y1="595.28" x2="158.17" y2="589.87"/><text class="cls-43" transform="translate(158.66 585.61) rotate(9.56)">1<tspan class="cls-44" x="1.28" y="0">2g</tspan><tspan class="cls-45" x="4.43" y="0" xml:space="preserve"> Plant-Based P</tspan><tspan class="cls-46" x="20.35" y="0">r</tspan><tspan class="cls-47" x="21.17" y="0">otein</tspan></text><text class="cls-48" transform="translate(159.52 582.05) rotate(9.56)">6<tspan class="cls-49" x="1.57" y="0" xml:space="preserve"> B</tspan><tspan class="cls-50" x="3.78" y="0">r</tspan><tspan class="cls-47" x="4.61" y="0">ain Nutrients</tspan></text><text class="cls-48" transform="translate(158.3 589.25) rotate(9.56)">&lt;1</text><text class="cls-48" transform="translate(160.88 589.68) rotate(9.56)">g<tspan class="cls-49" x="1.57" y="0" xml:space="preserve"> Sugar and </tspan><tspan x="14.6" y="0">3g</tspan><tspan class="cls-49" x="17.75" y="0" xml:space="preserve"> Net Carbs</tspan></text><text class="cls-51" transform="translate(168.66 594.94) rotate(9.56)">NON<tspan class="cls-52" x="3.44" y="0">-</tspan><tspan x="3.91" y="0">GMO</tspan></text><text class="cls-51" transform="translate(157.67 593.09) rotate(9.56)">GLUTEN<tspan class="cls-53" x="5.08" y="0">-</tspan><tspan x="5.55" y="0">FREE</tspan></text><text class="cls-54" transform="translate(168.64 595.09) rotate(9.56)">NON<tspan class="cls-55" x="3.44" y="0">-</tspan><tspan x="3.91" y="0">GMO</tspan></text><text class="cls-54" transform="translate(157.64 593.24) rotate(9.56)">GLUTEN<tspan class="cls-1" x="5.08" y="0">-</tspan><tspan x="5.55" y="0">FREE</tspan></text><text class="cls-54" transform="translate(141.64 590.54) rotate(9.56)">NET W<tspan class="cls-56" x="4.23" y="0">T</tspan><tspan x="4.8" y="0">. </tspan><tspan class="cls-57" x="5.48" y="0">1</tspan><tspan x="6.25" y="0">.6 OZ (45g)</tspan></text><circle class="cls-19" cx="156.35" cy="592.49" r="0.29"/><circle class="cls-19" cx="167.4" cy="594.36" r="0.29"/><circle class="cls-19" cx="177.54" cy="596.06" r="0.29"/><text class="cls-54" transform="translate(178.78 596.8) rotate(9.56)">NO SUGAR A<tspan class="cls-58" x="8.41" y="0">L</tspan><tspan x="8.9" y="0">COHOLS</tspan></text><g class="cls-59"><path class="cls-60" d="M208.76,580.86c-3,1.27-10.39,4.62-12.23,7.62a8.82,8.82,0,0,0-1.09,2.73,7.34,7.34,0,0,0,3.09,8l11.17-18.26A1,1,0,0,0,208.76,580.86Z"/><path class="cls-61" d="M209,596.1c1.55-2.53,1.53-8.66,1.34-12.49-1.78,8.37-5.26,14.95-8.74,16.53A8.16,8.16,0,0,0,209,596.1Z"/><path class="cls-60" d="M210.3,583.6c0-.72-.08-1.35-.12-1.87a.88.88,0,0,0-.07-.33,1,1,0,0,0-.41-.48l-11.17,18.26a6.69,6.69,0,0,0,3,1C205,598.55,208.52,592,210.3,583.6Z"/><line class="cls-62" x1="198.11" y1="599.86" x2="210.95" y2="578.88"/><path class="cls-62" d="M211,579.46c-1.56,11.56-6.47,21-11,21"/><path class="cls-62" d="M210.41,579.08c-9.59,6.65-15.73,15.31-13.74,19.35"/></g><path class="cls-63" d="M213.68,599.82a7.91,7.91,0,0,0-1-2,7.13,7.13,0,0,1-.87-1.46,2.19,2.19,0,0,1-.1-1.72,1.15,1.15,0,0,0,.08-.41.32.32,0,0,0-.44-.36,1.11,1.11,0,0,0-.29.14l-.41.28-1.47,8.74a7,7,0,0,0,2.54,0,2.7,2.7,0,0,0,1.9-1.36A2.25,2.25,0,0,0,213.68,599.82Z"/><path class="cls-64" d="M207.53,596.84a10.39,10.39,0,0,0-1.55,1.63,3.32,3.32,0,0,0-.58,1.23,2.07,2.07,0,0,0,.51,1.75,4.43,4.43,0,0,0,2.18,1.36c.34.11.69.18,1,.27h0l1.47-8.74A33.43,33.43,0,0,0,207.53,596.84Z"/></g></g></svg>