<svg xmlns="http://www.w3.org/2000/svg" xmlns:xlink="http://www.w3.org/1999/xlink" viewBox="0 0 1011.74 658.64"><defs><style>.cls-1,.cls-19,.cls-28,.cls-3,.cls-36,.cls-54,.cls-63,.cls-9{fill:none;}.cls-2{fill:#6fe9b8;}.cls-3{stroke:#feffff;}.cls-19,.cls-3,.cls-9{stroke-linecap:round;stroke-linejoin:round;}.cls-3,.cls-9{stroke-width:2.66px;}.cls-4{fill:#0f6bd4;}.cls-5{fill:#032089;}.cls-6{fill:#d9baf9;}.cls-7{fill:#8f65e1;}.cls-8{clip-path:url(#clip-path);}.cls-9{stroke:#032089;}.cls-10{fill:#f57158;}.cls-11{fill:#9a3d01;}.cls-12{clip-path:url(#clip-path-2);}.cls-13{fill:#d86146;}.cls-14{clip-path:url(#clip-path-3);}.cls-15{clip-path:url(#clip-path-4);}.cls-16{fill:#fece3a;}.cls-17{fill:#feffff;}.cls-18{clip-path:url(#clip-path-5);}.cls-19{stroke:#8f65e1;stroke-width:1.92px;}.cls-20,.cls-23,.cls-25,.cls-42,.cls-55,.cls-60{fill:#234a99;}.cls-21{fill:#fff;}.cls-22{fill:#a5d17c;}.cls-23{font-size:1.94px;}.cls-23,.cls-25,.cls-42{font-family:Intro, Intro ;}.cls-24{letter-spacing:0.01em;}.cls-25{font-size:1.35px;}.cls-26{letter-spacing:-0.05em;}.cls-27{letter-spacing:-0.05em;}.cls-28,.cls-30{font-size:1.29px;}.cls-28,.cls-30,.cls-57,.cls-58,.cls-59,.cls-61,.cls-62{font-family:FuturaNewBook-Reg, Futura New;}.cls-29{fill:#000;}.cls-31{letter-spacing:-0.04em;}.cls-32{letter-spacing:-0.05em;}.cls-33{letter-spacing:-0.03em;}.cls-34{fill:#c8df8e;}.cls-35{clip-path:url(#clip-path-6);}.cls-36{stroke:#5a803a;stroke-width:0.46px;}.cls-36,.cls-54,.cls-63{stroke-miterlimit:10;}.cls-37{fill:#5a8039;}.cls-38{fill:#000803;}.cls-39{fill:#686e70;}.cls-40{fill:#224998;}.cls-41{fill:#6ba6d9;}.cls-42{font-size:3.1px;letter-spacing:0.06em;}.cls-43{letter-spacing:0.05em;}.cls-44{letter-spacing:0.03em;}.cls-45{letter-spacing:0.01em;}.cls-46{letter-spacing:0.04em;}.cls-47{letter-spacing:0.03em;}.cls-48{letter-spacing:0.04em;}.cls-49{letter-spacing:0.04em;}.cls-50{letter-spacing:0.04em;}.cls-51{letter-spacing:0.04em;}.cls-52{letter-spacing:0.04em;}.cls-53{letter-spacing:0.02em;}.cls-54,.cls-63{stroke:#6ca5d9;}.cls-54{stroke-width:0.26px;}.cls-55,.cls-60{font-size:2.21px;font-family:FuturaNewDemi-Reg, Futura New;}.cls-55{letter-spacing:-0.06em;}.cls-56,.cls-57{letter-spacing:0.06em;}.cls-58{letter-spacing:0.03em;}.cls-59,.cls-64{letter-spacing:0.06em;}.cls-60{letter-spacing:0.05em;}.cls-61{letter-spacing:0.03em;}.cls-63{stroke-width:0.26px;}</style><clipPath id="clip-path"><path class="cls-1" d="M800.63,361.85l-34.75,81.56H637.52l-11.14-18.32-.54,1.21L624,430.46l-67.32-22.61s10.67-54.69,18.31-79.2,10.09-30.86,24-35.79,61.48-18.31,61.48-18.31c15.61-4.92,21.58-6.56,37.2-10.91s36.71-1.88,47.16,11.15S800.63,361.85,800.63,361.85Z"/></clipPath><clipPath id="clip-path-2"><path class="cls-1" d="M525.86,462.31c-9.89-.22-19-.37-25.36-.43-3.77,0-6.62,0-8.13.07-10,.46-17.26,2.34-26.53,8.33a108.4,108.4,0,0,0-12.92,10.84c-7.4-13.59-9.22-19.49-14-32.09-5.46-14.43-25.17-65.59-32.56-87.88s-20.59-61.39-25-85.32-6.11-42,.23-64.42c0,0,3.05-12.3,16.19-29.08s15.72-17.71,24.29-14.43c8.31,3.19,13.2,10.56,18.08,17.53l.45.65c5.06,7.17,3.88,17.14,3.88,17.14s7.16-3.76,14-3.88,8.79,3.29,5.74,7.52-17.36,18.77-20.88,27.8-2.82,24.52,3.17,39.78,24.46,59.31,30.62,75.68,14.08,35.49,21.29,52.41C503.76,415.05,518.53,446.68,525.86,462.31Z"/></clipPath><clipPath id="clip-path-3"><path class="cls-1" d="M598.92,135.4c-7.13,11.7-10,17.74-18.48,23.26-13.64,8.86-25.17,11.84-35.82,21.31-6.46,5.75-12.14,13.33-14.69,21-3.68,11-4,23.58-4,23.58H620.3l-.88-48.75Z"/></clipPath><clipPath id="clip-path-4"><path class="cls-1" d="M740.78,224.55h-2.46a109.09,109.09,0,0,0-1.41-12.07c-1.77-9.67-9.57-17.37-15.32-21.73-8-6.07-20.42-11-25.88-15.4-7.37-5.95-17-23-17-23s5.36,16.19,13.37,23.41,17.9,9.71,28.43,17.42c9.44,6.92,12.23,13.91,13.64,20.07a63,63,0,0,1,1.12,11.27H661.23c-13-17.87-10.57-46.74-9.51-53.25,1.3-8,6.95-15.57-3.61-16.37s-25.87-4.22-31.24-6.41-13.64-9.69-18-14c0,0,1.58-4.92,8.27-10.47a43.1,43.1,0,0,1,28.51-9.42c11.45.44,20,5,28.16,13.55s17.87,24.82,24.47,34.68,12.57,13.86,22.26,18.57c9.13,4.42,20.91,14,25.61,22S740.78,224.55,740.78,224.55Z"/></clipPath><clipPath id="clip-path-5"><path class="cls-1" d="M863.89,515a34.63,34.63,0,0,1-5.37,9.52c-11.8,14.61-30.8,17.25-48.41,17.25s-44-.18-61.24-1.23-75.32-4.76-115.81-6.87c-35.14-1.83-97.58-4.06-113.46-4.62l-3.75-.13c8.27,5.29,15,7.86,21.94,10.91,4.38,1.93,7,3.24,8.14,4.76a3.5,3.5,0,0,1,.66,3c-.67,3.58-4.11,7.74-17.37,6.33s-21.7-4.45-36.37-8.92-47.16-17.83-47.16-17.83-17.38,13.84-25,19.72-12.55,8.32-16.3,5.51a4.06,4.06,0,0,1-1.6-3.48c0-3.21,2.45-7.45,4.65-10.95A289.26,289.26,0,0,1,426.56,512a370.4,370.4,0,0,1,27.55-28.78,105.87,105.87,0,0,1,12.45-10.41c9.28-6,16.56-7.87,26.53-8.34,1.6-.07,4.68-.08,8.78-.05,6.46.05,15.45.21,25.2.43,22.62.48,49.3,1.19,57.77,1.27,14.43.11,90.58,3.17,113,4.23l83.3,3.87c-.59-.87-1.19-1.74-1.78-2.63-13-19.35-27.51-44.15-42.45-70.65.1-.23.21-.48.32-.71,4.77-10.8,9.1-18.57,15.45-24.63.88-.85,1.8-1.66,2.77-2.44s2-1.53,3-2.25c.26-.19.54-.37.83-.56.48-.32,1-.63,1.48-.93a53.83,53.83,0,0,1,4.79-2.61,57.64,57.64,0,0,1,26.53-5.68,50.55,50.55,0,0,1,8.51.85l.65,1.08.37.63c.13.22.28.45.43.71s.15.25.23.39c.2.36.43.72.66,1.1s.44.74.67,1.13c-11.6-.71-19.88-.73-26.43-.05l-.88.09c5.21,8,25.07,38.62,37.43,60.69,14.31,25.58,36.76,63.91,43.17,76.24a77.83,77.83,0,0,0,5.83,9.43C863.14,514,863.52,514.51,863.89,515Z"/></clipPath><clipPath id="clip-path-6"><path class="cls-1" d="M442.18,188.89a10.29,10.29,0,0,0,4.86,7.57l-1.92-16.08A10.28,10.28,0,0,0,442.18,188.89Z"/></clipPath></defs><g id="Layer_2" data-name="Layer 2"><g id="BG"><path class="cls-2" d="M0,658.64c20.42-16.72,92.87-33,133.7-64.83,42.56-33.15,39-64.88,85-113,85.24-89,181.09-59.64,256.18-125.53C572.09,270,552,238.92,638.75,160.22,736.19,71.81,812.47,97,867.2,50.26,918.88,6.1,927.8,2.35,950.33,0V658.64Z"/><polygon class="cls-3" points="770.69 337.8 903.04 337.8 837.92 554.2 761.5 554.09 770.69 337.8"/><line class="cls-3" x1="887.2" y1="337.8" x2="821.76" y2="554.18"/><path class="cls-4" d="M776.88,87.47,950.33,335.86V0C927.8,2.35,918.88,6.1,867.2,50.26,841.74,72,811.62,78.18,776.88,87.47Z"/><path class="cls-5" d="M950.33,176.33V0c-18,1.87-27.26,4.63-56.45,28Z"/></g><g id="Character"><path class="cls-5" d="M348,515c13.61-15.41,28.85-27.45,43.41-32.54,18.07-6.32,63.71,7.33,80.56,8.92L789,521.13l10.21,33.07L359,552.87Z"/><path class="cls-6" d="M800.63,361.85l-34.75,81.56H637.52l-11.14-18.32-.54,1.21L624,430.46l-67.32-22.61s10.67-54.69,18.31-79.2,10.09-30.86,24-35.79,61.48-18.31,61.48-18.31c15.61-4.92,21.58-6.56,37.2-10.91s36.71-1.88,47.16,11.15S800.63,361.85,800.63,361.85Z"/><path class="cls-7" d="M624,430.46c-3.08-1.79-12.17-11.7-22.26-15.93l-6.91-39.92c.32.85,5.35,14.66,9.47,21.13,3.6,5.64,17.31,24.7,21.54,30.56Z"/><g class="cls-8"><line class="cls-3" x1="607.19" y1="305.59" x2="630.78" y2="310.52"/><line class="cls-3" x1="702.76" y1="283.77" x2="725.64" y2="296.44"/><path class="cls-3" d="M739.37,347c.52.35,27.28-5.63,27.28-5.63"/><path class="cls-3" d="M675.48,357.69c.53,0,20.41,23.05,20.41,23.05"/><line class="cls-3" x1="642.39" y1="348.36" x2="635.53" y2="376.52"/><line class="cls-3" x1="604.92" y1="396.69" x2="630.78" y2="402.53"/><line class="cls-3" x1="705.05" y1="423.33" x2="726.52" y2="402.53"/><circle class="cls-3" cx="678.01" cy="317.18" r="16.7"/><circle class="cls-3" cx="761.8" cy="307.51" r="15.7"/><circle class="cls-3" cx="666.77" cy="409.07" r="15.7"/><circle class="cls-3" cx="612.91" cy="344.48" r="14.26"/><circle class="cls-3" cx="564.62" cy="406.79" r="21.03"/><path class="cls-9" d="M590.82,347c.53,15.14,1.1,24.74,11.8,45.76,4.92,9.68,22.89,33.57,22.89,33.57"/></g><path class="cls-10" d="M624,430.46c-.89,3.84-5.55,23.09-8,33.12-.89,3.66-1.49,6.1-1.49,6.1l-73,1.64,2.13-8.94c4.18-17.53,13.05-54.76,13.2-55.46,25.17-1.75,34.77,3.39,44.87,7.61S624,430.46,624,430.46Z"/><path class="cls-5" d="M616,463.58c-.89,3.66-1.49,6.1-1.49,6.1l-73,1.64,2.13-8.94Z"/><path class="cls-11" d="M601.74,414.53c-7.54-3.15-14.82-6.82-28.51-7.74,14.89,3.81,32,8.32,49.57,28.75.56-2.35,1-4.16,1.2-5.08C624.67,427.56,611.83,418.76,601.74,414.53Z"/><polygon class="cls-7" points="711.31 351.68 739.89 443.41 761.5 443.41 711.31 351.68"/><line class="cls-9" x1="702.76" y1="336.04" x2="737.96" y2="400.45"/><path class="cls-5" d="M637.52,443.41a58.62,58.62,0,0,1,1.29,13.48c-.35,6.1-1.87,14.43-1.87,14.43l152.06,10-23.11-37.88Z"/><path class="cls-2" d="M638.86,454.74l12.38.37h0a1.33,1.33,0,0,0,0-2.66l-12.57-.38C638.81,453,638.85,453.85,638.86,454.74Z"/><path class="cls-2" d="M737.46,453.86a1.33,1.33,0,0,0,.06,2.66h.06l31.15-1.34-1.62-2.59Z"/><path class="cls-5" d="M527.07,464.89c-9.75-.22-18.74-.38-25.2-.43-4.1,0-7.18,0-8.78.05-10,.47-17.25,2.35-26.53,8.34a105.87,105.87,0,0,0-12.45,10.41c-.41-.73-.8-1.45-1.19-2.14a108.4,108.4,0,0,1,12.92-10.84c9.27-6,16.55-7.87,26.53-8.33,1.51-.08,4.36-.09,8.13-.07,6.39.06,15.47.21,25.36.43C526.29,463.22,526.7,464.09,527.07,464.89Z"/><path class="cls-10" d="M525.86,462.31c-9.89-.22-19-.37-25.36-.43-3.77,0-6.62,0-8.13.07-10,.46-17.26,2.34-26.53,8.33a108.4,108.4,0,0,0-12.92,10.84c-7.4-13.59-9.22-19.49-14-32.09-5.46-14.43-25.17-65.59-32.56-87.88s-20.59-61.39-25-85.32-6.11-42,.23-64.42c0,0,3.05-12.3,16.19-29.08s15.72-17.71,24.29-14.43c8.31,3.19,13.2,10.56,18.08,17.53l.45.65c5.06,7.17,3.88,17.14,3.88,17.14s7.16-3.76,14-3.88,8.79,3.29,5.74,7.52-17.36,18.77-20.88,27.8-2.82,24.52,3.17,39.78,24.46,59.31,30.62,75.68,14.08,35.49,21.29,52.41C503.76,415.05,518.53,446.68,525.86,462.31Z"/><g class="cls-12"><path class="cls-9" d="M376.81,224a173.56,173.56,0,0,1,21.71-13.26c4.4-2.15,5.51-4.11,12.2,1.76s8.21,7,8.21,7"/><path class="cls-9" d="M381.27,205.21a232.54,232.54,0,0,1,24.05-9.5c4.58-1.48,8.22-2,10.09,0s3.52,4.22,5,12.89"/><path class="cls-9" d="M397.11,180c7,0,24.87-1.19,35.67,14.43"/></g><path class="cls-13" d="M525.86,462.31c-9.89-.22-19-.37-25.36-.43C482.62,428.26,476,409.62,462,367.2c-16.19-49.11-27.8-104-31.67-132.54-2.72-19.93,5-39.36,9.86-49.23l.45.65c5.06,7.17,3.88,17.14,3.88,17.14s7.16-3.76,14-3.88,8.79,3.29,5.74,7.52-17.36,18.77-20.88,27.8-2.82,24.52,3.17,39.78,24.46,59.31,30.62,75.68,14.08,35.49,21.29,52.41C503.76,415.05,518.53,446.68,525.86,462.31Z"/><path class="cls-5" d="M598.92,135.4c-7.13,11.7-10,17.74-18.48,23.26-13.64,8.86-25.17,11.84-35.82,21.31-6.46,5.75-12.14,13.33-14.69,21-3.68,11-4,23.58-4,23.58H620.3l-.88-48.75Z"/><g class="cls-14"><path class="cls-4" d="M573.24,182.22a2.48,2.48,0,0,1-1.73-.47,2,2,0,0,1-.53-.56,2.48,2.48,0,0,0-.25-.3c.21-.34.24-.41.1-.19s-.56.72-.74.89a3.87,3.87,0,0,1-.67.54,1.8,1.8,0,0,1-1.32.22c-.93-.25-1.19-1.25-1.46-2-.08-.22-.18-.45-.24-.67v0c-.19.29-.51.62-.64.82a4,4,0,0,1-2,1.9,1.06,1.06,0,0,1-1.2-.49,3.47,3.47,0,0,1-.37-1,4,4,0,0,1-2.37,2.23,1.08,1.08,0,0,1-1.35-1,10.34,10.34,0,0,1,.27-1.91,3.52,3.52,0,0,1-2.06,1.74,1.08,1.08,0,0,1-1.31-1.31c0-.15.06-.3.08-.46a4.56,4.56,0,0,1-1.12,1.25c-.78.58-1.79-.39-1.57-1.21s.51-1.92.77-2.87c-.59,1.21-1.16,2.43-1.72,3.65s-2.29.31-1.95-.82c.53-1.77,1-3.55,1.59-5.31l-.15.42c-1,2.67-1.37,5.64-3.12,8-.48.63-1.8.77-1.95-.25a11.5,11.5,0,0,1,.76-5.5c.15-.45.32-.9.48-1.35-.2.43-.4.86-.59,1.29-.71,1.66-1.06,3.43-2,5a1.08,1.08,0,0,1-1.95-.26c-.6-1.93.16-4,.78-5.88a29.3,29.3,0,0,1,3-6.78c.73-1.14,2.54-.11,1.86,1a1.08,1.08,0,0,1,1.72.53c0,.22.07.43.09.65.64-1.7,1.54-3.45,3.2-4a1.08,1.08,0,0,1,1.35,1,6.78,6.78,0,0,1,0,1.35,5,5,0,0,1,1.29-1.23,1.07,1.07,0,0,1,1.6.92,6,6,0,0,1-.16,1.84,1.07,1.07,0,0,1,1.54,1,16.83,16.83,0,0,1-.33,2.44c.19-.48.39-1,.62-1.42a1.08,1.08,0,0,1,1.84,0,4.3,4.3,0,0,1,.56,2.5q.12-.27.27-.54a1.08,1.08,0,0,1,1.84,0,4.47,4.47,0,0,1,.43,2.52c0,.33-.1.7-.15,1.08a6.61,6.61,0,0,1,.47-.78,2.09,2.09,0,0,1,2.11-.95,2.84,2.84,0,0,1,1.74,2c0,.07.13.34.24.6l.08-.07c.16-.19.27-.41.43-.6a1.89,1.89,0,0,1,2.74,0c.43.35.58.88,1.18.88,0,0,.75,0,.75,1.08S573.24,182.22,573.24,182.22Z"/></g><path class="cls-10" d="M619.69,286.23c2,11.79,5.45,27.9,7.3,31.77a9,9,0,0,0,10.47,4.93c4.49-1.15,10.12-3.79,31.51-50.69,0,0-6.08-11.09-7.75-47.7s-1.76-39.77-1.76-39.77l15.14-11.09-2.82-25.26-39.16-4.57-33.7-9.33c-1.23,1.23-1.67,3.34-2.38,6.78s-3.31,17.27-13.11,26.6c-1.67,1.67-.88,3.35,1,3.82s4.69,1.34,4.69,1.34-5,12.21-7.8,21.07-1.35,15.13-.12,17.42,3.7,5.69,10.33,4.63,23.64-6.63,23.64-6.63C616.12,235.78,617.57,261.48,619.69,286.23Z"/><path class="cls-13" d="M661.22,224.54c-.48-10.5-.83-18.24-1.08-24l-5.43.64c-.5,27.56-2,50.59,0,100.24,3.78-7.06,8.41-16.51,14.21-29.22C669,272.24,662.89,261.15,661.22,224.54Z"/><path class="cls-5" d="M740.78,224.55h-2.46a109.09,109.09,0,0,0-1.41-12.07c-1.77-9.67-9.57-17.37-15.32-21.73-8-6.07-20.42-11-25.88-15.4-7.37-5.95-17-23-17-23s5.36,16.19,13.37,23.41,17.9,9.71,28.43,17.42c9.44,6.92,12.23,13.91,13.64,20.07a63,63,0,0,1,1.12,11.27H661.23c-13-17.87-10.57-46.74-9.51-53.25,1.3-8,6.95-15.57-3.61-16.37s-25.87-4.22-31.24-6.41-13.64-9.69-18-14c0,0,1.58-4.92,8.27-10.47a43.1,43.1,0,0,1,28.51-9.42c11.45.44,20,5,28.16,13.55s17.87,24.82,24.47,34.68,12.57,13.86,22.26,18.57c9.13,4.42,20.91,14,25.61,22S740.78,224.55,740.78,224.55Z"/><g class="cls-15"><path class="cls-4" d="M640,130.64a4.26,4.26,0,0,1-1,1.4c-.53.4-1.17.31-1.76.53a2.41,2.41,0,0,0-1.37,1.27,7.61,7.61,0,0,1-.31.79l-.06.08c-.06,0-.1,0,0,0-.14,0-.27-.24-.41-.31a1.21,1.21,0,0,0-.62-.15c-1.11,0-1.68,1.09-1.92,2a1.09,1.09,0,0,0-.05.17,2.16,2.16,0,0,0-1.16-.67,1.1,1.1,0,0,0-1.31.75,8.13,8.13,0,0,0-.27,1.71c0,.11,0,.21,0,.32l-.06-.1a3.19,3.19,0,0,0-1.25-1.51,1.08,1.08,0,0,0-1.56.64,2.5,2.5,0,0,0-.17.65c-.06-.05-.11-.11-.16-.16a1.08,1.08,0,0,0-1.78.47,3.93,3.93,0,0,0-.14,1.09,3.44,3.44,0,0,0-1.06-1,1.08,1.08,0,0,0-1.61.92,14,14,0,0,0,0,1.94v.33l-.25-.47c-.16-.33-.31-.66-.46-1l-.31-.74c-.5-1.16-2.19-.3-2,.82,0,.14.07.29.1.43l-.3-1.08a1.06,1.06,0,0,0-2.05.57c.1.44.2.91.31,1.37a7,7,0,0,0-1.42-2.09,1.13,1.13,0,0,0-1.66.2,1.16,1.16,0,0,0-1.17-.41,1.09,1.09,0,0,0-.75,1.31c.24,1.71,1.25,3.21,1.92,4.78a14.57,14.57,0,0,0,2.33,4.21,1.07,1.07,0,0,0,1.67-.22,4.85,4.85,0,0,0-.17-3.47,1.09,1.09,0,0,0,.83,0l.09.15c.59.91,1.79,1.56,2.68.58a2.76,2.76,0,0,0,.54-2.1,1.53,1.53,0,0,0,.61.05c1.23-.18,1.51-1.27,1.54-2.46a2.32,2.32,0,0,0,1.2.4,1,1,0,0,0,.92-.53,4,4,0,0,0,.27-.78,1.09,1.09,0,0,0,1.43-.06,2.31,2.31,0,0,0,.53-.77,1.77,1.77,0,0,0,2.25.65,2.83,2.83,0,0,0,1.11-2.36,1.34,1.34,0,0,0,1.08.33,1.94,1.94,0,0,0,1.37-1.32,5.36,5.36,0,0,0,.34-1c0-.06,0-.13.07-.2l.26.08a4.14,4.14,0,0,0,.91.21c.92,0,1.56-1.07,1.84-1.8.15-.38.15-.54.56-.62a5.4,5.4,0,0,0,1.66-.5,5.68,5.68,0,0,0,2-2.31A1.06,1.06,0,0,0,640,130.64Z"/><path class="cls-4" d="M714.87,172.78a50.93,50.93,0,0,1-2.08,5.21,14.76,14.76,0,0,1-1.49,3c-.71-2-.58-4.6-2.84-5.46a1.1,1.1,0,0,0-1.21.49c-1.13,1.85-1.25,4-1.63,6.06-.09.55-.4,1.22-.55,1.84a3.89,3.89,0,0,1-.12-.49,45.23,45.23,0,0,1-.35-4.66c-.14-1.9-.06-3.89-1.16-5.53a1.09,1.09,0,0,0-2,.26c-.8,2.05-.52,4.37-.53,6.54-.16-2.7-.39-5.37-2-7.71a1.1,1.1,0,0,0-1.46-.38c-1.88,1.09-1.41,4.4-1.36,6.2a28.11,28.11,0,0,1-.12,5.47c0-.79.06-1.6,0-2.11,0-1.74.12-3.69-.82-5.23a1.06,1.06,0,0,0-1.83,0,19.27,19.27,0,0,0-.44-2.72,1.07,1.07,0,0,0-2,0c-.58,2.34-.31,4.78-.5,7.16a21.09,21.09,0,0,1-.35,3.29,21.51,21.51,0,0,1-.11-3.66c0-2.56,0-5.12,0-7.68a1.07,1.07,0,0,0-2.13,0c.06,2.43-.61,4.81-.78,7.23-.05.56-.08,1.14-.11,1.72a8.44,8.44,0,0,0-.21-.9,1.08,1.08,0,0,0-2-.26,3,3,0,0,0-.24.72v-.84a16.38,16.38,0,0,0-.28-3.43,1,1,0,0,0-1.16-.76,14,14,0,0,0,.53-3.71,1.07,1.07,0,0,0-2.09-.29c-.37,1.17-.41,2.38-.67,3.56a13.72,13.72,0,0,1-1.41,3.52,28,28,0,0,1-1.66,2.91,2.13,2.13,0,0,1-.23.26c-.16-.17-.32-.31-.39-.38a1.08,1.08,0,0,0-1.48,0,1.34,1.34,0,0,0-.76-.87,1.28,1.28,0,0,0-1.53.23c-.28-.62-.59-1.18-1.49-1.2a1.74,1.74,0,0,0-1.21.5,2,2,0,0,0-.41.52c-.56-.79-1.19-1.43-2.3-1a1.51,1.51,0,0,0-.36.18,1.07,1.07,0,0,0-2.11.17,7.79,7.79,0,0,0,.53,3.1c.26.66,1.23,1.17,1.78.47a3.77,3.77,0,0,0,.6-1,4,4,0,0,0,.15-.39,2.85,2.85,0,0,0,1.7.87,2.18,2.18,0,0,0,1.52-.73,4.4,4.4,0,0,0,.69,1.16,1.08,1.08,0,0,0,1.43.05,2.61,2.61,0,0,0,.44.9,1.09,1.09,0,0,0,1.84,0c.08-.11.16-.23.23-.35a1.1,1.1,0,0,0,1.33.47c1.23-.36,2.06-2,2.63-3.06l.33-.61c0,.1,0,.2.08.3a1.13,1.13,0,0,0,1.72.55,5.74,5.74,0,0,0,1.14,3.19,1.1,1.1,0,0,0,1.5,0,4.66,4.66,0,0,0,.95,2.42,1.07,1.07,0,0,0,1.67-.21,11.69,11.69,0,0,0,.6-1.65,5.25,5.25,0,0,0,.54,1.12,1.08,1.08,0,0,0,1.67.22,5.06,5.06,0,0,0,1.54-3c.07.11.13.22.2.32a1.08,1.08,0,0,0,1.67.21l0,0a3.69,3.69,0,0,0,1.13,2.72,1.09,1.09,0,0,0,1.67-.22c1.65-2.19,1.36-5.36,1.42-7.94,0-.93,0-1.85,0-2.78,0-.17,0-.53,0-.92,1.18,3.64.33,7.9,1.65,11.53a1.07,1.07,0,0,0,1.78.47,5.54,5.54,0,0,0,1.3-3.14,4.07,4.07,0,0,0,.9,1.81c1.55,1.68,2.88-.26,3.34-1.71.63-2,.61-4.22,1.29-6.18a16.15,16.15,0,0,1,.44,1.79,9.1,9.1,0,0,0,1,2.84,1.1,1.1,0,0,0,1.21.49c1.73-.41,2.35-2.21,3.06-3.64a54.85,54.85,0,0,0,2.72-6.6C717.37,172.05,715.31,171.49,714.87,172.78Z"/></g><path class="cls-9" d="M648.9,157.05c.89-3.89,2.29-5.93,7.66-8.71"/><path class="cls-10" d="M669.41,160.22c0,6.1-6.56,10.64-12.85,10.64s-8.18-1.29-8.18-7.39,4-13.9,10.33-13.9A10.31,10.31,0,0,1,669.41,160.22Z"/><circle class="cls-16" cx="660.14" cy="170.5" r="6.48"/><path class="cls-9" d="M600.64,161.43a19.17,19.17,0,0,1,7-1.74,27.57,27.57,0,0,1,6.25,1"/><path class="cls-5" d="M596.4,182.49a1.33,1.33,0,0,0-1.84-.39c-5.8,3.77-8.18,4.09-10.53,4.08-.32.88-.63,1.77-.95,2.65h1c2.56,0,5.53-.37,11.9-4.52A1.33,1.33,0,0,0,596.4,182.49Z"/><line class="cls-9" x1="655.18" y1="161.43" x2="661.22" y2="157.52"/><path class="cls-5" d="M615.16,209.56c.12,3.21.24,6.44.37,9.64l16-16Z"/></g><g id="FG"><path class="cls-17" d="M48.59,636l-6.84,2.66H950.33V636Zm299.3-80.49-.77-2.66h-192l.78,2.66Zm535.58-2.44a1.25,1.25,0,0,0-.72-.22H350.17l.77,2.66H882.35l68,44.27v-3.17Z"/><path class="cls-2" d="M1011.68,637.72a1.34,1.34,0,0,1-1.28,1H950.33V636h55.59L950.33,599.8v-3.17l60.8,39.6A1.31,1.31,0,0,1,1011.68,637.72Z"/><path class="cls-2" d="M268.27,441.4a227,227,0,0,0-49.55,39.41c-27.34,28.55-37.17,51.33-49.56,72.06-.53.89-1.06,1.78-1.62,2.66-2.49,4.08-5.13,8.1-8.07,12.06L156,555.53l-.78-2.66L122.68,441.4Z"/><path class="cls-17" d="M354.71,578.91H162.76l-3.29-11.32c18.34-24.77,25.31-51.33,59.25-86.78a227,227,0,0,1,49.55-39.41h46.36Z"/><polygon class="cls-17" points="371.37 578.91 357.76 578.91 350.94 555.53 350.17 552.87 317.68 441.4 331.29 441.4 363.78 552.87 364.55 555.53 371.37 578.91"/><polygon class="cls-17" points="551.99 578.91 375.48 578.91 370.65 562.49 547.16 562.49 551.99 578.91"/><circle class="cls-16" cx="240.76" cy="509.28" r="17.66"/><line class="cls-3" x1="110.23" y1="616.35" x2="178.52" y2="616.35"/><path class="cls-17" d="M149.31,616l-2.59.66s-2.66-10.36-7.11-27.72c.77-.66,1.51-1.32,2.25-2C146.52,605.13,149.31,616,149.31,616Z"/><path class="cls-2" d="M217,217.64a1.34,1.34,0,0,1-1.65-.93c-14.59-52.59-63-89-110.12-82.81-22.32,2.92-38.59,11.73-48.37,26.17-11.42,16.88-13.72,41.75-6.47,70,9,35,70,273.12,91.46,356.86-.74.67-1.48,1.33-2.25,2-21.14-82.51-82.78-323-91.79-358.19-7.44-29-5-54.67,6.85-72.19,10.22-15.11,27.12-24.29,50.23-27.32s47.15,3.73,68.1,19c21.55,15.67,37.52,39,44.93,65.77A1.31,1.31,0,0,1,217,217.64Z"/><path class="cls-2" d="M212.43,304s-6.69-40.48-9.5-59.84,8.68-26.4,13.72-27.81,18.42-5.93,39.78,10.06S326.36,304,326.36,304Z"/><path class="cls-16" d="M236.42,304h53.39a26.87,26.87,0,0,0-53.39,0Z"/></g><g id="FG-Hand"><path class="cls-10" d="M863.89,515a34.63,34.63,0,0,1-5.37,9.52c-11.8,14.61-30.8,17.25-48.41,17.25s-44-.18-61.24-1.23-75.32-4.76-115.81-6.87c-35.14-1.83-97.58-4.06-113.46-4.62l-3.75-.13c8.27,5.29,15,7.86,21.94,10.91,4.38,1.93,7,3.24,8.14,4.76a3.5,3.5,0,0,1,.66,3c-.67,3.58-4.11,7.74-17.37,6.33s-21.7-4.45-36.37-8.92-47.16-17.83-47.16-17.83-17.38,13.84-25,19.72-12.55,8.32-16.3,5.51a4.06,4.06,0,0,1-1.6-3.48c0-3.21,2.45-7.45,4.65-10.95A289.26,289.26,0,0,1,426.56,512a370.4,370.4,0,0,1,27.55-28.78,105.87,105.87,0,0,1,12.45-10.41c9.28-6,16.56-7.87,26.53-8.34,1.6-.07,4.68-.08,8.78-.05,6.46.05,15.45.21,25.2.43,22.62.48,49.3,1.19,57.77,1.27,14.43.11,90.58,3.17,113,4.23l83.3,3.87c-.59-.87-1.19-1.74-1.78-2.63-13-19.35-27.51-44.15-42.45-70.65.1-.23.21-.48.32-.71,4.77-10.8,9.1-18.57,15.45-24.63.88-.85,1.8-1.66,2.77-2.44s2-1.53,3-2.25c.26-.19.54-.37.83-.56.48-.32,1-.63,1.48-.93a53.83,53.83,0,0,1,4.79-2.61,57.64,57.64,0,0,1,26.53-5.68,50.55,50.55,0,0,1,8.51.85l.65,1.08.37.63c.13.22.28.45.43.71s.15.25.23.39c.2.36.43.72.66,1.1s.44.74.67,1.13c-11.6-.71-19.88-.73-26.43-.05l-.88.09c5.21,8,25.07,38.62,37.43,60.69,14.31,25.58,36.76,63.91,43.17,76.24a77.83,77.83,0,0,0,5.83,9.43C863.14,514,863.52,514.51,863.89,515Z"/><g class="cls-18"><path class="cls-9" d="M454.84,488.8c-6.16,12.85-9.86,22.12-10.45,26.29-.44,3.13-1.64,5,2.12,13.14"/><path class="cls-9" d="M476.25,490.27c-3.23,5.52-8.51,14.67-10.15,19.48s-2.44,7.75-.06,12.08c2.2,4,13.26,20.07,13.26,20.07"/><path class="cls-9" d="M495,499.19c-3.17,6-5.89,10.56-7.59,16.89-1.89,7.07-.79,8.74,1.43,13.32,2.3,4.75,19.23,21.79,19.54,21.47"/></g><path class="cls-6" d="M557.27,473.2c1.41,17.36,1.52,36-5.28,58.9h16.89c3.17-10.44,8.8-24.29,5.17-58.31C568.41,473.79,557.27,473.2,557.27,473.2Z"/><path class="cls-17" d="M566.31,500.31a16.94,16.94,0,0,0-8.77,2.36c-.09,1.13-.2,2.27-.32,3.43a14.69,14.69,0,0,1,9-3.13,10.05,10.05,0,0,1,7.94,4.46,1.31,1.31,0,0,0,.38.33c.13-1.15.24-2.34.33-3.58A12.37,12.37,0,0,0,566.31,500.31Z"/><circle class="cls-17" cx="564.96" cy="512.06" r="2.11"/><circle class="cls-17" cx="563.61" cy="521.13" r="2.11"/><path class="cls-17" d="M562.47,528.7a2.11,2.11,0,0,0-2.11,2.11,2.14,2.14,0,0,0,.44,1.29h3.33a2.08,2.08,0,0,0,.45-1.29A2.12,2.12,0,0,0,562.47,528.7Z"/><path class="cls-5" d="M574.05,473.79c-5.64,0-16.78-.59-16.78-.59q.22,2.91.41,5.87a22.54,22.54,0,0,1,16.87,0C574.4,477.36,574.24,475.61,574.05,473.79Z"/><ellipse class="cls-17" cx="564.62" cy="467.75" rx="8.97" ry="17.99" transform="matrix(0.03, -1, 1, 0.03, 77.89, 1016.09)"/><polyline class="cls-19" points="561.37 470.79 565.36 466.22 554.74 465.98"/><path class="cls-9" d="M824.51,511.1c-2.11-9.86,1.21-21.94,17.52-22.88"/><path class="cls-5" d="M781.22,474.43l9.86.39h0a1.33,1.33,0,0,0,0-2.66l-11.11-.44a1.42,1.42,0,0,0-.58.1Z"/><path class="cls-13" d="M863.89,515a81,81,0,0,1-7-11c-6.41-12.33-28.86-50.66-43.17-76.24-12.36-22.07-32.22-52.7-37.43-60.69,6.68-.77,15.18-.79,27.31,0,10,16.64,35.7,59.56,50.65,85C868.06,475.4,870,499.12,863.89,515Z"/><path class="cls-11" d="M803.64,367.06c-12.13-.75-20.63-.73-27.31,0-9.86,1.14-15.78,4-23.65,8.54.88-.84,1.81-1.65,2.77-2.44s2-1.53,3-2.25c.26-.19.54-.37.83-.56.48-.31,1-.63,1.48-.93a53.83,53.83,0,0,1,4.79-2.61,57.64,57.64,0,0,1,26.53-5.68,50.55,50.55,0,0,1,8.51.85l.65,1.08.37.63.66,1.1c.2.36.43.72.66,1.1S803.41,366.67,803.64,367.06Z"/><path class="cls-5" d="M515.85,528.93s-1.82-1.64-2.7-2.46-.53-3.29.53-5.34c0,0,7.2-15.09,8.39-17.78,1.35-3.05,3.75-3.05,3.17.71s-5,24.87-5,24.87Z"/></g><g id="IQ-Bar"><path class="cls-20" d="M442.1,217.53s-28.78,37.76-30.18,39.7c-.54,1.59-1,9.53-1.84,15-.32,2-2.71,2.83-3.9,1.15l-25.53-28.25a2.43,2.43,0,0,1,.91-3.89Z"/><rect class="cls-21" x="388.22" y="201.57" width="72.96" height="28.21" transform="translate(-27.1 366.56) rotate(-45.39)"/><path class="cls-22" d="M468.9,199.5a2.26,2.26,0,0,0,1-3.84l-26.73-24.42a2,2,0,0,0-3.5.53l-2.3,10.91-20.84,21.14L459,201Z"/><path class="cls-22" d="M407.76,261.48a2.26,2.26,0,0,1-3.83,1.07l-24.78-26.39a2,2,0,0,1,.48-3.51l10.87-2.45,2.67-2.68,16,24Z"/><rect class="cls-22" x="397.66" y="224.14" width="9.55" height="28.21" transform="translate(-49.79 357.42) rotate(-45.39)"/><path class="cls-20" d="M395.61,230.85a3.1,3.1,0,0,0-2.17-.53.58.58,0,0,0-.67-.16.13.13,0,0,0-.08.17.17.17,0,0,0,.2.08.21.21,0,0,1,.21,0,.56.56,0,0,1,.14.09h0a3.15,3.15,0,0,0,.56,2.17,1.27,1.27,0,0,0,2,.23h0v0h0A1.26,1.26,0,0,0,395.61,230.85Zm-.36,1.44h0a.55.55,0,0,1-.81-.06.69.69,0,0,1-.17-.9h0c.19-.2.61-.14.91.15A.56.56,0,0,1,395.25,232.29Zm.63-.11h0l0,0a.09.09,0,0,1-.13,0,.1.1,0,0,1,0-.14.6.6,0,0,0-.16-.7.11.11,0,0,1,.16-.16A.83.83,0,0,1,395.88,232.18Z"/><text class="cls-23" transform="matrix(0.7, -0.71, 0.71, 0.7, 395.46, 236.19)">KETO</text><path class="cls-20" d="M406.21,243a.13.13,0,0,0-.14.13h0c0,.08.05,1.87.59,2.4a1.4,1.4,0,0,0,1.89.09l0,0h0l0,0-.3-.3h-.94a.13.13,0,0,1-.08,0,.11.11,0,0,1,0-.08h0v0l0,0a.09.09,0,0,1,.07,0h.72l-.38-.38h-.53a.12.12,0,0,1-.08,0,.11.11,0,0,1,0-.08h0a0,0,0,0,1,0,0h0s0,0,0,0a.09.09,0,0,1,.07,0h.3l-.59-.58a.14.14,0,0,1,0-.09v0h0a0,0,0,0,0,0,0h0a.11.11,0,0,1,.15,0l.6.6V244h0v0h0v0s0,0,0,0a.15.15,0,0,1,.07,0,.11.11,0,0,1,.07,0,.09.09,0,0,1,0,.08v.55l.37.36v-.7h0v0h0a.05.05,0,0,1,0,0l.07,0a.11.11,0,0,1,.08,0,.11.11,0,0,1,0,.07v.92l.31.31,0,0h0l0,0a1.4,1.4,0,0,0-.12-1.88C408.08,243,406.28,243,406.21,243Z"/><text class="cls-23" transform="matrix(0.7, -0.71, 0.71, 0.7, 407.71, 249.35)"><tspan class="cls-24">V</tspan><tspan x="1.37" y="0">EGAN</tspan></text><path class="cls-20" d="M402,236.9l-.29-.28-1.82,1.84.12.54s0,0,0,0a.21.21,0,0,1-.05.13l-.21.21-.24-.85-.87-.21.22-.22a.18.18,0,0,1,.17,0l.55.11h0l1.82-1.83-.28-.28a.17.17,0,0,1-.06-.16.14.14,0,0,1,.11-.12l1.25-.42a.19.19,0,0,1,.19,0,.21.21,0,0,1,0,.13s0,0,0,0l-.39,1.27a.14.14,0,0,1-.12.11A.15.15,0,0,1,402,236.9Z"/><polygon class="cls-20" points="399.12 238.93 398.25 238.72 398.46 238.49 399.34 238.71 399.57 239.56 399.36 239.78 399.12 238.93"/><path class="cls-20" d="M399,239.09l.23.86-.06.06a.15.15,0,0,1-.17,0,.18.18,0,0,1-.13-.12l-.16-.54-.55-.15a.21.21,0,0,1-.13-.13.18.18,0,0,1,0-.17l.06-.06Z"/><text class="cls-25" transform="matrix(0.7, -0.71, 0.71, 0.7, 401.07, 242.84)">FRIEND<tspan class="cls-26" x="5.16" y="0">L</tspan><tspan x="5.84" y="0">Y</tspan></text><text class="cls-23" transform="matrix(0.7, -0.71, 0.71, 0.7, 400.25, 241.79)"><tspan class="cls-27">P</tspan><tspan x="1.25" y="0">ALEO</tspan></text><text class="cls-28" transform="matrix(0.7, -0.71, 0.71, 0.7, 431.48, 221.59)">NON<tspan class="cls-29" x="3.01" y="0">-</tspan><tspan x="3.42" y="0">GMO</tspan></text><text class="cls-28" transform="matrix(0.7, -0.71, 0.71, 0.7, 424.63, 228.53)">GLUTEN<tspan class="cls-29" x="4.44" y="0">-</tspan><tspan x="4.85" y="0">FREE</tspan></text><text class="cls-30" transform="matrix(0.7, -0.71, 0.71, 0.7, 431.58, 221.69)">NON<tspan class="cls-1" x="3.01" y="0">-</tspan><tspan x="3.42" y="0">GMO</tspan></text><text class="cls-30" transform="matrix(0.7, -0.71, 0.71, 0.7, 424.73, 228.63)">GLUTEN<tspan class="cls-1" x="4.44" y="0">-</tspan><tspan x="4.85" y="0">FREE</tspan></text><text class="cls-30" transform="matrix(0.7, -0.71, 0.71, 0.7, 414.76, 238.73)">NET W<tspan class="cls-31" x="3.7" y="0">T</tspan><tspan x="4.2" y="0">. </tspan><tspan class="cls-32" x="4.79" y="0">1</tspan><tspan x="5.46" y="0">.6 OZ (45g)</tspan></text><circle class="cls-20" cx="423.55" cy="229.22" r="0.25"/><circle class="cls-20" cx="430.43" cy="222.25" r="0.25"/><circle class="cls-20" cx="436.74" cy="215.85" r="0.25"/><text class="cls-30" transform="matrix(0.7, -0.71, 0.71, 0.7, 437.89, 215.28)">NO SUGAR A<tspan class="cls-33" x="7.36" y="0">L</tspan><tspan x="7.78" y="0">COHOLS</tspan></text><path class="cls-34" d="M442.18,188.89a10.29,10.29,0,0,0,4.86,7.57l-1.92-16.08A10.28,10.28,0,0,0,442.18,188.89Z"/><g class="cls-35"><polyline class="cls-36" points="439.06 181.1 445.49 183.46 451.18 179.66"/><polyline class="cls-36" points="439.29 183.05 445.72 185.4 451.41 181.59"/><polyline class="cls-36" points="439.52 184.99 445.95 187.34 451.64 183.53"/><polyline class="cls-36" points="439.75 186.93 446.18 189.28 451.87 185.48"/><polyline class="cls-36" points="439.99 188.87 446.41 191.22 452.1 187.42"/><polyline class="cls-36" points="440.22 190.81 446.65 193.16 452.34 189.36"/><polyline class="cls-36" points="440.45 192.75 446.88 195.1 452.57 191.3"/><polyline class="cls-36" points="440.68 194.69 447.11 197.04 452.8 193.24"/></g><path class="cls-37" d="M445.12,180.38,447,196.46a10.31,10.31,0,0,0-1.92-16.08Z"/><path class="cls-38" d="M445,190.66a4.71,4.71,0,0,0-6.67.05l6.72,6.63A4.72,4.72,0,0,0,445,190.66Z"/><path class="cls-39" d="M445.09,197.34l-6.72-6.63a4.72,4.72,0,0,0,6.72,6.63Z"/><path class="cls-38" d="M438.88,191.39l.34,1-.61.82a.13.13,0,0,0,.11.21l1,0,.59.83a.14.14,0,0,0,.24,0l.29-1-1.95-1.92A.17.17,0,0,0,438.88,191.39Z"/><path class="cls-39" d="M440.83,190.92l-.81.62-1-.32a.14.14,0,0,0-.14,0l1.95,1.92,1-.31a.13.13,0,0,0,0-.23l-.84-.58v-1A.13.13,0,0,0,440.83,190.92Z"/><circle class="cls-39" cx="440.18" cy="192.5" r="0.69"/><path class="cls-40" d="M445,190.66a4.72,4.72,0,0,0-6.67,0l6.72,6.63A4.71,4.71,0,0,0,445,190.66Z"/><path class="cls-41" d="M445.08,197.33l-6.72-6.63a4.72,4.72,0,1,0,6.72,6.63Z"/><path class="cls-40" d="M438.88,191.38l.33,1-.6.82a.13.13,0,0,0,.1.21l1,0,.6.83a.13.13,0,0,0,.23,0l.29-1-1.94-1.92A.12.12,0,0,0,438.88,191.38Z"/><path class="cls-41" d="M440.82,190.92l-.81.61-1-.32a.12.12,0,0,0-.13,0l1.94,1.92,1-.3a.14.14,0,0,0,0-.24L441,192v-1A.13.13,0,0,0,440.82,190.92Z"/><circle class="cls-40" cx="440.17" cy="192.49" r="0.69"/><path class="cls-38" d="M453,189.6a4.71,4.71,0,0,0-6.67.05l6.72,6.62A4.71,4.71,0,0,0,453,189.6Z"/><path class="cls-39" d="M453.09,196.27l-6.72-6.62a4.72,4.72,0,1,0,6.72,6.62Z"/><path class="cls-38" d="M446.88,190.32l.34,1-.61.82a.13.13,0,0,0,.11.21l1,0,.59.83a.14.14,0,0,0,.24,0l.29-1-1.94-1.92A.12.12,0,0,0,446.88,190.32Z"/><path class="cls-39" d="M448.83,189.86l-.81.61-1-.32a.12.12,0,0,0-.13,0l1.94,1.92,1-.31a.13.13,0,0,0,0-.23L449,191v-1A.13.13,0,0,0,448.83,189.86Z"/><circle class="cls-39" cx="448.18" cy="191.44" r="0.69"/><path class="cls-40" d="M453,189.59a4.71,4.71,0,0,0-6.67,0l6.72,6.63A4.72,4.72,0,0,0,453,189.59Z"/><path class="cls-41" d="M453.08,196.27l-6.72-6.63a4.72,4.72,0,0,0,6.72,6.63Z"/><path class="cls-40" d="M446.88,190.31l.33,1-.6.82a.13.13,0,0,0,.1.21l1,0,.6.82a.13.13,0,0,0,.23,0l.3-1-1.95-1.92A.11.11,0,0,0,446.88,190.31Z"/><path class="cls-41" d="M448.82,189.85l-.81.62-1-.32a.11.11,0,0,0-.13,0l1.95,1.92,1-.31a.13.13,0,0,0,0-.23L449,191v-1A.13.13,0,0,0,448.82,189.85Z"/><circle class="cls-40" cx="448.17" cy="191.43" r="0.69"/><path class="cls-38" d="M449.21,196a4.72,4.72,0,0,0-6.67,0l6.72,6.63A4.71,4.71,0,0,0,449.21,196Z"/><path class="cls-39" d="M449.26,202.63,442.54,196a4.72,4.72,0,1,0,6.72,6.63Z"/><path class="cls-38" d="M443.06,196.68l.33,1-.6.82a.13.13,0,0,0,.1.21l1,0,.6.83a.13.13,0,0,0,.23,0l.29-1-1.94-1.93A.12.12,0,0,0,443.06,196.68Z"/><path class="cls-39" d="M445,196.22l-.81.61-1-.32a.14.14,0,0,0-.13,0l1.94,1.93,1-.31a.14.14,0,0,0,0-.24l-.84-.58v-1A.13.13,0,0,0,445,196.22Z"/><circle class="cls-39" cx="444.35" cy="197.79" r="0.69"/><path class="cls-40" d="M449.2,196a4.71,4.71,0,0,0-6.67.05l6.72,6.62A4.71,4.71,0,0,0,449.2,196Z"/><path class="cls-41" d="M449.25,202.62,442.53,196a4.72,4.72,0,1,0,6.72,6.62Z"/><path class="cls-40" d="M443.05,196.67l.33,1-.6.82a.13.13,0,0,0,.11.21l1,0,.6.83a.13.13,0,0,0,.23,0l.3-1-1.95-1.92A.11.11,0,0,0,443.05,196.67Z"/><path class="cls-41" d="M445,196.21l-.81.61-1-.32a.12.12,0,0,0-.13,0l1.95,1.92,1-.31a.13.13,0,0,0,0-.23l-.83-.59v-1A.13.13,0,0,0,445,196.21Z"/><circle class="cls-40" cx="444.34" cy="197.79" r="0.69"/><path d="M404.06,228l1-1,5.41,5.34-1,1Z"/><path d="M413.77,229a3.8,3.8,0,0,1-6.51-2.65,3.63,3.63,0,0,1,1.09-2.69,3.8,3.8,0,0,1,6.43,1.88l2.12.29-1.29,1.3-.81-.11A3.73,3.73,0,0,1,413.77,229Zm-4.38-4.31a2.34,2.34,0,1,0,4,1.62A2.32,2.32,0,0,0,411,224,2.26,2.26,0,0,0,409.39,224.7Z"/><polygon points="405.92 222.41 407.06 221.25 408.13 222.76 407.51 223.39 405.92 222.41"/><polygon points="404.55 225.81 404.88 224.21 406.6 224.91 406.41 225.77 404.55 225.81"/><polygon points="410.44 219.83 408.85 220.19 409.57 221.89 410.43 221.7 410.44 219.83"/><path d="M420.68,228.72a.33.33,0,1,1,0-.47A.33.33,0,0,1,420.68,228.72Zm-.43-.43a.27.27,0,0,0,0,.39.28.28,0,0,0,.4,0,.29.29,0,0,0,0-.4A.28.28,0,0,0,420.25,228.29Zm.4.26-.18,0,0,0,.1.11,0,0-.27-.27.11-.11a.12.12,0,0,1,.17,0,.13.13,0,0,1,0,.15l.18,0Zm-.29-.19-.06.07.09.1.07-.07a.07.07,0,0,0-.1-.1Z"/><path d="M414,233.79a1.1,1.1,0,0,1,.35.82,1.13,1.13,0,0,1-.34.83l-1.21,1.23-2.63-2.58,1.22-1.24a1,1,0,0,1,.73-.3.94.94,0,0,1,.72.29,1,1,0,0,1,.3.61A1.11,1.11,0,0,1,414,233.79Zm-2.37.74.72-.73a.33.33,0,0,0,.09-.23.29.29,0,0,0-.09-.22.3.3,0,0,0-.23-.1.35.35,0,0,0-.22.1l-.73.73Zm1.16,1.14.72-.73a.44.44,0,0,0,.13-.33.44.44,0,0,0-.13-.32.46.46,0,0,0-.33-.13.44.44,0,0,0-.33.13l-.72.74Z"/><path d="M417.65,231.79l-.54.55-.44-.16-1.05,1.07.17.43-.55.55-1.53-3.92Zm-2.31.74.61-.62-1-.38Z"/><path d="M418.66,230.77l-.5.5-2.62-2.58,1.22-1.24a1.14,1.14,0,0,1,.82-.35,1.12,1.12,0,0,1,.83.34,1.13,1.13,0,0,1,.34.71,1.16,1.16,0,0,1-.17.75l1.7.23-.63.63-1.66-.22-.29.29Zm-1.46-1.44.72-.73a.44.44,0,0,0,.13-.33.45.45,0,0,0-.14-.33.48.48,0,0,0-.32-.13.45.45,0,0,0-.33.14l-.72.73Z"/><text class="cls-42" transform="translate(415.29 219.29) rotate(-45.39)">W<tspan class="cls-43" x="3.12" y="0">I</tspan><tspan class="cls-44" x="4.57" y="0">L</tspan><tspan class="cls-45" x="6.37" y="0">D </tspan><tspan class="cls-46" x="9.6" y="0">B</tspan><tspan class="cls-47" x="11.85" y="0">L</tspan><tspan class="cls-48" x="13.65" y="0">U</tspan><tspan class="cls-49" x="16" y="0">E</tspan><tspan class="cls-50" x="17.99" y="0">B</tspan><tspan class="cls-51" x="20.24" y="0">E</tspan><tspan class="cls-52" x="22.22" y="0">R</tspan><tspan class="cls-53" x="24.52" y="0">R</tspan><tspan class="cls-45" x="26.75" y="0">Y</tspan></text><line class="cls-54" x1="436.46" y1="207.99" x2="420.31" y2="224.36"/><line class="cls-54" x1="429.58" y1="210.42" x2="418.04" y2="222.12"/><text class="cls-55" transform="matrix(0.7, -0.71, 0.71, 0.7, 419.78, 224.07)">1<tspan class="cls-56" x="1.12" y="0">2g</tspan><tspan class="cls-57" x="3.87" y="0" xml:space="preserve"> Plant-Based P</tspan><tspan class="cls-58" x="17.79" y="0">r</tspan><tspan class="cls-59" x="18.51" y="0">otein</tspan></text><text class="cls-60" transform="matrix(0.7, -0.71, 0.71, 0.7, 417.66, 221.66)">6<tspan class="cls-57" x="1.38" y="0" xml:space="preserve"> B</tspan><tspan class="cls-61" x="3.3" y="0">r</tspan><tspan class="cls-62" x="4.03" y="0">ain Nutrients</tspan></text><line class="cls-63" x1="441.54" y1="207.38" x2="422.59" y2="226.6"/><text class="cls-60" transform="matrix(0.7, -0.71, 0.71, 0.7, 422.05, 226.3)">1</text><text class="cls-60" transform="matrix(0.7, -0.71, 0.71, 0.7, 422.79, 225.55)">g<tspan class="cls-62" x="1.38" y="0" xml:space="preserve"> Sugar and </tspan><tspan class="cls-64" x="12.77" y="0">3g</tspan><tspan class="cls-59" x="15.52" y="0" xml:space="preserve"> Net Carbs</tspan></text></g></g></svg>