<svg aria-hidden="true" focusable="false" role="presentation" class="icon icon-cart" xmlns="http://www.w3.org/2000/svg" viewBox="0 0 34.71 30.86"><g id="Layer_2" data-name="Layer 2"><g><path d="M1.2.41A.77.77,0,0,0,1,1.93l2.88.64.74,3.52h0L8.32,22.72a.77.77,0,0,0,.75.6H29.86a.77.77,0,0,0,.78-.76.78.78,0,0,0-.76-.78H9.69L9,18.57H30.9a.77.77,0,0,0,.76-.6L34.28,6.1a.77.77,0,0,0-.59-.92l-.16,0H6l-.71-3.4a.76.76,0,0,0-.59-.59L1.36.43,1.2.41ZM6.36,6.7H32.57L30.29,17H8.64ZM14,25a2.75,2.75,0,1,0,2.74,2.75A2.76,2.76,0,0,0,14,25Zm11,0a2.75,2.75,0,1,0,2.75,2.75A2.76,2.76,0,0,0,25,25ZM14,26.49a1.21,1.21,0,1,1-1.21,1.21A1.19,1.19,0,0,1,14,26.49Zm11,0a1.21,1.21,0,1,1-1.2,1.21A1.2,1.2,0,0,1,25,26.49Z" style="stroke-width:0.819479727745056px; stroke:#000; stroke-miterlimit:10;"></path></g></g></svg>
