<svg version="1.1" id="Layer_1" xmlns="http://www.w3.org/2000/svg" xmlns:xlink="http://www.w3.org/1999/xlink" x="0px" y="0px" viewBox="0 0 100 100" style="enable-background:new 0 0 100 100;" xml:space="preserve">
<g>
	<g>
		<path d="M7.1,100c-1.8,0-3.7-0.7-5.1-2.1c-2.8-2.8-2.8-7.3,0-10.1L87.8,2.1c2.8-2.8,7.3-2.8,10.1,0c2.8,2.8,2.8,7.3,0,10.1    L12.2,97.9C10.8,99.3,9,100,7.1,100z"/>
	</g>
	<g>
		<path d="M92.9,100c-1.8,0-3.7-0.7-5.1-2.1L2.1,12.2c-2.8-2.8-2.8-7.3,0-10.1s7.3-2.8,10.1,0l85.7,85.7c2.8,2.8,2.8,7.3,0,10.1    C96.5,99.3,94.7,100,92.9,100z"/>
	</g>
</g>
</svg>
