<svg width="100pt" height="100pt" version="1.1" viewBox="0 0 100 100" xmlns="http://www.w3.org/2000/svg">
 <path d="m48.688 93.75c11.598 0.34375 22.852-3.9336 31.297-11.891 8.4414-7.957 13.379-18.938 13.727-30.535 0.34375-11.594-3.9297-22.855-11.883-31.301-7.9531-8.4453-18.934-13.387-30.531-13.734-11.594-0.35156-22.855 3.9219-31.301 11.871-8.4492 7.9492-13.395 18.934-13.746 30.527-0.35156 11.605 3.9219 22.875 11.879 31.324 7.9609 8.4531 18.953 13.395 30.559 13.738zm-21.625-57.031 22.938 20.062 22.938-20.062 4.125 4.6875-27.062 23.688-27.062-23.688z"></path>
</svg>
