<svg id="Layer_1" data-name="Layer 1" xmlns="http://www.w3.org/2000/svg" xmlns:xlink="http://www.w3.org/1999/xlink" viewBox="0 0 1000 792.73"><defs><style>.cls-1,.cls-5{fill:none;}.cls-2{fill:#5c7f3a;}.cls-3{fill:#c8df90;}.cls-4{clip-path:url(#clip-path);}.cls-5{stroke:#5b813a;stroke-linecap:round;stroke-linejoin:round;stroke-width:6.4px;}.cls-6{clip-path:url(#clip-path-2);}.cls-7{clip-path:url(#clip-path-3);}.cls-8{clip-path:url(#clip-path-4);}.cls-9{clip-path:url(#clip-path-5);}.cls-10{clip-path:url(#clip-path-6);}.cls-11{clip-path:url(#clip-path-7);}.cls-12{clip-path:url(#clip-path-8);}.cls-13{fill:#e6c65d;}.cls-14{fill:#fff;}</style><clipPath id="clip-path"><path class="cls-1" d="M881.61,7.58,805.23,338.83s-65.16-83.43-42-183.84C785.34,58.86,881.61,7.58,881.61,7.58Z"/></clipPath><clipPath id="clip-path-2"><path class="cls-1" d="M996.92,252.17,764.68,500.41s-14.51-104.86,55.86-180.12C887.92,248.24,996.92,252.17,996.92,252.17Z"/></clipPath><clipPath id="clip-path-3"><path class="cls-1" d="M975.05,495.56,664.16,633.06s27.7-102.17,121.92-143.87C876.29,449.27,975.05,495.56,975.05,495.56Z"/></clipPath><clipPath id="clip-path-4"><path class="cls-1" d="M892.11,690.13,553.25,717.2s59.9-87.29,162.61-95.52C814.19,613.8,892.11,690.13,892.11,690.13Z"/></clipPath><clipPath id="clip-path-5"><path class="cls-1" d="M118.39,7.58l76.38,331.25s65.16-83.43,42-183.84C214.66,58.86,118.39,7.58,118.39,7.58Z"/></clipPath><clipPath id="clip-path-6"><path class="cls-1" d="M3.08,252.17,235.32,500.41s14.51-104.86-55.86-180.12C112.08,248.24,3.08,252.17,3.08,252.17Z"/></clipPath><clipPath id="clip-path-7"><path class="cls-1" d="M25,495.56l310.89,137.5s-27.7-102.17-121.92-143.87C123.71,449.27,25,495.56,25,495.56Z"/></clipPath><clipPath id="clip-path-8"><path class="cls-1" d="M107.89,690.13,446.75,717.2s-59.9-87.29-162.61-95.52C185.81,613.8,107.89,690.13,107.89,690.13Z"/></clipPath></defs><path class="cls-2" d="M881.61,7.58,805.23,338.83S900.34,292.35,923.51,192C945.7,95.83,881.61,7.58,881.61,7.58Z"/><path class="cls-3" d="M881.61,7.58,805.23,338.83s-65.16-83.43-42-183.84C785.34,58.86,881.61,7.58,881.61,7.58Z"/><g class="cls-4"><line class="cls-5" x1="884.28" y1="34.67" x2="745.21" y2="72.87"/><line class="cls-5" x1="875.56" y1="72.52" x2="736.48" y2="110.72"/><line class="cls-5" x1="866.83" y1="110.37" x2="727.75" y2="148.57"/><line class="cls-5" x1="858.1" y1="148.22" x2="719.02" y2="186.41"/><line class="cls-5" x1="849.38" y1="186.07" x2="710.3" y2="224.26"/><line class="cls-5" x1="840.65" y1="223.91" x2="701.57" y2="262.11"/><line class="cls-5" x1="831.92" y1="261.76" x2="692.84" y2="299.96"/><line class="cls-5" x1="823.19" y1="299.61" x2="684.11" y2="337.81"/></g><path class="cls-2" d="M996.92,252.17,764.68,500.41s105.6,7.51,176-67.72C1008.1,360.67,996.92,252.17,996.92,252.17Z"/><path class="cls-3" d="M996.92,252.17,764.68,500.41s-14.51-104.86,55.86-180.12C887.92,248.24,996.92,252.17,996.92,252.17Z"/><g class="cls-6"><line class="cls-5" x1="985.65" y1="276.95" x2="846.18" y2="240.22"/><line class="cls-5" x1="959.12" y1="305.31" x2="819.64" y2="268.59"/><line class="cls-5" x1="932.58" y1="333.68" x2="793.1" y2="296.95"/><line class="cls-5" x1="906.04" y1="362.04" x2="766.57" y2="325.32"/><line class="cls-5" x1="879.51" y1="390.41" x2="740.03" y2="353.68"/><line class="cls-5" x1="852.97" y1="418.77" x2="713.49" y2="382.04"/><line class="cls-5" x1="826.43" y1="447.13" x2="686.96" y2="410.41"/><line class="cls-5" x1="799.89" y1="475.5" x2="660.42" y2="438.77"/></g><path class="cls-2" d="M975.05,495.56,664.16,633.06s94.23,48.25,188.47,6.6C942.86,599.78,975.05,495.56,975.05,495.56Z"/><path class="cls-3" d="M975.05,495.56,664.16,633.06s27.7-102.17,121.92-143.87C876.29,449.27,975.05,495.56,975.05,495.56Z"/><g class="cls-7"><line class="cls-5" x1="954.98" y1="513.95" x2="841.01" y2="425.55"/><line class="cls-5" x1="919.45" y1="529.66" x2="805.49" y2="441.26"/><line class="cls-5" x1="883.93" y1="545.37" x2="769.97" y2="456.97"/><line class="cls-5" x1="848.41" y1="561.08" x2="734.44" y2="472.69"/><line class="cls-5" x1="812.88" y1="576.79" x2="698.92" y2="488.4"/><line class="cls-5" x1="777.36" y1="592.51" x2="663.4" y2="504.11"/><line class="cls-5" x1="741.84" y1="608.22" x2="627.87" y2="519.82"/><line class="cls-5" x1="706.31" y1="623.93" x2="592.35" y2="535.53"/></g><path class="cls-2" d="M892.11,690.13,553.25,717.2s73,76.67,175.72,68.49C827.3,777.85,892.11,690.13,892.11,690.13Z"/><path class="cls-3" d="M892.11,690.13,553.25,717.2s59.9-87.29,162.61-95.52C814.19,613.8,892.11,690.13,892.11,690.13Z"/><g class="cls-8"><line class="cls-5" x1="867.1" y1="700.85" x2="788.73" y2="579.77"/><line class="cls-5" x1="828.38" y1="703.94" x2="750.01" y2="582.86"/><line class="cls-5" x1="789.66" y1="707.04" x2="711.3" y2="585.95"/><line class="cls-5" x1="750.94" y1="710.13" x2="672.58" y2="589.05"/><line class="cls-5" x1="712.22" y1="713.22" x2="633.86" y2="592.14"/><line class="cls-5" x1="673.5" y1="716.32" x2="595.14" y2="595.23"/><line class="cls-5" x1="634.78" y1="719.41" x2="556.42" y2="598.33"/><line class="cls-5" x1="596.06" y1="722.51" x2="517.7" y2="601.42"/></g><path class="cls-2" d="M118.39,7.58l76.38,331.25S99.66,292.35,76.49,192C54.3,95.83,118.39,7.58,118.39,7.58Z"/><path class="cls-3" d="M118.39,7.58l76.38,331.25s65.16-83.43,42-183.84C214.66,58.86,118.39,7.58,118.39,7.58Z"/><g class="cls-9"><line class="cls-5" x1="115.72" y1="34.67" x2="254.79" y2="72.87"/><line class="cls-5" x1="124.44" y1="72.52" x2="263.52" y2="110.72"/><line class="cls-5" x1="133.17" y1="110.37" x2="272.25" y2="148.57"/><line class="cls-5" x1="141.9" y1="148.22" x2="280.98" y2="186.41"/><line class="cls-5" x1="150.62" y1="186.07" x2="289.7" y2="224.26"/><line class="cls-5" x1="159.35" y1="223.91" x2="298.43" y2="262.11"/><line class="cls-5" x1="168.08" y1="261.76" x2="307.16" y2="299.96"/><line class="cls-5" x1="176.81" y1="299.61" x2="315.89" y2="337.81"/></g><path class="cls-2" d="M3.08,252.17,235.32,500.41s-105.6,7.51-176-67.72C-8.1,360.67,3.08,252.17,3.08,252.17Z"/><path class="cls-3" d="M3.08,252.17,235.32,500.41s14.51-104.86-55.86-180.12C112.08,248.24,3.08,252.17,3.08,252.17Z"/><g class="cls-10"><line class="cls-5" x1="14.35" y1="276.95" x2="153.82" y2="240.22"/><line class="cls-5" x1="40.88" y1="305.31" x2="180.36" y2="268.59"/><line class="cls-5" x1="67.42" y1="333.68" x2="206.9" y2="296.95"/><line class="cls-5" x1="93.96" y1="362.04" x2="233.43" y2="325.32"/><line class="cls-5" x1="120.49" y1="390.41" x2="259.97" y2="353.68"/><line class="cls-5" x1="147.03" y1="418.77" x2="286.51" y2="382.04"/><line class="cls-5" x1="173.57" y1="447.13" x2="313.04" y2="410.41"/><line class="cls-5" x1="200.11" y1="475.5" x2="339.58" y2="438.77"/></g><path class="cls-2" d="M25,495.56l310.89,137.5s-94.23,48.25-188.47,6.6C57.14,599.78,25,495.56,25,495.56Z"/><path class="cls-3" d="M25,495.56l310.89,137.5s-27.7-102.17-121.92-143.87C123.71,449.27,25,495.56,25,495.56Z"/><g class="cls-11"><line class="cls-5" x1="45.02" y1="513.95" x2="158.99" y2="425.55"/><line class="cls-5" x1="80.55" y1="529.66" x2="194.51" y2="441.26"/><line class="cls-5" x1="116.07" y1="545.37" x2="230.03" y2="456.97"/><line class="cls-5" x1="151.59" y1="561.08" x2="265.56" y2="472.69"/><line class="cls-5" x1="187.12" y1="576.79" x2="301.08" y2="488.4"/><line class="cls-5" x1="222.64" y1="592.51" x2="336.6" y2="504.11"/><line class="cls-5" x1="258.16" y1="608.22" x2="372.13" y2="519.82"/><line class="cls-5" x1="293.69" y1="623.93" x2="407.65" y2="535.53"/></g><path class="cls-2" d="M107.89,690.13,446.75,717.2s-73,76.67-175.72,68.49C172.7,777.85,107.89,690.13,107.89,690.13Z"/><path class="cls-3" d="M107.89,690.13,446.75,717.2s-59.9-87.29-162.61-95.52C185.81,613.8,107.89,690.13,107.89,690.13Z"/><g class="cls-12"><line class="cls-5" x1="132.9" y1="700.85" x2="211.27" y2="579.77"/><line class="cls-5" x1="171.62" y1="703.94" x2="249.99" y2="582.86"/><line class="cls-5" x1="210.34" y1="707.04" x2="288.7" y2="585.95"/><line class="cls-5" x1="249.06" y1="710.13" x2="327.42" y2="589.05"/><line class="cls-5" x1="287.78" y1="713.22" x2="366.14" y2="592.14"/><line class="cls-5" x1="326.5" y1="716.32" x2="404.86" y2="595.23"/><line class="cls-5" x1="365.22" y1="719.41" x2="443.58" y2="598.33"/><line class="cls-5" x1="403.94" y1="722.51" x2="482.3" y2="601.42"/></g><circle class="cls-13" cx="500" cy="391.9" r="311.36"/><path class="cls-14" d="M339.34,229.88h43.55V456.3H339.34Z"/><path class="cls-14" d="M521.27,456.3q-46.86,0-80-33.13t-33.13-80q0-47,33.13-80.15t80-33.14q47,0,80.15,33.14t33.14,80.15a110.21,110.21,0,0,1-18.78,62.33L654,456.3H599.53l-14.67-19.56A110,110,0,0,1,521.27,456.3Zm0-182.87q-28.72,0-49.23,20.51-20.35,20.35-20.35,49.23,0,28.72,20.35,49.23,20.5,20.36,49.23,20.36T570.5,392.4Q591,371.9,591,343.17T570.5,293.94Q550.15,273.43,521.27,273.43Z"/><polygon class="cls-14" points="497.14 152.09 545.56 152.09 535.88 206.26 509.64 206.26 497.14 152.09"/><polygon class="cls-14" points="396.43 193.92 437.18 167.77 458.3 218.58 436.22 232.75 396.43 193.92"/><polygon class="cls-14" points="646.26 193.92 605.52 167.77 584.4 218.58 606.48 232.75 646.26 193.92"/><path class="cls-14" d="M672.13,596.86a9.94,9.94,0,1,1,9.93-9.94A9.94,9.94,0,0,1,672.13,596.86Zm0-18.23a8.3,8.3,0,1,0,8.29,8.29A8.26,8.26,0,0,0,672.13,578.63Zm2.67,14-3-4.5H670v4.5h-1.73V581.26h4.63a3.67,3.67,0,0,1,3.85,3.46,3.34,3.34,0,0,1-2.91,3.38l3,4.54Zm-1.88-9.93H670v3.94h2.9a2,2,0,1,0,0-3.94Z"/><path class="cls-14" d="M425.8,562.09A34.86,34.86,0,0,1,391,596.87H339.35V487.18H391A30.57,30.57,0,0,1,415,536.79,33.56,33.56,0,0,1,425.8,562.09Zm-65.35-34.86H391a9.35,9.35,0,0,0,6.73-2.75,9.18,9.18,0,0,0,2.75-6.73,9.39,9.39,0,0,0-9.48-9.47H360.45Zm0,48.54H391a13.25,13.25,0,0,0,9.71-4,13.11,13.11,0,0,0,4-9.63A13.69,13.69,0,0,0,391,548.33H360.45Z"/><path class="cls-14" d="M543.58,596.87H520.49l-5.65-12.69H470.2l-5.66,12.69H441.46l51.06-114.51Zm-64-33.71h25.84l-12.92-29Z"/><path class="cls-14" d="M586.3,596.87H565.2V487.18h51.68A34.82,34.82,0,0,1,651.65,522a34.82,34.82,0,0,1-27.52,34.09l30.66,40.82H628.42l-30-40.06H586.3Zm0-61.15h30.58a13.72,13.72,0,0,0,0-27.44H586.3Z"/></svg>