<svg id="Layer_1" data-name="Layer 1" xmlns="http://www.w3.org/2000/svg" viewBox="0 0 1000 792.73"><defs><style>.cls-1{fill:#fff;}.cls-2{fill:none;stroke:#6aa4d7;stroke-miterlimit:10;stroke-width:63.49px;}.cls-3{fill:#e6c65d;}.cls-4{fill:#f8e591;}.cls-5{fill:#abd36e;}.cls-6{fill:#5c8039;}.cls-7{fill:#6aa4d7;}</style></defs><circle class="cls-1" cx="500.92" cy="426.81" r="280.43"/><circle class="cls-2" cx="500.92" cy="426.81" r="280.43"/><rect class="cls-3" x="485.03" y="248.01" width="29.94" height="178.8"/><rect class="cls-3" x="534.17" y="408.59" width="20.48" height="122.34" transform="translate(1261.67 418.78) rotate(135.15)"/><polygon class="cls-4" points="497.35 423.25 504.79 430.79 380.64 554.36 373.19 546.82 497.35 423.25"/><path class="cls-5" d="M678,764.65h0l-150.87-.12V743.07l150.87.12H678a80.62,80.62,0,0,0,75.88-53.7l26.82-75.94L801,620.72l-26.82,75.94A102.15,102.15,0,0,1,678,764.65Z"/><path class="cls-6" d="M549.25,790.61H584.6A36.63,36.63,0,0,0,621.24,754H512.6A36.64,36.64,0,0,0,549.25,790.61Z"/><path class="cls-5" d="M584.6,717.3H549.25A36.66,36.66,0,0,0,512.6,754H621.24A36.65,36.65,0,0,0,584.6,717.3Z"/><path class="cls-5" d="M474.67,2.11C314.65,2.11,184.44,133,184.44,294v49.12h42.24V294c0-137.56,111.24-249.46,248-249.46H500V2.11Z"/><path class="cls-6" d="M525.36,2.11H500V44.5h25.36c136.72,0,248,111.9,248,249.46v49.12h42.22V294C815.57,133,685.39,2.11,525.36,2.11Z"/><path class="cls-5" d="M884.53,348.25C862.74,321,826.64,318.6,826.64,318.6c-12.89-3.2-25-3-35.81,0V637.13c10.77,3,22.92,3.22,35.81,0,0,0,36.1-2.39,57.89-29.68S906.37,375.54,884.53,348.25Z"/><path class="cls-6" d="M747.18,381V574.68c0,32,17.79,55.3,43.65,62.45V318.6C765,325.77,747.18,349.07,747.18,381Z"/><path class="cls-5" d="M173.37,318.6s-36.12,2.41-57.93,29.65-21.8,231.94,0,259.2,57.93,29.68,57.93,29.68c12.87,3.22,25,3,35.79,0V318.6C198.39,315.61,186.24,315.4,173.37,318.6Z"/><path class="cls-6" d="M209.16,318.6V637.13c25.84-7.15,43.69-30.47,43.69-62.45V381C252.85,349.07,235,325.77,209.16,318.6Z"/><circle class="cls-7" cx="500.92" cy="426.81" r="28.43"/></svg>