<svg id="Layer_1" data-name="Layer 1" xmlns="http://www.w3.org/2000/svg" viewBox="0 0 1000 792.73"><defs><style>.cls-1{fill:#abd36e;}.cls-2{fill:#5c8039;}.cls-3,.cls-4{fill:none;stroke:#f8e591;stroke-linecap:round;stroke-linejoin:round;}.cls-3{stroke-width:11px;}.cls-4{stroke-width:12.06px;}.cls-5{fill:#6aa4d7;}.cls-6{fill:#f8e591;}.cls-7{fill:#e6c65d;}</style></defs><rect class="cls-1" x="450.11" y="177.92" width="499.09" height="336.74" transform="translate(-79.28 294.43) rotate(-22.52)"/><rect class="cls-2" x="355.49" y="116.76" width="529.87" height="76.93" transform="translate(-12.14 249.5) rotate(-22.52)"/><rect class="cls-2" x="668.09" y="191.08" width="208.56" height="116.68" transform="translate(-36.63 314.89) rotate(-22.52)"/><line class="cls-3" x1="700.3" y1="279.3" x2="850.46" y2="217.03"/><line class="cls-4" x1="687.25" y1="247.83" x2="811.35" y2="196.37"/><line class="cls-4" x1="713.35" y1="310.78" x2="837.45" y2="259.31"/><path class="cls-5" d="M947.18,488.75,526,662.38a33.6,33.6,0,0,1-43.89-18.28L271.92,133.72A56.59,56.59,0,0,0,198,102.92L172.4,40.77a123.8,123.8,0,0,1,161.68,67.34L531.49,587.42l390-160.82a33.62,33.62,0,0,1,25.65,62.15Z"/><circle class="cls-6" cx="513.22" cy="631.32" r="143.2"/><path class="cls-7" d="M198,102.92,51.78,163.22a33.61,33.61,0,1,1-25.61-62.16L172.4,40.77Z"/><path class="cls-7" d="M656.42,631.32a143.2,143.2,0,0,0-143.2-143.2v286.4A143.2,143.2,0,0,0,656.42,631.32Z"/></svg>