<svg id="Layer_1" data-name="Layer 1" xmlns="http://www.w3.org/2000/svg" xmlns:xlink="http://www.w3.org/1999/xlink" viewBox="0 0 1000 792.73"><defs><style>.cls-1,.cls-4,.cls-7{fill:none;}.cls-2{fill:#c8df90;}.cls-3{fill:#5c8039;}.cls-4{stroke:#5c7f3a;stroke-width:52.45px;}.cls-4,.cls-7{stroke-linecap:round;stroke-linejoin:round;}.cls-5,.cls-9{fill:#f8dc5c;}.cls-6{clip-path:url(#clip-path);}.cls-7{stroke:#e6c65d;stroke-width:5.33px;}.cls-8{fill:#fff;}.cls-9{font-size:148.49px;font-family:Acrom-Bold, Acrom;font-weight:700;}</style><clipPath id="clip-path"><circle class="cls-1" cx="549.03" cy="154.57" r="149.46"/></clipPath></defs><path class="cls-2" d="M785.38,283.38c-15,84.75-43.72,165.87-100.81,228.74C608.89,595.5,493.26,633.53,380.8,638.37c-56.36,2.4-112.38-2.61-168.14-11.35-21.75-26.81-38.2-56.75-48.18-88.87L115.71,538l10.36-152,41-.21c14.22-41.11,39.1-78.5,72.08-110,2-29.38-2-75.12-36-114.35,78.16-4.07,111,14.78,148.91,42.4C399.22,184.79,452.24,174,508.38,174,620.46,174,720.37,216.7,785.38,283.38Z"/><path class="cls-3" d="M704.48,708.86l12.29,78.76H626.41l-12-43.39a429.59,429.59,0,0,1-221.59-2.65v46h-87L316,710.87c-41.07-21.8-76.31-50.4-103.34-83.85,55.76,8.74,111.78,13.75,168.14,11.35,112.46-4.84,228.09-42.87,303.77-126.25,57.09-62.87,85.82-144,100.81-228.74,48.78,49.94,77.9,113.36,77.9,182.35C863.28,567.28,800.16,656.61,704.48,708.86Z"/><circle class="cls-3" cx="304.58" cy="353.48" r="27.69"/><path class="cls-3" d="M816.49,455.5a40.5,40.5,0,0,0,19.5,7,44.06,44.06,0,0,0,21.66-3.35,45.35,45.35,0,0,0,17.92-14.5,48.59,48.59,0,0,0,9.31-22.41l.09-.63a16.05,16.05,0,0,1,32,1.89A83.07,83.07,0,0,1,907,463.7a84.9,84.9,0,0,1-28.8,31.45,87.8,87.8,0,0,1-41.66,13.52,89.42,89.42,0,0,1-44.21-8.34l-1.71-.81a25.62,25.62,0,1,1,22-46.29A27,27,0,0,1,816.49,455.5Z"/><ellipse class="cls-3" cx="120.91" cy="462.03" rx="76.18" ry="21.24" transform="translate(-348.26 551.28) rotate(-86.11)"/><path class="cls-4" d="M441.4,287.87S502.8,278,549,278s107.64,9.89,107.64,9.89"/><circle class="cls-5" cx="549.03" cy="154.57" r="149.46"/><g class="cls-6"><line class="cls-7" x1="549.3" y1="-23.37" x2="549.3" y2="320.71"/><line class="cls-7" x1="504.92" y1="-17.53" x2="593.97" y2="314.82"/><line class="cls-7" x1="463.57" y1="-0.4" x2="635.61" y2="297.58"/><line class="cls-7" x1="428.06" y1="26.85" x2="671.36" y2="270.14"/><line class="cls-7" x1="400.82" y1="62.36" x2="698.79" y2="234.39"/><line class="cls-7" x1="383.69" y1="103.71" x2="716.04" y2="192.76"/><line class="cls-7" x1="377.85" y1="148.08" x2="721.92" y2="148.08"/><line class="cls-7" x1="383.69" y1="192.46" x2="716.04" y2="103.4"/><line class="cls-7" x1="400.82" y1="233.81" x2="698.79" y2="61.77"/><line class="cls-7" x1="428.06" y1="269.32" x2="671.36" y2="26.02"/><line class="cls-7" x1="463.57" y1="296.56" x2="635.61" y2="-1.41"/><line class="cls-7" x1="504.92" y1="313.69" x2="593.97" y2="-18.66"/></g><circle class="cls-8" cx="549.03" cy="154.57" r="107.91"/><text class="cls-9" transform="translate(499.13 208.7)">$</text></svg>