<svg xmlns="http://www.w3.org/2000/svg" viewBox="0 0 81.4 81.25"><defs><style>.cls-1{stroke:#000;stroke-miterlimit:10;stroke-width:2px;}</style></defs><g id="Layer_2" data-name="Layer 2"><g id="Layer_1-2" data-name="Layer 1"><path class="cls-1" d="M80.4,58.68V76.25a3.67,3.67,0,0,1-.13,1h0a3.77,3.77,0,0,1-3.67,3H4.77A3.76,3.76,0,0,1,1.05,76.9,3,3,0,0,1,1,76.22V58.65a3.75,3.75,0,0,1,7.5,0V72.72H72.93V58.65A3.75,3.75,0,0,1,79.33,56,4,4,0,0,1,80.4,58.68Z"></path><path class="cls-1" d="M62.32,41.08,43.9,59.5s-.08.07-.1.1a4.26,4.26,0,0,1-2.42,1.22c-.08,0-.15,0-.23,0a2.27,2.27,0,0,1-.45,0h0l-.42,0c-.08,0-.15,0-.23,0a4.23,4.23,0,0,1-2.42-1.22l-.1-.1L19.1,41.08a4.38,4.38,0,0,1,6.2-6.2L36.38,46V5.38A4.4,4.4,0,0,1,40.75,1a4.49,4.49,0,0,1,3.1,1.27,4.34,4.34,0,0,1,1.28,3.11V46L56.2,34.88a4.39,4.39,0,0,1,6.2,0A4.48,4.48,0,0,1,62.32,41.08Z"></path></g></g></svg>