<svg xmlns="http://www.w3.org/2000/svg" viewBox="0 0 3437.21 1074.87"><g id="Layer_2" data-name="Layer 2"><g id="Layer_1-2" data-name="Layer 1"><path d="M0,274.85H153.87v800H0Z"></path><path d="M642.81,1074.87q-165.58,0-282.66-117.08T243.07,675.14q0-166.12,117.08-283.22T642.81,274.85q166.13,0,283.21,117.07T1043.1,675.14q0,120.42-66.35,220.21l134.92,179.52H919.33l-51.85-69.13Q766.58,1074.88,642.81,1074.87Zm0-646.15q-101.47,0-173.95,72.48Q397,573.11,397,675.14q0,101.48,71.91,173.94Q541.34,921,642.81,921q102,0,173.94-71.92,72.46-72.47,72.48-173.94,0-102-72.48-173.94Q744.83,428.72,642.81,428.72Z"></path><path d="M1831.3,821.2q0,104.84-74.15,179-74.72,74.72-179.52,74.71H1200.76v-800h376.87q92.53,0,157.78,65.23,65.22,65.79,65.22,157.77,0,78.06-48.5,138.82Q1831.29,711.94,1831.3,821.2ZM1354.63,567h223q28.44,0,49.06-20.07,20.07-20.07,20.07-49.06,0-28.44-20.07-49.06-20.62-20.07-49.06-20.07h-223Zm0,354h223q41.25,0,70.81-29.55,29-29,29-70.25t-29-70.8q-29.57-29.53-70.81-29.55h-223Z"></path><path d="M2576.13,1074.87H2407.76l-41.25-92.55H2040.92l-41.25,92.55H1831.3l372.41-835.15ZM2109.49,829h188.44l-94.22-211.3Z"></path><path d="M2819.2,1074.87H2665.33v-800h376.88q104.8,0,179.51,74.7,74.15,74.16,74.15,179,0,90.89-57.42,161.12-56.32,69.14-143.28,87.53l223.56,297.71H3126.39l-219.1-292.13H2819.2Zm0-446h223q41.25,0,70.8-29.54,29-29,29-70.81,0-41.25-29-70.24-29.57-29.55-70.8-29.55h-223Z"></path><polygon points="557.56 0 728.62 0 694.43 191.39 601.73 191.39 557.56 0"></polygon><polygon points="201.73 147.8 345.68 55.38 420.3 234.91 342.29 284.99 201.73 147.8"></polygon><polygon points="1084.45 147.8 940.5 55.38 865.88 234.91 943.89 284.99 1084.45 147.8"></polygon><path d="M3391.35,1074.85a45.86,45.86,0,1,1,45.86-45.86A45.88,45.88,0,0,1,3391.35,1074.85Zm0-84.14a38.28,38.28,0,1,0,38.28,38.28A38.08,38.08,0,0,0,3391.35,990.71Zm12.32,64.67L3390,1034.61h-8.43v20.77h-8v-52.56H3395c8.86,0,17.73,6.26,17.73,16,0,11.69-10.38,15.58-13.4,15.58l14.06,21Zm-8.64-45.86h-13.42v18.18H3395c4.54,0,9.51-3.47,9.51-8.88A9.4,9.4,0,0,0,3395,1009.52Z"></path></g></g></svg>
