<svg id="Layer_1" data-name="Layer 1" xmlns="http://www.w3.org/2000/svg" viewBox="0 0 1000 792.73"><defs><style>.cls-1{fill:#abd36e;}.cls-2{fill:#5c8039;}.cls-3{fill:#f8dc5c;}.cls-4{fill:#fae98e;}</style></defs><path class="cls-1" d="M500,73.93v715s-600.53-319.7-424.33-644C221.65-123.89,500,73.93,500,73.93Z"/><path class="cls-2" d="M500,788.94v-715s278.38-197.82,424.36,71C1100.51,469.24,500,788.94,500,788.94Z"/><rect class="cls-3" x="448.15" y="180.38" width="98.24" height="337.02" rx="2.05"/><rect class="cls-3" x="448.15" y="180.38" width="98.24" height="337.02" rx="2.05" transform="translate(148.38 846.16) rotate(-90)"/><polygon class="cls-4" points="720.78 268.03 708.38 239.68 769.55 201.33 790.47 249.14 720.78 268.03"/><polygon class="cls-4" points="734.2 367.92 734.66 336.98 806.22 327.43 805.44 379.61 734.2 367.92"/><polygon class="cls-4" points="704.92 464.56 718.19 436.6 787.25 457.62 764.88 504.77 704.92 464.56"/><polygon class="cls-4" points="273.76 268.03 286.16 239.68 224.99 201.33 204.08 249.14 273.76 268.03"/><polygon class="cls-4" points="260.34 367.92 259.88 336.98 188.32 327.43 189.1 379.61 260.34 367.92"/><polygon class="cls-4" points="289.62 464.56 276.35 436.6 207.29 457.62 229.66 504.77 289.62 464.56"/></svg>