<svg
                  xmlns="http://www.w3.org/2000/svg"
                  viewBox="0 0 433.69 89.08"
                >
                  <text
                    transform="translate(6.49 69.28)"
                    font-size="12.5"
                    fill="#65493B"
                    font-family="FuturaPTBold"
                    font-weight="700"
                  >
                    KE
                    <tspan x="17.11" y="0" letter-spacing="-0.01em">
                      T
                    </tspan>
                    <tspan x="24.61" y="0" letter-spacing="0em">
                      O
                    </tspan>
                  </text>
                  <circle
                    class="path-product-attr-circle"
                    cx="23.94"
                    cy="24.64"
                    r="22.7"
                    fill="#fff"
                    stroke="#65493B"
                    stroke-miterlimit="10"
                    stroke-width="2.49"
                  ></circle>
                  <path
                    d="M32.18,18.23c-.09-6.74-4.3-9.16-8.24-9.16s-8.15,2.42-8.24,9.16c-.95,1.22-6,8.22-3.32,14.93s9.51,7.05,10.54,7.05H24.8c.08,0,7.84.27,10.7-7.05C38.14,26.45,33.13,19.45,32.18,18.23Zm2.14,14.45c-2.55,6.44-9.18,6.23-9.48,6.23H23c-.07,0-6.9.24-9.44-6.23s3.25-13.75,3.25-13.82a.66.66,0,0,0,.14-.41c0-7.5,5.34-8.08,7-8.08s6.94.58,6.94,8.08a.61.61,0,0,0,.15.41C31.07,18.93,36.87,26.14,34.32,32.68ZM23.94,22.42a6.49,6.49,0,1,0,6.49,6.49A6.5,6.5,0,0,0,23.94,22.42Zm0,11.68a5.19,5.19,0,1,1,5.19-5.19A5.19,5.19,0,0,1,23.94,34.1Z"
                    fill="#65493B"
                    stroke="#65493B"
                    stroke-miterlimit="10"
                    stroke-width="0.76"
                  ></path>
                  <text
                    transform="translate(76.19 68.94)"
                    font-size="12.5"
                    fill="#65493B"
                    font-family="FuturaPTBold"
                    font-weight="700"
                  >
                    VE
                    <tspan x="17.06" y="0" letter-spacing="-0.01em">
                      G
                    </tspan>
                    <tspan x="26.66" y="0">
                      AN
                    </tspan>
                  </text>
                  <circle
                    class="path-product-attr-circle"
                    cx="98.74"
                    cy="24.33"
                    r="22.7"
                    fill="#fff"
                    stroke="#65493B"
                    stroke-miterlimit="10"
                    stroke-width="2.49"
                  ></circle>
                  <path
                    d="M97.08,39.62h0a11.17,11.17,0,0,1-8-3.94c-3.35-3.89-4.82-10.46-4.15-18.48a.6.6,0,0,1,.67-.58c4.51.26,9.46,2.89,12.91,6.86A16.28,16.28,0,0,1,102.8,35.4a.63.63,0,1,1-1.26-.1,15.11,15.11,0,0,0-4-11,18.55,18.55,0,0,0-11.4-6.38c-.51,7.3.9,13.44,3.89,16.93a10,10,0,0,0,7.13,3.5.63.63,0,0,1,.59.67A.62.62,0,0,1,97.08,39.62Z"
                    fill="#65493B"
                    stroke="#65493B"
                    stroke-miterlimit="10"
                    stroke-width="0.46"
                  ></path>
                  <path
                    d="M100.41,40.75a.63.63,0,0,1-.62-.5C98.26,33.45,91,24.6,87.86,21.61a.63.63,0,0,1,0-.89.62.62,0,0,1,.89,0C91.92,23.77,99.43,32.89,101,40a.63.63,0,0,1-.48.76Z"
                    fill="#65493B"
                    stroke="#65493B"
                    stroke-miterlimit="10"
                    stroke-width="0.46"
                  ></path>
                  <path
                    d="M102.23,34a.63.63,0,0,1-.13-1.25c9.55-2,9.61-15,9.29-19.91-5.52.6-11.27,4.83-13.86,10.26a.64.64,0,0,1-.85.3.62.62,0,0,1-.29-.84c2.87-6,9.41-10.67,15.54-11a.62.62,0,0,1,.67.58c1,12.14-2.81,20.33-10.24,21.88Z"
                    fill="#65493B"
                    stroke="#65493B"
                    stroke-miterlimit="10"
                    stroke-width="0.46"
                  ></path>
                  <path
                    d="M100.4,28.1a.65.65,0,0,1-.32-.09.62.62,0,0,1-.22-.86,61.18,61.18,0,0,1,8.92-11.57.63.63,0,0,1,.9,0,.62.62,0,0,1,0,.89A60.19,60.19,0,0,0,101,27.79.64.64,0,0,1,100.4,28.1Z"
                    fill="#65493B"
                    stroke="#65493B"
                    stroke-miterlimit="10"
                    stroke-width="0.46"
                  ></path>
                  <text
                    transform="translate(141.24 68.77)"
                    font-size="12.5"
                    fill="#65493B"
                    font-family="FuturaPTBold"
                    font-weight="700"
                  >
                    NON-GMO
                  </text>
                  <circle
                    class="path-product-attr-circle"
                    cx="173.76"
                    cy="24.16"
                    r="22.7"
                    fill="#fff"
                    stroke="#65493B"
                    stroke-miterlimit="10"
                    stroke-width="2.49"
                  ></circle>
                  <line
                    class="path-product-attr-line"
                    x1="158.13"
                    y1="39.79"
                    x2="189.4"
                    y2="8.53"
                    fill="none"
                    stroke="#65493B"
                    stroke-miterlimit="10"
                    stroke-width="2.49"
                  ></line>
                  <rect
                    x="166.68"
                    y="6.27"
                    width="14.16"
                    height="35.78"
                    fill="#fff"
                  ></rect>
                  <path
                    d="M180.6,7.89H166.93a.85.85,0,0,0,0,1.7h.92v25.6a5.92,5.92,0,0,0,11.83,0V9.59h.92a.85.85,0,0,0,0-1.7Zm-6.84,31.52a4.23,4.23,0,0,1-4.22-4.22V20.83H178V24.3h-3.11a.85.85,0,1,0,0,1.7H178v2.83h-3.11a.85.85,0,1,0,0,1.69H178v4.67A4.23,4.23,0,0,1,173.76,39.41ZM178,19.13h-8.44V9.59H178Z"
                    fill="#65493B"
                    stroke="#65493B"
                    stroke-miterlimit="10"
                    stroke-width="0.04"
                  ></path>
                  <circle
                    class="path-product-attr-circle"
                    cx="248.35"
                    cy="24.16"
                    r="22.7"
                    fill="#fff"
                    stroke="#65493B"
                    stroke-miterlimit="10"
                    stroke-width="2.49"
                  ></circle>
                  <text
                    transform="translate(222.85 68.77)"
                    font-size="12.5"
                    fill="#65493B"
                    font-family="FuturaPTBold"
                    font-weight="700"
                  >
                    G
                    <tspan x="9.66" y="0" letter-spacing="-0.04em">
                      L
                    </tspan>
                    <tspan x="16.74" y="0">
                      UTEN
                    </tspan>
                    <tspan x="9.41" y="15.28">
                      FREE
                    </tspan>
                  </text>
                  <line
                    class="path-product-attr-line"
                    x1="232.72"
                    y1="39.79"
                    x2="263.98"
                    y2="8.53"
                    fill="none"
                    stroke="#65493B"
                    stroke-miterlimit="10"
                    stroke-width="2.49"
                  ></line>
                  <rect
                    x="252.14"
                    y="16.66"
                    width="7.49"
                    height="3.47"
                    fill="#fff"
                  ></rect>
                  <rect
                    x="247.55"
                    y="-1.77"
                    width="2.45"
                    height="35.78"
                    transform="translate(212.35 262.74) rotate(-85.3)"
                    fill="#fff"
                  ></rect>
                  <rect
                    x="237.58"
                    y="18.37"
                    width="3.34"
                    height="24.96"
                    transform="translate(0.72 66.82) rotate(-15.92)"
                    fill="#fff"
                  ></rect>
                  <rect
                    x="239.69"
                    y="12.45"
                    width="14.99"
                    height="27.18"
                    fill="#fff"
                  ></rect>
                  <path
                    class="ignore-stroke"
                    d="M248.35,7.66a.86.86,0,0,0-.67.32,20.14,20.14,0,0,0-1.24,1.79,6.94,6.94,0,0,0-1.3,3.46,7,7,0,0,0,1.3,3.47,19.06,19.06,0,0,0,1.24,1.78.86.86,0,0,0,1.2.14.93.93,0,0,0,.14-.14,19.06,19.06,0,0,0,1.24-1.78,7,7,0,0,0,1.3-3.47,6.94,6.94,0,0,0-1.3-3.46A20.14,20.14,0,0,0,249,8,.86.86,0,0,0,248.35,7.66Zm0,2.36c.19.27.22.28.45.65a6.87,6.87,0,0,1,1,2.56,7,7,0,0,1-1,2.57c-.23.36-.26.38-.45.65-.19-.27-.22-.29-.45-.65a7,7,0,0,1-1.05-2.57,6.87,6.87,0,0,1,1.05-2.56C248.13,10.3,248.16,10.29,248.35,10Z"
                    fill="#65493B"
                    fill-rule="evenodd"
                  ></path>
                  <path
                    class="ignore-stroke"
                    d="M256.48,24.38h-.08a20.39,20.39,0,0,0-2.2.39,7.24,7.24,0,0,0-3.46,1.57,7.09,7.09,0,0,0-1.56,3.46,20,20,0,0,0-.39,2.19.85.85,0,0,0,.75.95,1,1,0,0,0,.34,0s1-.3,2.17-.79a9.5,9.5,0,0,0,3.36-2,7.61,7.61,0,0,0,1.43-2.89,17.89,17.89,0,0,0,.49-1.8.86.86,0,0,0-.66-1l-.19,0Zm-1.17,1.94a3.47,3.47,0,0,1-.1.37,7.9,7.9,0,0,1-1.06,2.25,9.69,9.69,0,0,1-2.76,1.6,6.09,6.09,0,0,1-.65.24,5.26,5.26,0,0,1,.11-.58A7.12,7.12,0,0,1,252,27.55a7.15,7.15,0,0,1,2.64-1.11,6.19,6.19,0,0,1,.71-.12Z"
                    fill="#65493B"
                    fill-rule="evenodd"
                  ></path>
                  <path
                    class="ignore-stroke"
                    d="M256.48,32.09h-.08a22.17,22.17,0,0,0-2.2.4,7.14,7.14,0,0,0-3.46,1.56,7.14,7.14,0,0,0-1.56,3.46,19.94,19.94,0,0,0-.39,2.2.85.85,0,0,0,.75.95,1,1,0,0,0,.34,0s1-.31,2.17-.79a9.67,9.67,0,0,0,3.36-2,7.64,7.64,0,0,0,1.43-2.88,18.45,18.45,0,0,0,.49-1.81.85.85,0,0,0-.66-1l-.19,0ZM255.31,34a3.47,3.47,0,0,1-.1.37,7.77,7.77,0,0,1-1.06,2.25,9.45,9.45,0,0,1-2.76,1.61c-.35.14-.36.13-.65.24a5.88,5.88,0,0,1,.11-.59A7.06,7.06,0,0,1,252,35.27a7,7,0,0,1,2.64-1.11c.38-.09.4-.07.71-.13Z"
                    fill="#65493B"
                    fill-rule="evenodd"
                  ></path>
                  <path
                    class="ignore-stroke"
                    d="M256.48,16.66h-.08a22.17,22.17,0,0,0-2.2.4,7.14,7.14,0,0,0-3.46,1.56,7.14,7.14,0,0,0-1.56,3.46,19.94,19.94,0,0,0-.39,2.2.85.85,0,0,0,.75.95,1,1,0,0,0,.34,0s1-.31,2.17-.79a9.67,9.67,0,0,0,3.36-2,7.64,7.64,0,0,0,1.43-2.88,18.45,18.45,0,0,0,.49-1.81.85.85,0,0,0-.66-1,.62.62,0,0,0-.19,0Zm-1.17,1.94a3.47,3.47,0,0,1-.1.37,7.77,7.77,0,0,1-1.06,2.25,9.68,9.68,0,0,1-2.76,1.61c-.35.14-.36.13-.65.24a5.88,5.88,0,0,1,.11-.59A7.06,7.06,0,0,1,252,19.84a7,7,0,0,1,2.64-1.11c.38-.09.4-.07.71-.13Z"
                    fill="#65493B"
                    fill-rule="evenodd"
                  ></path>
                  <path
                    class="ignore-stroke"
                    d="M240.22,24.37a.86.86,0,0,0-.87.85,1.11,1.11,0,0,0,0,.19,17.89,17.89,0,0,0,.49,1.8,7.61,7.61,0,0,0,1.43,2.89,9.67,9.67,0,0,0,3.36,2c1.17.48,2.17.78,2.17.78a.85.85,0,0,0,1.06-.57.66.66,0,0,0,0-.34,19.94,19.94,0,0,0-.39-2.2A7.14,7.14,0,0,0,246,26.34a7.14,7.14,0,0,0-3.46-1.56,19.15,19.15,0,0,0-2.2-.4h-.08Zm1.17,1.95a6.19,6.19,0,0,1,.71.12,7.15,7.15,0,0,1,2.64,1.11,7.12,7.12,0,0,1,1.11,2.65,5.26,5.26,0,0,1,.11.58c-.29-.11-.3-.09-.65-.24a9.69,9.69,0,0,1-2.76-1.6,7.9,7.9,0,0,1-1.06-2.25,3.47,3.47,0,0,1-.1-.37Z"
                    fill="#65493B"
                    fill-rule="evenodd"
                  ></path>
                  <path
                    class="ignore-stroke"
                    d="M240.22,32.09a.85.85,0,0,0-.87.85,1.23,1.23,0,0,0,0,.19s.17.82.49,1.8a7.68,7.68,0,0,0,1.43,2.89,9.5,9.5,0,0,0,3.36,2c1.17.49,2.17.79,2.17.79a.85.85,0,0,0,1.06-.57.7.7,0,0,0,0-.35,20,20,0,0,0-.39-2.19A7.09,7.09,0,0,0,246,34.06a7.15,7.15,0,0,0-3.46-1.57,20.39,20.39,0,0,0-2.2-.39h-.08ZM241.39,34c.31.06.33,0,.71.13a7,7,0,0,1,2.64,1.11,7.06,7.06,0,0,1,1.11,2.64,5.88,5.88,0,0,1,.11.59c-.29-.11-.3-.1-.65-.24a9.45,9.45,0,0,1-2.76-1.61,7.77,7.77,0,0,1-1.06-2.25,3.47,3.47,0,0,1-.1-.37Z"
                    fill="#65493B"
                    fill-rule="evenodd"
                  ></path>
                  <path
                    class="ignore-stroke"
                    d="M240.22,16.66a.85.85,0,0,0-.87.85,1.37,1.37,0,0,0,0,.19s.17.82.49,1.8a7.68,7.68,0,0,0,1.43,2.89,9.5,9.5,0,0,0,3.36,2c1.17.49,2.17.79,2.17.79a.85.85,0,0,0,1.06-.58.65.65,0,0,0,0-.34,20.39,20.39,0,0,0-.39-2.2A7.1,7.1,0,0,0,246,18.63a7.15,7.15,0,0,0-3.46-1.57,20.39,20.39,0,0,0-2.2-.39.11.11,0,0,0-.08,0Zm1.17,1.94c.31.06.33,0,.71.13a7,7,0,0,1,2.64,1.11,7,7,0,0,1,1.11,2.64c.08.32.06.32.11.58-.29-.1-.3-.09-.65-.23a9.68,9.68,0,0,1-2.76-1.61A7.77,7.77,0,0,1,241.49,19a3.47,3.47,0,0,1-.1-.37Z"
                    fill="#65493B"
                    fill-rule="evenodd"
                  ></path>
                  <circle
                    class="path-product-attr-circle"
                    cx="397.96"
                    cy="23.94"
                    r="22.7"
                    fill="#fff"
                    stroke="#65493B"
                    stroke-miterlimit="10"
                    stroke-width="2.49"
                  ></circle>
                  <text
                    transform="translate(363.15 68.54)"
                    font-size="12.5"
                    fill="#65493B"
                    font-family="FuturaPTBold"
                    font-weight="700"
                  >
                    NO{' '}
                    <tspan x="23.84" y="0" letter-spacing="0.01em">
                      S
                    </tspan>
                    <tspan x="32.4" y="0" letter-spacing="0em">
                      U
                    </tspan>
                    <tspan x="42" y="0" letter-spacing="-0.01em">
                      G
                    </tspan>
                    <tspan x="51.6" y="0">
                      AR
                    </tspan>
                    <tspan letter-spacing="-0.02em">
                      <tspan x="-0.92" y="15.28">
                        A
                      </tspan>
                      <tspan x="8.12" y="15.28" letter-spacing="-0.04em">
                        L
                      </tspan>
                      <tspan x="15.2" y="15.28" letter-spacing="0em">
                        COHOLS
                      </tspan>
                    </tspan>
                  </text>
                  <line
                    class="path-product-attr-line"
                    x1="382.33"
                    y1="39.57"
                    x2="413.59"
                    y2="8.31"
                    fill="none"
                    stroke="#65493B"
                    stroke-miterlimit="10"
                    stroke-width="2.49"
                  ></line>
                  <rect
                    x="404.84"
                    y="9.22"
                    width="2.39"
                    height="13.35"
                    fill="#fff"
                  ></rect>
                  <rect
                    x="381.04"
                    y="20.18"
                    width="28.54"
                    height="13.35"
                    transform="translate(106.49 298.1) rotate(-47.09)"
                    fill="#fff"
                  ></rect>
                  <path
                    class="ignore-stroke"
                    d="M409.76,19.78H399.44A3.44,3.44,0,0,0,396,23.22V33.55A3.44,3.44,0,0,0,399.44,37h10.32a3.45,3.45,0,0,0,3.45-3.44V23.22A3.45,3.45,0,0,0,409.76,19.78Zm1.15,13.77a1.15,1.15,0,0,1-1.15,1.15H399.44a1.16,1.16,0,0,1-1.15-1.15V23.22a1.15,1.15,0,0,1,1.15-1.14h10.32a1.14,1.14,0,0,1,1.15,1.14Z"
                    fill="#65493B"
                    stroke="#65493B"
                    stroke-miterlimit="10"
                    stroke-width="0.45"
                  ></path>
                  <path
                    class="ignore-stroke"
                    d="M404,14.26v4.58h2.29V14.26a3.45,3.45,0,0,0-3.44-3.45H393.7a3.45,3.45,0,0,0-3.44,3.45V20h2.29V14.26a1.16,1.16,0,0,1,1.15-1.15h9.18A1.15,1.15,0,0,1,404,14.26Z"
                    fill="#65493B"
                    stroke="#65493B"
                    stroke-miterlimit="10"
                    stroke-width="0.45"
                  ></path>
                  <path
                    class="ignore-stroke"
                    d="M384.51,24.37v9.18A3.44,3.44,0,0,0,388,37h6.89V34.7H388a1.16,1.16,0,0,1-1.15-1.15V24.37A1.16,1.16,0,0,1,388,23.22h6.89V20.93H388A3.44,3.44,0,0,0,384.51,24.37Z"
                    fill="#65493B"
                    stroke="#65493B"
                    stroke-miterlimit="10"
                    stroke-width="0.45"
                  ></path>
                  <rect
                    class="sugar-box"
                    x="389.1"
                    y="25.52"
                    width="2.29"
                    height="2.29"
                    fill="#000"
                    stroke="#65493B"
                    stroke-miterlimit="10"
                    stroke-width="0.23"
                  ></rect>
                  <rect
                    class="sugar-box"
                    x="392.54"
                    y="28.96"
                    width="2.29"
                    height="2.29"
                    fill="#000"
                    stroke="#65493B"
                    stroke-miterlimit="10"
                    stroke-width="0.23"
                  ></rect>
                  <rect
                    class="sugar-box"
                    x="394.85"
                    y="17.7"
                    width="2.29"
                    height="2.29"
                    fill="#000"
                    stroke="#65493B"
                    stroke-miterlimit="10"
                    stroke-width="0.23"
                  ></rect>
                  <rect
                    class="sugar-box"
                    x="399.44"
                    y="15.4"
                    width="2.29"
                    height="2.29"
                    fill="#000"
                    stroke="#65493B"
                    stroke-miterlimit="10"
                    stroke-width="0.23"
                  ></rect>
                  <rect
                    class="sugar-box"
                    x="400.59"
                    y="24.37"
                    width="2.29"
                    height="2.29"
                    fill="#000"
                    stroke="#65493B"
                    stroke-miterlimit="10"
                    stroke-width="0.23"
                  ></rect>
                  <rect
                    class="sugar-box"
                    x="404.03"
                    y="28.96"
                    width="2.29"
                    height="2.29"
                    fill="#000"
                    stroke="#65493B"
                    stroke-miterlimit="10"
                    stroke-width="0.23"
                  ></rect>

                  <circle
                    class="path-product-attr-circle"
                    cx="323.15"
                    cy="24.25"
                    r="22.7"
                    fill="#fff"
                    stroke="#65493B"
                    stroke-miterlimit="10"
                    stroke-width="2.49"
                  ></circle>
                  <text
                    transform="translate(302.17 68.86)"
                    font-size="12.5"
                    fill="#65493B"
                    font-family="FuturaPTBold"
                    font-weight="700"
                  >
                    <tspan letter-spacing="-0.05em">D</tspan>
                    <tspan x="8.96" y="0" letter-spacing="-0.01em">
                      A
                    </tspan>
                    <tspan x="18.14" y="0">
                      I
                    </tspan>
                    <tspan x="24.6" y="0" letter-spacing="-0.04em">
                      R
                    </tspan>
                    <tspan x="32.92" y="0">
                      Y
                    </tspan>
                    <tspan x="4.88" y="15.28">
                      FREE
                    </tspan>
                  </text>
                  <line
                    class="path-product-attr-line"
                    x1="307.52"
                    y1="39.88"
                    x2="338.78"
                    y2="8.62"
                    fill="none"
                    stroke="#333"
                    stroke-miterlimit="10"
                    stroke-width="2.49"
                  ></line>
                  <rect
                    x="312.99"
                    y="10.86"
                    width="19.78"
                    height="24.96"
                    transform="translate(11.78 112.84) rotate(-20.18)"
                    fill="#fff"
                  ></rect>
                  <rect
                    x="313.69"
                    y="27.88"
                    width="3.18"
                    height="9.41"
                    fill="#fff"
                  ></rect>
                  <path
                    d="M327.71,11.61l3.55,9.65,0,.24V39.36a1.83,1.83,0,0,1-.6,1.36,2.05,2.05,0,0,1-1.38.54H317a2,2,0,0,1-1.39-.54,1.83,1.83,0,0,1-.6-1.36V21.51l.05-.24,3.54-9.65,1.33.48-3.5,9.54V39.38a.44.44,0,0,0,.15.32.61.61,0,0,0,.43.16h12.32a.59.59,0,0,0,.42-.16.41.41,0,0,0,.15-.32V21.63l-3.51-9.53,1.33-.49Z"
                    fill="#65493B"
                    stroke="#65493B"
                    stroke-miterlimit="10"
                    stroke-width="0.34"
                  ></path>
                  <path
                    d="M318,7.24h10.36a1.63,1.63,0,0,1,1.29.67,2.17,2.17,0,0,1,.46,1.37v.89a2.26,2.26,0,0,1-.46,1.37,1.63,1.63,0,0,1-1.29.67H318a1.66,1.66,0,0,1-1.3-.67,2.25,2.25,0,0,1-.45-1.37V9.28a2.29,2.29,0,0,1,.45-1.37,1.68,1.68,0,0,1,1.3-.67Zm10.36,1.42H318a.27.27,0,0,0-.18.12.86.86,0,0,0-.15.51v.89a.85.85,0,0,0,.15.5.24.24,0,0,0,.18.12h10.36a.24.24,0,0,0,.18-.12.82.82,0,0,0,.14-.5V9.29a.88.88,0,0,0-.14-.51.27.27,0,0,0-.18-.12Z"
                    fill="#65493B"
                    stroke="#65493B"
                    stroke-miterlimit="10"
                    stroke-width="0.34"
                  ></path>
                  <path
                    d="M319.25,23.55h7.8a.71.71,0,0,1,.71.71V35.6a.71.71,0,0,1-.71.72h-7.8a.71.71,0,0,1-.71-.72V24.26a.71.71,0,0,1,.71-.71ZM326.34,25H320v9.93h6.38Z"
                    fill="#65493B"
                    stroke="#65493B"
                    stroke-miterlimit="10"
                    stroke-width="0.34"
                  ></path>
                </svg>