<svg xmlns="http://www.w3.org/2000/svg" width="50" height="40" viewBox="0 0 50 40">
  <g fill="#9B9B9B" fill-rule="evenodd">
    <path d="M44.913 11.005H23.47c-2.605 0-4.595 2.043-4.595 4.717v12.58c0 2.515 1.99 4.717 4.595 4.717h15.318l6.126 6.288V33.02c2.605 0 4.596-2.202 4.596-4.717v-12.58c0-2.67-1.99-4.717-4.596-4.717z"/>
    <path d="M26.53 0H5.088C2.482 0 .49 2.043.49 4.717v12.58c0 2.514 1.99 4.717 4.596 4.717v6.288l6.126-6.288h4.596v-6.289c0-4.401 3.369-7.862 7.66-7.862h7.66V4.717C31.127 2.043 29.136 0 26.531 0z"/>
  </g>
</svg>
