<svg xmlns="http://www.w3.org/2000/svg" width="44" height="34" viewBox="0 0 44 34">
  <g fill="#9B9B9B" fill-rule="evenodd">
    <path d="M43.677 10.87L36.865.488H7.135L.323 10.868c0 2.32 1.981 4.275 4.336 4.275 2.353 0 4.337-1.832 4.337-4.275 0 2.32 1.98 4.275 4.336 4.275 2.353 0 4.336-1.832 4.336-4.275 0 2.32 1.982 4.275 4.337 4.275 2.353 0 4.336-1.832 4.336-4.275 0 2.32 1.981 4.275 4.337 4.275 2.352 0 4.336-1.832 4.336-4.275 0 2.32 1.981 4.275 4.336 4.275 2.346 0 4.327-1.832 4.327-4.273zM39.343 20.03c-1.363 0-2.601-.245-3.716-.733v9.28H8.373v-9.28c-1.115.488-2.353.733-3.716.733-.372 0-.866 0-1.238-.122v13.554h37.16l.002-13.556c-.372.123-.866.123-1.238.123z"/>
  </g>
</svg>
