<svg width="100pt" height="100pt" version="1.1" viewBox="0 0 100 100" xmlns="http://www.w3.org/2000/svg">
 <g>
  <path d="m22 39.23c0.0625-10.332 4.2188-20.215 11.559-27.484 7.3398-7.2656 17.266-11.328 27.594-11.285 10.332 0.039062 20.223 4.1758 27.504 11.504 7.2852 7.3242 11.363 17.242 11.344 27.57-0.019531 10.332-4.1367 20.23-11.449 27.527s-17.219 11.398-27.551 11.398c-10.371-0.046876-20.297-4.1992-27.609-11.555-7.3086-7.3555-11.406-17.309-11.391-27.676zm15.441 0c0.058594 6.2422 2.5859 12.207 7.0352 16.586 4.4492 4.3789 10.453 6.8125 16.695 6.7734 6.2422-0.039063 12.215-2.5547 16.605-6.9922 4.3906-4.4336 6.8438-10.43 6.8203-16.672-0.023437-6.2422-2.5195-12.223-6.9414-16.625-4.4258-4.4062-10.414-6.875-16.656-6.8711-6.2812 0.03125-12.297 2.5547-16.719 7.0195-4.4258 4.4609-6.8945 10.496-6.8711 16.781z"></path>
  <path d="m0 89.07 33.289-33.148 10.895 10.941-33.289 33.148z"></path>
 </g>
</svg>
